<?xml version="1.0" encoding="utf-8"?>
<!-- Generator: Adobe Illustrator 16.0.0, SVG Export Plug-In . SVG Version: 6.00 Build 0)  -->
<!DOCTYPE svg PUBLIC "-//W3C//DTD SVG 1.1//EN" "http://www.w3.org/Graphics/SVG/1.1/DTD/svg11.dtd">
<svg version="1.1" id="webpage_x5F_cover" xmlns="http://www.w3.org/2000/svg" xmlns:xlink="http://www.w3.org/1999/xlink" x="0px"
	 y="0px" width="1920px" height="1080px" viewBox="0 0 1920 1080" enable-background="new 0 0 1920 1080" xml:space="preserve">
<rect id="background" x="-0.602" fill="#FFFFFF" stroke="#000000" stroke-miterlimit="10" width="1920" height="1080"/>
<g id="symbols">
	<g>
		<path fill="#E6E6E6" d="M1316.523,586.188c4.336,2.058,7.521,3.977,9.557,5.753c2.033,1.778,3.673,3.995,4.922,6.654
			c2.492,5.316,2.397,10.807-0.29,16.467c-2.743,5.78-6.966,9.385-12.66,10.814c-1.365,0.384-2.688,0.605-3.968,0.664
			c-1.282,0.055-2.625-0.068-4.033-0.367c-1.407-0.3-2.953-0.774-4.637-1.425c-1.683-0.653-3.608-1.491-5.776-2.521l-19.694-9.348
			c-2.289-1.087-4.173-2.018-5.648-2.792c-1.479-0.777-2.743-1.451-3.8-2.024c-1.053-0.577-1.948-1.185-2.676-1.823
			c-0.729-0.645-1.431-1.345-2.102-2.104c-5.062-5.503-6.656-12.093-4.787-19.763c0.223-0.781,0.432-1.456,0.63-2.025
			c0.195-0.571,0.464-1.291,0.806-2.165c0.338-0.87,0.795-1.907,1.368-3.114c0.628-1.323,1.457-3.07,2.486-5.238l46.828-98.65
			c1.2-2.529,2.2-4.562,3.006-6.1c0.802-1.536,1.477-2.804,2.025-3.799c0.544-0.994,1.109-1.798,1.694-2.405
			c0.584-0.609,1.285-1.307,2.104-2.101c4.155-3.784,8.979-5.551,14.474-5.306c1.312,0.035,2.446,0.13,3.405,0.288
			c0.956,0.16,2.035,0.45,3.239,0.873c1.199,0.424,2.688,1.021,4.464,1.787c1.773,0.769,4.108,1.839,6.999,3.212l12.287,5.832
			c2.89,1.372,5.177,2.458,6.865,3.259c1.686,0.8,3.025,1.474,4.022,2.02c0.992,0.547,1.763,1.023,2.311,1.429
			c0.543,0.406,1.149,0.843,1.816,1.305c3.642,3.206,5.952,6.887,6.936,11.041c0.978,4.155,0.525,8.22-1.361,12.194
			c-2.802,5.903-7.142,9.6-13.013,11.091c-2.551,0.709-5.159,0.838-7.821,0.384c-2.663-0.452-5.802-1.537-9.415-3.252l-9.757-4.631
			l-38.938,82.028L1316.523,586.188z"/>
	</g>
	<path fill="#E6E6E6" d="M965.115,283.176c4.268,0,7.768,0.436,10.5,1.301c2.734,0.869,5.234,2.301,7.5,4.301
		c2.268,2.133,4.068,4.668,5.398,7.6c1.332,2.934,2,5.869,2,8.799c0,3.069-0.633,6.101-1.898,9.101s-2.967,5.435-5.102,7.3
		c-2.266,2.134-4.73,3.6-7.398,4.4c-2.666,0.8-6.332,1.2-11,1.2h-82.602c-2.8,0-5.2-0.066-7.2-0.2c-2-0.131-3.731-0.4-5.2-0.8
		c-1.465-0.4-2.831-0.966-4.1-1.7c-1.266-0.731-2.5-1.7-3.7-2.9c-4.8-4.131-7.2-9.531-7.2-16.2c0-6.666,2.334-12.13,7-16.4
		c2.535-2.266,5.2-3.801,8-4.6c2.801-0.801,6.935-1.201,12.4-1.201H965.115z"/>
	<g>
		<path fill="#E6E6E6" d="M410.716,288.116l-41.518-80.752l-9.605,4.939c-3.558,1.829-6.659,3.013-9.308,3.549
			c-2.646,0.538-5.256,0.492-7.828-0.136c-5.917-1.305-10.371-4.862-13.358-10.673c-2.012-3.913-2.592-7.961-1.747-12.146
			c0.85-4.183,3.043-7.935,6.582-11.255c0.651-0.482,1.243-0.938,1.773-1.362c0.534-0.422,1.29-0.922,2.264-1.5
			c0.979-0.578,2.297-1.294,3.956-2.147c1.663-0.854,3.914-2.012,6.76-3.475l12.096-6.219c2.845-1.463,5.145-2.607,6.893-3.432
			c1.752-0.823,3.221-1.467,4.407-1.929c1.189-0.46,2.259-0.785,3.208-0.975c0.955-0.189,2.085-0.319,3.396-0.396
			c5.483-0.419,10.361,1.195,14.633,4.845c0.845,0.767,1.568,1.443,2.17,2.033c0.605,0.588,1.196,1.374,1.771,2.351
			c0.58,0.977,1.294,2.223,2.145,3.732c0.854,1.511,1.917,3.512,3.198,6.001l49.932,97.117c1.097,2.134,1.981,3.854,2.651,5.157
			c0.61,1.187,1.101,2.209,1.466,3.069c0.368,0.862,0.66,1.572,0.873,2.138c0.217,0.563,0.447,1.231,0.694,2.004
			c2.111,7.607,0.727,14.244-4.16,19.905c-0.646,0.781-1.324,1.503-2.033,2.169c-0.706,0.662-1.582,1.297-2.617,1.908
			c-1.037,0.606-2.279,1.32-3.732,2.145c-1.451,0.819-3.304,1.81-5.557,2.969l-19.388,9.969c-2.134,1.097-4.033,1.997-5.693,2.703
			c-1.664,0.704-3.193,1.227-4.59,1.572c-1.398,0.343-2.736,0.508-4.019,0.493c-1.281-0.017-2.61-0.196-3.986-0.537
			c-5.737-1.249-10.072-4.717-12.999-10.408c-2.865-5.572-3.133-11.057-0.811-16.45c1.164-2.697,2.732-4.963,4.709-6.806
			c1.978-1.84,5.1-3.859,9.369-6.055L410.716,288.116z"/>
	</g>
	<g>
		<path fill="#E6E6E6" d="M662.567,198.432c-3.701,3.726-6.91,6.511-9.627,8.355c-2.717,1.841-5.878,3.465-9.481,4.866
			c-6.338,2.463-12.795,3.612-19.365,3.451c-6.574-0.161-12.77-1.473-18.588-3.933c-5.821-2.458-10.992-5.92-15.517-10.384
			c-4.524-4.464-7.994-9.801-10.41-16.017c-0.917-2.359-1.621-4.627-2.106-6.799c-0.489-2.17-0.67-4.387-0.548-6.653
			c0.119-2.263,0.477-4.655,1.073-7.177c0.593-2.517,1.463-5.43,2.611-8.739c-2.263-1.407-4.188-2.771-5.773-4.086
			c-1.584-1.315-2.989-2.627-4.214-3.941c-1.227-1.31-2.264-2.694-3.117-4.153c-0.854-1.455-1.616-3.053-2.293-4.795
			c-2.125-5.467-2.962-11.113-2.509-16.942c0.452-5.825,1.986-11.357,4.601-16.594c2.612-5.233,6.169-9.979,10.668-14.232
			c4.497-4.249,9.73-7.537,15.695-9.856c5.342-2.077,10.968-3.153,16.875-3.233c5.905-0.076,11.474,0.727,16.708,2.41
			c5.232,1.688,9.871,4.14,13.912,7.36c4.042,3.223,6.908,7.007,8.599,11.356c1.015,2.61,1.451,5.303,1.314,8.072
			c-0.139,2.773-0.789,5.423-1.953,7.948c-1.164,2.527-2.764,4.759-4.801,6.694c-2.036,1.938-4.424,3.437-7.156,4.499
			c-3.979,1.546-7.584,2.019-10.822,1.417c-3.237-0.6-6.934-2.381-11.09-5.345c-1.229-0.951-2.271-1.512-3.122-1.684
			c-0.854-0.167-1.777-0.06-2.77,0.326c-1.491,0.58-2.561,1.605-3.206,3.07c-0.646,1.468-0.679,2.946-0.1,4.438
			c0.58,1.491,1.4,2.497,2.459,3.014c1.06,0.52,2.963,0.816,5.711,0.892c3.515,0.209,6.279,1.066,8.294,2.569
			c2.014,1.507,3.724,4.061,5.125,7.664c2.126,5.47,1.477,9.87-1.949,13.203l-5.624,5.405c-0.774,0.589-1.217,1.475-1.326,2.661
			c-0.11,1.19,0.101,2.466,0.631,3.832c0.58,1.491,1.614,2.591,3.106,3.299c1.489,0.708,2.982,0.771,4.473,0.192
			c2.983-1.159,5.039-3.96,6.173-8.408l3.523-14.673c0.545-2.643,2.125-5.295,4.739-7.958c2.614-2.659,5.347-4.546,8.208-5.658
			c2.61-1.015,5.394-1.486,8.352-1.422c2.957,0.067,5.737,0.596,8.341,1.585c2.602,0.994,4.927,2.376,6.979,4.154
			c2.049,1.778,3.535,3.849,4.452,6.208c1.208,3.108,1.635,7.519,1.282,13.235c3.596,1.895,6.301,3.703,8.118,5.428
			c1.815,1.729,3.23,3.894,4.245,6.503c1.063,2.735,1.506,5.53,1.329,8.389c-0.176,2.858-0.834,5.582-1.974,8.17
			c-1.14,2.588-2.78,4.906-4.915,6.953c-2.139,2.044-4.575,3.602-7.307,4.664c-2.237,0.87-4.485,1.348-6.736,1.438
			C669.513,199.557,666.444,199.211,662.567,198.432z"/>
		<path fill="#E6E6E6" d="M776.651,154.085c-3.701,3.726-6.91,6.512-9.627,8.355c-2.718,1.841-5.878,3.465-9.481,4.866
			c-6.337,2.464-12.794,3.613-19.365,3.451c-6.573-0.161-12.77-1.474-18.587-3.933c-5.821-2.458-10.992-5.92-15.517-10.384
			c-4.525-4.464-7.994-9.801-10.41-16.016c-0.917-2.359-1.622-4.627-2.106-6.799c-0.489-2.171-0.67-4.387-0.548-6.653
			c0.119-2.263,0.477-4.655,1.073-7.177c0.593-2.518,1.463-5.43,2.611-8.74c-2.264-1.407-4.188-2.771-5.773-4.086
			s-2.989-2.627-4.214-3.941c-1.226-1.31-2.264-2.694-3.116-4.153c-0.854-1.455-1.616-3.053-2.293-4.795
			c-2.125-5.467-2.962-11.113-2.509-16.942c0.452-5.825,1.986-11.357,4.601-16.595c2.612-5.233,6.169-9.979,10.668-14.232
			c4.497-4.249,9.73-7.538,15.695-9.856c5.342-2.077,10.968-3.154,16.875-3.234c5.905-0.076,11.475,0.727,16.709,2.41
			c5.232,1.688,9.87,4.14,13.911,7.36c4.043,3.223,6.909,7.007,8.599,11.356c1.015,2.61,1.451,5.303,1.314,8.073
			c-0.139,2.773-0.789,5.423-1.954,7.948c-1.163,2.527-2.763,4.758-4.801,6.694c-2.036,1.938-4.424,3.437-7.156,4.499
			c-3.979,1.547-7.584,2.02-10.822,1.417c-3.237-0.599-6.934-2.381-11.09-5.345c-1.229-0.951-2.271-1.511-3.123-1.683
			c-0.853-0.167-1.776-0.06-2.77,0.326c-1.492,0.58-2.561,1.605-3.206,3.069c-0.646,1.468-0.679,2.946-0.1,4.438
			c0.58,1.491,1.4,2.497,2.459,3.014c1.06,0.52,2.963,0.816,5.711,0.892c3.515,0.209,6.279,1.066,8.294,2.569
			c2.014,1.507,3.724,4.061,5.125,7.664c2.126,5.47,1.477,9.87-1.948,13.203l-5.624,5.405c-0.774,0.589-1.217,1.476-1.326,2.662
			c-0.111,1.189,0.1,2.465,0.631,3.831c0.58,1.492,1.614,2.591,3.106,3.299c1.489,0.708,2.982,0.772,4.473,0.192
			c2.983-1.16,5.039-3.96,6.173-8.408l3.523-14.673c0.545-2.643,2.125-5.295,4.739-7.957c2.614-2.659,5.347-4.546,8.208-5.658
			c2.609-1.015,5.394-1.486,8.352-1.423c2.957,0.068,5.737,0.596,8.341,1.586c2.602,0.993,4.927,2.376,6.979,4.153
			c2.049,1.778,3.535,3.85,4.452,6.209c1.208,3.108,1.635,7.519,1.282,13.235c3.596,1.894,6.301,3.703,8.118,5.428
			c1.815,1.728,3.23,3.894,4.245,6.503c1.063,2.735,1.506,5.53,1.33,8.389c-0.176,2.858-0.834,5.581-1.974,8.17
			c-1.139,2.589-2.78,4.906-4.915,6.953c-2.139,2.045-4.575,3.602-7.307,4.664c-2.237,0.87-4.485,1.348-6.736,1.438
			C783.597,155.211,780.528,154.865,776.651,154.085z"/>
	</g>
	<g>
		<path fill="#E6E6E6" d="M966.875,648.383c-1.645,3.939-3.394,7.002-5.245,9.188c-1.855,2.188-4.139,3.944-6.858,5.264
			c-2.844,1.271-5.876,1.956-9.094,2.056c-3.221,0.097-6.187-0.416-8.892-1.546c-2.832-1.182-5.384-2.936-7.665-5.26
			c-2.28-2.324-3.872-4.831-4.772-7.519c-1.096-2.913-1.498-5.754-1.208-8.524c0.289-2.769,1.332-6.306,3.131-10.613l31.827-76.222
			c1.079-2.584,2.065-4.773,2.96-6.567c0.892-1.795,1.806-3.289,2.741-4.49c0.934-1.198,1.982-2.241,3.148-3.128
			c1.162-0.886,2.532-1.651,4.102-2.298c5.662-2.836,11.569-2.971,17.725-0.4c6.15,2.568,10.294,6.828,12.436,12.778
			c1.114,3.211,1.503,6.262,1.163,9.155c-0.342,2.891-1.565,6.859-3.672,11.904L966.875,648.383z"/>
		<path fill="#E6E6E6" d="M1046.789,681.752c-1.646,3.938-3.396,7.001-5.246,9.188c-1.856,2.188-4.141,3.944-6.859,5.264
			c-2.842,1.272-5.875,1.956-9.094,2.056c-3.219,0.097-6.187-0.416-8.89-1.545c-2.833-1.184-5.386-2.937-7.667-5.261
			c-2.28-2.324-3.871-4.83-4.77-7.519c-1.098-2.913-1.499-5.754-1.209-8.524c0.288-2.769,1.332-6.306,3.131-10.612l31.827-76.222
			c1.079-2.585,2.064-4.774,2.959-6.568c0.892-1.795,1.808-3.288,2.741-4.489c0.934-1.199,1.982-2.241,3.148-3.128
			c1.162-0.887,2.531-1.652,4.104-2.298c5.66-2.837,11.568-2.971,17.722-0.401c6.151,2.568,10.295,6.827,12.437,12.778
			c1.115,3.212,1.504,6.263,1.162,9.154c-0.34,2.893-1.562,6.861-3.67,11.906L1046.789,681.752z"/>
	</g>
	<g>
		<path fill="#E6E6E6" d="M1009.929,91.924c3.065,2,5.431,4.5,7.1,7.5c1.666,3,2.5,6.234,2.5,9.7c0,2.669-0.568,5.2-1.7,7.6
			c-1.134,2.4-2.6,4.5-4.399,6.3c-1.8,1.8-3.935,3.269-6.4,4.4c-2.469,1.134-4.969,1.7-7.5,1.7c-2.534,0-4.969-0.531-7.3-1.6
			c-2.334-1.066-4.4-2.432-6.2-4.1c-1.8-1.666-3.269-3.6-4.399-5.8c-1.135-2.2-1.7-4.5-1.7-6.9c0-4.8,1.731-10.465,5.2-17l4.199-8
			c2.531-4.666,4.801-7.965,6.801-9.9c2-1.931,4.331-2.9,7-2.9c2.665,0,4.965,0.834,6.899,2.5c1.932,1.668,2.9,3.634,2.9,5.9
			c0,2-0.734,4.8-2.2,8.4c-0.135,0.269-0.234,0.6-0.3,1C1010.359,91.124,1010.194,91.524,1009.929,91.924z M1058.729,91.924
			c3.065,2,5.432,4.5,7.1,7.5c1.666,3,2.5,6.234,2.5,9.7c0,2.669-0.568,5.2-1.699,7.6c-1.135,2.4-2.635,4.5-4.5,6.3
			c-1.869,1.8-4,3.269-6.4,4.4c-2.4,1.134-4.935,1.7-7.6,1.7c-2.4,0-4.77-0.531-7.101-1.6c-2.334-1.066-4.399-2.432-6.2-4.1
			c-1.8-1.666-3.269-3.6-4.399-5.8c-1.135-2.2-1.7-4.5-1.7-6.9c0-4.8,1.731-10.465,5.2-17l4.2-8c2.399-4.666,4.631-7.965,6.699-9.9
			c2.066-1.931,4.432-2.9,7.101-2.9c2.665,0,4.966,0.834,6.899,2.5c1.932,1.668,2.9,3.634,2.9,5.9c0,2-0.734,4.8-2.2,8.4
			c-0.134,0.269-0.234,0.6-0.3,1C1059.16,91.124,1058.994,91.524,1058.729,91.924z"/>
	</g>
	<g>
		<path fill="#E6E6E6" d="M1785.684,595.645c-3.068-2-5.435-4.5-7.1-7.5c-1.669-3-2.5-6.231-2.5-9.7c0-2.531,0.565-5.031,1.7-7.5
			c1.131-2.466,2.6-4.601,4.399-6.399c1.8-1.801,3.9-3.266,6.3-4.4c2.4-1.131,4.932-1.7,7.601-1.7c2.531,0,4.966,0.534,7.3,1.601
			c2.331,1.068,4.4,2.434,6.2,4.1c1.8,1.668,3.266,3.6,4.399,5.8c1.132,2.2,1.7,4.5,1.7,6.899c0,2.27-0.435,4.869-1.3,7.801
			c-0.869,2.934-2.169,6-3.9,9.199l-4.199,7.801c-2.535,4.8-4.801,8.168-6.801,10.1c-2,1.935-4.334,2.9-7,2.9
			c-2.668,0-4.969-0.865-6.899-2.6c-1.935-1.732-2.9-3.732-2.9-6c0-2,0.731-4.801,2.2-8.4c0.131-0.266,0.231-0.566,0.3-0.9
			C1785.249,596.413,1785.415,596.045,1785.684,595.645z M1834.483,595.645c-3.068-2-5.434-4.5-7.1-7.5c-1.669-3-2.5-6.231-2.5-9.7
			c0-2.531,0.565-5.031,1.7-7.5c1.131-2.466,2.6-4.601,4.399-6.399c1.801-1.801,3.9-3.266,6.301-4.4c2.399-1.131,4.931-1.7,7.6-1.7
			c2.531,0,4.966,0.534,7.3,1.601c2.331,1.068,4.4,2.434,6.2,4.1c1.8,1.668,3.266,3.6,4.4,5.8c1.131,2.2,1.699,4.5,1.699,6.899
			c0,2.27-0.469,4.869-1.399,7.801c-0.935,2.934-2.269,6-4,9.199l-4,7.801c-2.534,4.8-4.8,8.168-6.8,10.1c-2,1.935-4.335,2.9-7,2.9
			c-2.669,0-5-0.865-7-2.6c-2-1.732-3-3.732-3-6c0-0.932,0.23-2.132,0.699-3.601c0.466-1.466,1.031-3.065,1.7-4.8
			c0.132-0.266,0.231-0.566,0.3-0.9C1834.05,596.413,1834.215,596.045,1834.483,595.645z"/>
	</g>
	<g>
		<path fill="#E6E6E6" d="M1365.771,69.524c4.8-8.266,11.331-12.4,19.6-12.4c5.866,0,10.731,2,14.601,6c3.865,4,5.8,9.068,5.8,15.2
			c0,3.469-1.601,7.869-4.8,13.2l-65.2,110.2c-1.869,3.066-3.601,5.666-5.2,7.8c-1.6,2.131-3.269,3.831-5,5.1
			c-1.734,1.266-3.534,2.166-5.4,2.7c-1.868,0.531-4,0.8-6.399,0.8c-5.734,0-10.469-1.969-14.2-5.9c-3.734-3.934-5.6-8.831-5.6-14.7
			c0-4.266,1.131-8.266,3.399-12L1365.771,69.524z"/>
	</g>
	<g>
		<path fill="#E6E6E6" d="M1695.486,997.17c2.269,3.734,3.399,7.734,3.399,12c0,5.868-1.865,10.766-5.6,14.699
			c-3.731,3.932-8.466,5.9-14.2,5.9c-2.399,0-4.531-0.27-6.399-0.801c-1.866-0.533-3.666-1.434-5.4-2.699
			c-1.731-1.27-3.4-2.969-5-5.1c-1.6-2.135-3.331-4.734-5.2-7.801l-65.2-110.2c-3.199-5.331-4.8-9.73-4.8-13.199
			c0-6.132,1.935-11.2,5.8-15.2c3.869-4,8.734-6,14.601-6c8.269,0,14.8,4.134,19.6,12.399L1695.486,997.17z"/>
	</g>
	<g>
		<path fill="#E6E6E6" d="M1683.978,87.013c-1.47-2.383-2.414-4.932-2.831-7.653c-0.417-2.717-0.333-5.393,0.247-8.023
			c0.583-2.628,1.676-5.064,3.283-7.311c1.605-2.242,3.664-4.139,6.174-5.687c2.395-1.476,5.002-2.416,7.819-2.824
			c2.819-0.405,5.517-0.306,8.092,0.298c2.577,0.607,5.032,1.713,7.365,3.33c2.333,1.616,4.236,3.614,5.706,5.998
			c1.47,2.383,2.383,4.956,2.743,7.707c0.362,2.753,0.25,5.448-0.332,8.076c-0.581,2.631-1.704,5.085-3.368,7.363
			c-1.663,2.281-3.693,4.157-6.088,5.633c-2.51,1.547-5.127,2.537-7.854,2.962c-2.727,0.43-5.395,0.312-8.006-0.351
			c-2.609-0.66-5.038-1.787-7.28-3.382C1687.407,91.558,1685.518,89.511,1683.978,87.013z M1715.782,138.596
			c-3.079-4.993-3.958-10.247-2.637-15.762c1.322-5.514,4.491-9.817,9.51-12.912c2.395-1.476,4.983-2.445,7.767-2.91
			c2.784-0.461,5.482-0.362,8.092,0.298c2.611,0.663,5.069,1.772,7.365,3.33c2.298,1.56,4.185,3.529,5.654,5.912
			c1.54,2.498,2.487,5.126,2.848,7.878c0.362,2.753,0.25,5.448-0.332,8.076c-0.581,2.631-1.704,5.085-3.368,7.363
			c-1.664,2.278-3.693,4.157-6.088,5.633c-2.51,1.548-5.129,2.535-7.854,2.963c-2.728,0.43-5.395,0.312-8.006-0.351
			c-2.609-0.66-5.038-1.787-7.28-3.382C1719.212,143.141,1717.322,141.094,1715.782,138.596z"/>
	</g>
	<g>
		<path fill="#E6E6E6" d="M1095.64,805.021c1.016-2.609,2.478-4.9,4.394-6.875c1.911-1.973,4.119-3.511,6.624-4.61
			c2.5-1.101,5.126-1.688,7.875-1.764c2.745-0.076,5.487,0.418,8.223,1.482c2.608,1.016,4.918,2.525,6.932,4.522
			c2.011,2.001,3.547,4.208,4.611,6.623c1.061,2.419,1.649,5.042,1.764,7.876c0.111,2.834-0.339,5.557-1.354,8.165
			c-1.015,2.609-2.513,4.891-4.485,6.839c-1.977,1.95-4.185,3.488-6.624,4.611c-2.442,1.125-5.065,1.713-7.875,1.764
			c-2.812,0.053-5.521-0.432-8.13-1.447c-2.734-1.064-5.09-2.551-7.062-4.465c-1.975-1.913-3.513-4.121-4.61-6.623
			c-1.103-2.502-1.689-5.129-1.764-7.877C1094.079,810.496,1094.575,807.755,1095.64,805.021z M1075.477,881.087
			c-2.071-4.24-3.217-7.724-3.44-10.46c-0.223-2.732,0.293-5.714,1.551-8.946c2.177-5.592,5.865-9.555,11.068-11.896
			c5.202-2.338,10.6-2.421,16.191-0.245c2.609,1.016,4.888,2.513,6.838,4.487c1.948,1.975,3.474,4.215,4.576,6.717
			c1.099,2.502,1.675,5.157,1.727,7.969c0.051,2.81-0.456,5.583-1.52,8.314c-0.532,1.369-1.367,2.868-2.501,4.499
			c-1.139,1.634-2.48,3.149-4.025,4.551l-12.812,11.967c-6.14,5.479-11.818,7.204-17.036,5.173c-2.86-1.113-5.014-3.024-6.461-5.734
			c-1.449-2.71-1.689-5.308-0.723-7.792c0.483-1.243,1.219-2.495,2.212-3.753C1072.111,884.676,1073.563,883.059,1075.477,881.087z"
			/>
	</g>
	<g>
		<path fill="#E6E6E6" d="M1491.594,289.991c-0.57,5.036-0.36,10.293,0.63,15.771c0.99,5.48,2.645,10.433,4.962,14.852
			c1.201,2.419,2.705,4.835,4.513,7.254c1.807,2.418,4.265,5.281,7.383,8.585c3.714,3.911,6.21,7.379,7.477,10.406
			c1.267,3.03,1.685,6.465,1.25,10.306c-0.315,2.782-1.185,5.401-2.602,7.857c-1.42,2.456-3.233,4.565-5.445,6.327
			c-2.212,1.763-4.675,3.06-7.386,3.895c-2.71,0.832-5.457,1.093-8.238,0.778c-5.168-0.584-10.621-3.315-16.353-8.19
			c-5.731-4.875-10.94-11.403-15.625-19.581c-11.969-20.542-16.73-41.611-14.287-63.208c1.575-13.911,5.924-26.97,13.049-39.182
			c7.124-12.207,16.284-22.31,27.476-30.302c9.592-6.831,17.636-9.881,24.127-9.146c2.914,0.33,5.633,1.21,8.157,2.634
			c2.521,1.427,4.664,3.246,6.427,5.458c1.762,2.212,3.089,4.711,3.982,7.496c0.892,2.786,1.173,5.636,0.843,8.549
			c-0.449,3.975-1.87,7.638-4.263,10.991c-0.473,0.62-0.865,1.109-1.173,1.477c-0.311,0.367-0.868,0.842-1.671,1.421
			c-0.805,0.582-2.006,1.418-3.604,2.51c-1.602,1.096-3.787,2.625-6.558,4.592c-6.371,4.11-11.587,9.592-15.649,16.444
			C1494.95,274.84,1492.478,282.175,1491.594,289.991z"/>
	</g>
	<g>
		<path fill="#E6E6E6" d="M694.316,409.767c-6.368-4.785-13.281-7.864-20.739-9.233c-3.311-0.761-5.915-1.342-7.813-1.743
			c-1.894-0.401-3.323-0.716-4.289-0.946c-0.963-0.23-1.659-0.456-2.086-0.676c-0.426-0.222-0.975-0.526-1.648-0.919
			c-3.49-2.186-6.201-5.031-8.133-8.534c-1.416-2.566-2.243-5.308-2.481-8.224c-0.235-2.915,0.038-5.731,0.824-8.448
			c0.785-2.717,2.073-5.216,3.859-7.496c1.79-2.279,3.968-4.13,6.535-5.546c5.721-3.155,14.32-3.404,25.792-0.749
			c13.394,3.12,25.714,8.966,36.956,17.533c11.243,8.57,20.244,18.984,27.005,31.244c10.496,19.032,14.13,40.325,10.9,63.877
			c-1.211,9.348-3.537,17.368-6.975,24.062c-3.439,6.692-7.439,11.296-11.992,13.807c-2.452,1.353-5.091,2.159-7.914,2.424
			c-2.824,0.262-5.595,0.002-8.312-0.784s-5.198-2.043-7.447-3.772c-2.247-1.73-4.049-3.82-5.402-6.272
			c-1.867-3.385-2.791-6.719-2.776-10.003c0.017-3.282,1-7.439,2.943-12.472c1.622-4.242,2.803-7.827,3.55-10.75
			c0.749-2.926,1.217-5.732,1.405-8.426c0.457-4.97,0.096-10.178-1.078-15.623c-1.173-5.44-2.984-10.38-5.432-14.818
			C705.771,420.391,700.688,414.553,694.316,409.767z"/>
	</g>
	<g>
		<path fill="#E6E6E6" d="M445.366,557.396c0.41-1.552,1.145-3.021,2.207-4.414c1.06-1.392,2.288-2.652,3.683-3.785
			c1.391-1.131,2.874-2.019,4.45-2.662c1.571-0.641,3.137-0.969,4.701-0.98l10.695-0.227c2.697-0.028,4.474-1.237,5.324-3.625
			c0.491-1.381,0.379-2.764-0.328-4.15c-0.71-1.384-1.756-2.324-3.137-2.815c-1.76-0.626-3.921-0.12-6.483,1.515
			c-3.811,2.749-7.238,4.43-10.286,5.043c-3.051,0.612-6.522,0.227-10.416-1.159c-2.764-0.983-5.179-2.444-7.249-4.385
			c-2.07-1.938-3.705-4.111-4.897-6.52c-1.197-2.406-1.894-5.025-2.088-7.854c-0.197-2.829,0.176-5.563,1.114-8.2
			c1.609-4.523,4.3-8.411,8.08-11.667c3.775-3.254,8.202-5.748,13.277-7.481c5.073-1.73,10.52-2.625,16.342-2.675
			c5.82-0.051,11.558,0.929,17.21,2.941c6.407,2.28,11.928,5.555,16.566,9.823c4.636,4.27,8.269,9.172,10.9,14.705
			c2.628,5.537,4.091,11.471,4.385,17.802c0.293,6.333-0.721,12.765-3.045,19.296c-4.337,12.185-11.936,20.801-22.789,25.855
			c-5.281,2.509-10.782,3.947-16.502,4.316c-5.725,0.371-11.16-0.363-16.309-2.195C446.829,578.933,441.693,570.101,445.366,557.396
			z M430.074,597.384c0.938-2.639,2.321-4.939,4.155-6.907c1.831-1.965,3.971-3.503,6.419-4.615c2.445-1.109,5.041-1.74,7.787-1.898
			c2.742-0.154,5.437,0.236,8.074,1.175c2.638,0.939,4.97,2.337,7,4.19c2.026,1.855,3.628,4.018,4.804,6.486
			c1.171,2.47,1.847,5.045,2.026,7.727c0.176,2.684-0.202,5.342-1.141,7.979c-0.984,2.765-2.404,5.162-4.257,7.189
			c-1.857,2.029-4.019,3.631-6.486,4.803c-2.471,1.174-5.079,1.839-7.821,1.993c-2.745,0.154-5.436-0.236-8.073-1.175
			c-5.653-2.012-9.653-5.591-11.992-10.743C428.225,608.438,428.062,603.036,430.074,597.384z"/>
	</g>
	<g>
		<path fill="#E6E6E6" d="M603.634,989.14c0-5.866,2.009-10.8,6.028-14.8c4.019-4,8.975-6,14.872-6c2.812,0,5.525,0.534,8.137,1.6
			c2.613,1.068,4.856,2.568,6.731,4.5c1.875,1.935,3.384,4.169,4.522,6.7c1.137,2.534,1.709,5.2,1.709,8
			c0,2.935-0.572,5.669-1.709,8.2c-1.138,2.534-2.647,4.769-4.522,6.699c-1.875,1.936-4.119,3.436-6.731,4.5
			c-2.612,1.066-5.325,1.601-8.137,1.601c-2.95,0-5.697-0.534-8.241-1.601c-2.547-1.064-4.756-2.564-6.631-4.5
			c-1.875-1.931-3.35-4.165-4.422-6.699C604.168,994.809,603.634,992.074,603.634,989.14z"/>
	</g>
	<g>
		<path fill="#E6E6E6" d="M749.548,690.734c4.179,0.863,7.519,1.997,10.02,3.397c2.502,1.403,4.661,3.312,6.476,5.728
			c1.79,2.548,3.041,5.395,3.75,8.534c0.711,3.143,0.772,6.152,0.18,9.021c-0.62,3.006-1.853,5.847-3.699,8.529
			c-1.846,2.682-4.004,4.723-6.472,6.117c-2.65,1.633-5.36,2.569-8.135,2.814c-2.772,0.244-6.443-0.105-11.015-1.05l-80.896-16.698
			c-2.742-0.566-5.08-1.115-7.011-1.65c-1.932-0.534-3.573-1.146-4.931-1.836c-1.354-0.688-2.578-1.518-3.672-2.493
			c-1.092-0.972-2.104-2.17-3.038-3.588c-3.866-5.017-5.124-10.79-3.776-17.321c1.348-6.527,4.738-11.408,10.171-14.646
			c2.94-1.707,5.86-2.672,8.765-2.888c2.904-0.219,7.034,0.226,12.387,1.33L749.548,690.734z"/>
		<path fill="#E6E6E6" d="M737.375,749.706c4.179,0.862,7.519,1.996,10.02,3.396c2.502,1.403,4.661,3.312,6.476,5.728
			c1.79,2.548,3.041,5.395,3.75,8.534c0.711,3.143,0.772,6.152,0.18,9.022c-0.62,3.005-1.853,5.846-3.699,8.528
			c-1.846,2.682-4.004,4.724-6.472,6.118c-2.65,1.632-5.36,2.569-8.135,2.813c-2.772,0.244-6.444-0.104-11.015-1.049L647.584,776.1
			c-2.742-0.566-5.079-1.116-7.011-1.652c-1.932-0.533-3.573-1.145-4.931-1.834c-1.354-0.688-2.578-1.519-3.672-2.494
			c-1.092-0.972-2.104-2.17-3.038-3.588c-3.866-5.016-5.125-10.789-3.776-17.321c1.348-6.528,4.738-11.408,10.171-14.646
			c2.94-1.706,5.86-2.671,8.765-2.887c2.904-0.219,7.034,0.226,12.387,1.33L737.375,749.706z"/>
	</g>
	<path fill="#E6E6E6" d="M201.215,135.027c-0.177-3.214-0.937-6.23-2.276-9.04c-1.387-2.685-3.198-4.926-5.431-6.727
		c-2.233-1.797-5.337-3.471-9.314-5.018l-18.92-7.358l5.659-14.551c1.981-5.094,3.107-9.092,3.375-11.992
		c0.271-2.899-0.194-5.94-1.387-9.123c-2.288-5.896-6.535-10.052-12.748-12.469c-6.215-2.417-12.118-2.138-17.708,0.838
		c-1.554,0.683-2.905,1.482-4.044,2.397c-1.144,0.916-2.167,1.983-3.071,3.205c-0.904,1.224-1.783,2.739-2.63,4.556
		c-0.851,1.815-1.782,4.028-2.796,6.638l-5.659,14.551l-17.056-6.633c-5.094-1.981-9.092-3.106-11.992-3.375
		c-2.899-0.27-5.939,0.194-9.124,1.387c-5.895,2.288-10.052,6.535-12.468,12.748c-2.417,6.215-2.138,12.118,0.838,17.708
		c0.683,1.555,1.482,2.905,2.397,4.044c0.916,1.144,1.984,2.167,3.205,3.071c1.224,0.904,2.74,1.783,4.557,2.63
		c1.815,0.851,4.028,1.782,6.638,2.797l17.056,6.633l-8.333,21.424c-1.692,4.351-2.648,7.912-2.869,10.687
		c-0.222,2.776,0.251,5.605,1.419,8.49c0.965,2.666,2.616,5.133,4.953,7.4c2.337,2.267,4.933,3.956,7.794,5.068
		c2.73,1.062,5.708,1.503,8.926,1.325c3.214-0.177,6.229-0.937,9.04-2.276c2.685-1.387,4.925-3.198,6.727-5.431
		c1.797-2.233,3.472-5.337,5.019-9.314l8.332-21.424l18.92,7.359c4.351,1.692,7.912,2.648,10.687,2.869
		c2.776,0.222,5.605-0.251,8.49-1.419c2.666-0.965,5.133-2.616,7.4-4.954c2.267-2.337,3.956-4.933,5.068-7.794
		C200.952,141.222,201.394,138.244,201.215,135.027z"/>
	<g>
		<path fill="#E6E6E6" d="M1421.291,785.847c3.99-1.512,7.418-2.345,10.279-2.504c2.865-0.156,5.71,0.297,8.537,1.364
			c2.876,1.191,5.459,2.924,7.741,5.194c2.285,2.271,3.949,4.779,4.988,7.52c1.087,2.87,1.569,5.93,1.448,9.184
			c-0.12,3.254-0.849,6.133-2.184,8.634c-1.362,2.798-3.147,5.043-5.359,6.735c-2.21,1.693-5.496,3.366-9.861,5.021l-77.243,29.267
			c-2.618,0.992-4.886,1.78-6.804,2.363c-1.917,0.586-3.631,0.948-5.146,1.095c-1.512,0.145-2.99,0.1-4.437-0.138
			c-1.442-0.235-2.939-0.703-4.487-1.4c-5.952-2.162-10.11-6.362-12.473-12.599c-2.362-6.233-2.115-12.171,0.734-17.816
			c1.568-3.017,3.517-5.396,5.852-7.136c2.336-1.741,6.06-3.58,11.171-5.517L1421.291,785.847z"/>
		<g>
			<path fill="#E6E6E6" d="M1351.932,781.45c-2.078-5.484-1.948-10.811,0.393-15.975c2.342-5.165,6.267-8.791,11.781-10.881
				c2.631-0.996,5.355-1.458,8.177-1.387c2.821,0.074,5.451,0.682,7.889,1.823c2.438,1.145,4.642,2.699,6.603,4.663
				c1.962,1.967,3.441,4.257,4.434,6.875c1.04,2.744,1.474,5.504,1.307,8.274c-0.166,2.772-0.786,5.396-1.855,7.867
				c-1.068,2.473-2.635,4.67-4.699,6.593c-2.066,1.923-4.413,3.383-7.043,4.379c-2.759,1.046-5.516,1.52-8.273,1.425
				c-2.76-0.095-5.356-0.715-7.795-1.858c-2.438-1.143-4.608-2.709-6.509-4.699C1354.439,786.562,1352.972,784.194,1351.932,781.45z
				"/>
		</g>
		<g>
			<path fill="#E6E6E6" d="M1387.778,876.06c-2.078-5.485-1.948-10.811,0.393-15.975c2.342-5.165,6.267-8.791,11.781-10.881
				c2.631-0.996,5.355-1.457,8.177-1.387c2.821,0.073,5.45,0.681,7.889,1.823c2.438,1.145,4.642,2.699,6.603,4.663
				c1.962,1.967,3.441,4.257,4.434,6.875c1.04,2.744,1.474,5.504,1.307,8.274c-0.166,2.772-0.786,5.397-1.855,7.867
				c-1.067,2.474-2.634,4.671-4.699,6.593c-2.066,1.923-4.413,3.383-7.043,4.38c-2.759,1.045-5.516,1.519-8.273,1.423
				c-2.759-0.093-5.356-0.713-7.796-1.858c-2.438-1.142-4.607-2.708-6.508-4.698C1390.286,881.172,1388.818,878.804,1387.778,876.06
				z"/>
		</g>
	</g>
	<g>
		<g>
			<path fill="#E6E6E6" d="M1787.174,265.034c6.672-6.845,14.014-9.261,22.033-7.244c5.688,1.431,9.918,4.558,12.695,9.38
				c2.771,4.822,3.412,10.209,1.916,16.155c-0.846,3.364-3.471,7.241-7.875,11.631l-90.113,90.964
				c-2.561,2.517-4.875,4.617-6.947,6.295c-2.07,1.677-4.104,2.919-6.093,3.727c-1.99,0.805-3.956,1.238-5.896,1.301
				c-1.941,0.06-4.074-0.2-6.4-0.786c-5.562-1.399-9.673-4.463-12.332-9.186c-2.662-4.727-3.277-9.931-1.845-15.622
				c1.041-4.137,3.113-7.74,6.224-10.809L1787.174,265.034z"/>
		</g>
		<g>
			<path fill="#E6E6E6" d="M1689.565,281.901c0-5.866,2.009-10.8,6.027-14.8c4.02-4,8.975-6,14.872-6c2.812,0,5.524,0.534,8.138,1.6
				c2.612,1.069,4.855,2.569,6.73,4.5c1.875,1.935,3.385,4.169,4.522,6.7c1.138,2.534,1.71,5.2,1.71,8c0,2.935-0.572,5.669-1.71,8.2
				c-1.138,2.534-2.647,4.769-4.522,6.7c-1.875,1.935-4.118,3.435-6.73,4.5c-2.613,1.066-5.325,1.6-8.138,1.6
				c-2.95,0-5.696-0.534-8.241-1.6c-2.547-1.065-4.756-2.565-6.631-4.5c-1.875-1.931-3.35-4.166-4.422-6.7
				C1690.099,287.57,1689.565,284.836,1689.565,281.901z"/>
		</g>
		<g>
			<path fill="#E6E6E6" d="M1778.604,372.252c0-5.866,2.009-10.8,6.027-14.8c4.02-4,8.975-6,14.872-6c2.812,0,5.524,0.534,8.138,1.6
				c2.612,1.069,4.855,2.569,6.73,4.5c1.875,1.935,3.385,4.169,4.522,6.7c1.138,2.534,1.71,5.2,1.71,8c0,2.935-0.572,5.669-1.71,8.2
				c-1.138,2.534-2.647,4.769-4.522,6.7c-1.875,1.935-4.118,3.435-6.73,4.5c-2.613,1.066-5.325,1.6-8.138,1.6
				c-2.95,0-5.696-0.534-8.241-1.6c-2.547-1.065-4.756-2.565-6.631-4.5c-1.875-1.931-3.35-4.166-4.422-6.7
				C1779.138,377.921,1778.604,375.187,1778.604,372.252z"/>
		</g>
	</g>
	<g>
		<path fill="#E6E6E6" d="M194.671,667.902c-2.563-0.593-5.118-1.211-7.663-1.88c-1.289-0.336-5.645-1.919-0.006,0.348
			c-1.354-0.544-2.623-1.373-3.871-2.117c4.917,2.932,1.74,1.224,0.436-0.061c0.686,0.832,1.372,1.663,2.058,2.495
			c-1.21-1.998-0.975-1.322,0.708,2.029c-1.743-4.022,0.419,5.47,0.025,0.985c-0.493-5.606-0.87,6.203-0.138,1.627
			c1.06-6.633,3.005-13.25,4.501-19.794c4.761-20.82-3.873-41.831-22.157-52.891c-3.224,14.1-6.449,28.201-9.673,42.301
			c21.205-2.007,38.167-17.123,42.918-37.899c1.372-5.997,2.685-12.013,4.139-17.993c0.311-1.277,0.683-2.539,1.049-3.803
			c-0.425,1.068-0.851,2.14-1.277,3.208c-2.521,3.319-3.001,4.013-1.44,2.08c2.898-3.522-4.287,2.794-0.365,0.446
			c-0.919,0.441-1.838,0.882-2.758,1.322c2.273-0.635,1.768-0.629-1.516,0.017c1.598-0.266,3.253-0.28,4.868-0.306
			c-5.602,0.088-1.324-0.021,0.243,0.262c3.123,0.564,6.218,1.292,9.312,1.994c11.961,2.715,24.212-4.947,26.95-16.918
			c2.73-11.941-4.957-24.234-16.918-26.949c-7.598-1.725-15.276-3.455-23.12-3.332c-10.499,0.164-19.766,4.152-27.612,10.887
			c-8.631,7.406-10.751,18.63-13.159,29.159c-0.754,3.299-1.509,6.597-2.263,9.896c-0.288,1.257-0.613,2.494-0.993,3.729
			c1.917-6.228,0.946-2.692,0.041-1.038c-2.133,3.896,3.493-4.309,0.76-1.053c-0.675,0.803-1.457,1.51-2.232,2.213
			c5.092-4.61,2.887-2.371,1.317-1.354c-0.748,0.484-1.546,0.892-2.339,1.296c6.559-3.348,4.023-1.822,2.286-1.177
			c-1.161,0.433-2.363,0.749-3.57,1.021c-2.875,0.645,7.182-1.005,3.69-0.674c-22.467,2.126-28.982,30.621-9.673,42.3
			c1.638,0.991,3.942,2.902-3.399-2.491c0.93,0.684,1.791,1.456,2.63,2.247c0.546,0.515,1.053,1.07,1.558,1.625
			c-4.994-5.488-2.668-3.325-1.556-1.755c0.543,0.767,1.002,1.588,1.459,2.406c-3.296-5.914-1.483-3.371-0.817-1.496
			c0.574,1.616,1.016,5.458-0.035-1.425c0.183,1.199,0.182,2.418,0.182,3.626c-0.003-6.742,0.187-2.074-0.289,0.008
			c-0.755,3.302-1.51,6.604-2.265,9.907c-2.431,10.63-5.401,21.815-0.83,32.365c4.125,9.519,10.333,16.063,19.233,21.369
			c6.455,3.849,14.277,5.426,21.539,7.105c11.95,2.764,24.221-4.985,26.949-16.919C214.329,682.873,206.621,670.666,194.671,667.902
			L194.671,667.902z"/>
	</g>
	<g>
		<path fill="#E6E6E6" d="M881.893,1016.069c2.432-1.008,4.849-2.038,7.249-3.116c1.216-0.545,5.251-2.824,0.063,0.342
			c1.245-0.76,2.36-1.787,3.469-2.727c-4.367,3.702-1.515,1.493-0.439,0.012c-0.54,0.935-1.079,1.867-1.618,2.8
			c0.864-2.17,0.743-1.464-0.364,2.118c1.056-4.254,0.487,5.465,0.137,0.977c-0.437-5.611,1.88,5.976,0.404,1.582
			c-2.138-6.367-5.147-12.574-7.701-18.782c-8.126-19.751-3.071-41.897,13.141-55.817c5.503,13.376,11.006,26.753,16.51,40.129
			c-21.247,1.514-40.467-10.601-48.576-30.311c-2.341-5.689-4.627-11.406-7.047-17.065c-0.517-1.209-1.092-2.392-1.661-3.578
			c0.596,0.984,1.192,1.971,1.788,2.954c3.033,2.857,3.621,3.463,1.763,1.814c-3.438-2.997,4.689,2.049,0.435,0.38
			c0.979,0.283,1.958,0.567,2.938,0.851c-2.346-0.252-1.847-0.33,1.499-0.234c-1.621,0.001-3.255,0.26-4.852,0.501
			c5.54-0.837,1.302-0.24-0.196,0.298c-2.987,1.071-5.92,2.299-8.856,3.502c-11.35,4.647-24.696-0.891-29.368-12.247
			c-4.661-11.329,0.896-24.72,12.247-29.369c7.21-2.952,14.498-5.924,22.255-7.095c10.383-1.568,20.18,0.838,29.029,6.188
			c9.732,5.884,13.673,16.604,17.782,26.593c1.288,3.13,2.575,6.259,3.862,9.388c0.491,1.192,1.015,2.359,1.593,3.516
			c-2.917-5.827-1.377-2.501-0.211-1.018c2.747,3.492-4.155-3.675-0.922-0.913c0.798,0.681,1.685,1.249,2.566,1.814
			c-5.782-3.708-3.239-1.863-1.522-1.118c0.818,0.354,1.671,0.624,2.52,0.893c-7.02-2.223-4.268-1.135-2.449-0.784
			c1.216,0.235,2.455,0.35,3.69,0.418c2.941,0.162-7.249,0.192-3.75-0.057c22.51-1.604,33.631,25.428,16.51,40.129
			c-1.452,1.247-3.411,3.512,2.942-3.018c-0.805,0.828-1.527,1.73-2.225,2.649c-0.455,0.598-0.862,1.229-1.269,1.859
			c4.022-6.236,2.084-3.72,1.245-1.987c-0.409,0.846-0.726,1.731-1.043,2.614c2.277-6.376,0.908-3.57,0.561-1.61
			c-0.3,1.688-0.104,5.55-0.201-1.411c0.017,1.213,0.219,2.415,0.417,3.606c-1.108-6.65-0.526-2.016,0.286-0.04
			c1.289,3.133,2.578,6.265,3.867,9.398c4.148,10.084,8.922,20.628,6.15,31.787c-2.5,10.067-7.545,17.546-15.45,24.246
			c-5.733,4.858-13.188,7.703-20.074,10.557c-11.332,4.694-24.711-0.927-29.369-12.247
			C864.97,1034.074,870.562,1020.764,881.893,1016.069L881.893,1016.069z"/>
	</g>
	<g>
		<path fill="#E6E6E6" d="M1525.086,587.814c0-7.2,2.031-13,6.1-17.399c4.065-4.4,9.432-6.601,16.1-6.601
			c3.6,0,7.031,0.835,10.301,2.5c3.266,1.669,5.899,3.969,7.899,6.899c2.399,3.335,3.601,8.269,3.601,14.8v42.201
			c0,7.334-1.936,13.168-5.801,17.5c-3.869,4.334-9.135,6.5-15.8,6.5c-3.469,0-6.8-0.732-10-2.201c-3.2-1.465-5.868-3.465-8-6
			c-2.8-3.6-4.2-8.799-4.2-15.6L1525.086,587.814z M1526.485,678.215c0-2.801,0.531-5.432,1.601-7.9
			c1.064-2.465,2.564-4.666,4.5-6.6c1.931-1.932,4.165-3.432,6.699-4.5c2.531-1.066,5.2-1.601,8-1.601
			c5.865,0,10.801,2,14.801,6.001c4,4,6,8.934,6,14.799c0,6-1.969,10.969-5.9,14.9c-3.935,3.934-8.834,5.9-14.7,5.9
			c-2.8,0-5.5-0.568-8.101-1.701c-2.6-1.131-4.834-2.631-6.699-4.5c-1.869-1.865-3.369-4.1-4.5-6.699
			C1527.051,683.715,1526.485,681.014,1526.485,678.215z"/>
	</g>
	<path fill="#E6E6E6" d="M198.485,921.409c-1.362-0.341-2.814-0.432-4.358-0.268c-1.544,0.166-3.204,0.625-4.978,1.379
		c-1.774,0.756-3.801,1.756-6.083,2.997l-4.521,2.538l-10.508-18.722l7.956-4.48c2.773-1.516,4.932-3.608,6.478-6.278
		c2.127-3.673,2.735-7.414,1.824-11.23c-0.909-3.813-3.16-6.762-6.748-8.841c-1.501-0.87-2.933-1.476-4.295-1.819
		c-1.362-0.341-2.814-0.432-4.358-0.268c-1.544,0.166-3.204,0.625-4.978,1.379c-1.775,0.756-3.801,1.756-6.083,2.997l-4.423,2.483
		l-3.443-6.134c-2.177-3.935-4.35-6.531-6.521-7.79c-3.838-2.222-7.711-2.849-11.615-1.88c-3.907,0.972-6.922,3.291-9.049,6.962
		c-2.997,5.176-2.777,10.763,0.656,16.763l3.81,6.764l-18.616,10.451l-3.388-6.035c-2.177-3.935-4.351-6.532-6.521-7.79
		c-3.837-2.222-7.711-2.85-11.616-1.88c-3.906,0.971-6.921,3.291-9.048,6.962c-2.997,5.175-2.777,10.763,0.656,16.763l3.755,6.667
		l-5.39,3.025c-3.936,2.177-6.532,4.351-7.79,6.521c-2.223,3.839-2.85,7.712-1.881,11.616c0.972,3.906,3.291,6.922,6.963,9.048
		c5.175,2.998,10.761,2.778,16.762-0.655l6.061-3.413l10.477,18.601l-5.358,3.008c-3.935,2.178-6.532,4.351-7.79,6.521
		c-2.223,3.838-2.849,7.711-1.881,11.615c0.972,3.906,3.292,6.922,6.963,9.049c5.175,2.997,10.761,2.777,16.762-0.655l6.03-3.396
		l4.118,7.312c1.515,2.773,3.608,4.932,6.278,6.478c3.673,2.127,7.414,2.735,11.23,1.824c3.813-0.91,6.762-3.159,8.841-6.747
		c0.869-1.503,1.475-2.934,1.819-4.296c0.341-1.361,0.431-2.814,0.268-4.359c-0.166-1.543-0.625-3.203-1.379-4.978
		c-0.755-1.774-1.755-3.801-2.996-6.082l-2.143-3.816l18.707-10.538l4.101,7.28c1.515,2.773,3.608,4.932,6.277,6.478
		c3.673,2.128,7.414,2.735,11.23,1.825c3.814-0.91,6.762-3.16,8.841-6.748c0.87-1.502,1.475-2.934,1.82-4.295
		c0.341-1.362,0.431-2.814,0.267-4.358c-0.166-1.545-0.625-3.205-1.379-4.979c-0.756-1.774-1.755-3.801-2.997-6.082l-2.125-3.785
		l8.054-4.537c2.773-1.514,4.932-3.607,6.479-6.277c2.127-3.673,2.735-7.413,1.824-11.229c-0.909-3.814-3.16-6.762-6.748-8.842
		C201.279,922.358,199.848,921.754,198.485,921.409z M133.765,953.191l-10.471-18.654l18.64-10.5l10.515,18.667L133.765,953.191z"/>
	<g>
		<path fill="#E6E6E6" d="M1794.705,799.857c1.465-0.932,2.699-1.566,3.699-1.9c1-0.331,1.966-0.5,2.9-0.5
			c2.8,0,5.231,1.068,7.3,3.2c2.065,2.134,3.101,4.6,3.101,7.399c0,2.27-0.435,4.069-1.301,5.4c-0.868,1.334-2.568,2.8-5.1,4.4
			l-5.6,3.6l5.399,3.2c2.666,1.469,4.466,2.899,5.4,4.3c0.931,1.4,1.399,3.234,1.399,5.5c0,2.935-1,5.435-3,7.5
			c-2,2.068-4.334,3.1-7,3.1c-2.399,0-4.8-0.665-7.199-2l-5.4-3.199v6c0,8.134-3.4,12.199-10.2,12.199c-3.469,0-6.134-1.065-8-3.199
			c-1.868-2.132-2.8-5.132-2.8-9v-6l-6.2,3.199c-2.269,1.335-4.334,2-6.2,2c-3.068,0-5.6-1.031-7.6-3.1c-2-2.065-3-4.631-3-7.7
			c0-3.865,2.131-7.065,6.4-9.6l5.6-3.2l-5.6-3.2c-4-2.399-6-5.665-6-9.8c0-2.666,0.965-5.065,2.899-7.2
			c1.932-2.131,4.231-3.2,6.9-3.2c2.131,0,4.466,0.734,7,2.2l5.8,3v-5.8c0-3.865,0.932-6.9,2.8-9.1c1.866-2.2,4.331-3.301,7.4-3.301
			c3.331,0,5.966,1.101,7.899,3.301c1.932,2.199,2.9,5.1,2.9,8.699v5.801L1794.705,799.857z"/>
	</g>
	<g>
		<path fill="#E6E6E6" d="M138.726,342.331c-1.036-6.854,0.857-12.601,5.686-17.244c2.001-1.92,4.045-3.342,6.131-4.264
			c2.086-0.922,5.236-1.702,9.457-2.34l6.526-0.987c4.876-0.737,8.693-0.91,11.451-0.518c2.755,0.393,5.481,1.466,8.173,3.215
			c3.147,2.087,5.429,4.473,6.847,7.156c1.417,2.688,2.535,6.731,3.352,12.135l12.499,82.661c1.077,7.119-0.053,13.257-3.385,18.413
			c-3.335,5.157-8.164,8.213-14.492,9.169c-3.164,0.479-6.373,0.221-9.623-0.77c-3.253-0.99-6.124-2.579-8.61-4.766
			c-2.186-1.961-3.825-4.105-4.917-6.437c-1.095-2.328-1.92-5.339-2.478-9.031l-10.436-69.015
			C145.494,357.221,140.101,351.428,138.726,342.331z"/>
	</g>
	<g>
		<path fill="#E6E6E6" d="M1184.286,988.84c0-9.731,1.832-18.831,5.5-27.3c3.666-8.466,8.666-15.831,15-22.101
			c6.332-6.266,13.766-11.199,22.301-14.8c8.531-3.6,17.665-5.399,27.399-5.399c9.731,0,18.866,1.834,27.4,5.5
			c8.531,3.668,15.966,8.668,22.3,15c6.331,6.334,11.331,13.734,15,22.199c3.666,8.469,5.5,17.569,5.5,27.301
			c0,9.6-1.834,18.668-5.5,27.199c-3.669,8.535-8.7,15.969-15.1,22.301c-6.4,6.334-13.869,11.334-22.4,15
			c-8.534,3.665-17.6,5.5-27.2,5.5c-9.734,0-18.868-1.835-27.399-5.5c-8.535-3.666-15.969-8.7-22.301-15.101
			c-6.334-6.399-11.334-13.865-15-22.399C1186.118,1007.709,1184.286,998.574,1184.286,988.84z M1228.286,988.843
			c0,3.575,0.697,6.981,2.091,10.222c1.394,3.244,3.253,6.054,5.578,8.435c2.325,2.382,5.081,4.269,8.269,5.656
			c3.188,1.391,6.575,2.085,10.163,2.085c3.587,0,6.975-0.694,10.162-2.085c3.188-1.388,5.976-3.274,8.366-5.656
			c2.391-2.381,4.284-5.125,5.678-8.234s2.094-6.45,2.094-10.024c0-3.572-0.7-6.913-2.094-10.022s-3.287-5.856-5.678-8.237
			s-5.179-4.266-8.366-5.656c-3.188-1.388-6.575-2.084-10.162-2.084c-3.456,0-6.775,0.696-9.963,2.084
			c-3.188,1.391-5.978,3.244-8.368,5.56s-4.285,5.028-5.679,8.138S1228.286,985.405,1228.286,988.843z"/>
	</g>
	<path fill="#E6E6E6" d="M1201.778,397.517c-1.33-2.932-3.131-5.467-5.398-7.6c-2.266-2-4.766-3.432-7.5-4.301
		c-2.732-0.865-6.232-1.301-10.5-1.301h-56.501l19.629-53.112c1.618-4.379,2.514-7.956,2.688-10.734
		c0.175-2.78-0.346-5.6-1.562-8.464c-1.009-2.649-2.704-5.089-5.079-7.316s-4.999-3.872-7.877-4.936
		c-2.749-1.016-5.734-1.407-8.948-1.174c-3.21,0.231-6.212,1.042-8.999,2.429c-2.662,1.433-4.871,3.281-6.635,5.544
		c-1.759,2.263-3.381,5.396-4.86,9.398l-28.634,77.479c-0.444,1.203-0.839,2.338-1.191,3.419c-1.34,2.883-2.032,6.098-2.032,9.668
		c0,0.018,0.002,0.034,0.003,0.052c-0.009,0.665,0.025,1.337,0.092,2.015c0.455,5.723,2.813,10.439,7.105,14.133
		c1.2,1.2,2.435,2.169,3.7,2.9c1.269,0.734,2.635,1.3,4.1,1.699c1.14,0.311,2.443,0.54,3.902,0.689
		c1.63,0.28,3.235,0.371,4.813,0.266c1.143,0.029,2.365,0.045,3.685,0.045h82.602c4.668,0,8.334-0.399,11-1.199
		c2.668-0.801,5.133-2.266,7.398-4.4c2.135-1.865,3.836-4.3,5.102-7.3s1.898-6.031,1.898-9.101
		C1203.778,403.386,1203.11,400.45,1201.778,397.517z"/>
	<path fill="#E6E6E6" d="M439.799,762.868c-2.295,2.258-4.057,4.82-5.279,7.683c-1.099,2.815-1.584,5.655-1.459,8.521
		c0.127,2.863,0.922,6.3,2.389,10.308l19.432,53.055l-56.623-0.166c-4.669-0.014-8.336,0.375-11.005,1.167
		c-2.671,0.792-5.14,2.25-7.41,4.378c-2.142,1.858-3.85,4.289-5.123,7.285c-1.275,2.996-1.917,6.025-1.926,9.094
		c-0.009,2.931,0.65,5.869,1.975,8.807c1.321,2.935,3.114,5.475,5.375,7.615c2.261,2.007,4.757,3.445,7.488,4.322
		c2.729,0.874,6.229,1.32,10.496,1.332l82.601,0.242c1.281,0.004,2.484-0.017,3.619-0.057c3.168,0.267,6.425-0.188,9.778-1.417
		c0.017-0.006,0.031-0.014,0.048-0.021c0.627-0.221,1.247-0.484,1.861-0.779c5.217-2.396,8.835-6.232,10.826-11.532
		c0.715-1.54,1.2-3.032,1.451-4.473c0.254-1.443,0.314-2.921,0.186-4.434c-0.1-1.177-0.334-2.479-0.694-3.901
		c-0.297-1.627-0.764-3.166-1.405-4.611c-0.366-1.083-0.771-2.236-1.226-3.475l-28.407-77.563c-1.605-4.384-3.241-7.688-4.908-9.917
		c-1.67-2.229-3.894-4.041-6.677-5.434c-2.485-1.363-5.356-2.123-8.609-2.28c-3.252-0.157-6.315,0.292-9.198,1.347
		C444.622,758.972,442.096,760.608,439.799,762.868z"/>
</g>
<g id="text" display="none">
	<g display="inline">
		<path fill="#3B97D3" d="M579.52,405.094c0-3.525,0.036-6.476,0.115-8.855c0.076-2.375,0.306-4.37,0.687-5.98
			s0.877-3.065,1.488-4.37c0.611-1.301,1.448-2.645,2.52-4.025c2.134-3.22,5.11-5.786,8.927-7.705
			c3.816-1.916,7.708-2.875,11.68-2.875c4.273,0,8.316,0.999,12.132,2.99c3.817,1.994,6.792,4.754,8.931,8.28
			c0.913,1.38,1.639,2.685,2.174,3.91c0.532,1.229,0.952,2.645,1.258,4.255c0.305,1.61,0.496,3.529,0.575,5.75
			c0.076,2.225,0.115,5.1,0.115,8.625v53.13c0,5.829-0.155,10.85-0.46,15.065c-0.309,4.219-0.884,8.014-1.725,11.385
			c-0.845,3.375-1.919,6.519-3.22,9.43c-1.304,2.915-2.954,5.829-4.945,8.74c-5.674,8.435-12.919,15.029-21.735,19.78
			c-8.819,4.751-18.285,7.13-28.405,7.13c-8.589,0-16.714-1.689-24.38-5.06c-7.669-3.371-14.415-8.201-20.24-14.49
			c-5.369-5.825-9.354-12.226-11.96-19.205c-2.609-6.975-3.91-15.065-3.91-24.265c0-6.9,0.575-12.42,1.725-16.56
			c1.15-4.14,3.105-7.741,5.865-10.81c4.445-5.366,10.35-8.05,17.71-8.05c7.82,0,14.145,2.53,18.975,7.59s7.09,11.73,6.785,20.01
			v8.51c-0.155,3.529,0.661,6.289,2.447,8.28c1.782,1.995,4.151,2.99,7.101,2.99c4.345,0,7.371-1.991,9.082-5.98
			c0.305-0.92,0.496-2.031,0.575-3.335c0.076-1.301,0.115-3.946,0.115-7.935V405.094z"/>
		<path fill="#3B97D3" d="M648.058,448.334c0-11.04,2.106-21.39,6.325-31.05c4.215-9.66,9.965-18.091,17.25-25.3
			c7.281-7.206,15.83-12.88,25.645-17.02c9.812-4.14,20.315-6.21,31.511-6.21c11.19,0,21.695,2.109,31.51,6.325
			c9.811,4.219,18.4,9.93,25.76,17.135c7.36,7.209,13.146,15.719,17.365,25.53c4.216,9.814,6.325,20.24,6.325,31.28
			s-2.109,21.469-6.325,31.28c-4.219,9.814-10.005,18.4-17.365,25.76c-7.359,7.36-15.949,13.149-25.76,17.365
			c-9.814,4.215-20.24,6.325-31.28,6.325c-11.349,0-21.929-2.11-31.74-6.325c-9.814-4.215-18.363-10.005-25.645-17.365
			c-7.285-7.36-13.035-15.985-17.25-25.875C650.164,470.299,648.058,459.683,648.058,448.334z M698.658,448.905
			c0,4.158,0.805,8.122,2.422,11.892c1.617,3.773,3.77,7.044,6.465,9.814c2.695,2.771,5.887,4.963,9.581,6.58
			s7.619,2.422,11.776,2.422c4.155,0,8.079-0.805,11.773-2.422s6.886-3.809,9.581-6.58c2.695-2.771,4.848-6.005,6.465-9.699
			c1.617-3.695,2.426-7.619,2.426-11.773s-0.809-8.043-2.426-11.662c-1.617-3.615-3.77-6.771-6.465-9.466
			c-2.695-2.692-5.887-4.809-9.581-6.347s-7.618-2.311-11.773-2.311c-4.157,0-8.082,0.773-11.776,2.311s-6.886,3.655-9.581,6.347
			c-2.695,2.695-4.848,5.811-6.465,9.351C699.463,440.905,698.658,444.751,698.658,448.905z"/>
		<path fill="#3B97D3" d="M882.657,529.754c-8.129,0-15.72-0.999-22.771-2.99c-7.055-1.991-13.188-4.751-18.399-8.28
			c-5.215-3.525-9.279-7.626-12.19-12.305c-2.914-4.675-4.37-9.775-4.37-15.295c0-3.22,0.575-6.21,1.726-8.97
			c1.149-2.76,2.76-5.175,4.829-7.245c2.07-2.07,4.521-3.716,7.36-4.945c2.836-1.226,5.865-1.84,9.085-1.84
			c3.065,0,6.016,0.575,8.855,1.725c2.835,1.15,5.864,3.029,9.085,5.635c2.76,2.149,4.98,3.834,6.67,5.06
			c1.686,1.229,3.065,2.185,4.14,2.875c1.071,0.69,1.991,1.114,2.76,1.265c0.766,0.154,1.61,0.23,2.53,0.23
			c1.991,0,3.565-0.611,4.715-1.84c1.15-1.226,1.726-2.836,1.726-4.83c0-2.605-1.305-4.751-3.91-6.44
			c-0.31-0.151-0.654-0.345-1.035-0.575c-0.385-0.23-0.92-0.496-1.61-0.805c-0.689-0.305-1.609-0.69-2.76-1.15
			c-1.149-0.46-2.724-1.071-4.715-1.84c-2.149-0.766-4.219-1.495-6.21-2.185c-1.994-0.69-4.064-1.416-6.21-2.185
			c-22.234-7.82-33.351-22.385-33.351-43.7c0-7.511,1.381-14.335,4.141-20.47c2.76-6.131,6.591-11.421,11.5-15.87
			c4.905-4.445,10.846-7.896,17.825-10.35c6.976-2.451,14.604-3.68,22.885-3.68c6.899,0,13.34,0.884,19.32,2.645
			c5.979,1.764,11.19,4.14,15.64,7.13c4.445,2.99,7.935,6.519,10.465,10.58c2.53,4.064,3.795,8.474,3.795,13.225
			c0,6.134-1.84,11.155-5.52,15.065c-3.681,3.91-8.435,5.865-14.261,5.865c-3.528,0-6.824-0.65-9.89-1.955
			c-3.069-1.301-6.749-3.565-11.04-6.785c-2.609-2.146-4.679-3.601-6.21-4.37c-1.534-0.766-2.99-1.15-4.37-1.15
			c-1.688,0-3.104,0.575-4.255,1.725c-1.15,1.15-1.725,2.57-1.725,4.255c0,2.3,1.035,4.14,3.104,5.52
			c2.07,1.38,6.095,3.069,12.075,5.06c6.591,1.994,12.801,4.409,18.63,7.245c5.825,2.839,10.501,5.79,14.03,8.855
			c4.751,3.989,8.51,9.164,11.27,15.525c2.761,6.364,4.141,13.225,4.141,20.585c0,6.9-1.266,13.534-3.795,19.895
			c-2.53,6.364-6.096,11.924-10.695,16.675c-5.215,5.214-11.31,9.085-18.285,11.615
			C900.403,528.489,892.162,529.754,882.657,529.754z"/>
		<path fill="#3B97D3" d="M1032.846,478.464c5.52,0,9.775,0.424,12.765,1.265c2.99,0.845,5.786,2.34,8.396,4.485
			c5.52,4.754,8.28,10.734,8.28,17.94c0,3.529-0.73,6.939-2.186,10.235c-1.459,3.299-3.489,6.02-6.095,8.165
			c-1.229,1.075-2.494,1.955-3.795,2.645c-1.305,0.69-2.725,1.229-4.255,1.61c-1.535,0.385-3.335,0.654-5.405,0.805
			c-2.07,0.154-4.564,0.23-7.476,0.23h-39.329c-5.829,0-9.97-0.151-12.421-0.46c-2.454-0.306-4.754-0.841-6.899-1.61
			c-8.129-3.371-12.959-9.506-14.49-18.4c-0.154-0.765-0.309-1.495-0.46-2.185c-0.154-0.69-0.27-1.571-0.345-2.645
			c-0.079-1.071-0.115-2.375-0.115-3.91c0-1.686,0-3.831,0-6.44v-83.26c0-3.22,0.036-5.825,0.115-7.82
			c0.075-1.991,0.19-3.641,0.345-4.945c0.151-1.301,0.381-2.415,0.69-3.335c0.305-0.92,0.689-1.991,1.149-3.22
			c1.071-2.911,2.721-5.441,4.945-7.59c2.221-2.146,4.636-3.831,7.245-5.06c1.38-0.611,2.605-1.071,3.68-1.38
			c1.071-0.306,2.336-0.536,3.795-0.69c1.456-0.151,3.296-0.266,5.521-0.345c2.221-0.076,5.175-0.115,8.854-0.115h30.36
			c3.68,0,6.591,0,8.74,0c2.146,0,3.83,0.079,5.06,0.23c1.226,0.155,2.221,0.309,2.99,0.46c0.766,0.155,1.609,0.309,2.53,0.46
			c5.365,1.38,9.62,4.064,12.765,8.05c3.141,3.989,4.715,8.665,4.715,14.03c0,3.68-0.729,7.17-2.185,10.465
			c-1.459,3.299-3.49,6.02-6.096,8.165c-2.3,1.994-4.909,3.414-7.819,4.255c-2.915,0.844-6.749,1.265-11.5,1.265h-25.301v10.58
			h20.011c6.285,0,11.27,1.689,14.949,5.06c3.681,3.375,5.521,7.745,5.521,13.11c0,5.98-2.225,10.81-6.67,14.49
			c-1.995,1.535-4.104,2.569-6.325,3.105c-2.225,0.539-5.329,0.805-9.314,0.805h-18.171v11.5H1032.846z"/>
		<path fill="#3B97D3" d="M1130.592,497.784c0,8.74-2.292,15.794-6.871,21.16c-4.578,5.369-10.684,8.05-18.313,8.05
			c-4.276,0-8.283-1.035-12.021-3.105c-3.74-2.07-6.756-4.866-9.045-8.395c-0.917-1.531-1.679-2.95-2.289-4.255
			c-0.611-1.301-1.067-2.76-1.373-4.37s-0.496-3.64-0.571-6.095c-0.079-2.451-0.115-5.596-0.115-9.43v-89.7
			c0-5.52,0.496-9.811,1.495-12.88c0.995-3.065,2.796-5.98,5.405-8.74c2.605-2.605,5.52-4.521,8.739-5.75
			c3.221-1.226,7.206-1.84,11.96-1.84h21.16c6.131,0,11.5,0.194,16.101,0.575c4.6,0.384,8.66,1.035,12.189,1.955
			c3.525,0.92,6.785,2.109,9.775,3.565c2.99,1.459,5.94,3.335,8.854,5.635c6.9,5.215,12.227,11.655,15.985,19.32
			c3.756,7.669,5.635,15.794,5.635,24.38c0,8.589-1.962,16.714-5.887,24.38c-3.924,7.669-9.423,14.185-16.498,19.55
			c-5.233,3.989-10.62,6.824-16.158,8.51c-5.541,1.689-12.078,2.53-19.618,2.53h-8.539V497.784z M1130.592,435.914
			c6.218,0.309,10.605-0.151,13.172-1.38c2.565-1.226,3.849-3.601,3.849-7.13c0-2.605-1.089-4.6-3.267-5.98s-5.208-2.07-9.089-2.07
			h-4.665V435.914z"/>
		<path fill="#3B97D3" d="M1265.6,494.334c0,3.22-0.079,5.865-0.229,7.935c-0.151,2.07-0.381,3.874-0.687,5.405
			c-0.306,1.535-0.726,2.915-1.258,4.14c-0.535,1.229-1.262,2.53-2.174,3.91c-2.293,3.529-5.269,6.289-8.931,8.28
			c-3.666,1.991-7.633,2.99-11.906,2.99c-4.428,0-8.474-0.999-12.136-2.99c-3.666-1.991-6.642-4.751-8.931-8.28
			c-0.917-1.38-1.643-2.72-2.175-4.025c-0.535-1.301-0.955-2.76-1.261-4.37c-0.306-1.61-0.536-3.45-0.687-5.52
			c-0.151-2.07-0.227-4.561-0.227-7.475v-92.46c0-5.365,0.342-9.505,1.028-12.42c0.686-2.911,2.099-5.671,4.236-8.28
			c2.444-3.065,5.38-5.48,8.815-7.245c3.436-1.761,7.138-2.645,11.104-2.645c3.968,0,7.784,0.884,11.45,2.645
			c3.662,1.765,6.638,4.18,8.927,7.245c1.067,1.38,1.908,2.685,2.52,3.91c0.61,1.229,1.106,2.609,1.487,4.14
			c0.381,1.535,0.65,3.414,0.802,5.635c0.15,2.225,0.229,4.945,0.229,8.165v21.62h31.051v-20.93c0-6.131,0.345-10.695,1.034-13.685
			c0.69-2.99,2.106-5.94,4.256-8.855c2.3-3.065,5.135-5.48,8.51-7.245c3.371-1.761,7.051-2.645,11.04-2.645
			c3.985,0,7.78,0.845,11.385,2.53c3.601,1.689,6.555,4.064,8.855,7.13c1.99,2.609,3.41,5.52,4.255,8.74
			c0.841,3.22,1.265,7.285,1.265,12.19v92.92c0,2.609-0.079,4.869-0.229,6.785c-0.155,1.919-0.385,3.644-0.69,5.175
			c-0.31,1.534-0.729,2.915-1.265,4.14c-0.539,1.229-1.189,2.53-1.955,3.91c-2.301,3.834-5.33,6.825-9.085,8.97
			c-3.76,2.146-7.86,3.22-12.306,3.22c-3.988,0-7.784-0.884-11.385-2.645c-3.604-1.761-6.555-4.255-8.854-7.475
			c-0.921-1.38-1.726-2.72-2.415-4.025c-0.69-1.301-1.189-2.796-1.495-4.485c-0.31-1.686-0.539-3.601-0.69-5.75
			c-0.154-2.146-0.229-4.751-0.229-7.82v-22.08H1265.6V494.334z"/>
	</g>
	<g display="inline">
		<path fill="#3B97D3" d="M548.202,641.232c0,2.474-0.061,4.508-0.177,6.099c-0.116,1.592-0.294,2.977-0.53,4.155
			c-0.237,1.179-0.561,2.239-0.971,3.182c-0.414,0.945-0.974,1.945-1.679,3.006c-1.77,2.713-4.067,4.834-6.894,6.365
			c-2.83,1.529-5.892,2.298-9.191,2.298c-3.418,0-6.542-0.769-9.369-2.298c-2.83-1.531-5.126-3.652-6.894-6.365
			c-0.708-1.061-1.268-2.091-1.679-3.093c-0.414-1.001-0.739-2.122-0.974-3.36c-0.236-1.238-0.413-2.652-0.529-4.244
			c-0.117-1.591-0.175-3.506-0.175-5.744v-71.074c0-4.124,0.264-7.306,0.793-9.548c0.53-2.235,1.621-4.357,3.271-6.363
			c1.886-2.356,4.153-4.213,6.806-5.569c2.652-1.354,5.51-2.034,8.572-2.034c3.063,0,6.009,0.681,8.839,2.034
			c2.827,1.356,5.124,3.213,6.892,5.569c0.824,1.062,1.473,2.063,1.945,3.006c0.471,0.944,0.854,2.005,1.148,3.183
			c0.295,1.179,0.503,2.624,0.619,4.331c0.116,1.71,0.177,3.801,0.177,6.276v16.618h23.97v-16.088c0-4.712,0.267-8.222,0.799-10.519
			c0.533-2.299,1.626-4.567,3.285-6.808c1.776-2.356,3.965-4.213,6.57-5.569c2.603-1.354,5.443-2.034,8.523-2.034
			c3.077,0,6.005,0.65,8.789,1.947c2.78,1.298,5.061,3.123,6.836,5.479c1.537,2.007,2.633,4.243,3.285,6.719
			c0.649,2.476,0.977,5.6,0.977,9.369v71.427c0,2.006-0.061,3.743-0.177,5.216c-0.119,1.475-0.297,2.8-0.533,3.979
			c-0.239,1.179-0.564,2.239-0.977,3.182c-0.416,0.945-0.918,1.945-1.509,3.006c-1.776,2.947-4.114,5.247-7.014,6.895
			c-2.901,1.65-6.067,2.476-9.498,2.476c-3.08,0-6.009-0.68-8.79-2.033c-2.783-1.354-5.06-3.271-6.835-5.747
			c-0.71-1.06-1.332-2.09-1.865-3.093c-0.532-1-0.917-2.15-1.154-3.448c-0.238-1.296-0.416-2.768-0.533-4.42
			c-0.119-1.647-0.178-3.651-0.178-6.011v-16.972h-23.97V641.232z"/>
		<path fill="#3B97D3" d="M686.692,629.033c4.262,0,7.546,0.325,9.854,0.971c2.309,0.65,4.468,1.8,6.482,3.448
			c4.261,3.655,6.391,8.251,6.391,13.79c0,2.713-0.564,5.335-1.688,7.867c-1.126,2.536-2.692,4.628-4.704,6.277
			c-0.95,0.827-1.926,1.502-2.93,2.033c-1.007,0.53-2.104,0.944-3.286,1.237c-1.186,0.295-2.574,0.503-4.172,0.618
			c-1.598,0.118-3.523,0.178-5.771,0.178h-30.36c-4.501,0-7.697-0.116-9.589-0.354c-1.894-0.234-3.67-0.646-5.326-1.237
			c-6.274-2.591-10.003-7.307-11.185-14.144c-0.12-0.589-0.239-1.149-0.356-1.679c-0.119-0.531-0.208-1.208-0.266-2.033
			c-0.062-0.825-0.089-1.828-0.089-3.007c0-1.296,0-2.945,0-4.95v-64.001c0-2.475,0.027-4.478,0.089-6.011
			c0.057-1.53,0.146-2.799,0.266-3.801c0.118-1,0.294-1.856,0.533-2.563c0.236-0.707,0.532-1.53,0.887-2.476
			c0.828-2.237,2.101-4.182,3.818-5.834c1.714-1.649,3.58-2.944,5.594-3.89c1.064-0.47,2.011-0.823,2.84-1.061
			c0.827-0.235,1.804-0.412,2.93-0.53c1.124-0.117,2.543-0.204,4.261-0.266c1.714-0.059,3.995-0.088,6.836-0.088h23.437
			c2.841,0,5.089,0,6.747,0c1.657,0,2.957,0.061,3.907,0.177c0.946,0.119,1.714,0.237,2.309,0.354
			c0.591,0.118,1.242,0.237,1.952,0.354c4.143,1.061,7.427,3.124,9.855,6.188c2.424,3.066,3.64,6.66,3.64,10.785
			c0,2.828-0.564,5.511-1.688,8.044c-1.127,2.535-2.695,4.627-4.706,6.275c-1.774,1.534-3.789,2.625-6.036,3.272
			c-2.25,0.648-5.21,0.973-8.878,0.973H668.76v8.132h15.446c4.853,0,8.7,1.299,11.541,3.89c2.842,2.594,4.263,5.952,4.263,10.077
			c0,4.597-1.718,8.309-5.149,11.137c-1.541,1.181-3.169,1.977-4.884,2.388c-1.717,0.414-4.113,0.62-7.19,0.62H668.76v8.84H686.692z
			"/>
		<path fill="#3B97D3" d="M810.269,634.69c1.301,2.005,2.247,4.097,2.841,6.275c0.591,2.183,0.887,4.274,0.887,6.276
			c0,2.713-0.505,5.217-1.51,7.515c-1.006,2.298-2.396,4.304-4.171,6.01c-1.777,1.711-3.849,3.067-6.215,4.068
			c-2.369,0.999-4.913,1.502-7.635,1.502c-7.102,0-12.489-3.006-16.157-9.017l-16.157-26.697v16.09c0,2.828-0.505,5.421-1.509,7.777
			c-1.008,2.359-2.37,4.422-4.084,6.189c-1.717,1.769-3.729,3.154-6.037,4.155c-2.308,0.999-4.825,1.502-7.547,1.502
			c-2.96,0-5.801-0.618-8.522-1.857c-2.724-1.236-4.971-2.974-6.746-5.215c-3.08-3.89-4.617-9.429-4.617-16.618v-72.664
			c0-4.244,0.472-7.69,1.42-10.343c0.946-2.652,2.603-4.979,4.973-6.983c2.247-2.003,4.586-3.358,7.013-4.065
			c2.425-0.708,6.006-1.062,10.742-1.062h16.336c4.852,0,8.58,0.149,11.185,0.441c2.602,0.295,5.208,0.738,7.812,1.327
			c4.617,1.298,8.816,3.242,12.606,5.834c3.787,2.594,7.042,5.687,9.766,9.281c2.722,3.597,4.852,7.575,6.392,11.934
			c1.537,4.362,2.309,8.9,2.309,13.612c0,5.659-0.976,10.817-2.93,15.472c-1.954,4.657-5.18,9.519-9.677,14.585L810.269,634.69z
			 M762.151,596.325h1.598h2.664c5.917,0.237,8.877-1.826,8.877-6.188c0-4.479-3.019-6.6-9.055-6.365c-0.475,0-1.065,0-1.776,0
			c-0.593,0-1.362-0.059-2.308-0.178V596.325z"/>
		<path fill="#3B97D3" d="M891.055,555.661c4.022-6.011,9.41-9.018,16.157-9.018c2.602,0,5.119,0.531,7.546,1.593
			c2.424,1.062,4.528,2.475,6.304,4.242c1.775,1.769,3.195,3.832,4.261,6.189c1.065,2.357,1.598,4.834,1.598,7.425
			c0,3.89-1.006,7.31-3.019,10.254l-19.886,28.818l24.148,30.763c2.485,3.065,3.728,6.603,3.728,10.607
			c0,2.713-0.533,5.276-1.598,7.69c-1.065,2.418-2.486,4.509-4.262,6.276s-3.848,3.183-6.214,4.244
			c-2.369,1.061-4.855,1.591-7.458,1.591c-2.724,0-5.326-0.53-7.812-1.591c-2.485-1.062-4.438-2.477-5.858-4.244l-29.297-36.949
			v20.33c0,6.837-1.775,12.288-5.327,16.354s-8.286,6.1-14.205,6.1c-6.156,0-11.009-2.002-14.559-6.011
			c-3.552-4.006-5.327-9.428-5.327-16.266v-75.669c0-6.48,1.775-11.728,5.327-15.735c3.55-4.006,8.283-6.013,14.204-6.013
			c2.841,0,5.563,0.593,8.168,1.77c2.602,1.18,4.793,2.771,6.569,4.773c1.893,2.005,3.224,4.185,3.996,6.542
			c0.768,2.358,1.154,5.303,1.154,8.839v18.919L891.055,555.661z"/>
		<path fill="#3B97D3" d="M1010.191,570.513c0-3.89,0.237-6.922,0.711-9.105c0.472-2.18,1.42-4.271,2.841-6.275
			c1.656-2.592,3.934-4.656,6.835-6.188c2.899-1.531,5.949-2.3,9.144-2.3c2.958,0,5.71,0.62,8.257,1.857
			c2.545,1.237,4.765,2.978,6.659,5.218c1.655,2.12,2.841,4.33,3.552,6.628s1.064,5.277,1.064,8.929v72.133
			c0,4.717-0.296,8.282-0.891,10.695c-0.594,2.419-1.723,4.746-3.382,6.984c-1.78,2.359-4.009,4.155-6.678,5.392
			c-2.668,1.239-5.549,1.857-8.634,1.857c-6.291,0-11.455-2.652-15.488-7.956l-30.979-39.426v24.751c0,3.89-0.324,6.926-0.974,9.105
			c-0.649,2.183-1.798,4.331-3.446,6.453c-1.887,2.241-4.124,3.979-6.716,5.215c-2.591,1.239-5.36,1.857-8.306,1.857
			c-3.067,0-5.954-0.68-8.662-2.033c-2.71-1.354-5.007-3.21-6.895-5.569c-1.649-2.237-2.74-4.478-3.269-6.719
			c-0.531-2.237-0.795-5.537-0.795-9.9v-74.608c0-6.364,1.865-11.43,5.594-15.204c3.729-3.771,8.67-5.659,14.826-5.659
			c2.841,0,5.415,0.62,7.724,1.857c2.31,1.237,4.586,3.213,6.836,5.925l31.072,38.01V570.513z"/>
		<path fill="#3B97D3" d="M1124.715,629.033c4.261,0,7.546,0.325,9.854,0.971c2.309,0.65,4.467,1.8,6.482,3.448
			c4.261,3.655,6.393,8.251,6.393,13.79c0,2.713-0.564,5.335-1.688,7.867c-1.126,2.536-2.693,4.628-4.705,6.277
			c-0.95,0.827-1.927,1.502-2.93,2.033c-1.008,0.53-2.104,0.944-3.285,1.237c-1.186,0.295-2.575,0.503-4.173,0.618
			c-1.598,0.118-3.523,0.178-5.771,0.178h-30.362c-4.499,0-7.695-0.116-9.588-0.354c-1.894-0.234-3.67-0.646-5.326-1.237
			c-6.276-2.591-10.005-7.307-11.187-14.144c-0.118-0.589-0.238-1.149-0.354-1.679c-0.12-0.531-0.21-1.208-0.269-2.033
			c-0.06-0.825-0.088-1.828-0.088-3.007c0-1.296,0-2.945,0-4.95v-64.001c0-2.475,0.028-4.478,0.088-6.011
			c0.059-1.53,0.148-2.799,0.269-3.801c0.115-1,0.294-1.856,0.531-2.563c0.234-0.707,0.533-1.53,0.887-2.476
			c0.828-2.237,2.102-4.182,3.819-5.834c1.713-1.649,3.578-2.944,5.593-3.89c1.065-0.47,2.011-0.823,2.84-1.061
			c0.827-0.235,1.804-0.412,2.93-0.53c1.125-0.117,2.545-0.204,4.262-0.266c1.714-0.059,3.996-0.088,6.836-0.088h23.438
			c2.84,0,5.088,0,6.747,0c1.655,0,2.956,0.061,3.905,0.177c0.946,0.119,1.714,0.237,2.31,0.354c0.59,0.118,1.241,0.237,1.952,0.354
			c4.143,1.061,7.426,3.124,9.854,6.188c2.425,3.066,3.639,6.66,3.639,10.785c0,2.828-0.562,5.511-1.686,8.044
			c-1.127,2.535-2.695,4.627-4.706,6.275c-1.776,1.534-3.789,2.625-6.036,3.272c-2.251,0.648-5.21,0.973-8.878,0.973h-19.531v8.132
			h15.447c4.853,0,8.7,1.299,11.541,3.89c2.842,2.594,4.262,5.952,4.262,10.077c0,4.597-1.718,8.309-5.149,11.137
			c-1.54,1.181-3.168,1.977-4.883,2.388c-1.717,0.414-4.114,0.62-7.19,0.62h-14.027v8.84H1124.715z"/>
		<path fill="#3B97D3" d="M1202.304,668.458c-6.275,0-12.134-0.769-17.577-2.298c-5.447-1.53-10.182-3.652-14.205-6.365
			c-4.025-2.709-7.163-5.861-9.41-9.458c-2.249-3.594-3.373-7.515-3.373-11.758c0-2.474,0.443-4.772,1.332-6.894
			c0.887-2.122,2.131-3.979,3.728-5.569c1.598-1.592,3.491-2.857,5.682-3.803c2.189-0.941,4.528-1.413,7.013-1.413
			c2.368,0,4.646,0.441,6.838,1.326c2.188,0.884,4.526,2.329,7.013,4.33c2.131,1.652,3.845,2.948,5.149,3.891
			c1.301,0.945,2.366,1.68,3.195,2.21c0.827,0.53,1.537,0.856,2.13,0.972c0.593,0.118,1.245,0.178,1.954,0.178
			c1.537,0,2.752-0.471,3.64-1.414c0.888-0.942,1.332-2.181,1.332-3.714c0-2.002-1.007-3.651-3.018-4.95
			c-0.24-0.116-0.506-0.266-0.8-0.441c-0.298-0.177-0.711-0.382-1.243-0.62c-0.532-0.233-1.243-0.529-2.131-0.884
			c-0.888-0.354-2.103-0.823-3.64-1.414c-1.66-0.589-3.257-1.149-4.794-1.68c-1.54-0.529-3.138-1.088-4.793-1.679
			c-17.165-6.011-25.747-17.208-25.747-33.593c0-5.772,1.065-11.019,3.196-15.733c2.131-4.714,5.088-8.78,8.878-12.201
			c3.787-3.416,8.372-6.067,13.762-7.954c5.385-1.885,11.273-2.829,17.666-2.829c5.325,0,10.299,0.68,14.915,2.033
			c4.615,1.356,8.639,3.182,12.073,5.481c3.432,2.297,6.125,5.01,8.079,8.132c1.953,3.125,2.929,6.515,2.929,10.166
			c0,4.716-1.421,8.574-4.261,11.579c-2.842,3.008-6.512,4.51-11.01,4.51c-2.724,0-5.267-0.5-7.634-1.502
			c-2.37-1-5.21-2.74-8.523-5.217c-2.014-1.648-3.611-2.768-4.793-3.358c-1.185-0.589-2.309-0.885-3.375-0.885
			c-1.303,0-2.396,0.441-3.283,1.326c-0.888,0.884-1.332,1.976-1.332,3.272c0,1.766,0.799,3.18,2.397,4.241
			c1.598,1.061,4.704,2.358,9.321,3.89c5.089,1.532,9.881,3.389,14.381,5.57c4.497,2.182,8.108,4.449,10.832,6.806
			c3.668,3.066,6.568,7.045,8.7,11.935c2.131,4.891,3.197,10.165,3.197,15.822c0,5.305-0.978,10.403-2.931,15.294
			c-1.953,4.892-4.706,9.165-8.256,12.817c-4.026,4.008-8.731,6.982-14.116,8.929
			C1216.004,667.485,1209.642,668.458,1202.304,668.458z"/>
		<path fill="#3B97D3" d="M1302.445,668.458c-6.274,0-12.135-0.769-17.578-2.298c-5.445-1.53-10.182-3.652-14.204-6.365
			c-4.025-2.709-7.164-5.861-9.411-9.458c-2.249-3.594-3.373-7.515-3.373-11.758c0-2.474,0.444-4.772,1.331-6.894
			c0.888-2.122,2.132-3.979,3.729-5.569c1.598-1.592,3.491-2.857,5.682-3.803c2.189-0.941,4.528-1.413,7.014-1.413
			c2.367,0,4.645,0.441,6.837,1.326c2.188,0.884,4.527,2.329,7.013,4.33c2.131,1.652,3.846,2.948,5.149,3.891
			c1.301,0.945,2.365,1.68,3.196,2.21c0.826,0.53,1.536,0.856,2.13,0.972c0.591,0.118,1.243,0.178,1.953,0.178
			c1.537,0,2.753-0.471,3.641-1.414c0.889-0.942,1.331-2.181,1.331-3.714c0-2.002-1.007-3.651-3.018-4.95
			c-0.238-0.116-0.507-0.266-0.8-0.441c-0.297-0.177-0.71-0.382-1.243-0.62c-0.532-0.233-1.241-0.529-2.131-0.884
			c-0.886-0.354-2.103-0.823-3.639-1.414c-1.659-0.589-3.257-1.149-4.795-1.68c-1.538-0.529-3.137-1.088-4.794-1.679
			c-17.165-6.011-25.746-17.208-25.746-33.593c0-5.772,1.066-11.019,3.197-15.733c2.131-4.714,5.088-8.78,8.877-12.201
			c3.788-3.416,8.373-6.067,13.762-7.954c5.385-1.885,11.274-2.829,17.666-2.829c5.326,0,10.299,0.68,14.915,2.033
			c4.617,1.356,8.639,3.182,12.073,5.481c3.433,2.297,6.125,5.01,8.079,8.132c1.953,3.125,2.929,6.515,2.929,10.166
			c0,4.716-1.42,8.574-4.261,11.579c-2.842,3.008-6.512,4.51-11.01,4.51c-2.723,0-5.267-0.5-7.634-1.502
			c-2.369-1-5.209-2.74-8.521-5.217c-2.015-1.648-3.612-2.768-4.795-3.358c-1.185-0.589-2.309-0.885-3.373-0.885
			c-1.305,0-2.397,0.441-3.285,1.326c-0.889,0.884-1.331,1.976-1.331,3.272c0,1.766,0.8,3.18,2.396,4.241
			c1.597,1.061,4.704,2.358,9.321,3.89c5.089,1.532,9.882,3.389,14.383,5.57c4.496,2.182,8.106,4.449,10.832,6.806
			c3.666,3.066,6.568,7.045,8.699,11.935c2.13,4.891,3.195,10.165,3.195,15.822c0,5.305-0.977,10.403-2.93,15.294
			c-1.953,4.892-4.706,9.165-8.257,12.817c-4.024,4.008-8.73,6.982-14.116,8.929
			C1316.145,667.485,1309.782,668.458,1302.445,668.458z"/>
	</g>
	<g display="inline">
		<path fill="#3B97D3" d="M560.024,722.674c0,3.229-1.927,6.537-5.783,9.926c-2.624,2.261-5.542,4.009-8.755,5.246
			s-6.534,1.855-9.96,1.855c-3.909,0-7.586-0.737-11.031-2.21c-3.447-1.472-6.449-3.465-9.007-5.983
			c-2.559-2.517-4.571-5.489-6.037-8.916s-2.199-7.067-2.199-10.924c0-3.909,0.745-7.576,2.239-11.005
			c1.492-3.426,3.518-6.412,6.077-8.955c2.558-2.543,5.56-4.552,9.006-6.025c3.446-1.472,7.123-2.209,11.032-2.209
			c3.266,0,6.426,0.547,9.479,1.64c3.052,1.094,5.863,2.706,8.434,4.839c4.338,3.465,6.506,6.982,6.506,10.554
			c0,1.229-0.229,2.38-0.682,3.451c-0.456,1.072-1.085,2.007-1.888,2.812c-0.804,0.803-1.741,1.433-2.812,1.887
			c-1.072,0.457-2.223,0.683-3.454,0.683c-1.072,0-2.116-0.2-3.132-0.603c-1.018-0.4-1.821-0.923-2.41-1.566l-2.57-2.811
			c-0.964-1.071-2.116-1.874-3.454-2.41c-1.339-0.533-2.731-0.803-4.176-0.803c-1.446,0-2.812,0.27-4.097,0.803
			c-1.285,0.536-2.41,1.272-3.374,2.21c-0.964,0.938-1.715,2.047-2.249,3.333c-0.536,1.285-0.804,2.65-0.804,4.097
			s0.268,2.798,0.804,4.056c0.534,1.259,1.285,2.37,2.249,3.334c0.963,0.963,2.074,1.714,3.333,2.248
			c1.257,0.536,2.61,0.804,4.056,0.804s2.852-0.308,4.217-0.924c1.365-0.614,2.583-1.485,3.654-2.61l1.848-1.928
			c0.749-0.75,1.673-1.365,2.771-1.848c1.097-0.481,2.209-0.723,3.333-0.723c1.177,0,2.302,0.241,3.374,0.723
			c1.071,0.482,2.008,1.125,2.812,1.929c0.803,0.803,1.446,1.727,1.928,2.771C559.784,720.464,560.024,721.549,560.024,722.674z"/>
		<path fill="#3B97D3" d="M564.763,711.266c0-3.855,0.735-7.47,2.209-10.843c1.472-3.374,3.48-6.318,6.023-8.836
			c2.543-2.516,5.529-4.499,8.957-5.944c3.426-1.445,7.095-2.169,11.004-2.169c3.908,0,7.577,0.737,11.004,2.209
			c3.426,1.474,6.426,3.468,8.996,5.985c2.571,2.517,4.591,5.488,6.065,8.915c1.472,3.428,2.209,7.068,2.209,10.924
			c0,3.856-0.737,7.499-2.209,10.924c-1.474,3.428-3.494,6.427-6.065,8.997c-2.57,2.57-5.57,4.592-8.996,6.063
			c-3.428,1.473-7.069,2.21-10.924,2.21c-3.963,0-7.658-0.737-11.084-2.21c-3.428-1.472-6.414-3.493-8.957-6.063
			c-2.543-2.57-4.552-5.583-6.023-9.037C565.498,718.938,564.763,715.23,564.763,711.266z M582.434,711.465
			c0,1.452,0.281,2.837,0.846,4.153c0.564,1.317,1.316,2.46,2.258,3.428c0.941,0.967,2.055,1.733,3.346,2.299
			c1.29,0.564,2.661,0.845,4.113,0.845c1.451,0,2.821-0.28,4.111-0.845c1.291-0.565,2.405-1.332,3.347-2.299
			c0.941-0.968,1.693-2.097,2.257-3.387c0.565-1.291,0.847-2.661,0.847-4.111c0-1.451-0.282-2.811-0.847-4.073
			c-0.564-1.263-1.316-2.365-2.257-3.307c-0.941-0.939-2.056-1.679-3.347-2.217c-1.29-0.536-2.66-0.806-4.111-0.806
			c-1.452,0-2.823,0.27-4.113,0.806c-1.291,0.538-2.405,1.277-3.346,2.217c-0.941,0.941-1.693,2.029-2.258,3.267
			C582.715,708.671,582.434,710.015,582.434,711.465z"/>
		<path fill="#3B97D3" d="M666.453,689.098c0.695-1.393,1.753-2.53,3.173-3.415c1.418-0.884,2.958-1.325,4.619-1.325
			c1.071,0,2.169,0.214,3.293,0.643c1.125,0.43,2.061,1.018,2.812,1.768c0.749,0.751,1.325,1.554,1.727,2.41
			c0.402,0.856,0.736,2.007,1.004,3.453l6.104,34.54c0.106,0.59,0.187,1.124,0.241,1.605c0.052,0.482,0.08,0.938,0.08,1.366
			c0,1.232-0.229,2.369-0.682,3.413c-0.457,1.045-1.072,1.942-1.849,2.69c-0.776,0.751-1.701,1.354-2.771,1.809
			c-1.072,0.454-2.196,0.682-3.374,0.682c-2.249,0-4.176-0.614-5.783-1.847c-1.606-1.231-2.598-2.863-2.972-4.9l-2.008-10.04
			l-3.454,9.479c-1.768,4.873-4.793,7.309-9.077,7.309c-2.196,0-4.016-0.574-5.462-1.727c-1.445-1.151-2.624-2.983-3.534-5.502
			l-3.534-9.559l-1.446,8.515c-0.429,2.57-1.433,4.592-3.012,6.064c-1.58,1.473-3.521,2.208-5.824,2.208
			c-2.624,0-4.766-0.895-6.426-2.69c-1.66-1.793-2.49-4.109-2.49-6.947c0-0.374,0.013-0.736,0.04-1.084
			c0.026-0.349,0.066-0.71,0.12-1.086l6.105-34.298c0.428-2.57,1.405-4.592,2.932-6.063c1.526-1.473,3.44-2.21,5.743-2.21
			c1.874,0,3.627,0.536,5.261,1.606c1.633,1.072,2.824,2.518,3.575,4.338l7.952,17.752L666.453,689.098z"/>
		<path fill="#3B97D3" d="M713.28,728.535c0,3.053-0.801,5.517-2.399,7.391c-1.599,1.876-3.731,2.811-6.396,2.811
			c-1.494,0-2.893-0.36-4.198-1.084c-1.308-0.723-2.36-1.699-3.16-2.932c-0.32-0.535-0.585-1.03-0.8-1.486
			c-0.213-0.453-0.372-0.964-0.479-1.525c-0.106-0.563-0.174-1.271-0.2-2.129c-0.027-0.855-0.04-1.954-0.04-3.294V694.96
			c0-1.928,0.174-3.426,0.523-4.497c0.347-1.072,0.975-2.09,1.887-3.053c0.909-0.909,1.927-1.579,3.052-2.008
			c1.125-0.429,2.516-0.644,4.177-0.644h7.39c2.141,0,4.017,0.068,5.623,0.201c1.607,0.135,3.025,0.362,4.257,0.683
			c1.232,0.321,2.37,0.737,3.414,1.245c1.044,0.51,2.075,1.165,3.093,1.968c2.409,1.82,4.27,4.07,5.582,6.747
			c1.312,2.679,1.968,5.517,1.968,8.516c0,2.998-0.685,5.836-2.056,8.514s-3.291,4.954-5.762,6.827
			c-1.827,1.393-3.709,2.384-5.643,2.972c-1.935,0.591-4.217,0.884-6.851,0.884h-2.982V728.535z M713.28,706.929
			c2.171,0.107,3.704-0.054,4.6-0.481c0.896-0.429,1.345-1.258,1.345-2.49c0-0.91-0.38-1.607-1.142-2.089
			c-0.76-0.481-1.818-0.723-3.174-0.723h-1.629V706.929z"/>
		<path fill="#3B97D3" d="M759.867,715.845c0,1.928,0.421,3.441,1.265,4.539s2.056,1.646,3.635,1.646
			c1.579,0,2.791-0.521,3.633-1.565c0.844-1.045,1.266-2.503,1.266-4.379v-21.366c0-0.963,0.027-1.793,0.079-2.49
			c0.054-0.694,0.147-1.297,0.28-1.806c0.134-0.509,0.321-0.978,0.56-1.406c0.239-0.428,0.573-0.884,1.001-1.365
			c0.852-1.071,1.864-1.901,3.038-2.49c1.172-0.59,2.424-0.884,3.758-0.884c1.278,0,2.545,0.294,3.797,0.884
			c1.253,0.589,2.279,1.365,3.081,2.329c0.425,0.482,0.771,0.978,1.038,1.486c0.266,0.509,0.479,1.072,0.64,1.687
			c0.161,0.616,0.268,1.353,0.32,2.209c0.053,0.857,0.081,1.875,0.081,3.052v19.037c0,3.643-0.456,6.806-1.366,9.493
			c-0.911,2.688-2.329,5.133-4.257,7.338c-2.196,2.529-4.767,4.48-7.71,5.853c-2.947,1.369-6.025,2.057-9.238,2.057
			c-3.588,0-6.989-0.835-10.201-2.501c-3.213-1.668-5.892-3.954-8.033-6.859c-0.802-1.13-1.485-2.232-2.047-3.309
			c-0.563-1.075-1.019-2.219-1.366-3.429c-0.349-1.21-0.59-2.511-0.723-3.904c-0.135-1.392-0.201-2.971-0.201-4.738v-18.876
			c0-1.285,0.026-2.342,0.08-3.172c0.052-0.831,0.147-1.539,0.279-2.129c0.133-0.589,0.32-1.126,0.561-1.606
			c0.239-0.482,0.546-0.965,0.92-1.446c0.853-1.071,1.906-1.915,3.159-2.53c1.252-0.615,2.517-0.924,3.797-0.924
			c1.225,0,2.412,0.254,3.558,0.763c1.146,0.51,2.119,1.193,2.919,2.048c0.906,0.911,1.533,1.943,1.878,3.094
			c0.347,1.152,0.52,2.664,0.52,4.537V715.845z"/>
		<path fill="#3B97D3" d="M801.555,701.226c-1.554,0-2.851-0.188-3.896-0.562c-1.043-0.374-1.968-0.964-2.771-1.767
			c-1.66-1.768-2.49-3.721-2.49-5.864c0-1.552,0.441-3.023,1.325-4.418c0.883-1.392,1.967-2.381,3.252-2.972
			c0.483-0.213,0.91-0.374,1.285-0.481c0.374-0.106,0.884-0.188,1.527-0.241c0.643-0.053,1.486-0.093,2.53-0.121
			c1.044-0.026,2.45-0.04,4.217-0.04h17.833c1.231,0,2.195,0,2.891,0c0.696,0,1.231,0,1.607,0c0.373,0,0.654,0.014,0.843,0.04
			c0.187,0.028,0.414,0.068,0.683,0.121c2.141,0.269,3.882,1.152,5.221,2.65c1.337,1.501,2.008,3.293,2.008,5.383
			c0,1.178-0.255,2.329-0.763,3.453c-0.51,1.124-1.219,2.088-2.129,2.892c-1.393,1.285-3.668,1.928-6.828,1.928h-3.936v26.668
			c0,1.606-0.107,2.918-0.321,3.937c-0.215,1.018-0.616,1.98-1.205,2.891c-0.804,1.284-1.835,2.276-3.092,2.972
			c-1.259,0.696-2.665,1.044-4.218,1.044c-1.5,0-2.878-0.32-4.137-0.963c-1.259-0.643-2.317-1.553-3.173-2.731
			c-0.589-0.909-0.991-1.848-1.205-2.812c-0.214-0.963-0.321-2.354-0.321-4.175v-26.829H801.555z"/>
		<path fill="#3B97D3" d="M869.026,721.789c1.928,0,3.415,0.147,4.458,0.44c1.044,0.296,2.021,0.817,2.932,1.567
			c1.928,1.661,2.892,3.749,2.892,6.265c0,1.233-0.254,2.424-0.763,3.574c-0.51,1.152-1.219,2.103-2.129,2.853
			c-0.428,0.375-0.871,0.683-1.325,0.923c-0.455,0.241-0.951,0.431-1.486,0.563c-0.536,0.134-1.164,0.227-1.887,0.28
			c-0.723,0.055-1.594,0.08-2.611,0.08h-13.735c-2.035,0-3.481-0.053-4.337-0.159c-0.857-0.108-1.66-0.295-2.41-0.563
			c-2.839-1.177-4.526-3.319-5.061-6.426c-0.054-0.268-0.107-0.522-0.161-0.763c-0.054-0.241-0.095-0.549-0.121-0.924
			c-0.027-0.374-0.041-0.83-0.041-1.365c0-0.589,0-1.339,0-2.249v-29.078c0-1.124,0.013-2.034,0.041-2.73
			c0.026-0.695,0.066-1.271,0.121-1.728c0.053-0.454,0.133-0.843,0.241-1.165c0.107-0.321,0.241-0.695,0.401-1.124
			c0.374-1.017,0.95-1.9,1.727-2.65s1.619-1.338,2.53-1.768c0.483-0.213,0.91-0.374,1.285-0.481
			c0.375-0.106,0.816-0.188,1.326-0.241c0.509-0.053,1.151-0.093,1.928-0.121c0.775-0.026,1.807-0.04,3.092-0.04h10.603
			c1.285,0,2.302,0,3.052,0c0.75,0,1.339,0.028,1.768,0.08c0.427,0.055,0.775,0.109,1.044,0.161
			c0.268,0.055,0.562,0.108,0.883,0.161c1.875,0.481,3.36,1.419,4.458,2.812c1.097,1.392,1.647,3.025,1.647,4.899
			c0,1.285-0.255,2.504-0.763,3.655c-0.51,1.152-1.219,2.102-2.129,2.851c-0.803,0.697-1.714,1.191-2.73,1.485
			c-1.018,0.296-2.357,0.442-4.017,0.442h-8.836v3.695h6.988c2.196,0,3.937,0.589,5.222,1.768c1.285,1.178,1.928,2.703,1.928,4.578
			c0,2.088-0.777,3.775-2.33,5.061c-0.696,0.536-1.433,0.896-2.208,1.084c-0.777,0.188-1.861,0.281-3.253,0.281h-6.346v4.017
			H869.026z"/>
		<path fill="#3B97D3" d="M924.931,724.359c0.589,0.911,1.017,1.86,1.285,2.851c0.268,0.991,0.402,1.942,0.402,2.852
			c0,1.233-0.229,2.369-0.683,3.413c-0.456,1.045-1.084,1.956-1.888,2.731c-0.803,0.777-1.741,1.395-2.812,1.849
			c-1.071,0.454-2.223,0.682-3.454,0.682c-3.213,0-5.651-1.365-7.309-4.096l-7.31-12.129v7.309c0,1.285-0.229,2.464-0.683,3.535
			c-0.456,1.071-1.072,2.008-1.847,2.811c-0.776,0.804-1.687,1.435-2.73,1.889c-1.045,0.454-2.183,0.682-3.414,0.682
			c-1.34,0-2.625-0.28-3.856-0.843c-1.232-0.562-2.249-1.352-3.052-2.369c-1.393-1.768-2.088-4.284-2.088-7.551V694.96
			c0-1.928,0.214-3.493,0.643-4.698s1.178-2.263,2.25-3.174c1.017-0.909,2.075-1.525,3.173-1.847
			c1.096-0.321,2.717-0.482,4.859-0.482h7.39c2.195,0,3.882,0.068,5.061,0.201c1.178,0.135,2.356,0.336,3.534,0.603
			c2.089,0.59,3.99,1.474,5.703,2.65c1.714,1.178,3.186,2.584,4.418,4.217c1.232,1.635,2.195,3.441,2.892,5.423
			c0.695,1.981,1.044,4.043,1.044,6.185c0,2.57-0.441,4.914-1.325,7.027c-0.883,2.116-2.343,4.326-4.378,6.628L924.931,724.359z
			 M903.164,706.929h0.723h1.205c2.677,0.107,4.017-0.83,4.017-2.811c0-2.036-1.366-2.999-4.097-2.893c-0.214,0-0.481,0-0.802,0
			c-0.27,0-0.617-0.026-1.045-0.08V706.929z"/>
		<path fill="#3B97D3" d="M976.338,739.701c-2.84,0-5.49-0.35-7.953-1.045s-4.605-1.659-6.424-2.892
			c-1.822-1.23-3.242-2.663-4.258-4.297c-1.018-1.633-1.526-3.413-1.526-5.342c0-1.125,0.2-2.169,0.603-3.132
			c0.401-0.965,0.963-1.809,1.686-2.53c0.724-0.725,1.58-1.299,2.572-1.728c0.99-0.429,2.047-0.642,3.172-0.642
			c1.07,0,2.102,0.2,3.092,0.602s2.049,1.058,3.174,1.968c0.963,0.751,1.738,1.339,2.328,1.767c0.59,0.43,1.072,0.764,1.445,1.004
			c0.375,0.241,0.697,0.39,0.965,0.442c0.268,0.055,0.562,0.08,0.885,0.08c0.693,0,1.244-0.213,1.645-0.643
			c0.402-0.427,0.604-0.99,0.604-1.687c0-0.91-0.457-1.659-1.365-2.249c-0.109-0.053-0.229-0.12-0.361-0.2
			c-0.133-0.081-0.32-0.173-0.562-0.282c-0.24-0.106-0.562-0.241-0.963-0.401c-0.402-0.16-0.951-0.375-1.646-0.643
			c-0.752-0.267-1.475-0.522-2.17-0.763c-0.697-0.241-1.42-0.495-2.168-0.764c-7.766-2.731-11.647-7.817-11.647-15.262
			c0-2.623,0.482-5.006,1.445-7.148c0.964-2.142,2.302-3.988,4.017-5.543c1.713-1.552,3.787-2.757,6.225-3.614
			c2.436-0.855,5.1-1.285,7.992-1.285c2.41,0,4.658,0.31,6.748,0.924c2.088,0.617,3.908,1.445,5.461,2.49s2.771,2.277,3.654,3.695
			c0.885,1.419,1.326,2.959,1.326,4.618c0,2.143-0.643,3.896-1.928,5.262s-2.945,2.048-4.979,2.048
			c-1.234,0-2.385-0.228-3.457-0.683c-1.068-0.454-2.354-1.245-3.854-2.369c-0.91-0.75-1.635-1.259-2.17-1.526
			s-1.043-0.402-1.523-0.402c-0.592,0-1.086,0.201-1.486,0.603c-0.402,0.401-0.604,0.898-0.604,1.485
			c0,0.805,0.361,1.446,1.084,1.929s2.129,1.072,4.217,1.768c2.301,0.696,4.471,1.539,6.508,2.53
			c2.033,0.99,3.666,2.022,4.898,3.092c1.66,1.394,2.971,3.2,3.936,5.422c0.965,2.224,1.447,4.619,1.447,7.189
			c0,2.409-0.443,4.727-1.326,6.947c-0.885,2.224-2.129,4.165-3.734,5.824c-1.822,1.82-3.951,3.172-6.387,4.057
			C982.535,739.26,979.658,739.701,976.338,739.701z"/>
		<path fill="#3B97D3" d="M1054.252,722.674c0,3.229-1.928,6.537-5.783,9.926c-2.625,2.261-5.543,4.009-8.756,5.246
			s-6.535,1.855-9.959,1.855c-3.91,0-7.588-0.737-11.033-2.21c-3.447-1.472-6.447-3.465-9.006-5.983
			c-2.561-2.517-4.572-5.489-6.039-8.916c-1.463-3.427-2.197-7.067-2.197-10.924c0-3.909,0.746-7.576,2.238-11.005
			c1.492-3.426,3.518-6.412,6.078-8.955c2.557-2.543,5.559-4.552,9.006-6.025c3.445-1.472,7.123-2.209,11.033-2.209
			c3.264,0,6.424,0.547,9.477,1.64c3.055,1.094,5.863,2.706,8.434,4.839c4.338,3.465,6.508,6.982,6.508,10.554
			c0,1.229-0.229,2.38-0.682,3.451c-0.457,1.072-1.088,2.007-1.889,2.812c-0.803,0.803-1.74,1.433-2.812,1.887
			c-1.072,0.457-2.223,0.683-3.453,0.683c-1.072,0-2.117-0.2-3.133-0.603c-1.018-0.4-1.822-0.923-2.408-1.566l-2.57-2.811
			c-0.967-1.071-2.117-1.874-3.457-2.41c-1.336-0.533-2.729-0.803-4.174-0.803c-1.447,0-2.812,0.27-4.098,0.803
			c-1.285,0.536-2.41,1.272-3.373,2.21c-0.965,0.938-1.717,2.047-2.252,3.333c-0.533,1.285-0.801,2.65-0.801,4.097
			s0.268,2.798,0.801,4.056c0.535,1.259,1.287,2.37,2.252,3.334c0.963,0.963,2.074,1.714,3.332,2.248
			c1.258,0.536,2.611,0.804,4.057,0.804c1.447,0,2.852-0.308,4.217-0.924c1.365-0.614,2.584-1.485,3.654-2.61l1.848-1.928
			c0.75-0.75,1.674-1.365,2.771-1.848c1.098-0.481,2.209-0.723,3.334-0.723c1.176,0,2.303,0.241,3.373,0.723
			c1.072,0.482,2.008,1.125,2.811,1.929c0.805,0.803,1.447,1.727,1.93,2.771C1054.01,720.464,1054.252,721.549,1054.252,722.674z"/>
		<path fill="#3B97D3" d="M1078.188,728.535c0,1.716-0.174,3.12-0.523,4.218c-0.348,1.098-0.922,2.102-1.725,3.012
			c-0.859,0.911-1.877,1.635-3.053,2.169c-1.18,0.535-2.357,0.803-3.535,0.803c-1.232,0-2.449-0.254-3.654-0.762
			c-1.205-0.509-2.182-1.192-2.932-2.049c-0.857-0.91-1.447-1.899-1.766-2.972c-0.322-1.071-0.484-2.543-0.484-4.419v-33.173
			c0-1.124,0.027-2.089,0.082-2.893c0.051-0.802,0.16-1.498,0.32-2.087c0.16-0.59,0.387-1.139,0.682-1.647s0.686-1.004,1.166-1.486
			c1.658-1.927,3.826-2.892,6.506-2.892c2.678,0,4.871,0.938,6.588,2.811c0.908,1.019,1.523,2.089,1.846,3.215
			c0.322,1.124,0.482,2.783,0.482,4.979V728.535z"/>
		<path fill="#3B97D3" d="M1112.244,721.789c1.928,0,3.414,0.147,4.459,0.44c1.043,0.296,2.02,0.817,2.93,1.567
			c1.93,1.661,2.893,3.749,2.893,6.265c0,1.233-0.254,2.424-0.762,3.574c-0.512,1.152-1.219,2.103-2.131,2.853
			c-0.428,0.375-0.871,0.683-1.322,0.923c-0.457,0.241-0.953,0.431-1.486,0.563c-0.537,0.134-1.166,0.227-1.889,0.28
			c-0.723,0.055-1.594,0.08-2.611,0.08h-13.736c-2.035,0-3.48-0.053-4.336-0.159c-0.857-0.108-1.66-0.295-2.41-0.563
			c-2.84-1.177-4.527-3.319-5.059-6.426c-0.055-0.268-0.109-0.522-0.162-0.763c-0.055-0.241-0.094-0.549-0.121-0.924
			c-0.027-0.374-0.039-0.83-0.039-1.365c0-0.589,0-1.339,0-2.249v-29.078c0-1.124,0.012-2.034,0.039-2.73
			c0.027-0.695,0.066-1.271,0.121-1.728c0.053-0.454,0.133-0.843,0.242-1.165c0.105-0.321,0.238-0.695,0.4-1.124
			c0.373-1.017,0.951-1.9,1.727-2.65c0.777-0.75,1.619-1.338,2.531-1.768c0.482-0.213,0.908-0.374,1.285-0.481
			c0.373-0.106,0.814-0.188,1.324-0.241c0.51-0.053,1.15-0.093,1.928-0.121c0.775-0.026,1.809-0.04,3.094-0.04h10.602
			c1.285,0,2.303,0,3.053,0c0.748,0,1.338,0.028,1.768,0.08c0.428,0.055,0.775,0.109,1.045,0.161
			c0.268,0.055,0.561,0.108,0.883,0.161c1.875,0.481,3.357,1.419,4.457,2.812c1.098,1.392,1.646,3.025,1.646,4.899
			c0,1.285-0.256,2.504-0.762,3.655c-0.512,1.152-1.219,2.102-2.131,2.851c-0.803,0.697-1.713,1.191-2.729,1.485
			c-1.018,0.296-2.357,0.442-4.018,0.442h-8.834v3.695h6.986c2.197,0,3.936,0.589,5.221,1.768c1.285,1.178,1.93,2.703,1.93,4.578
			c0,2.088-0.779,3.775-2.332,5.061c-0.695,0.536-1.432,0.896-2.207,1.084c-0.777,0.188-1.861,0.281-3.252,0.281h-6.346v4.017
			H1112.244z"/>
		<path fill="#3B97D3" d="M1158.59,695.201c0-1.768,0.107-3.146,0.322-4.137c0.213-0.989,0.641-1.94,1.285-2.852
			c0.748-1.177,1.779-2.114,3.092-2.811c1.311-0.696,2.691-1.045,4.137-1.045c1.338,0,2.582,0.28,3.734,0.844
			c1.15,0.562,2.156,1.353,3.014,2.369c0.748,0.964,1.285,1.969,1.605,3.013c0.322,1.045,0.482,2.397,0.482,4.056v32.772
			c0,2.142-0.135,3.763-0.402,4.859c-0.27,1.098-0.781,2.156-1.531,3.174c-0.807,1.071-1.814,1.887-3.02,2.449
			c-1.207,0.562-2.512,0.843-3.906,0.843c-2.846,0-5.182-1.204-7.008-3.614l-14.014-17.913v11.246c0,1.768-0.146,3.147-0.439,4.137
			c-0.295,0.992-0.814,1.968-1.559,2.933c-0.855,1.018-1.867,1.807-3.039,2.369c-1.174,0.562-2.424,0.843-3.758,0.843
			c-1.387,0-2.693-0.308-3.918-0.923c-1.227-0.615-2.268-1.458-3.119-2.53c-0.746-1.017-1.24-2.034-1.48-3.054
			c-0.24-1.016-0.357-2.516-0.357-4.497v-33.896c0-2.893,0.842-5.193,2.529-6.908c1.688-1.712,3.922-2.57,6.707-2.57
			c1.285,0,2.451,0.28,3.494,0.844c1.045,0.562,2.074,1.459,3.092,2.691l14.057,17.269V695.201z"/>
		<path fill="#3B97D3" d="M1191.041,701.226c-1.553,0-2.85-0.188-3.896-0.562c-1.043-0.374-1.967-0.964-2.77-1.767
			c-1.66-1.768-2.49-3.721-2.49-5.864c0-1.552,0.441-3.023,1.326-4.418c0.883-1.392,1.967-2.381,3.252-2.972
			c0.482-0.213,0.91-0.374,1.285-0.481c0.375-0.106,0.883-0.188,1.527-0.241c0.641-0.053,1.486-0.093,2.529-0.121
			c1.045-0.026,2.451-0.04,4.217-0.04h17.832c1.23,0,2.195,0,2.893,0c0.695,0,1.23,0,1.605,0c0.373,0,0.654,0.014,0.844,0.04
			c0.188,0.028,0.414,0.068,0.682,0.121c2.143,0.269,3.883,1.152,5.221,2.65c1.338,1.501,2.01,3.293,2.01,5.383
			c0,1.178-0.256,2.329-0.764,3.453c-0.51,1.124-1.219,2.088-2.129,2.892c-1.393,1.285-3.668,1.928-6.828,1.928h-3.936v26.668
			c0,1.606-0.107,2.918-0.32,3.937c-0.215,1.018-0.617,1.98-1.205,2.891c-0.805,1.284-1.836,2.276-3.094,2.972
			c-1.258,0.696-2.664,1.044-4.217,1.044c-1.498,0-2.879-0.32-4.135-0.963c-1.26-0.643-2.318-1.553-3.174-2.731
			c-0.59-0.909-0.992-1.848-1.205-2.812c-0.213-0.963-0.32-2.354-0.32-4.175v-26.829H1191.041z"/>
		<path fill="#3B97D3" d="M1250.4,728.535c0,1.716-0.174,3.12-0.523,4.218c-0.348,1.098-0.922,2.102-1.725,3.012
			c-0.859,0.911-1.877,1.635-3.053,2.169c-1.18,0.535-2.357,0.803-3.535,0.803c-1.232,0-2.449-0.254-3.654-0.762
			c-1.205-0.509-2.182-1.192-2.932-2.049c-0.857-0.91-1.447-1.899-1.766-2.972c-0.322-1.071-0.484-2.543-0.484-4.419v-33.173
			c0-1.124,0.027-2.089,0.082-2.893c0.051-0.802,0.16-1.498,0.32-2.087c0.16-0.59,0.387-1.139,0.684-1.647
			c0.293-0.509,0.684-1.004,1.164-1.486c1.658-1.927,3.826-2.892,6.506-2.892c2.678,0,4.871,0.938,6.588,2.811
			c0.908,1.019,1.523,2.089,1.846,3.215c0.322,1.124,0.482,2.783,0.482,4.979V728.535z"/>
		<path fill="#3B97D3" d="M1277.309,739.701c-2.838,0-5.49-0.35-7.953-1.045c-2.465-0.695-4.605-1.659-6.424-2.892
			c-1.822-1.23-3.242-2.663-4.258-4.297c-1.018-1.633-1.527-3.413-1.527-5.342c0-1.125,0.201-2.169,0.604-3.132
			c0.4-0.965,0.963-1.809,1.686-2.53c0.725-0.725,1.578-1.299,2.57-1.728s2.049-0.642,3.174-0.642c1.07,0,2.1,0.2,3.092,0.602
			s2.049,1.058,3.174,1.968c0.963,0.751,1.74,1.339,2.328,1.767c0.59,0.43,1.07,0.764,1.447,1.004
			c0.373,0.241,0.693,0.39,0.963,0.442c0.268,0.055,0.562,0.08,0.883,0.08c0.697,0,1.246-0.213,1.648-0.643
			c0.402-0.427,0.602-0.99,0.602-1.687c0-0.91-0.455-1.659-1.365-2.249c-0.107-0.053-0.229-0.12-0.361-0.2
			c-0.135-0.081-0.322-0.173-0.562-0.282c-0.242-0.106-0.562-0.241-0.965-0.401s-0.951-0.375-1.646-0.643
			c-0.75-0.267-1.473-0.522-2.168-0.763c-0.695-0.241-1.42-0.495-2.168-0.764c-7.766-2.731-11.648-7.817-11.648-15.262
			c0-2.623,0.482-5.006,1.447-7.148c0.963-2.142,2.301-3.988,4.016-5.543c1.713-1.552,3.787-2.757,6.225-3.614
			c2.436-0.855,5.102-1.285,7.992-1.285c2.41,0,4.66,0.31,6.748,0.924c2.088,0.617,3.908,1.445,5.463,2.49
			c1.553,1.045,2.77,2.277,3.654,3.695c0.883,1.419,1.324,2.959,1.324,4.618c0,2.143-0.643,3.896-1.928,5.262
			s-2.945,2.048-4.98,2.048c-1.232,0-2.383-0.228-3.453-0.683c-1.072-0.454-2.357-1.245-3.855-2.369
			c-0.912-0.75-1.633-1.259-2.168-1.526c-0.537-0.268-1.045-0.402-1.527-0.402c-0.59,0-1.084,0.201-1.486,0.603
			c-0.4,0.401-0.602,0.898-0.602,1.485c0,0.805,0.359,1.446,1.084,1.929c0.723,0.482,2.129,1.072,4.217,1.768
			c2.303,0.696,4.471,1.539,6.506,2.53c2.035,0.99,3.668,2.022,4.9,3.092c1.658,1.394,2.973,3.2,3.936,5.422
			c0.963,2.224,1.445,4.619,1.445,7.189c0,2.409-0.441,4.727-1.324,6.947c-0.883,2.224-2.129,4.165-3.736,5.824
			c-1.82,1.82-3.949,3.172-6.385,4.057C1283.506,739.26,1280.629,739.701,1277.309,739.701z"/>
		<path fill="#3B97D3" d="M1309.359,701.226c-1.553,0-2.852-0.188-3.896-0.562c-1.045-0.374-1.967-0.964-2.77-1.767
			c-1.662-1.768-2.49-3.721-2.49-5.864c0-1.552,0.439-3.023,1.326-4.418c0.883-1.392,1.967-2.381,3.252-2.972
			c0.482-0.213,0.908-0.374,1.285-0.481c0.373-0.106,0.883-0.188,1.525-0.241c0.643-0.053,1.486-0.093,2.531-0.121
			c1.043-0.026,2.449-0.04,4.215-0.04h17.832c1.232,0,2.197,0,2.893,0c0.697,0,1.232,0,1.607,0c0.373,0,0.654,0.014,0.844,0.04
			c0.186,0.028,0.414,0.068,0.682,0.121c2.141,0.269,3.881,1.152,5.221,2.65c1.338,1.501,2.01,3.293,2.01,5.383
			c0,1.178-0.256,2.329-0.764,3.453c-0.51,1.124-1.221,2.088-2.129,2.892c-1.395,1.285-3.668,1.928-6.828,1.928h-3.936v26.668
			c0,1.606-0.107,2.918-0.32,3.937c-0.215,1.018-0.617,1.98-1.205,2.891c-0.805,1.284-1.836,2.276-3.094,2.972
			c-1.26,0.696-2.664,1.044-4.217,1.044c-1.5,0-2.879-0.32-4.137-0.963s-2.316-1.553-3.174-2.731
			c-0.588-0.909-0.99-1.848-1.203-2.812c-0.215-0.963-0.32-2.354-0.32-4.175v-26.829H1309.359z"/>
	</g>
</g>
</svg>
