<?xml version="1.0" encoding="utf-8"?>
<!-- Generator: Adobe Illustrator 16.0.0, SVG Export Plug-In . SVG Version: 6.00 Build 0)  -->
<!DOCTYPE svg PUBLIC "-//W3C//DTD SVG 1.1//EN" "http://www.w3.org/Graphics/SVG/1.1/DTD/svg11.dtd">
<svg version="1.1" id="clouds" xmlns="http://www.w3.org/2000/svg" xmlns:xlink="http://www.w3.org/1999/xlink" x="0px" y="0px"
	 width="2163px" height="35.491px" viewBox="-1113 44.999 2163 35.491" enable-background="new -1113 44.999 2163 35.491"
	 xml:space="preserve">
<path fill="#192434" d="M1000,45h-50h-50h-50h-50h-50h-50h-50h-50h-50h-50h-50h-50h-50h-50h-50h-50h-50h-50H50H0h-13
	c0,0,0,0,0-0.001h-50h-50h-50h-50h-50h-50h-50h-50h-50h-50h-50h-50h-50h-50h-50h-50h-50h-50h-50h-50h-50h-50
	c25.778,28.283,51.558,34.687,77.336,19.224c18.32,8.039,36.641,6.331,54.962-5.125c11.453,2.617,22.906,2.694,34.36,0.232
	c20.277,13.963,40.555,15.188,60.833,3.675c17.326,7.047,34.653,5.96,51.979-3.267c12.917,3.765,25.834,3.983,38.751,0.643
	c21.707,14.247,43.414,13.896,65.121-1.051c15.262,3.28,30.522,2.053,45.783-3.685c12.859,2.772,25.718,2.982,38.576,0.633
	c17.341,8.675,34.682,10.363,52.022,5.065c21.206,13.26,42.413,12.588,63.619-2.014c10.509,2.259,21.017,2.383,31.525,0.366
	c21.589,17.621,43.178,19.007,64.766,4.143c13.578,4.997,27.155,4.997,40.732,0c16.971,11.686,33.941,13.326,50.913,4.936
	c20.588,16.793,41.177,15.533,61.766-3.787c12.441,3.812,24.881,3.431,37.322-1.148c19.756,13.603,39.512,13.603,59.268,0
	c12.966,4.771,25.932,4.985,38.897,0.644c20.199,16.409,40.397,17.016,60.596,1.828c17.216,7.421,34.432,5.661,51.648-5.281
	c19.854,14.038,39.707,15.104,59.561,3.194c18.32,8.039,36.641,6.331,54.962-5.125c11.453,2.617,22.906,2.694,34.36,0.231
	c20.278,13.964,40.556,15.188,60.833,3.675c17.326,7.048,34.653,5.961,51.979-3.267c12.917,3.766,25.834,3.984,38.751,0.644
	c21.707,14.247,43.415,13.896,65.122-1.052c15.261,3.281,30.522,2.054,45.783-3.684c12.859,2.771,25.718,2.982,38.577,0.632
	c17.34,8.675,34.681,10.363,52.022,5.066c21.206,13.259,42.413,12.588,63.619-2.015c10.508,2.26,21.017,2.383,31.524,0.367
	c21.589,17.621,43.178,19.007,64.767,4.143c13.577,4.996,27.155,4.996,40.732,0c16.971,11.685,33.941,13.326,50.912,4.936
	c20.589,16.793,41.178,15.532,61.767-3.787c12.44,3.812,24.881,3.43,37.321-1.148c19.756,13.603,39.512,13.603,59.268,0
	c12.966,4.771,25.932,4.984,38.897,0.643c20.198,16.409,40.397,17.017,60.596,1.828C1002.751,76.495,1026.375,69.396,1050,45H1000z"
	/>
</svg>
