<?xml version="1.0" encoding="utf-8"?>
<!-- Generator: Adobe Illustrator 16.0.0, SVG Export Plug-In . SVG Version: 6.00 Build 0)  -->
<!DOCTYPE svg PUBLIC "-//W3C//DTD SVG 1.1//EN" "http://www.w3.org/Graphics/SVG/1.1/DTD/svg11.dtd">
<svg version="1.1" id="clouds" xmlns="http://www.w3.org/2000/svg" xmlns:xlink="http://www.w3.org/1999/xlink" x="0px" y="0px"
	 width="1100px" height="55px" viewBox="-50 45 1100 55" enable-background="new -50 45 1100 55" xml:space="preserve">
<path fill="#192434" d="M1050,45c-33.334,53.334-66.666,53.334-100,0H1050z M1000,45c-33.334,66.666-66.666,66.666-100,0 M950,45
	c-33.334,46.666-66.666,46.666-100,0 M900,45c-33.334,60-66.666,60-100,0 M850,45c-33.334,46.666-66.666,46.666-100,0 M800,45
	c-33.334,73.334-66.666,73.334-100,0 M750,45c-33.334,60-66.667,60-100,0 M700,45c-33.333,46.666-66.667,46.666-100,0 M650,45
	c-33.333,60-66.667,60-100,0 M600,45c-33.333,33.334-66.667,33.334-100,0 M550,45c-33.333,53.334-66.667,53.334-100,0 M500,45
	c-33.333,40-66.667,40-100,0 M450,45c-33.333,26.666-66.667,26.666-100,0 M400,45c-33.333,33.334-66.667,33.334-100,0 M350,45
	c-33.333,53.334-66.667,53.334-100,0 M300,45c-33.333,36.666-66.667,36.666-100,0 M250,45c-33.333,46.666-66.667,46.666-100,0
	 M200,45c-33.333,53.334-66.667,53.334-100,0 M150,45c-33.333,33.334-66.667,33.334-100,0 M100,45C66.667,95,33.333,95,0,45 M50,45
	c-33.333,56.666-66.667,56.666-100,0H50z"/>
</svg>
