<?xml version="1.0" encoding="utf-8"?>
<!-- Generator: Adobe Illustrator 16.0.0, SVG Export Plug-In . SVG Version: 6.00 Build 0)  -->
<!DOCTYPE svg PUBLIC "-//W3C//DTD SVG 1.1//EN" "http://www.w3.org/Graphics/SVG/1.1/DTD/svg11.dtd">
<svg version="1.1" id="clouds" xmlns="http://www.w3.org/2000/svg" xmlns:xlink="http://www.w3.org/1999/xlink" x="0px" y="0px"
	 width="1100px" height="55px" viewBox="-50 45 1100 55" enable-background="new -50 45 1100 55" xml:space="preserve">
<path fill="#192434" d="M-50,100c33.333-53.333,66.667-53.333,100,0H-50z M0,100c33.333-66.667,66.667-66.667,100,0 M50,100
	c33.333-46.666,66.667-46.666,100,0 M100,100c33.333-60,66.667-60,100,0 M150,100c33.333-46.666,66.667-46.666,100,0 M200,100
	c33.333-73.333,66.667-73.333,100,0 M250,100c33.333-60,66.667-60,100,0 M300,100c33.333-46.666,66.667-46.666,100,0 M350,100
	c33.333-60,66.667-60,100,0 M400,100c33.333-33.334,66.667-33.334,100,0 M450,100c33.333-53.333,66.667-53.333,100,0 M500,100
	c33.333-40,66.667-40,100,0 M550,100c33.333-26.666,66.667-26.666,100,0 M600,100c33.333-33.334,66.667-33.334,100,0 M650,100
	c33.333-53.333,66.667-53.333,100,0 M700,100c33.333-36.666,66.667-36.666,100,0 M750,100c33.333-46.666,66.667-46.666,100,0
	 M800,100c33.333-53.333,66.667-53.333,100,0 M850,100c33.333-33.334,66.667-33.334,100,0 M900,100c33.333-50,66.667-50,100,0
	 M950,100c33.333-56.667,66.667-56.667,100,0H950z"/>
</svg>
