<?xml version="1.0" encoding="utf-8"?>
<!-- Generator: Adobe Illustrator 16.0.0, SVG Export Plug-In . SVG Version: 6.00 Build 0)  -->
<!DOCTYPE svg PUBLIC "-//W3C//DTD SVG 1.1//EN" "http://www.w3.org/Graphics/SVG/1.1/DTD/svg11.dtd">
<svg version="1.1" id="clouds" xmlns="http://www.w3.org/2000/svg" xmlns:xlink="http://www.w3.org/1999/xlink" x="0px" y="0px"
	 width="2163px" height="54.991px" viewBox="-1113 44.999 2163 54.991" enable-background="new -1113 44.999 2163 54.991"
	 xml:space="preserve">
<path fill="#192434" d="M1000,45h-50h-50h-50h-50h-50h-50h-50h-50h-50h-50h-50h-50h-50h-50h-50h-50h-50h-50H50H0h-13
	c0,0,0,0,0-0.001h-50h-50h-50h-50h-50h-50h-50h-50h-50h-50h-50h-50h-50h-50h-50h-50h-50h-50h-50h-50h-50h-50
	c25.778,43.823,51.558,53.745,77.336,29.786c18.32,12.456,36.641,9.81,54.962-7.941c11.453,4.056,22.906,4.175,34.36,0.359
	c20.278,21.636,40.556,23.533,60.833,5.694c17.326,10.92,34.653,9.235,51.979-5.062c12.917,5.834,25.834,6.173,38.751,0.996
	c21.707,22.075,43.415,21.532,65.122-1.629c15.261,5.084,30.522,3.182,45.783-5.708c12.859,4.295,25.718,4.621,38.577,0.979
	c17.34,13.441,34.681,16.058,52.022,7.85c21.206,20.545,42.413,19.505,63.619-3.121c10.509,3.501,21.017,3.692,31.525,0.568
	c21.589,27.304,43.178,29.45,64.766,6.419c13.578,7.742,27.155,7.742,40.732,0c16.971,18.105,33.941,20.648,50.913,7.647
	c20.588,26.02,41.177,24.067,61.766-5.868c12.441,5.906,24.881,5.315,37.322-1.779c19.756,21.076,39.512,21.076,59.268,0
	c12.966,7.394,25.932,7.724,38.897,0.996c20.199,25.426,40.397,26.366,60.596,2.833c17.216,11.499,34.432,8.772,51.648-8.183
	c19.854,21.752,39.707,23.401,59.561,4.949c18.32,12.456,36.641,9.81,54.962-7.941c11.453,4.056,22.906,4.175,34.36,0.359
	c20.278,21.636,40.556,23.533,60.833,5.694c17.326,10.92,34.653,9.235,51.979-5.062c12.917,5.834,25.834,6.173,38.751,0.996
	c21.707,22.075,43.415,21.532,65.122-1.629c15.261,5.084,30.522,3.182,45.783-5.708c12.859,4.295,25.718,4.621,38.577,0.979
	c17.34,13.441,34.681,16.058,52.022,7.85c21.206,20.545,42.413,19.505,63.619-3.121c10.508,3.501,21.017,3.692,31.524,0.568
	c21.589,27.304,43.178,29.45,64.767,6.419c13.577,7.742,27.155,7.742,40.732,0c16.971,18.105,33.941,20.648,50.912,7.647
	c20.589,26.02,41.178,24.067,61.767-5.868c12.44,5.906,24.881,5.314,37.321-1.779c19.756,21.076,39.512,21.076,59.268,0
	c12.966,7.394,25.932,7.724,38.897,0.996c20.198,25.426,40.397,26.366,60.596,2.833C1002.751,93.8,1026.375,82.8,1050,45H1000z"/>
</svg>
