<?xml version="1.0" encoding="utf-8"?>
<!-- Generator: Adobe Illustrator 16.0.0, SVG Export Plug-In . SVG Version: 6.00 Build 0)  -->
<!DOCTYPE svg PUBLIC "-//W3C//DTD SVG 1.1//EN" "http://www.w3.org/Graphics/SVG/1.1/DTD/svg11.dtd">
<svg version="1.1" id="Layer_1" xmlns="http://www.w3.org/2000/svg" xmlns:xlink="http://www.w3.org/1999/xlink" x="0px" y="0px"
	 width="162px" height="162px" viewBox="0 0 162 162" enable-background="new 0 0 162 162" xml:space="preserve">
<g display="none">
	<defs>
		<circle id="SVGID_1_" cx="81" cy="81" r="72"/>
	</defs>
	<clipPath id="SVGID_2_" display="inline">
		<use xlink:href="#SVGID_1_"  overflow="visible"/>
	</clipPath>
	<g display="inline" clip-path="url(#SVGID_2_)">
		<g>
			<path fill="#DEDEDD" d="M92.5,81c-0.574-7.826-8.755-14.647-16.556-10.322C70.511,73.69,69.5,78.581,69.5,84.246
				c0,10.918,0,21.836,0,32.754c1.254-0.721,2.508-1.439,3.762-2.158c-4.39-2.172-9.161-3.957-14.071-4.33
				c-7.787-0.59-8.189,6.758-7.448,12.645c0.984,7.807,9.371,13.043,14.165,18.516C70.761,147.213,69.5,155.17,69.5,162
				c0,1.34,1.137,2.529,2.5,2.5c11.417-0.25,22.833-0.5,34.25-0.75c0.798-0.018,1.821-0.445,2.159-1.238
				c2.925-6.873,5.354-13.967,7.385-21.15c2.652-9.385,5.976-22.463,2.027-31.912c-1.69-4.045-5.253-5.561-9.105-6.844
				c-6.017-2.006-12.034-4.012-18.051-6.018c0.612,0.805,1.224,1.607,1.835,2.412C92.5,93,92.5,87,92.5,81c0-3.224-5-3.224-5,0
				c0,6,0,12,0,18c0,1.156,0.772,2.057,1.835,2.41c4.958,1.652,9.917,3.305,14.875,4.959c2.174,0.725,4.349,1.449,6.523,2.174
				c-0.946-0.316-0.277-0.057,0.575,0.561c0.683,0.494,1.225,1.01,1.669,1.734c2.144,3.494,1.343,9.307,1.11,13.139
				c-0.33,5.432-1.693,10.822-3.115,16.055c-1.77,6.512-4.553,14.486-6.881,19.957c0.72-0.414,1.439-0.826,2.159-1.238
				C94.833,159,83.417,159.25,72,159.5c0.833,0.832,1.667,1.666,2.5,2.5c0-4.588,0.412-9.357-0.342-13.891
				c-1.325-7.971-7.481-12.887-12.863-18.381c-2.085-2.129-4.266-4.303-4.654-7.385c-0.284-2.254-1.253-6.641,1.77-6.842
				c4.065-0.268,8.749,1.887,12.328,3.656c1.664,0.822,3.762-0.164,3.762-2.158c0-7.648,0-15.295,0-22.943c0-3.941,0-7.881,0-11.822
				c0-8.708,12.304-10.717,13-1.234C87.734,84.195,92.736,84.219,92.5,81z"/>
		</g>
	</g>
	<g display="inline" clip-path="url(#SVGID_2_)">
		<g>
			<path fill="#DEDEDD" d="M148,81c-0.215,22.568-11.4,43.488-30.219,56.018c-18.896,12.58-43.752,14.371-64.394,5.074
				c-20.417-9.195-34.52-28.213-38.511-50.072c-4.081-22.351,4.69-45.374,21.098-60.643c19.295-17.957,48.76-22.223,72.639-11.468
				C132.554,30.691,147.751,54.924,148,81c0.062,6.445,10.062,6.451,10,0c-0.214-22.446-9.857-43.7-26.855-58.415
				C113.897,7.653,91.055,1.797,68.664,5.015C22.26,11.684-6.267,61.327,7.849,105.086c11.634,36.066,48.596,57.201,85.487,51.898
				C130.447,151.652,157.649,117.822,158,81C158.062,74.549,148.062,74.555,148,81z"/>
		</g>
	</g>
	<g display="inline" clip-path="url(#SVGID_2_)">
		<g>
			<path fill="#DEDEDD" d="M392.699,68.18c0-11.426,0-22.851,0-34.277c0-3.485,0.111-6.792-1.139-10.129
				c-2.408-6.434-11.271-8.792-15.613-2.759c-2.15,2.987-2.648,6.557-2.648,10.136c0,5.476,0,10.951,0,16.426
				c0,11.189,0,22.377,0,33.566c1.553-0.421,3.105-0.841,4.658-1.262c-2.992-4.918-5.984-9.836-8.977-14.754
				c-2.521-4.143-4.732-8.969-7.895-12.686c-6.811-8.01-15.736-0.739-16.578,7.85c-0.486,4.97,2.789,9.335,5.217,13.326
				c3.971,6.526,7.941,13.052,11.912,19.578c1.021,1.678,2.041,3.354,3.061,5.031c0.064,0.104-0.207-1.838-0.309-0.654
				c-0.061,0.717-0.113,1.436-0.162,2.156c-0.918,13.234-0.887,27.088,2.371,40.016c1.482,5.881,4.051,11.797,9.074,15.457
				c3.971,2.895,9.395,2.193,14.031,2.416c7.574,0.365,15.463,0.412,21.008-5.586c9.357-10.123,9.482-28.393,10.223-41.154
				c0.486-8.383,1.666-17.623,0.273-25.952c-0.84-5.017-3.887-9.531-7.799-12.672c-6.488-5.208-15.139-6.466-23.209-6.571
				c-3.225-0.042-3.221,4.958,0,5c8.912,0.115,19.096,1.858,24.15,10.059c2.777,4.506,2.164,8.869,2.104,14.078
				c-0.133,11.598-0.543,23.316-2.41,34.783c-0.975,5.994-2.361,12.301-5.74,17.445c-4.395,6.689-12.607,5.855-19.596,5.523
				c-5.299-0.252-9.85,0.24-13.277-4.588c-4.098-5.768-5.189-13.74-5.928-20.588c-1.049-9.717-0.922-19.637-0.15-29.373
				c0.174-2.174-1.188-3.717-2.285-5.523c-3.287-5.4-6.572-10.801-9.859-16.201c-2.094-3.442-4.188-6.884-6.283-10.327
				c-2.043-3.357-1.83-7.455,0.625-10.558c2.541-3.209,5.098-0.936,6.543,1.439c5.184,8.518,10.365,17.036,15.549,25.553
				c1.283,2.109,4.658,1.257,4.658-1.262c0-17.304-0.965-34.879,0.029-52.151c0.166-2.909,1.348-6.252,4.672-6.491
				c3.371-0.242,4.451,3.903,4.672,6.491c0.242,2.847,0.027,5.786,0.027,8.638c0,10.184,0,20.368,0,30.551
				C387.699,71.404,392.699,71.404,392.699,68.18z"/>
		</g>
	</g>
	<path display="inline" clip-path="url(#SVGID_2_)" fill="none" stroke="#DEDEDD" stroke-miterlimit="10" d="M95,95.652"/>
	<path display="inline" clip-path="url(#SVGID_2_)" fill="none" stroke="#DEDEDD" stroke-miterlimit="10" d="M74.682,68.769"/>
	<path display="inline" clip-path="url(#SVGID_2_)" fill="none" stroke="#DEDEDD" stroke-miterlimit="10" d="M95.04,95.652"/>
	<g display="inline" clip-path="url(#SVGID_2_)">
		<g>
			<path fill="#DEDEDD" d="M105.827,96.922c12.781-20.981-4.433-49.517-29.604-45.021c-24.85,4.438-33.065,36.258-13.491,52.23
				c2.475,2.021,6.035-1.494,3.535-3.535c-16.259-13.27-10.575-38.898,9.956-43.636c8.937-2.063,18.027,1.919,23.844,8.634
				c6.996,8.076,6.792,20.022,1.443,28.805C99.828,97.16,104.153,99.67,105.827,96.922L105.827,96.922z"/>
		</g>
	</g>
	<g display="inline" clip-path="url(#SVGID_2_)">
		<g>
			<path fill="#DEDEDD" d="M114.63,99.74c7.17-13.594,6.217-29.738-3.039-42.085c-8.342-11.129-22.369-16.556-36.033-14.746
				c-13.155,1.742-24.956,10.847-30.012,23.114c-5.874,14.249-2.77,30.118,7.529,41.465c2.171,2.393,5.696-1.154,3.535-3.535
				c-18.143-19.992-6.638-52.656,20.287-56.222c27.085-3.587,45.792,26.023,33.415,49.486
				C108.81,100.066,113.125,102.592,114.63,99.74L114.63,99.74z"/>
		</g>
	</g>
</g>
<g>
	<defs>
		<circle id="SVGID_3_" cx="81" cy="81" r="72"/>
	</defs>
	<clipPath id="SVGID_4_">
		<use xlink:href="#SVGID_3_"  overflow="visible"/>
	</clipPath>
	<g clip-path="url(#SVGID_4_)">
		<g>
			<path fill="#DEDEDD" d="M54,33.5c-25.221,0.652-20.5,29.201-20.5,46.301c0,29.811,0,59.621,0,89.434c0,3.588,0,7.176,0,10.766
				c0,1.363,1.137,2.5,2.5,2.5c49.526,0,99.051,0,148.577,0c4.474,0,8.949,0,13.423,0c1.363,0,2.5-1.137,2.5-2.5
				c0-47.25,0-94.498,0-141.747c0-0.751,0-1.502,0-2.253c0-1.363-1.137-2.5-2.5-2.5C150,33.5,102,33.5,54,33.5c-3.224,0-3.224,5,0,5
				c48,0,96,0,144,0c-0.833-0.833-1.667-1.667-2.5-2.5c0,47.248,0,94.498,0,141.746c0,0.752,0,1.502,0,2.254
				c0.833-0.834,1.667-1.668,2.5-2.5c-49.526,0-99.051,0-148.577,0c-4.474,0-8.949,0-13.423,0c0.833,0.832,1.667,1.666,2.5,2.5
				c0-22.832,0-45.662,0-68.494c0-14.541,0-29.083,0-43.625c0-5.599-0.725-11.74,0.435-17.28C40.542,42.925,46.246,38.701,54,38.5
				C57.218,38.417,57.226,33.417,54,33.5z"/>
			<path fill="#DEDEDD" d="M189,168.5c-44.971,0-89.941,0-134.913,0c-0.029,0-0.058,0-0.087,0c0.833,0.832,1.667,1.666,2.5,2.5
				c0-24.217,0-48.436,0-72.652c0-11.219,0-22.438,0-33.658c0-3.539,0.767-6.898,4.726-8.027c3.197-0.912,7.645-0.163,10.911-0.163
				c38.955,0,77.909,0,116.864,0c-0.833-0.833-1.667-1.667-2.5-2.5c0,39,0,78,0,117c0,3.225,5,3.225,5,0c0-39,0-78,0-117
				c0-1.363-1.137-2.5-2.5-2.5c-24.014,0-48.028,0-72.042,0c-14.541,0-29.083,0-43.624,0c-3.39,0-6.78,0-10.17,0
				c-6.712,0-11.183,4.741-11.655,11.248C51.126,68.03,51.5,73.473,51.5,78.764c0,12.412,0,24.824,0,37.236c0,18.334,0,36.666,0,55
				c0,1.363,1.137,2.5,2.5,2.5c44.971,0,89.941,0,134.913,0c0.029,0,0.058,0,0.087,0C192.224,173.5,192.224,168.5,189,168.5z"/>
		</g>
	</g>
	<g clip-path="url(#SVGID_4_)">
		<line fill="#9CB1DB" x1="72" y1="72" x2="126" y2="72"/>
		<g>
			<path fill="#DEDEDD" d="M72,74.5c18,0,36,0,54,0c3.224,0,3.224-5,0-5c-18,0-36,0-54,0C68.776,69.5,68.776,74.5,72,74.5L72,74.5z"
				/>
		</g>
	</g>
	<g clip-path="url(#SVGID_4_)">
		<polyline fill="#9CB1DB" points="81,81 162,81 81,81 		"/>
		<g>
			<path fill="#DEDEDD" d="M81,83.5c27,0,54,0,81,0c3.224,0,3.224-5,0-5c-27,0-54,0-81,0C77.776,78.5,77.776,83.5,81,83.5
				c27,0,54,0,81,0c3.224,0,3.224-5,0-5c-27,0-54,0-81,0C77.776,78.5,77.776,83.5,81,83.5L81,83.5z"/>
		</g>
	</g>
	<g clip-path="url(#SVGID_4_)">
		<line fill="#9CB1DB" x1="90" y1="90" x2="162" y2="90"/>
		<g>
			<path fill="#DEDEDD" d="M90,92.5c24,0,48,0,72,0c3.224,0,3.224-5,0-5c-24,0-48,0-72,0C86.776,87.5,86.776,92.5,90,92.5L90,92.5z"
				/>
		</g>
	</g>
	<g clip-path="url(#SVGID_4_)">
		<line fill="#9CB1DB" x1="72" y1="99" x2="99" y2="99"/>
		<g>
			<path fill="#DEDEDD" d="M72,101.5c9,0,18,0,27,0c3.224,0,3.224-5,0-5c-9,0-18,0-27,0C68.776,96.5,68.776,101.5,72,101.5L72,101.5
				z"/>
		</g>
	</g>
	<g clip-path="url(#SVGID_4_)">
		<line fill="#9CB1DB" x1="72" y1="108" x2="153" y2="108"/>
		<g>
			<path fill="#DEDEDD" d="M72,110.5c27,0,54,0,81,0c3.224,0,3.224-5,0-5c-27,0-54,0-81,0C68.776,105.5,68.776,110.5,72,110.5
				L72,110.5z"/>
		</g>
	</g>
	<g clip-path="url(#SVGID_4_)">
		<g>
			<path fill="#DEDEDD" d="M148,81c-0.215,22.568-11.399,43.488-30.219,56.018c-18.896,12.58-43.752,14.369-64.394,5.074
				c-20.417-9.195-34.52-28.213-38.511-50.072c-4.081-22.351,4.69-45.374,21.098-60.643c19.295-17.957,48.76-22.223,72.639-11.468
				C132.554,30.691,147.751,54.924,148,81c0.062,6.445,10.062,6.451,10,0c-0.214-22.446-9.857-43.7-26.855-58.415
				C113.897,7.653,91.055,1.797,68.664,5.015C22.259,11.684-6.267,61.328,7.849,105.088c11.634,36.064,48.596,57.199,85.487,51.896
				C130.448,151.652,157.649,117.822,158,81C158.062,74.549,148.062,74.555,148,81z"/>
		</g>
	</g>
	<g clip-path="url(#SVGID_4_)">
		<line fill="#9CB1DB" x1="87.254" y1="117" x2="159.254" y2="117"/>
		<g>
			<path fill="#DEDEDD" d="M87.254,119.5c24,0,48,0,72,0c3.224,0,3.224-5,0-5c-24,0-48,0-72,0C84.03,114.5,84.03,119.5,87.254,119.5
				L87.254,119.5z"/>
		</g>
	</g>
	<g clip-path="url(#SVGID_4_)">
		<polyline fill="#9CB1DB" points="78.254,126 159.254,126 78.254,126 		"/>
		<g>
			<path fill="#DEDEDD" d="M78.254,128.5c27,0,54,0,81,0c3.224,0,3.224-5,0-5c-27,0-54,0-81,0C75.03,123.5,75.03,128.5,78.254,128.5
				c27,0,54,0,81,0c3.224,0,3.224-5,0-5c-27,0-54,0-81,0C75.03,123.5,75.03,128.5,78.254,128.5L78.254,128.5z"/>
		</g>
	</g>
	<g clip-path="url(#SVGID_4_)">
		<line fill="#9CB1DB" x1="69.254" y1="135" x2="123.254" y2="135"/>
		<g>
			<path fill="#DEDEDD" d="M69.254,137.5c18,0,36,0,54,0c3.224,0,3.224-5,0-5c-18,0-36,0-54,0C66.03,132.5,66.03,137.5,69.254,137.5
				L69.254,137.5z"/>
		</g>
	</g>
	<use xlink:href="#SVGID_3_"  overflow="visible" fill="none" stroke="#DEDEDD" stroke-miterlimit="10"/>
</g>
<g display="none">
	<defs>
		<circle id="SVGID_5_" cx="81" cy="81" r="72"/>
	</defs>
	<clipPath id="SVGID_6_" display="inline">
		<use xlink:href="#SVGID_5_"  overflow="visible"/>
	</clipPath>
	<g display="inline" clip-path="url(#SVGID_6_)">
		<g>
			<path fill="#DEDEDD" d="M148,81c-0.215,22.568-11.399,43.488-30.219,56.018c-18.896,12.58-43.752,14.369-64.394,5.074
				c-20.417-9.195-34.52-28.213-38.511-50.072c-4.081-22.351,4.69-45.374,21.098-60.643c19.295-17.957,48.76-22.223,72.639-11.468
				C132.554,30.691,147.751,54.924,148,81c0.062,6.445,10.062,6.451,10,0c-0.214-22.446-9.857-43.7-26.855-58.415
				C113.897,7.653,91.055,1.797,68.664,5.015C22.259,11.684-6.267,61.328,7.849,105.088c11.634,36.064,48.596,57.199,85.487,51.896
				C130.448,151.652,157.649,117.822,158,81C158.062,74.549,148.062,74.555,148,81z"/>
		</g>
	</g>
	<g display="inline" clip-path="url(#SVGID_6_)">
		<g>
			<path fill="#DEDEDD" d="M28.768,154.768c35.261-35.26,70.521-70.521,105.781-105.781c6.74-6.74,13.479-13.479,20.219-20.219
				c-1.422-0.589-2.845-1.178-4.268-1.768c0,12.108,0,24.217,0,36.326c0,5.61,0,11.22,0,16.829c0,2.154,1.56-1.75,0.294-0.484
				c-0.977,0.978-1.954,1.955-2.931,2.932c-20.009,20.01-40.018,40.018-60.027,60.027c-2.793,2.791-5.585,5.584-8.378,8.377
				c-0.884,0.883,2.355-0.506,1.325-0.506c-0.683,0-1.366,0-2.049,0c-3.049,0-6.098,0-9.147,0c-14.195,0-28.391,0-42.587,0
				c-3.224,0-3.224,5,0,5c12.108,0,24.217,0,36.326,0c5.61,0,11.22,0,16.829,0c2.287,0,3.3-1.42,4.811-2.93
				c19.735-19.736,39.471-39.471,59.207-59.207c3.386-3.387,6.771-6.771,10.157-10.157c2.275-2.275,1.17-7.571,1.17-10.457
				c0-15.25,0-30.5,0-45.749c0-2.181-2.725-3.311-4.268-1.768c-35.261,35.26-70.521,70.52-105.781,105.781
				c-6.74,6.738-13.479,13.479-20.219,20.219C22.95,153.514,26.486,157.049,28.768,154.768z"/>
		</g>
	</g>
	<g display="inline" clip-path="url(#SVGID_6_)">
		<g>
			<path fill="#DEDEDD" d="M52.232,127.768c3,3,6,6,9,9c2.282,2.281,5.817-1.254,3.535-3.535c-3-3-6-6-9-9
				C53.486,121.949,49.95,125.486,52.232,127.768L52.232,127.768z"/>
		</g>
	</g>
	<g display="inline" clip-path="url(#SVGID_6_)">
		<g>
			<path fill="#DEDEDD" d="M61.936,119.471c5.531,5.531,11.062,11.062,16.594,16.594c2.282,2.281,5.817-1.254,3.535-3.535
				c-5.531-5.531-11.062-11.062-16.594-16.594C63.189,113.652,59.653,117.189,61.936,119.471L61.936,119.471z"/>
		</g>
	</g>
	<g display="inline" clip-path="url(#SVGID_6_)">
		<g>
			<path fill="#DEDEDD" d="M70.232,109.768c3,3,6,6,9,9c2.282,2.281,5.817-1.254,3.535-3.535c-3-3-6-6-9-9
				C71.486,103.949,67.95,107.486,70.232,109.768L70.232,109.768z"/>
		</g>
	</g>
	<g display="inline" clip-path="url(#SVGID_6_)">
		<g>
			<path fill="#DEDEDD" d="M79.232,100.768c3,3,6,6,9,9c2.282,2.281,5.817-1.254,3.535-3.535c-3-3-6-6-9-9
				C80.486,94.949,76.95,98.486,79.232,100.768L79.232,100.768z"/>
		</g>
	</g>
	<g display="inline" clip-path="url(#SVGID_6_)">
		<g>
			<path fill="#DEDEDD" d="M88.232,91.768c3,3,6,6,9,9c2.282,2.281,5.817-1.254,3.535-3.535c-3-3-6-6-9-9
				C89.486,85.949,85.95,89.486,88.232,91.768L88.232,91.768z"/>
		</g>
	</g>
	<g display="inline" clip-path="url(#SVGID_6_)">
		<g>
			<path fill="#DEDEDD" d="M97.232,82.768c3,3,6,6,9,9c2.282,2.281,5.817-1.254,3.535-3.535c-3-3-6-6-9-9
				C98.486,76.951,94.95,80.486,97.232,82.768L97.232,82.768z"/>
		</g>
	</g>
	<g display="inline" clip-path="url(#SVGID_6_)">
		<g>
			<path fill="#DEDEDD" d="M106.232,73.768c3,3,6,6,9,9c2.282,2.281,5.817-1.254,3.535-3.535c-3-3-6-6-9-9
				C107.486,67.95,103.95,71.486,106.232,73.768L106.232,73.768z"/>
		</g>
	</g>
	<g display="inline" clip-path="url(#SVGID_6_)">
		<g>
			<path fill="#DEDEDD" d="M115.936,66.174c5.766,5.531,11.531,11.062,17.297,16.594c2.326,2.231,5.866-1.3,3.535-3.535
				c-5.766-5.531-11.531-11.062-17.297-16.594C117.145,60.407,113.605,63.938,115.936,66.174L115.936,66.174z"/>
		</g>
	</g>
	<g display="inline" clip-path="url(#SVGID_6_)">
		<g>
			<path fill="#DEDEDD" d="M124.232,55.768c3,3,6,6,9,9c2.282,2.282,5.817-1.253,3.535-3.535c-3-3-6-6-9-9
				C125.486,49.95,121.95,53.486,124.232,55.768L124.232,55.768z"/>
		</g>
	</g>
	<g display="inline" clip-path="url(#SVGID_6_)">
		<g>
			<path fill="#DEDEDD" d="M133.232,46.768c3,3,6,6,9,9c2.282,2.282,5.817-1.253,3.535-3.535c-3-3-6-6-9-9
				C134.486,40.95,130.95,44.486,133.232,46.768L133.232,46.768z"/>
		</g>
	</g>
	<g display="inline" clip-path="url(#SVGID_6_)">
		<g>
			<path fill="#DEDEDD" d="M7.232,172.768c3,3,6,6,9,9c2.282,2.281,5.817-1.254,3.535-3.535c-3-3-6-6-9-9
				C8.486,166.949,4.95,170.486,7.232,172.768L7.232,172.768z"/>
		</g>
	</g>
	<g display="inline" clip-path="url(#SVGID_6_)">
		<g>
			<path fill="#DEDEDD" d="M16.232,163.768c3,3,6,6,9,9c2.282,2.281,5.817-1.254,3.535-3.535c-3-3-6-6-9-9
				C17.486,157.949,13.95,161.486,16.232,163.768L16.232,163.768z"/>
		</g>
	</g>
	<g display="inline" clip-path="url(#SVGID_6_)">
		<g>
			<path fill="#DEDEDD" d="M25.232,154.768c3,3,6,6,9,9c2.282,2.281,5.817-1.254,3.535-3.535c-3-3-6-6-9-9
				C26.486,148.949,22.95,152.486,25.232,154.768L25.232,154.768z"/>
		</g>
	</g>
	<g display="inline" clip-path="url(#SVGID_6_)">
		<g>
			<path fill="#DEDEDD" d="M34.232,145.768c3,3,6,6,9,9c2.282,2.281,5.817-1.254,3.535-3.535c-3-3-6-6-9-9
				C35.486,139.949,31.95,143.486,34.232,145.768L34.232,145.768z"/>
		</g>
	</g>
	<g display="inline" clip-path="url(#SVGID_6_)">
		<g>
			<path fill="#DEDEDD" d="M43.232,136.768c3,3,6,6,9,9c2.282,2.281,5.817-1.254,3.535-3.535c-3-3-6-6-9-9
				C44.486,130.949,40.95,134.486,43.232,136.768L43.232,136.768z"/>
		</g>
	</g>
	<g display="inline" clip-path="url(#SVGID_6_)">
		<g>
			<path fill="#DEDEDD" d="M92.5,31.5c-0.004-0.184-0.009-0.369-0.014-0.553c-0.833,0.833-1.667,1.667-2.5,2.5
				c3.075-0.269,6.149-0.538,9.224-0.807c1.262-0.11,2.626-1.057,2.5-2.5c-0.261-2.989-0.523-5.977-0.784-8.966
				c-0.11-1.262-1.057-2.626-2.5-2.5c-3.07,0.269-6.139,0.537-9.209,0.806c0.804,0.612,1.607,1.224,2.411,1.835
				C87.824-0.31,72.912-17.941,52.489-25.782C31.907-33.685,8.371-28.672-8.29-14.728C-25.095-0.662-32.188,21.994-28.358,43.269
				c3.844,21.352,19.982,38.743,40.123,45.946c2.994,1.072,6.103,1.787,9.226,2.355c-0.612-0.803-1.224-1.607-1.835-2.41
				c-0.27,3.076-0.539,6.152-0.809,9.229c-0.126,1.443,1.239,2.389,2.5,2.5c2.989,0.262,5.978,0.523,8.967,0.785
				c1.443,0.125,2.39-1.238,2.5-2.5c0.268-3.066,0.537-6.131,0.805-9.195c-0.833,0.832-1.667,1.666-2.5,2.5
				c4.054,0.098,8.066-0.361,12.057-1.027c-1.025-0.582-2.05-1.164-3.075-1.746c0.796,2.971,1.592,5.943,2.388,8.914
				c0.354,1.322,1.767,2.098,3.075,1.746c2.898-0.777,5.796-1.553,8.694-2.33c1.322-0.354,2.097-1.766,1.746-3.076
				c-0.792-2.957-1.584-5.914-2.377-8.871c-0.582,1.025-1.164,2.051-1.746,3.076c3.813-1.387,7.456-3.045,10.984-5.055
				c-1.14-0.299-2.28-0.598-3.42-0.896c1.76,2.514,3.52,5.029,5.28,7.543c0.73,1.043,2.238,1.725,3.42,0.896
				c2.458-1.721,4.915-3.443,7.372-5.164c1.042-0.73,1.725-2.237,0.897-3.42c-1.754-2.506-3.509-5.01-5.264-7.516
				c-0.13,1.01-0.261,2.02-0.391,3.029c2.945-2.475,5.627-5.138,8.12-8.068c-1.01,0.13-2.02,0.261-3.029,0.391
				c2.512,1.759,5.023,3.517,7.535,5.276c1.183,0.828,2.69,0.146,3.42-0.897c1.72-2.457,3.441-4.915,5.161-7.372
				c0.828-1.183,0.146-2.69-0.897-3.42c-2.506-1.755-5.012-3.51-7.519-5.265c0.299,1.14,0.598,2.28,0.897,3.42
				c2.029-3.519,3.704-7.151,5.112-10.958c-1.025,0.582-2.05,1.164-3.075,1.746c2.966,0.794,5.932,1.589,8.897,2.384
				c1.309,0.351,2.721-0.424,3.075-1.746c0.776-2.897,1.553-5.795,2.329-8.693c0.351-1.309-0.424-2.721-1.746-3.075
				c-2.964-0.794-5.929-1.589-8.894-2.383c0.582,1.025,1.164,2.05,1.746,3.075C92.051,39.175,92.438,35.381,92.5,31.5
				c0.052-3.226-4.948-3.221-5,0c-0.055,3.431-0.345,6.782-0.928,10.168c-0.23,1.334,0.335,2.697,1.746,3.075
				c2.964,0.794,5.929,1.589,8.894,2.383c-0.582-1.025-1.164-2.05-1.746-3.075c-0.776,2.897-1.553,5.795-2.329,8.693
				c1.025-0.582,2.05-1.164,3.075-1.746c-2.966-0.794-5.932-1.589-8.897-2.384c-1.402-0.376-2.6,0.462-3.075,1.746
				c-1.262,3.41-2.794,6.617-4.608,9.763c-0.723,1.254-0.223,2.636,0.897,3.42c2.506,1.755,5.012,3.51,7.519,5.265
				c-0.299-1.14-0.598-2.28-0.897-3.42c-1.72,2.457-3.441,4.915-5.161,7.372c1.14-0.299,2.28-0.598,3.42-0.897
				c-2.512-1.759-5.023-3.517-7.535-5.276c-0.858-0.601-2.351-0.407-3.029,0.391c-2.493,2.93-5.175,5.593-8.12,8.068
				c-0.801,0.673-0.989,2.175-0.391,3.029c1.754,2.506,3.509,5.01,5.264,7.516c0.299-1.141,0.598-2.28,0.897-3.42
				c-2.458,1.721-4.915,3.441-7.372,5.164c1.14,0.299,2.28,0.598,3.42,0.896c-1.76-2.516-3.52-5.029-5.28-7.543
				c-0.788-1.125-2.163-1.613-3.42-0.896c-3.156,1.797-6.372,3.307-9.79,4.55c-1.286,0.468-2.12,1.679-1.746,3.075
				c0.792,2.957,1.584,5.914,2.377,8.871c0.582-1.025,1.164-2.051,1.746-3.076c-2.898,0.777-5.796,1.555-8.694,2.33
				c1.025,0.582,2.05,1.164,3.075,1.746c-0.796-2.971-1.592-5.941-2.388-8.914c-0.379-1.416-1.74-1.969-3.075-1.746
				c-3.553,0.594-7.124,0.938-10.728,0.85c-1.451-0.035-2.384,1.17-2.5,2.5c-0.268,3.064-0.537,6.129-0.805,9.195
				c0.833-0.834,1.667-1.668,2.5-2.5c-2.989-0.262-5.978-0.523-8.967-0.785c0.833,0.832,1.667,1.666,2.5,2.5
				c0.27-3.076,0.539-6.152,0.809-9.229c0.09-1.025-0.822-2.227-1.835-2.412c-20.197-3.67-36.853-17.534-43.76-36.932
				C-28.53,29.902-23.012,7.476-8.556-7.635C6.078-22.93,28.587-27.959,48.601-21.842C68.729-15.69,83.212,2.214,86.806,22.645
				c0.178,1.014,1.391,1.925,2.411,1.835c3.07-0.269,6.139-0.537,9.209-0.806c-0.833-0.833-1.667-1.667-2.5-2.5
				c0.261,2.989,0.523,5.977,0.784,8.966c0.833-0.833,1.667-1.667,2.5-2.5c-3.075,0.269-6.149,0.538-9.224,0.807
				c-1.33,0.116-2.536,1.049-2.5,2.5c0.004,0.184,0.009,0.369,0.014,0.553C87.58,34.718,92.58,34.726,92.5,31.5z"/>
			<path fill="#DEDEDD" d="M20.5,31.5c0.716-14.179,21.284-14.179,22,0C43.216,45.688,21.213,45.618,20.5,31.5
				c-0.162-3.208-5.163-3.224-5,0c0.456,9.034,6.966,15.544,16,16c9.017,0.455,15.579-7.654,16-16c0.455-9.017-7.654-15.579-16-16
				c-9.017-0.455-15.579,7.654-16,16C15.337,34.724,20.338,34.708,20.5,31.5z"/>
		</g>
	</g>
	<use xlink:href="#SVGID_5_"  display="inline" overflow="visible" fill="none" stroke="#DEDEDD" stroke-miterlimit="10"/>
</g>
</svg>
