<?xml version="1.0" encoding="utf-8"?>
<!-- Generator: Adobe Illustrator 16.0.0, SVG Export Plug-In . SVG Version: 6.00 Build 0)  -->
<!DOCTYPE svg PUBLIC "-//W3C//DTD SVG 1.1//EN" "http://www.w3.org/Graphics/SVG/1.1/DTD/svg11.dtd">
<svg version="1.1" id="Layer_1" xmlns="http://www.w3.org/2000/svg" xmlns:xlink="http://www.w3.org/1999/xlink" x="0px" y="0px"
	 width="417.627px" height="12.75px" viewBox="0 0 417.627 12.75" enable-background="new 0 0 417.627 12.75" xml:space="preserve">
<g>
	<polygon fill="#FFFFFF" points="217.814,6.375 208.814,1.875 199.814,6.375 208.814,10.875 	"/>
	<g>
		<path fill="#FFFFFF" d="M218.76,4.756c-1.607-0.803-3.214-1.607-4.821-2.411C212.572,1.662,210.43,0,208.814,0
			c-1.428,0-3.284,1.425-4.489,2.027c-1.819,0.909-3.638,1.819-5.458,2.729c-1.224,0.612-1.224,2.626,0,3.238
			c1.607,0.804,3.214,1.607,4.821,2.41c1.367,0.684,3.509,2.346,5.125,2.346c1.428,0,3.284-1.425,4.488-2.027
			c1.819-0.909,3.639-1.819,5.458-2.729c2.163-1.082,0.264-4.316-1.893-3.238c-3,1.5-6,3-9,4.5c0.631,0,1.262,0,1.893,0
			c-3-1.5-6-3-9-4.5c0,1.079,0,2.159,0,3.238c3-1.5,6-3,9-4.5c-0.631,0-1.262,0-1.893,0c3,1.5,6,3,9,4.5
			C219.024,9.072,220.923,5.838,218.76,4.756z"/>
	</g>
</g>
<g>
	<line fill="#FFFFFF" x1="226.814" y1="6.375" x2="415.814" y2="6.375"/>
	<g>
		<path fill="#FFFFFF" d="M226.814,8.25c49.726,0,99.452,0,149.178,0c13.274,0,26.549,0,39.822,0c2.418,0,2.418-3.75,0-3.75
			c-49.726,0-99.452,0-149.178,0c-13.274,0-26.548,0-39.822,0C224.396,4.5,224.396,8.25,226.814,8.25L226.814,8.25z"/>
	</g>
</g>
<g>
	<line fill="#FFFFFF" x1="1.814" y1="6.375" x2="190.814" y2="6.375"/>
	<g>
		<path fill="#FFFFFF" d="M1.814,8.25c49.726,0,99.452,0,149.178,0c13.274,0,26.548,0,39.822,0c2.418,0,2.418-3.75,0-3.75
			c-49.726,0-99.452,0-149.178,0c-13.274,0-26.548,0-39.822,0C-0.604,4.5-0.604,8.25,1.814,8.25L1.814,8.25z"/>
	</g>
</g>
</svg>
