<?xml version="1.0" encoding="utf-8"?>
<!-- Generator: Adobe Illustrator 18.0.0, SVG Export Plug-In . SVG Version: 6.00 Build 0)  -->
<!DOCTYPE svg PUBLIC "-//W3C//DTD SVG 1.1//EN" "http://www.w3.org/Graphics/SVG/1.1/DTD/svg11.dtd">
<svg version="1.1" id="header" xmlns="http://www.w3.org/2000/svg" xmlns:xlink="http://www.w3.org/1999/xlink" x="0px" y="0px"
	 viewBox="201.4 -111.7 839.1 969.6" enable-background="new 201.4 -111.7 839.1 969.6" xml:space="preserve">
<path id="symbols" fill="#F2F2F2" d="M530.4,823.8c2.2-2,4-3.4,5.5-4.1c1.5-0.8,3.1-1.2,4.9-1.2c3.6-0.2,6.8,1.1,9.3,4
	c2.7,2.9,3.7,6.1,3.3,9.7c-0.1,0.9-0.3,1.7-0.5,2.4c-0.3,0.7-0.6,1.5-1.2,2.2s-1.2,1.5-1.8,2.3c-0.8,0.8-1.7,1.7-2.8,2.7l-9.9,9.1
	c-1.2,1.1-2.1,1.9-3,2.6c-0.8,0.7-1.5,1.2-2,1.7c-0.6,0.5-1.1,0.8-1.6,1.1c-0.5,0.2-1.1,0.5-1.7,0.7c-4.3,1.6-8.5,1-12.4-1.9
	c-0.4-0.3-0.8-0.6-1-0.9c-0.3-0.2-0.7-0.5-1.1-1c-0.4-0.3-0.9-0.9-1.5-1.5c-0.6-0.7-1.4-1.6-2.5-2.6l-45.5-49.7
	c-1.2-1.3-2.1-2.3-2.8-3.1c-0.7-0.8-1.3-1.5-1.7-2c-0.4-0.5-0.8-1-1-1.5c-0.2-0.4-0.5-1-0.7-1.7c-1.2-3.3-1.1-6.4,0.3-9.5
	c0.3-0.8,0.6-1.4,0.9-1.9c0.3-0.5,0.7-1.1,1.2-1.7c0.5-0.6,1.3-1.3,2-2.2c0.9-0.8,2-1.9,3.5-3.3l6.2-5.7c1.4-1.3,2.6-2.4,3.5-3.2
	c0.8-0.7,1.5-1.4,2.1-1.9c0.5-0.4,1-0.8,1.4-1c0.4-0.2,0.7-0.4,1.2-0.7c2.7-1.3,5.3-1.8,7.9-1.4c2.6,0.4,4.9,1.6,6.7,3.6
	c2.8,3,3.8,6.4,3.3,10c-0.2,1.6-0.7,3.1-1.6,4.6c-0.9,1.5-2.2,3-4,4.6l-4.9,4.5l37.9,41.3L530.4,823.8z M499.2,620.7
	c2,1.7,3.5,3.3,4.4,4.8c1,1.5,1.6,3.2,1.8,5c0.2,1.9,0,3.8-0.5,5.7c-0.5,1.9-1.4,3.5-2.6,4.9c-1.3,1.5-2.7,2.6-4.5,3.6
	c-1.8,0.9-3.6,1.4-5.3,1.4c-1.9,0.1-3.7-0.2-5.2-0.9c-1.6-0.7-3.4-1.9-5.7-3.9l-39-32.9c-1.3-1.2-2.4-2.1-3.3-3
	c-0.9-0.9-1.6-1.7-2.2-2.5c-0.6-0.8-0.9-1.6-1.2-2.4c-0.3-0.8-0.5-1.8-0.5-2.9c-0.6-3.9,0.4-7.3,3-10.5c2.7-3.1,6-4.8,9.8-4.9
	c2.1-0.1,3.9,0.2,5.6,1c1.6,0.7,3.8,2.2,6.3,4.4L499.2,620.7z M347.2,171.3l-25.6-49.8l-5.9,3c-2.2,1.1-4.1,1.8-5.8,2.2
	c-1.7,0.3-3.3,0.3-4.9-0.1c-3.7-0.8-6.4-3-8.2-6.6c-1.3-2.4-1.6-4.9-1.1-7.5c0.5-2.6,1.8-4.9,4.1-7c0.4-0.3,0.8-0.6,1.1-0.8
	s0.8-0.6,1.4-0.9c0.6-0.3,1.4-0.8,2.4-1.3c1-0.5,2.4-1.3,4.2-2.2l7.5-3.9c1.8-0.9,3.2-1.6,4.3-2.1c1.1-0.5,2-0.9,2.7-1.2
	c0.8-0.3,1.4-0.5,2-0.6c0.6-0.1,1.3-0.2,2.1-0.3c3.4-0.3,6.4,0.8,9,3c0.5,0.5,1,0.9,1.3,1.3c0.3,0.3,0.8,0.8,1.1,1.4
	c0.3,0.6,0.8,1.3,1.3,2.3c0.5,0.9,1.2,2.2,2,3.7l30.8,60c0.7,1.3,1.3,2.3,1.7,3.2c0.4,0.8,0.7,1.3,0.9,1.9c0.3,0.5,0.4,1,0.5,1.3
	c0.2,0.3,0.3,0.8,0.4,1.3c1.3,4.7,0.4,8.8-2.6,12.3c-0.4,0.5-0.8,0.9-1.3,1.3c-0.4,0.4-1,0.8-1.6,1.2c-0.7,0.3-1.4,0.8-2.3,1.3
	c-0.9,0.5-2,1.1-3.4,1.8l-12,6.1c-1.3,0.7-2.5,1.3-3.5,1.7c-1,0.4-2,0.8-2.8,1c-0.8,0.3-1.7,0.3-2.5,0.3c-0.8,0-1.6-0.1-2.4-0.3
	c-3.5-0.8-6.2-2.9-8-6.4c-1.8-3.4-1.9-6.8-0.5-10.1c0.8-1.7,1.7-3.1,2.9-4.2c1.3-1.2,3.2-2.3,5.8-3.8L347.2,171.3z M461,144.8
	c-2.3,2.3-4.3,4-5.9,5.2c-1.7,1.2-3.6,2.2-5.9,3c-3.9,1.5-7.9,2.3-12,2.1c-4-0.1-7.9-0.9-11.5-2.4c-3.6-1.5-6.8-3.7-9.5-6.4
	c-2.8-2.8-4.9-6-6.4-9.9c-0.6-1.4-1-2.8-1.3-4.2c-0.3-1.3-0.4-2.7-0.3-4.1c0.1-1.4,0.3-2.8,0.7-4.4c0.3-1.6,0.9-3.4,1.6-5.4
	c-1.4-0.8-2.6-1.7-3.6-2.5s-1.8-1.6-2.6-2.4c-0.8-0.8-1.4-1.7-1.9-2.6c-0.5-0.9-1-1.9-1.4-2.9c-1.3-3.4-1.8-6.9-1.5-10.5
	c0.3-3.6,1.3-7,2.8-10.2c1.6-3.3,3.8-6.2,6.6-8.8c2.8-2.6,6-4.7,9.7-6.1c3.3-1.3,6.8-1.9,10.4-2c3.7-0.1,7.1,0.4,10.3,1.5
	c3.3,1,6.1,2.6,8.6,4.5c2.5,2,4.3,4.4,5.3,7c0.6,1.6,0.9,3.3,0.8,4.9s-0.5,3.4-1.2,4.9c-0.8,1.6-1.7,2.9-2.9,4.1
	c-1.3,1.2-2.8,2.1-4.4,2.8c-2.4,0.9-4.7,1.3-6.7,0.8c-2-0.3-4.3-1.5-6.9-3.3c-0.8-0.6-1.4-0.9-1.9-1c-0.5-0.1-1.1,0-1.7,0.2
	c-0.9,0.3-1.6,1-2,1.9c-0.4,0.9-0.4,1.8-0.1,2.8c0.3,0.9,0.8,1.5,1.5,1.8c0.7,0.3,1.8,0.5,3.5,0.6c2.2,0.2,3.9,0.7,5.1,1.6
	c1.3,0.9,2.3,2.5,3.2,4.7c1.3,3.4,0.9,6.1-1.2,8.1l-3.4,3.4c-0.5,0.3-0.8,0.9-0.8,1.7c-0.1,0.8,0.1,1.5,0.4,2.3c0.3,0.9,1,1.6,1.9,2
	c0.9,0.4,1.8,0.5,2.8,0.1c1.8-0.8,3.1-2.4,3.8-5.2l2.2-9c0.3-1.6,1.3-3.3,2.9-4.9c1.6-1.7,3.3-2.8,5-3.5c1.6-0.6,3.4-0.9,5.2-0.8
	c1.8,0,3.5,0.3,5.1,1c1.6,0.6,3,1.5,4.3,2.6c1.3,1.1,2.2,2.3,2.8,3.9c0.8,1.9,1,4.6,0.8,8.2c2.3,1.2,3.9,2.3,5,3.4
	c1.1,1.1,2,2.4,2.6,4c0.7,1.7,0.9,3.4,0.8,5.2c-0.1,1.8-0.5,3.4-1.3,5c-0.7,1.6-1.7,3-3,4.3s-2.8,2.3-4.5,2.8
	c-1.3,0.5-2.8,0.8-4.2,0.9C465.3,145.6,463.4,145.3,461,144.8z M531.4,117.4c-2.3,2.3-4.3,4-5.9,5.2s-3.6,2.2-5.9,3
	c-3.9,1.5-7.9,2.3-12,2.1c-4-0.1-7.9-0.9-11.5-2.4c-3.6-1.5-6.8-3.7-9.5-6.4c-2.8-2.8-4.9-6-6.4-9.9c-0.6-1.4-1-2.8-1.3-4.2
	c-0.3-1.3-0.4-2.7-0.3-4.1s0.3-2.8,0.7-4.4c0.3-1.6,0.9-3.4,1.6-5.4c-1.4-0.8-2.6-1.7-3.6-2.5s-1.8-1.6-2.6-2.4
	c-0.8-0.8-1.4-1.7-1.9-2.6c-0.5-0.9-1-1.9-1.4-2.9c-1.3-3.4-1.8-6.9-1.5-10.5c0.3-3.6,1.3-7,2.8-10.2c1.6-3.3,3.8-6.2,6.6-8.8
	c2.8-2.6,6-4.7,9.7-6.1c3.3-1.3,6.8-1.9,10.4-2c3.7-0.1,7.1,0.4,10.3,1.5c3.3,1,6.1,2.6,8.6,4.5c2.5,2,4.3,4.4,5.3,7
	c0.6,1.6,0.9,3.3,0.8,4.9s-0.5,3.4-1.2,4.9c-0.8,1.6-1.7,2.9-2.9,4.1c-1.3,1.2-2.8,2.1-4.4,2.8c-2.4,0.9-4.7,1.3-6.7,0.8
	c-2-0.3-4.3-1.5-6.9-3.3c-0.8-0.6-1.4-0.9-1.9-1c-0.5-0.1-1.1,0-1.7,0.2c-0.9,0.3-1.6,1-2,1.9c-0.4,0.9-0.4,1.8-0.1,2.8
	c0.3,0.9,0.8,1.5,1.5,1.8c0.7,0.3,1.8,0.5,3.5,0.6c2.2,0.2,3.9,0.7,5.1,1.6c1.3,0.9,2.3,2.5,3.2,4.7c1.3,3.4,0.9,6.1-1.2,8.1
	l-3.4,3.4c-0.5,0.3-0.8,0.9-0.8,1.7c-0.1,0.8,0.1,1.5,0.4,2.3c0.3,0.9,1,1.6,1.9,2c0.9,0.4,1.8,0.5,2.8,0.1c1.8-0.8,3.1-2.4,3.8-5.2
	l2.2-9c0.3-1.6,1.3-3.3,2.9-4.9c1.6-1.7,3.3-2.8,5-3.5c1.6-0.6,3.4-0.9,5.2-0.8c1.8,0.1,3.5,0.3,5.1,1c1.6,0.6,3,1.5,4.3,2.6
	c1.3,1.1,2.2,2.3,2.8,3.9c0.8,1.9,1,4.6,0.8,8.2c2.3,1.2,3.9,2.3,5,3.4c1.1,1.1,2,2.4,2.6,4c0.7,1.7,0.9,3.4,0.8,5.2s-0.5,3.4-1.3,5
	c-0.7,1.6-1.7,3-3,4.3c-1.3,1.3-2.8,2.3-4.5,2.8c-1.3,0.5-2.8,0.8-4.2,0.9C535.7,118.2,533.8,117.9,531.4,117.4z M733.3,816.1
	c-1,2.4-2.1,4.4-3.3,5.7c-1.2,1.3-2.6,2.4-4.3,3.3c-1.8,0.8-3.6,1.2-5.6,1.3c-2,0.1-3.9-0.3-5.5-0.9c-1.8-0.8-3.4-1.8-4.7-3.3
	c-1.3-1.4-2.4-3-2.9-4.6c-0.7-1.8-0.9-3.5-0.8-5.3c0.2-1.7,0.8-3.9,1.9-6.5l19.7-47.1c0.7-1.6,1.3-2.9,1.8-4c0.6-1.1,1.1-2,1.7-2.8
	c0.6-0.8,1.3-1.4,1.9-1.9c0.8-0.6,1.6-1,2.5-1.4c3.5-1.8,7.1-1.8,11-0.3c3.8,1.6,6.4,4.2,7.7,7.9c0.7,2,0.9,3.9,0.8,5.6
	c-0.3,1.8-1,4.3-2.3,7.4L733.3,816.1z M782.5,836.7c-1,2.4-2.1,4.4-3.3,5.7c-1.2,1.3-2.6,2.4-4.3,3.3c-1.8,0.8-3.6,1.2-5.6,1.3
	c-2,0.1-3.9-0.3-5.5-0.9c-1.8-0.8-3.4-1.8-4.8-3.3c-1.4-1.4-2.4-3-2.9-4.6c-0.7-1.8-0.9-3.5-0.8-5.3c0.2-1.7,0.8-3.9,1.9-6.5
	l19.7-47.1c0.7-1.6,1.3-2.9,1.8-4c0.6-1.1,1.1-2,1.7-2.8c0.6-0.8,1.3-1.4,1.9-1.9c0.8-0.6,1.6-1,2.5-1.4c3.5-1.8,7.1-1.8,11-0.3
	c3.8,1.6,6.4,4.2,7.7,7.9c0.7,2,0.9,3.9,0.8,5.6c-0.3,1.8-1,4.3-2.3,7.4L782.5,836.7z M712.7,55.9c1.9,1.3,3.4,2.8,4.4,4.6
	c1,1.8,1.5,3.9,1.5,5.9c0,1.7-0.3,3.2-1.1,4.7c-0.7,1.5-1.6,2.8-2.7,3.9c-1.1,1.1-2.4,2-3.9,2.7c-1.5,0.7-3.1,1.1-4.6,1.1
	c-1.6,0-3.1-0.3-4.5-1c-1.4-0.7-2.7-1.5-3.9-2.5c-1.1-1-2-2.3-2.7-3.6c-0.7-1.3-1.1-2.8-1.1-4.3c0-2.9,1.1-6.4,3.2-10.5l2.6-4.9
	c1.6-2.8,2.9-4.9,4.2-6.1c1.3-1.2,2.7-1.8,4.4-1.8c1.7,0,3.1,0.5,4.3,1.5s1.8,2.3,1.8,3.6c0,1.3-0.4,2.9-1.3,5.2
	c-0.1,0.2-0.2,0.3-0.2,0.6C712.9,55.4,712.9,55.7,712.7,55.9z M742.9,55.9c1.9,1.3,3.4,2.8,4.4,4.6c1,1.8,1.5,3.9,1.5,5.9
	c0,1.7-0.3,3.2-1.1,4.7c-0.7,1.5-1.6,2.8-2.8,3.9c-1.2,1.1-2.4,2-3.9,2.7c-1.5,0.7-3,1.1-4.7,1.1c-1.5,0-2.9-0.3-4.4-1
	c-1.4-0.7-2.7-1.5-3.9-2.5c-1.1-1-2-2.3-2.7-3.6c-0.7-1.3-1.1-2.8-1.1-4.3c0-2.9,1.1-6.4,3.2-10.5L730,52c1.5-2.8,2.8-4.9,4.1-6.1
	c1.3-1.2,2.8-1.8,4.4-1.8c1.7,0,3.1,0.5,4.3,1.5c1.2,1,1.8,2.3,1.8,3.6c0,1.3-0.4,2.9-1.3,5.2c-0.1,0.2-0.2,0.3-0.2,0.6
	C743.1,55.4,743,55.7,742.9,55.9z M828.7,2.7c-1.9-1.3-3.4-2.8-4.4-4.6c-1-1.8-1.5-3.9-1.5-5.9c0-1.6,0.3-3.1,1.1-4.6
	c0.7-1.5,1.6-2.8,2.7-3.9c1.1-1.1,2.4-2,3.9-2.7c1.5-0.7,3-1.1,4.7-1.1c1.6,0,3.1,0.3,4.5,1c1.4,0.7,2.7,1.5,3.9,2.5
	c1.1,1,2,2.3,2.7,3.6c0.7,1.3,1.1,2.8,1.1,4.3c0,1.4-0.3,3-0.8,4.8c-0.5,1.8-1.3,3.7-2.4,5.7l-2.6,4.8c-1.6,2.9-2.9,5-4.2,6.2
	c-1.3,1.2-2.7,1.8-4.4,1.8c-1.7,0-3.1-0.5-4.3-1.6c-1.2-1.1-1.8-2.3-1.8-3.7c0-1.3,0.4-2.9,1.3-5.2c0.1-0.2,0.2-0.3,0.2-0.6
	C828.4,3.2,828.5,3,828.7,2.7z M858.8,2.7c-1.9-1.3-3.4-2.8-4.4-4.6c-1-1.8-1.5-3.9-1.5-5.9c0-1.6,0.3-3.1,1.1-4.6
	c0.7-1.5,1.6-2.8,2.7-3.9c1.1-1.1,2.4-2,3.9-2.7c1.5-0.7,3-1.1,4.7-1.1c1.6,0,3.1,0.3,4.5,1c1.4,0.7,2.7,1.5,3.9,2.5
	c1.1,1,2,2.3,2.7,3.6c0.7,1.3,1.1,2.8,1.1,4.3c0,1.4-0.3,3-0.8,4.8c-0.6,1.8-1.4,3.7-2.4,5.7l-2.4,4.8c-1.6,2.9-2.9,5-4.2,6.2
	s-2.7,1.8-4.4,1.8s-3.1-0.5-4.4-1.6c-1.3-1.1-1.8-2.3-1.8-3.7c0-0.6,0.2-1.3,0.4-2.3c0.3-0.9,0.7-1.9,1.1-2.9
	c0.1-0.2,0.2-0.3,0.2-0.6C858.6,3.2,858.7,3,858.8,2.7z M923.2,78.4c2.9-5.1,7-7.6,12.1-7.6c3.6,0,6.6,1.3,9,3.7
	c2.3,2.4,3.6,5.6,3.6,9.4c0,2.2-1,4.9-2.9,8.1l-40.3,68c-1.2,1.9-2.3,3.5-3.2,4.8c-1,1.3-2,2.3-3.1,3.2c-1.1,0.8-2.2,1.3-3.4,1.7
	c-1.2,0.3-2.4,0.5-3.9,0.5c-3.5,0-6.4-1.3-8.8-3.6c-2.3-2.4-3.4-5.4-3.4-9c0-2.6,0.7-5.1,2.1-7.4L923.2,78.4z M926.7,794.1
	c1.4,2.3,2.1,4.8,2.1,7.4c0,3.6-1.2,6.6-3.4,9c-2.3,2.4-5.2,3.6-8.8,3.6c-1.5,0-2.8-0.2-3.9-0.5c-1.2-0.3-2.3-0.9-3.4-1.7
	c-1.1-0.8-2.1-1.8-3.1-3.2c-1-1.3-2.1-2.9-3.2-4.8l-40.3-68c-2-3.3-2.9-6-2.9-8.1c0-3.8,1.2-7,3.6-9.4s5.4-3.7,9-3.7
	c5.1,0,9.1,2.5,12.1,7.6L926.7,794.1z M809.3-87.9c0.9-1.5,2-2.7,3.4-3.7c1.3-1,2.8-1.7,4.4-2.1c1.6-0.4,3.3-0.5,4.9-0.3
	c1.7,0.3,3.3,0.8,4.9,1.8c1.5,0.9,2.8,2.1,3.8,3.5s1.8,2.9,2.1,4.5c0.4,1.6,0.5,3.3,0.3,5c-0.3,1.8-0.8,3.4-1.7,4.9
	c-0.9,1.5-2,2.7-3.4,3.7c-1.4,1-2.9,1.7-4.5,2.1c-1.6,0.4-3.3,0.5-5,0.3c-1.8-0.3-3.4-0.8-4.8-1.8c-1.6-0.9-2.8-2.1-3.9-3.5
	c-1-1.3-1.7-2.8-2.1-4.5c-0.3-1.6-0.4-3.3-0.2-4.9C807.7-84.7,808.3-86.3,809.3-87.9z M789.9-55.9c1.8-3.1,4.5-5,7.9-5.9
	c3.4-0.8,6.6-0.3,9.8,1.6c1.5,0.9,2.8,2,3.8,3.4c1,1.4,1.8,2.9,2.1,4.5s0.4,3.3,0.3,4.9c-0.3,1.7-0.8,3.3-1.7,4.8
	c-0.9,1.6-2.1,2.8-3.5,3.8c-1.4,1-2.9,1.7-4.5,2.1c-1.6,0.4-3.3,0.5-5,0.3c-1.8-0.3-3.4-0.8-4.8-1.8c-1.6-0.9-2.8-2.1-3.9-3.5
	c-1-1.3-1.7-2.8-2.1-4.5c-0.3-1.6-0.4-3.3-0.2-4.9C788.4-52.7,789-54.3,789.9-55.9z M704.1,616.2c-0.3-1.7-0.2-3.4,0.1-5
	c0.4-1.7,1-3.1,2-4.6c1-1.4,2.2-2.5,3.6-3.4c1.4-1,3.1-1.5,4.8-1.9c1.7-0.3,3.4-0.2,5.1,0.2c1.7,0.4,3.2,1.1,4.6,2
	c1.3,0.9,2.5,2.1,3.4,3.6c1,1.4,1.6,3.1,1.9,4.8c0.3,1.7,0.2,3.4-0.1,5c-0.4,1.7-1.1,3.2-2,4.6c-0.9,1.4-2.1,2.5-3.6,3.4
	c-1.5,0.9-3.1,1.5-4.7,1.8c-1.8,0.3-3.5,0.3-5.1-0.1c-1.7-0.4-3.2-1.1-4.6-2c-1.4-0.9-2.5-2.2-3.4-3.6
	C705,619.6,704.4,617.9,704.1,616.2z M717.9,662.7c-2.5-1.5-4.1-3-5.2-4.4s-1.7-3.1-2.1-5.2c-0.7-3.6,0-6.9,2-9.8
	c2-3,4.8-4.7,8.4-5.4c1.7-0.3,3.4-0.2,5,0.1c1.7,0.4,3.2,1.1,4.6,2.1c1.4,1,2.5,2.2,3.5,3.7c0.9,1.5,1.5,3.1,1.9,4.9
	c0.2,0.9,0.2,1.9,0.1,3.1c-0.1,1.2-0.3,2.4-0.6,3.7l-2.9,10.5c-1.5,4.9-3.9,7.6-7.3,8.2c-1.9,0.3-3.6,0-5.3-0.9
	c-1.6-0.9-2.6-2.2-2.9-3.9c-0.2-0.8-0.1-1.7,0-2.7C717.3,665.7,717.6,664.3,717.9,662.7z M1005.4,133.4c1.2,2.9,2.8,5.7,5,8.4
	s4.5,4.9,7.1,6.5c1.3,0.9,2.9,1.8,4.6,2.6s3.9,1.6,6.5,2.4c3.2,1,5.5,2.2,7.1,3.4c1.6,1.3,2.8,3,3.8,5.2c0.7,1.6,1,3.3,0.9,5
	c0,1.8-0.4,3.4-1.1,5c-0.7,1.6-1.6,3-2.8,4.3c-1.3,1.3-2.6,2.2-4.2,2.8c-2.9,1.3-6.7,1.3-11.3,0.4c-4.5-0.9-9.3-2.9-14.2-5.9
	c-12.6-7.5-21.4-17.5-26.6-29.9c-3.3-8-4.9-16.3-4.6-25c0.3-8.7,2.2-16.9,5.9-24.5c3.2-6.5,6.6-10.6,10.3-12.1c1.7-0.7,3.4-1,5.2-1
	s3.5,0.3,5.1,1c1.6,0.7,3.1,1.6,4.4,2.8c1.3,1.3,2.3,2.7,3,4.4c0.9,2.3,1.3,4.7,1,7.2c-0.1,0.5-0.2,0.8-0.2,1.2
	c-0.1,0.3-0.3,0.8-0.5,1.3c-0.3,0.6-0.7,1.3-1.2,2.4c-0.5,1.1-1.3,2.5-2.2,4.4c-2.3,4.1-3.4,8.6-3.6,13.6
	C1002.8,124.2,1003.6,129,1005.4,133.4z M620.5,108.2c-1.8-4.6-4.4-8.5-7.8-11.6c-1.5-1.5-2.7-2.7-3.5-3.4c-0.8-0.8-1.5-1.4-1.9-1.9
	c-0.4-0.4-0.8-0.8-0.8-1c-0.2-0.3-0.3-0.6-0.6-1c-1.1-2.3-1.6-4.7-1.4-7.1c0.1-1.8,0.6-3.5,1.4-5.1c0.8-1.6,1.9-3,3.2-4.2
	c1.3-1.2,2.8-2,4.4-2.7c1.7-0.6,3.4-0.8,5.3-0.8c4,0.3,8.6,2.9,13.7,8c5.9,6,10.6,13.2,13.6,21.3c3.1,8.1,4.4,16.6,3.9,25.2
	c-0.8,13.4-5.8,25.7-15.2,37c-3.7,4.5-7.5,8-11.6,10.3s-7.6,3.5-10.8,3.3c-1.8-0.1-3.4-0.5-4.9-1.3c-1.6-0.8-2.9-1.8-4.1-3.1
	c-1.2-1.3-2-2.8-2.7-4.4c-0.6-1.7-0.8-3.4-0.8-5c0.2-2.3,0.8-4.4,1.8-6.1c1.1-1.7,2.9-3.6,5.6-5.5c2.3-1.7,4-3.2,5.4-4.4
	c1.3-1.3,2.5-2.6,3.5-3.9c1.8-2.4,3.4-5.3,4.5-8.5c1.2-3.3,1.8-6.4,2-9.5C623,117.5,622.3,112.7,620.5,108.2z M561.3,1
	c0.3-0.9,0.7-1.8,1.3-2.8c0.7-0.8,1.4-1.7,2.3-2.3s1.8-1.3,2.8-1.7c1-0.4,1.9-0.6,2.9-0.6l6.6-0.2c1.7,0,2.8-0.8,3.3-2.3
	c0.3-0.8,0.3-1.7-0.2-2.6c-0.4-0.8-1.1-1.4-1.9-1.8c-1.1-0.4-2.4-0.1-4,0.9c-2.3,1.7-4.4,2.8-6.4,3.1c-1.8,0.4-4,0.2-6.4-0.8
	c-1.7-0.6-3.2-1.5-4.4-2.7c-1.3-1.2-2.3-2.5-3-4s-1.2-3.1-1.3-4.9c-0.1-1.8,0.1-3.4,0.7-5c1-2.8,2.7-5.2,5-7.2s5-3.5,8.2-4.6
	c3.1-1.1,6.5-1.6,10.1-1.7c3.6,0,7.1,0.6,10.6,1.8c3.9,1.4,7.4,3.4,10.2,6s5.1,5.7,6.7,9c1.6,3.4,2.5,7.1,2.7,11
	c0.2,3.9-0.4,7.9-1.8,11.9c-2.7,7.5-7.4,12.8-14.1,16c-3.3,1.5-6.6,2.4-10.2,2.7c-3.5,0.3-6.9-0.3-10.1-1.3
	C562.2,14.3,559.1,8.8,561.3,1z M551.9,25.7c0.6-1.6,1.4-3,2.6-4.3c1.1-1.2,2.4-2.2,3.9-2.8c1.5-0.7,3.1-1.1,4.8-1.2
	c1.7-0.1,3.4,0.2,4.9,0.8c1.6,0.6,3.1,1.4,4.4,2.6c1.3,1.2,2.3,2.5,2.9,4c0.8,1.5,1.2,3.1,1.3,4.8c0.1,1.7-0.1,3.3-0.7,4.9
	c-0.6,1.7-1.5,3.2-2.6,4.4c-1.2,1.3-2.5,2.3-4,2.9c-1.5,0.8-3.1,1.2-4.9,1.3c-1.7,0.1-3.4-0.2-4.9-0.8c-3.5-1.3-5.9-3.4-7.4-6.6
	C550.8,32.5,550.7,29.2,551.9,25.7z M941,8.4c0-3.6,1.3-6.7,3.7-9.1c2.5-2.4,5.5-3.7,9.2-3.7c1.8,0,3.4,0.3,5,1
	c1.6,0.7,3,1.6,4.2,2.8c1.2,1.2,2.1,2.6,2.8,4.1c0.7,1.6,1.1,3.2,1.1,4.9c0,1.8-0.3,3.5-1.1,5c-0.7,1.6-1.7,2.9-2.8,4.1
	c-1.2,1.2-2.5,2.1-4.2,2.8c-1.6,0.7-3.3,1-5,1c-1.8,0-3.5-0.3-5.1-1c-1.6-0.7-2.9-1.6-4.1-2.8c-1.2-1.2-2.1-2.6-2.8-4.1
	C941.4,12,941,10.3,941,8.4z M1009.2,698.1c2.6,0.5,4.6,1.3,6.2,2.1c1.5,0.8,2.8,2,4,3.5c1.1,1.6,1.8,3.4,2.3,5.3
	c0.4,1.9,0.5,3.8,0.1,5.5c-0.4,1.8-1.2,3.6-2.3,5.3c-1.2,1.7-2.5,2.9-4,3.8c-1.7,1-3.4,1.6-5,1.8c-1.7,0.2-3.9-0.1-6.8-0.7
	l-49.9-10.3c-1.7-0.3-3.1-0.7-4.4-1c-1.2-0.3-2.2-0.7-3-1.2c-0.8-0.4-1.6-0.9-2.3-1.5s-1.3-1.3-1.8-2.2c-2.3-3.1-3.2-6.7-2.3-10.7
	c0.8-4,2.9-7,6.3-9c1.8-1.1,3.6-1.7,5.4-1.8c1.8-0.2,4.4,0.2,7.6,0.8L1009.2,698.1z M1000.6,735.6c2.6,0.5,4.6,1.3,6.2,2.1
	c1.5,0.8,2.8,2,4,3.5c1.1,1.6,1.8,3.4,2.3,5.3c0.4,1.9,0.5,3.8,0.1,5.5c-0.4,1.8-1.2,3.6-2.3,5.3c-1.2,1.7-2.5,2.9-4,3.8
	c-1.7,1-3.4,1.6-5,1.8c-1.7,0.2-3.9-0.1-6.8-0.7l-49.9-10.3c-1.7-0.3-3.1-0.7-4.4-1c-1.2-0.3-2.2-0.7-3-1.2
	c-0.8-0.4-1.6-0.9-2.3-1.5s-1.3-1.3-1.8-2.2c-2.3-3.1-3.2-6.7-2.3-10.7c0.8-4,2.9-7,6.3-9c1.8-1.1,3.6-1.7,5.4-1.8
	c1.8-0.2,4.4,0.2,7.6,0.8L1000.6,735.6z M746.8-17c-0.1-2-0.6-3.9-1.4-5.6c-0.8-1.7-2-3-3.4-4.2c-1.3-1.1-3.3-2.2-5.8-3.1l-11.6-4.5
	l3.5-9c1.3-3.2,1.9-5.6,2.1-7.4c0.2-1.8-0.1-3.7-0.8-5.6c-1.4-3.6-4-6.2-7.9-7.7c-3.9-1.5-7.5-1.3-10.9,0.5
	c-0.9,0.4-1.8,0.9-2.5,1.5c-0.7,0.6-1.3,1.3-1.9,2c-0.6,0.8-1.1,1.7-1.6,2.8c-0.5,1.1-1.1,2.5-1.8,4.1l-3.5,9l-10.6-4.1
	c-3.2-1.3-5.6-1.9-7.4-2.1c-1.8-0.2-3.7,0.1-5.6,0.8c-3.6,1.4-6.2,4-7.7,7.9c-1.5,3.9-1.3,7.5,0.5,10.9c0.4,0.9,0.9,1.8,1.5,2.5
	c0.6,0.7,1.3,1.3,2,1.9c0.8,0.6,1.7,1.1,2.8,1.6c1.1,0.5,2.5,1.1,4.1,1.8l10.6,4.1l-5.3,13.2c-1,2.7-1.7,4.9-1.8,6.6
	c-0.2,1.7,0.2,3.4,0.8,5.3c0.6,1.7,1.6,3.2,3,4.6c1.4,1.4,3,2.4,4.8,3.1c1.7,0.7,3.5,0.9,5.5,0.8c2-0.1,3.9-0.6,5.6-1.4
	c1.7-0.8,3-2,4.2-3.4c1.1-1.3,2.2-3.3,3.1-5.8l5.1-13.2l11.6,4.5c2.7,1,4.9,1.7,6.6,1.8c1.7,0.2,3.4-0.2,5.3-0.8
	c1.7-0.6,3.2-1.6,4.6-3.1c1.4-1.4,2.4-3,3.1-4.8C746.6-13.3,746.8-15.1,746.8-17z M1001,586.5c2.4-0.9,4.6-1.4,6.4-1.5
	c1.8-0.1,3.5,0.2,5.3,0.8c1.8,0.8,3.4,1.8,4.8,3.2c1.4,1.4,2.4,2.9,3.1,4.6c0.7,1.8,1,3.7,0.9,5.7c-0.1,2-0.5,3.8-1.3,5.4
	c-0.8,1.8-1.9,3.1-3.3,4.2c-1.3,1-3.4,2.1-6.1,3.1L963.1,630c-1.6,0.6-3,1.1-4.2,1.4c-1.2,0.3-2.3,0.6-3.2,0.7
	c-0.9,0.1-1.8,0.1-2.8-0.1c-0.9-0.2-1.8-0.4-2.8-0.8c-3.7-1.3-6.3-3.9-7.7-7.8c-1.4-3.9-1.3-7.5,0.4-11c1-1.8,2.2-3.4,3.6-4.4
	c1.4-1.1,3.8-2.2,6.9-3.4L1001,586.5z M958.2,583.8c-1.3-3.4-1.2-6.7,0.3-9.9c1.4-3.2,3.9-5.4,7.3-6.7c1.6-0.6,3.3-0.9,5-0.8
	c1.8,0.1,3.4,0.4,4.9,1.1s2.8,1.7,4.1,2.8c1.2,1.2,2.1,2.6,2.8,4.3c0.7,1.7,0.9,3.4,0.8,5.1s-0.5,3.4-1.2,4.9
	c-0.7,1.5-1.6,2.8-2.9,4.1c-1.3,1.3-2.8,2.1-4.4,2.7c-1.7,0.7-3.4,0.9-5.1,0.9c-1.7-0.1-3.3-0.4-4.8-1.2c-1.5-0.7-2.8-1.7-4-2.9
	C959.8,587,958.9,585.5,958.2,583.8z M980.3,642.2c-1.3-3.4-1.2-6.7,0.3-9.9c1.4-3.2,3.9-5.4,7.3-6.7c1.6-0.6,3.3-0.9,5-0.8
	c1.8,0.1,3.4,0.4,4.9,1.1c1.5,0.7,2.8,1.7,4.1,2.8c1.2,1.2,2.1,2.6,2.8,4.3c0.7,1.7,0.9,3.4,0.8,5.1s-0.5,3.4-1.2,4.9
	c-0.7,1.5-1.6,2.8-2.9,4.1c-1.3,1.3-2.8,2.1-4.4,2.7c-1.7,0.7-3.4,0.9-5.1,0.8c-1.7-0.1-3.3-0.4-4.8-1.2c-1.5-0.7-2.8-1.7-4-2.9
	C981.9,645.4,981,643.9,980.3,642.2z M401.1,696.2c4.1-4.2,8.6-5.7,13.6-4.4c3.5,0.9,6.1,2.8,7.9,5.8c1.7,3,2.1,6.3,1.2,10
	c-0.5,2.1-2.2,4.4-4.9,7.2l-55.6,56.1c-1.6,1.6-3,2.8-4.3,3.9c-1.3,1-2.5,1.8-3.8,2.3c-1.3,0.5-2.4,0.8-3.6,0.8
	c-1.2,0-2.5-0.1-3.9-0.5c-3.4-0.8-5.9-2.8-7.6-5.7c-1.7-2.9-2-6.1-1.2-9.6c0.7-2.5,1.9-4.8,3.9-6.7L401.1,696.2z M340.8,706.6
	c0-3.6,1.3-6.7,3.7-9.1c2.5-2.4,5.5-3.7,9.2-3.7c1.8,0,3.4,0.3,5,1c1.6,0.7,3,1.6,4.2,2.8c1.2,1.2,2.1,2.6,2.8,4.1
	c0.7,1.6,1.1,3.2,1.1,4.9c0,1.8-0.3,3.5-1.1,5c-0.7,1.6-1.7,2.9-2.8,4.1c-1.2,1.2-2.5,2.1-4.2,2.8c-1.6,0.7-3.3,1-5,1
	c-1.8,0-3.5-0.3-5.1-1c-1.6-0.7-2.9-1.6-4.1-2.8c-1.2-1.2-2.1-2.6-2.8-4.1C341.2,710.1,340.8,708.4,340.8,706.6z M395.8,762.4
	c0-3.6,1.3-6.7,3.7-9.1c2.5-2.4,5.5-3.7,9.2-3.7c1.8,0,3.4,0.3,5,1c1.6,0.7,3,1.6,4.2,2.8s2.1,2.6,2.8,4.1c0.7,1.6,1.1,3.2,1.1,4.9
	c0,1.8-0.3,3.5-1.1,5c-0.7,1.6-1.7,2.9-2.8,4.1c-1.2,1.2-2.5,2.1-4.2,2.8c-1.6,0.7-3.3,1-5,1c-1.8,0-3.5-0.3-5.1-1
	c-1.6-0.7-2.9-1.6-4.1-2.8c-1.2-1.2-2.1-2.6-2.8-4.1C396.1,765.9,395.8,764.2,395.8,762.4z M474.4-103.3c-4-2.7-8.1-5.3-12.6-6.9
	c-6.1-2.2-12.4-1.8-18.3,0.4c-6.6,2.4-10.2,8.4-13.9,14c-1.2,1.7-2.3,3.5-3.5,5.2c-0.2,0.2-0.4,0.5-0.4,0.7
	c-0.1,0.1-0.3,0.3-0.4,0.4l-0.1,0c-0.1,0-0.1,0-0.2,0c-0.1,0-0.2,0-0.3,0.1c-0.4,0-0.8,0-1.2-0.1c-12.3-2.1-21,11.1-14.1,21.6
	c0.2,0.2,0.3,0.6,0.4,0.9c0,0.1,0,0.1,0.1,0.2c0,0.2,0.1,0.3,0.1,0.5l0,0.1c-0.1,0.4-0.4,0.8-0.6,1c-1.2,1.7-2.3,3.5-3.5,5.2
	c-3.7,5.6-7.8,11.5-7.5,18.6c0.3,6.4,2.5,11.5,6.6,16.5c3,3.6,7.1,6.2,11,8.7c6.3,4.1,15.1,2.3,19.3-4c4.1-6.3,2.3-15.1-4-19.3
	c-1.3-0.8-2.6-1.8-3.9-2.6c1.7-2.6,3.5-5.1,5.2-7.6c3.1-4.7,4.7-9.9,5.1-15.1c4.6-2.4,8.7-6,11.8-10.5c1.7-2.6,3.4-5.2,5.1-7.7
	c1.6,1,3.2,2,4.7,3c6.3,4.1,15,2.4,19.3-4C482.6-90.3,480.8-99.1,474.4-103.3z M208.9,412.3C208.9,412.3,208.9,412.3,208.9,412.3
	C208.9,412.3,208.9,412.3,208.9,412.3C208.9,412.3,208.9,412.3,208.9,412.3z M209.6,411.6C210,411.3,210,411.3,209.6,411.6
	C209.6,411.7,209.6,411.6,209.6,411.6z M202.9,438.6C202.9,438,202.9,438.1,202.9,438.6L202.9,438.6z M202.8,438.8L202.8,438.8
	c-0.2-0.2-0.2-0.3-0.3-0.4l0.1,0.1C202.6,438.6,202.7,438.7,202.8,438.8z M202.6,438.5L202.6,438.5
	C201.8,437.1,202.2,437.7,202.6,438.5z M202.2,438.1c-0.1,0-0.1-0.1-0.2-0.1C200.9,436.8,201.7,437.5,202.2,438.1z M202.2,438.2
	C202.2,438.2,202.2,438.2,202.2,438.2c0.1,0.2,0.2,0.2,0.2,0.3v0.1C202.3,438.4,202.2,438.3,202.2,438.2z M202.7,438.8
	C202.8,438.9,202.8,438.9,202.7,438.8c0.1,0.1,0.1,0.1,0.1,0.2l0,0C202.8,439,202.8,438.9,202.7,438.8z M203.1,440.3
	C203.2,440.6,203.2,440.7,203.1,440.3L203.1,440.3z M203,438.7C203.8,439.2,204.6,439.9,203,438.7L203,438.7z M209.4,412.1
	L209.4,412.1C210.4,411.6,210,411.8,209.4,412.1z M225.6,455.1L225.6,455.1c-0.2-0.1-0.4-0.3-0.6-0.3
	C225.3,454.8,225.5,455,225.6,455.1z M580.3,637.4c1.4,0.8,2.9,1.6,4.3,2.2c0.7,0.4,3.4,1.4-0.2,0.2c0.9,0.3,1.7,0.4,2.7,0.6
	c-3.4-0.7-1.3-0.1-0.2-0.2c-0.7,0.1-1.3,0.2-2,0.3c1.4-0.5,1-0.3-1.2,0.6c2.4-1.1-2.4,2.4-0.4,0.4c2.5-2.4-2.1,3.2-0.6,0.8
	c2.2-3.5,4-7.4,6-11c6.3-11.6,18.9-17.8,31.9-15.4c-4.3,7.9-8.5,15.7-12.8,23.6c-9-9.6-10.6-23.5-4.4-35.1c1.8-3.3,3.7-6.6,5.5-10
	c0.4-0.7,0.7-1.5,1.1-2.2c-0.2,0.6-0.5,1.4-0.7,2c-0.2,2.5-0.3,3.1-0.2,1.5c0.1-2.8,0.9,3.1,0,0.4c0.2,0.6,0.5,1.1,0.8,1.7
	c-0.8-1.2-0.6-1,0.7,0.6c-0.6-0.8-1.4-1.5-2.2-2.1c2.6,2.4,0.7,0.5-0.2,0c-1.7-1-3.4-2-5.1-2.9c-6.6-3.7-9.1-12.2-5.5-18.8
	c3.6-6.6,12.2-9.1,18.8-5.5c4.2,2.3,8.5,4.6,12,7.9c4.8,4.4,7.5,10,8.3,16.3c1,7-2.6,13-5.8,18.9c-1,1.8-2,3.7-3,5.5
	c-0.4,0.7-0.7,1.4-1.1,2.2c1.7-3.6,0.6-1.6,0.4-0.6c-0.6,2.7,0.1-3.4,0.1-0.8c0,0.7,0,1.3,0.2,1.9c-0.5-4.2-0.4-2.3-0.1-1.1
	c0.1,0.5,0.3,1,0.5,1.6c-1.7-4.2-1.1-2.4-0.6-1.5c0.3,0.7,0.8,1.3,1.2,1.9c1.1,1.5-2.9-3.4-1.5-1.8c9.5,10.2,0.9,26-12.8,23.6
	c-1.2-0.2-3-0.3,2.6,0.3c-0.7-0.1-1.4,0-2.1,0c-0.4,0-0.9,0.1-1.4,0.2c4.6-0.5,2.5-0.4,1.5-0.2c-0.5,0.1-1.1,0.4-1.7,0.5
	c4-1.4,2.1-0.9,1-0.4c-0.9,0.5-2.7,2.1,0.6-0.6c-0.6,0.5-1.1,1.1-1.6,1.6c2.8-3.1,0.8-1.1,0.1,0.1c-1,1.9-2,3.7-3,5.5
	c-3.2,5.9-6.4,12.3-12.8,15.3c-5.8,2.7-11.3,3.2-17.7,2c-4.6-0.8-8.8-3.3-12.9-5.5c-6.7-3.6-9.1-12.2-5.5-18.8
	C565,636.3,573.6,633.8,580.3,637.4L580.3,637.4z M935.4-79.6c-2.6-3.6-3.6-7.3-3.1-10.9c0.5-3.6,2.4-6.7,5.8-9.1
	c1.8-1.3,3.8-2.1,6.1-2.4c2.2-0.3,4.3-0.1,6.4,0.7c2.4,0.8,4.8,2.9,7.1,6.2l15,21.3c2.6,3.7,3.7,7.3,3.3,10.9
	c-0.4,3.6-2.3,6.5-5.6,8.9c-1.8,1.3-3.7,2.1-5.8,2.5c-2.2,0.4-4.2,0.3-6.2-0.2c-2.7-0.8-5.3-2.9-7.7-6.4L935.4-79.6z M969.9-35.6
	c-1-1.4-1.7-2.9-2-4.5c-0.3-1.6-0.3-3.2-0.1-4.9c0.3-1.6,0.9-3.2,1.8-4.6c0.9-1.5,2-2.7,3.5-3.7c2.9-2.1,6.2-2.8,9.6-2.3
	s6.2,2.4,8.3,5.3c2.1,3,2.9,6.3,2.4,9.6c-0.6,3.4-2.4,6.1-5.3,8.2c-1.4,1-3,1.7-4.7,2c-1.7,0.4-3.4,0.4-4.9,0.1
	c-1.6-0.3-3.2-0.8-4.6-1.8C972.2-33.1,970.9-34.2,969.9-35.6z M655.9,733.1c-0.8-0.3-1.8-0.3-2.7-0.2s-2,0.4-3.1,0.8
	c-1.1,0.5-2.3,1.1-3.8,1.8l-2.8,1.6l-6.4-11.6l4.9-2.8c1.7-0.9,3-2.3,4-3.9c1.3-2.3,1.7-4.6,1.1-7c-0.6-2.3-1.9-4.2-4.2-5.4
	c-0.9-0.5-1.8-0.9-2.7-1.1c-0.8-0.3-1.8-0.3-2.7-0.2s-2,0.4-3.1,0.8c-1.1,0.5-2.3,1.1-3.8,1.8l-2.8,1.5l-2.1-3.8
	c-1.3-2.4-2.7-4-4-4.8c-2.3-1.3-4.8-1.8-7.2-1.2c-2.4,0.6-4.3,2-5.6,4.3c-1.8,3.2-1.7,6.6,0.4,10.4l2.3,4.2l-11.5,6.4l-2.1-3.7
	c-1.3-2.4-2.7-4-4-4.8c-2.3-1.3-4.8-1.8-7.2-1.2c-2.4,0.6-4.3,2-5.6,4.3c-1.8,3.2-1.7,6.6,0.4,10.4l2.3,4.1l-3.4,1.8
	c-2.4,1.3-4,2.7-4.8,4c-1.3,2.3-1.8,4.8-1.2,7.2c0.6,2.4,2,4.3,4.3,5.6c3.2,1.8,6.6,1.7,10.4-0.4l3.8-2.1l6.4,11.5l-3.3,1.8
	c-2.4,1.3-4,2.7-4.8,4c-1.3,2.3-1.8,4.8-1.2,7.2c0.6,2.4,2,4.3,4.3,5.6c3.2,1.8,6.6,1.7,10.4-0.4l3.7-2.1l2.5,4.5
	c0.9,1.7,2.3,3,3.9,4c2.3,1.3,4.6,1.7,7,1.1s4.2-1.9,5.4-4.2c0.5-0.9,0.9-1.8,1.1-2.7c0.3-0.8,0.3-1.8,0.2-2.7
	c-0.1-0.9-0.4-2-0.8-3.1c-0.5-1.1-1.1-2.3-1.8-3.8l-1.3-2.3l11.6-6.5l2.5,4.5c0.9,1.7,2.3,3,3.9,4c2.3,1.3,4.6,1.7,7,1.1
	s4.2-1.9,5.4-4.2c0.5-0.9,0.9-1.8,1.1-2.7c0.3-0.8,0.3-1.8,0.2-2.7c-0.1-0.9-0.4-2-0.8-3.1c-0.5-1.1-1.1-2.3-1.8-3.8l-1.3-2.3
	l4.9-2.8c1.7-0.9,3-2.3,4-3.9c1.3-2.3,1.7-4.6,1.1-7c-0.6-2.3-1.9-4.2-4.2-5.4C657.6,733.6,656.7,733.2,655.9,733.1z M615.5,753.5
	L609,742l11.5-6.4l6.4,11.6L615.5,753.5z M628.8-93c0.9-0.6,1.7-1,2.3-1.2s1.2-0.3,1.8-0.3c1.8,0,3.3,0.7,4.5,2
	c1.3,1.3,1.9,2.8,1.9,4.6c0,1.4-0.3,2.5-0.8,3.4c-0.5,0.8-1.6,1.8-3.2,2.7l-3.4,2.3l3.4,2c1.7,0.9,2.8,1.8,3.4,2.7
	c0.6,0.8,0.8,2,0.8,3.4c0,1.8-0.6,3.4-1.8,4.6c-1.3,1.3-2.7,1.9-4.4,1.9c-1.5,0-2.9-0.4-4.4-1.3l-3.4-2v3.7c0,5-2.1,7.5-6.3,7.5
	c-2.2,0-3.8-0.7-4.9-2c-1.2-1.3-1.8-3.2-1.8-5.5v-3.7l-3.9,2c-1.4,0.8-2.7,1.3-3.9,1.3c-1.9,0-3.4-0.7-4.7-1.9
	c-1.3-1.3-1.8-2.8-1.8-4.8c0-2.3,1.3-4.4,3.9-5.9l3.4-2l-3.4-2c-2.4-1.5-3.7-3.5-3.7-6c0-1.7,0.6-3.1,1.8-4.4c1.2-1.3,2.6-2,4.3-2
	c1.3,0,2.8,0.4,4.4,1.3l3.6,1.8v-3.6c0-2.3,0.6-4.3,1.8-5.6c1.2-1.3,2.7-2,4.6-2c2.1,0,3.7,0.7,4.9,2c1.2,1.3,1.8,3.2,1.8,5.4v3.6
	L628.8-93z M318.4-18.3c1.4-4,4.2-6.6,8.1-7.7c1.7-0.4,3.2-0.6,4.6-0.5c1.4,0.1,3.4,0.6,5.9,1.5l3.9,1.3c2.8,1,5,2.1,6.4,3.1
	c1.3,1,2.5,2.4,3.5,4.1c1.1,2.1,1.7,4,1.6,5.9c0,1.8-0.6,4.4-1.8,7.5l-17.5,48.6c-1.5,4.2-3.9,7.2-7.2,9c-3.4,1.8-6.9,2.1-10.6,0.8
	c-1.8-0.7-3.5-1.8-5-3.3c-1.5-1.5-2.6-3.2-3.3-5.1c-0.6-1.7-0.8-3.4-0.8-4.9s0.5-3.4,1.3-5.6l14.6-40.5
	C317.7-8.2,316.5-12.9,318.4-18.3z M802.4,636.7c0-6,1.1-11.6,3.4-16.8c2.3-5.2,5.4-9.8,9.3-13.7c3.9-3.9,8.5-7,13.7-9.1
	c5.3-2.3,10.9-3.4,16.9-3.4c6,0,11.6,1.2,16.9,3.4c5.3,2.3,9.9,5.4,13.7,9.3c3.9,3.9,7,8.5,9.3,13.7c2.3,5.2,3.4,10.8,3.4,16.8
	c0,5.9-1.2,11.6-3.4,16.8c-2.3,5.3-5.4,9.9-9.3,13.7c-3.9,3.9-8.5,7-13.8,9.3c-5.3,2.3-10.9,3.4-16.8,3.4c-6,0-11.6-1.2-16.9-3.4
	c-5.3-2.3-9.9-5.4-13.7-9.3c-3.9-3.9-7-8.5-9.3-13.8C803.6,648.3,802.4,642.6,802.4,636.7z M829.5,636.7c0,2.2,0.4,4.3,1.3,6.3
	c0.8,2,2,3.8,3.4,5.2c1.4,1.5,3.1,2.6,5.1,3.5c1.9,0.8,4,1.3,6.3,1.3c2.3,0,4.3-0.4,6.3-1.3c1.9-0.8,3.7-2,5.2-3.5
	c1.5-1.5,2.7-3.2,3.5-5.1s1.3-4,1.3-6.2c0-2.2-0.4-4.3-1.3-6.2s-2-3.6-3.5-5.1c-1.5-1.5-3.2-2.6-5.2-3.5c-1.9-0.8-4-1.3-6.3-1.3
	c-2.1,0-4.2,0.4-6.1,1.3c-1.9,0.8-3.7,2-5.2,3.4c-1.5,1.4-2.7,3.1-3.5,5C830,632.5,829.5,634.5,829.5,636.7z M843.2,149.5
	c-0.8-1.8-1.9-3.4-3.4-4.7c-1.4-1.3-2.9-2.1-4.6-2.7c-1.7-0.5-3.9-0.8-6.4-0.8h-34.8l12.1-32.8c1-2.7,1.6-4.9,1.7-6.6
	s-0.3-3.4-1-5.2c-0.6-1.7-1.7-3.2-3.1-4.5c-1.5-1.3-3.1-2.4-4.9-3c-1.7-0.6-3.5-0.8-5.5-0.8c-2,0.2-3.9,0.7-5.5,1.5
	c-1.7,0.9-3,2-4.1,3.4c-1.1,1.4-2.1,3.4-3,5.8L763,147c-0.3,0.8-0.5,1.4-0.8,2.1c-0.8,1.8-1.3,3.8-1.3,5.9l0,0c0,0.4,0,0.8,0.1,1.3
	c0.3,3.5,1.8,6.4,4.4,8.7c0.8,0.8,1.5,1.3,2.3,1.8c0.8,0.4,1.6,0.8,2.5,1.1c0.7,0.2,1.5,0.3,2.4,0.4c1,0.2,2,0.3,2.9,0.2
	c0.7,0,1.4,0,2.3,0h51c2.8,0,5.1-0.3,6.8-0.8c1.7-0.5,3.2-1.4,4.6-2.7c1.3-1.2,2.3-2.7,3.2-4.5c0.8-1.8,1.2-3.7,1.2-5.6
	C844.5,153.2,844,151.3,843.2,149.5z M338.3,560.5c-1.4,1.4-2.5,3-3.3,4.8c-0.7,1.8-1,3.5-0.9,5.3c0.1,1.8,0.6,3.9,1.5,6.4l12,32.8
	l-34.9-0.1c-2.8,0-5.1,0.3-6.8,0.8c-1.7,0.5-3.2,1.4-4.6,2.7c-1.3,1.2-2.3,2.7-3.2,4.5c-0.8,1.8-1.2,3.7-1.2,5.6
	c0,1.8,0.4,3.6,1.3,5.4s1.9,3.4,3.4,4.7c1.4,1.3,2.9,2.1,4.6,2.7c1.7,0.5,3.9,0.8,6.4,0.8l51,0.2c0.8,0,1.5,0,2.3,0
	c1.9,0.2,3.9-0.1,6-0.8l0,0c0.4-0.2,0.8-0.3,1.2-0.5c3.2-1.5,5.4-3.9,6.7-7.1c0.4-0.9,0.8-1.8,0.9-2.8c0.2-0.9,0.2-1.8,0.1-2.8
	c-0.1-0.8-0.2-1.5-0.4-2.4c-0.2-1-0.5-1.9-0.8-2.8c-0.3-0.7-0.5-1.3-0.8-2.2l-17.5-47.9c-1-2.7-2-4.8-3-6.1c-1-1.3-2.4-2.5-4.1-3.4
	c-1.5-0.8-3.3-1.3-5.3-1.4c-2-0.1-3.9,0.2-5.7,0.8C341.3,558.2,339.7,559.2,338.3,560.5z"/>
<path id="text" fill="#01ADFE" d="M416.2,316.7c-0.7,2.8-1.6,5.4-2.7,7.9s-2.5,4.9-4.1,7.3c-4.8,7-10.8,12.6-18.2,16.6
	c-7.4,4-15.3,5.9-23.8,5.9c-7.2,0-14-1.4-20.4-4.3c-6.4-2.8-12.1-6.9-16.9-12.1c-4.5-4.9-7.9-10.2-10.1-16.1
	c-2.2-5.9-3.3-12.6-3.3-20.4c0-5.8,0.5-10.4,1.4-13.9c1-3.4,2.6-6.4,4.9-9c3.7-4.5,8.6-6.7,14.8-6.7c6.5,0,11.8,2.1,15.9,6.4
	s5.9,9.8,5.7,16.8v7.1c-0.2,2.9,0.6,5.3,2,7c1.5,1.7,3.5,2.5,5.9,2.5c3.6,0,6.2-1.7,7.6-5c0.3-0.8,0.4-1.7,0.5-2.8s0.1-3.3,0.1-6.6
	v-47.2l0,0c0-2.9,0-5.4,0.1-7.5c0.1-2,0.3-3.7,0.6-5c0.3-1.3,0.8-2.6,1.3-3.7c0.5-1.1,1.2-2.2,2.1-3.4c1.8-2.7,4.3-4.9,7.5-6.4
	c3.2-1.6,6.4-2.4,9.8-2.4c3.6,0,7,0.8,10.1,2.5c3.2,1.7,5.7,4,7.5,7c0.8,1.2,1.3,2.3,1.8,3.3c0.4,1,0.8,2.2,1.1,3.6
	c0.3,1.3,0.4,2.9,0.5,4.9c0.1,1.8,0.1,4.3,0.1,7.2v44.6c0,4.9-0.2,9.1-0.4,12.6C417.3,310.7,416.8,313.9,416.2,316.7z M438.3,313
	c-3.5-8.3-5.3-17.2-5.3-26.7c0-9.2,1.8-17.9,5.3-26c3.5-8.1,8.4-15.2,14.5-21.2c6.1-6,13.2-10.8,21.4-14.2s17-5.2,26.4-5.2
	c9.4,0,18.2,1.8,26.4,5.3c8.2,3.5,15.4,8.3,21.6,14.3c6.2,6,11,13.2,14.6,21.4c3.5,8.2,5.3,16.9,5.3,26.2c0,9.2-1.8,18-5.3,26.2
	c-3.5,8.2-8.4,15.4-14.6,21.6c-6.2,6.2-13.3,11-21.6,14.6c-8.2,3.5-16.9,5.3-26.2,5.3c-9.5,0-18.3-1.8-26.6-5.3s-15.4-8.4-21.4-14.6
	C446.7,328.5,441.8,321.3,438.3,313z M475.4,286.8c0,3.5,0.7,6.8,2,10c1.3,3.2,3.2,5.9,5.4,8.2s4.9,4.2,8,5.5c3.1,1.3,6.4,2,9.9,2
	s6.8-0.7,9.9-2c3.1-1.3,5.8-3.2,8-5.5s4-5,5.4-8.1c1.3-3.1,2-6.4,2-9.9c0-3.5-0.7-6.7-2-9.8c-1.3-3-3.2-5.7-5.4-8s-4.9-4-8-5.3
	c-3.1-1.3-6.4-1.9-9.9-1.9s-6.8,0.7-9.9,1.9s-5.8,3.1-8,5.3c-2.3,2.3-4,4.9-5.4,7.9C476.1,280.1,475.4,283.2,475.4,286.8z
	 M664.8,280.6c-2.9-2.6-6.9-5-11.7-7.5c-4.9-2.3-10.1-4.4-15.6-6c-5-1.7-8.4-3.1-10.1-4.3c-1.8-1.2-2.6-2.7-2.6-4.6
	c0-1.4,0.5-2.6,1.4-3.6c1-0.9,2.2-1.4,3.6-1.4c1.2,0,2.3,0.3,3.7,0.9c1.3,0.7,3,1.8,5.2,3.7c3.6,2.7,6.7,4.6,9.2,5.7
	c2.6,1.1,5.4,1.7,8.3,1.7c4.9,0,8.9-1.7,12-4.9c3.1-3.3,4.6-7.5,4.6-12.6c0-4-1.1-7.7-3.2-11.1c-2.1-3.4-5-6.4-8.8-8.9
	c-3.8-2.5-8.1-4.5-13.1-5.9c-5-1.5-10.4-2.2-16.2-2.2c-7,0-13.3,1-19.2,3.1c-5.9,2.1-10.8,4.9-14.9,8.6c-4.1,3.7-7.3,8.1-9.6,13.3
	c-2.3,5.1-3.4,10.9-3.4,17.2c0,17.8,9.3,30.1,28,36.6c1.8,0.7,3.5,1.3,5.2,1.8c1.7,0.6,3.4,1.2,5.2,1.8c1.7,0.7,3,1.2,3.9,1.5
	c1,0.4,1.8,0.7,2.3,1c0.6,0.3,1,0.5,1.3,0.7c0.3,0.2,0.6,0.3,0.8,0.5c2.2,1.4,3.3,3.2,3.3,5.4c0,1.7-0.5,3-1.4,4
	c-1,1-2.3,1.5-3.9,1.5c-0.8,0-1.5-0.1-2.1-0.2c-0.7-0.2-1.4-0.5-2.3-1.1s-2.1-1.3-3.4-2.4c-1.4-1-3.3-2.4-5.6-4.3
	c-2.7-2.2-5.3-3.8-7.6-4.7c-2.3-0.9-4.9-1.4-7.5-1.4c-2.7,0-5.2,0.5-7.6,1.5c-2.3,1-4.4,2.4-6.2,4.1c-1.8,1.8-3.1,3.8-4,6
	c-1,2.3-1.4,4.9-1.4,7.5c0,4.6,1.3,8.9,3.7,12.8c2.4,3.9,5.9,7.4,10.2,10.3c4.4,2.9,9.5,5.3,15.4,7s12.2,2.5,19.1,2.5
	c8,0,14.8-1.1,20.7-3.2c5.9-2.1,11-5.4,15.3-9.7c3.9-4,6.9-8.6,9-14c2.1-5.4,3.2-10.9,3.2-16.7c0-6.2-1.2-11.9-3.4-17.3
	C671.9,288.3,668.7,284,664.8,280.6z M773.1,316.3c-2.2-1.8-4.5-3-7-3.8c-2.5-0.7-6-1.1-10.7-1.1l0,0h-19.4v-9.6h15.2
	c3.4,0,5.9-0.3,7.8-0.7c1.8-0.4,3.6-1.3,5.3-2.6c3.7-3.1,5.6-7.1,5.6-12.1c0-4.5-1.5-8.1-4.6-11c-3.1-2.8-7.3-4.3-12.5-4.3H736v-8.9
	h21.2c4,0,7.2-0.3,9.6-1.1c2.4-0.7,4.6-1.9,6.5-3.6c2.2-1.8,3.9-4.1,5.1-6.9c1.3-2.8,1.8-5.7,1.8-8.8c0-4.5-1.3-8.4-3.9-11.7
	c-2.6-3.4-6.2-5.6-10.7-6.7c-0.8-0.2-1.5-0.3-2.1-0.4c-0.7-0.2-1.5-0.3-2.5-0.4c-1-0.2-2.4-0.2-4.3-0.2c-1.8,0-4.3,0-7.3,0H724
	c-3.1,0-5.5,0-7.5,0.1c-1.8,0.1-3.4,0.2-4.6,0.3c-1.3,0.2-2.3,0.3-3.2,0.6c-0.9,0.3-1.9,0.7-3.1,1.2c-2.2,1-4.2,2.4-6,4.3
	c-1.8,1.8-3.3,3.9-4.1,6.4c-0.4,1-0.7,1.9-0.9,2.7c-0.3,0.8-0.4,1.7-0.6,2.8s-0.3,2.5-0.3,4.1c-0.1,1.7-0.1,3.9-0.1,6.5v70
	c0,2.2,0,4,0,5.4c0,1.3,0,2.3,0.1,3.3s0.2,1.7,0.3,2.2c0.2,0.6,0.3,1.2,0.4,1.8c1.3,7.5,5.4,12.6,12.1,15.4c1.8,0.7,3.7,1.1,5.8,1.3
	c2.1,0.3,5.5,0.4,10.4,0.4h32.9c2.4,0,4.5-0.1,6.3-0.2c1.8-0.2,3.3-0.3,4.5-0.7c1.3-0.3,2.4-0.8,3.6-1.3c1.1-0.6,2.2-1.3,3.2-2.2
	c2.2-1.8,3.9-4.1,5.1-6.9c1.3-2.8,1.8-5.6,1.8-8.5C780,325.3,777.7,320.3,773.1,316.3z M794.9,330.1c-0.1-2.1-0.1-4.7-0.1-7.9v-75.1
	c0-4.6,0.4-8.2,1.3-10.8c0.8-2.6,2.3-5,4.5-7.3c2.2-2.2,4.6-3.8,7.3-4.9c2.7-1,6-1.5,10.1-1.5h17.8c5.1,0,9.6,0.2,13.5,0.5
	c3.9,0.3,7.3,0.8,10.2,1.7c2.9,0.8,5.7,1.8,8.2,3s4.9,2.8,7.5,4.7c5.8,4.4,10.2,9.8,13.4,16.2c3.2,6.4,4.7,13.2,4.7,20.4
	c0,7.2-1.7,14-4.9,20.4c-3.3,6.4-7.9,11.9-13.8,16.3c-4.4,3.4-8.9,5.7-13.6,7.1c-4.6,1.4-10.1,2.1-16.4,2.1h-7.1v12.5
	c0,7.3-1.9,13.2-5.8,17.8c-3.9,4.5-9,6.7-15.3,6.7c-3.6,0-7-0.8-10.1-2.6c-3.1-1.8-5.7-4.1-7.5-7c-0.8-1.3-1.4-2.5-1.9-3.6
	c-0.5-1.1-0.9-2.3-1.2-3.7S794.9,332.2,794.9,330.1z M837.2,275.9c5.2,0.3,8.9-0.2,11.1-1.2c2.2-1,3.2-3,3.2-5.9
	c0-2.2-0.9-3.9-2.8-5s-4.4-1.8-7.6-1.8h-3.9L837.2,275.9L837.2,275.9z M1017.6,237.2c-0.7-2.7-1.9-5.1-3.6-7.3
	c-1.9-2.6-4.4-4.5-7.5-5.9s-6.2-2.1-9.5-2.1c-3.4,0-6.4,0.8-9.2,2.2c-2.8,1.5-5.2,3.5-7.1,6c-1.8,2.4-3,4.9-3.6,7.5
	c-0.6,2.5-0.8,6.4-0.8,11.5v17.5h-26.1v-18.1c0-2.7-0.1-4.9-0.2-6.9c-0.2-1.8-0.3-3.4-0.7-4.7c-0.3-1.3-0.8-2.4-1.3-3.4
	c-0.5-1-1.3-2.1-2.1-3.3c-1.9-2.6-4.4-4.6-7.5-6c-3.1-1.5-6.3-2.2-9.5-2.2c-3.4,0-6.4,0.8-9.3,2.2c-2.8,1.5-5.4,3.5-7.4,6
	c-1.8,2.2-2.9,4.5-3.5,7s-0.8,5.9-0.8,10.4V325c0,2.4,0.1,4.5,0.2,6.3c0.1,1.8,0.3,3.3,0.6,4.6s0.6,2.6,1.1,3.7
	c0.4,1.1,1.1,2.2,1.8,3.4c1.9,2.9,4.4,5.3,7.5,7c3.1,1.7,6.4,2.5,10.1,2.5c3.6,0,6.9-0.8,10-2.5c3.1-1.7,5.5-4,7.5-7
	c0.8-1.2,1.3-2.3,1.8-3.3c0.4-1,0.8-2.2,1.1-3.4c0.3-1.3,0.4-2.8,0.6-4.5s0.2-3.9,0.2-6.6v-18.1h26v18.5c0,2.6,0.1,4.8,0.2,6.5
	c0.2,1.8,0.3,3.4,0.6,4.9c0.3,1.4,0.7,2.7,1.3,3.8c0.6,1.1,1.3,2.2,2,3.4c1.9,2.7,4.4,4.8,7.5,6.3c3,1.5,6.2,2.2,9.5,2.2
	c3.7,0,7.1-0.9,10.3-2.7c3.2-1.8,5.7-4.3,7.6-7.5c0.7-1.2,1.2-2.3,1.7-3.3c0.4-1,0.8-2.2,1.1-3.4c0.3-1.3,0.4-2.8,0.6-4.4
	c0.2-1.6,0.2-3.5,0.2-5.7v-77.8C1018.7,243.2,1018.3,239.8,1017.6,237.2z M317.3,456.2c0.2,1,0.5,2,0.8,2.8c0.3,0.8,0.8,1.7,1.4,2.6
	c1.5,2.3,3.4,4,5.8,5.4c2.3,1.3,5,1.9,7.9,1.9c2.8,0,5.4-0.7,7.7-1.9c2.3-1.3,4.3-3.1,5.8-5.4c0.6-0.9,1.1-1.8,1.4-2.5
	c0.3-0.8,0.6-1.7,0.8-2.7c0.2-1,0.3-2.2,0.4-3.5c0.1-1.3,0.2-3,0.2-5.1l0,0v-13.9h20.1v14.2c0,2,0.1,3.7,0.2,5
	c0.1,1.4,0.3,2.6,0.4,3.7c0.2,1.1,0.5,2,1,2.8c0.4,0.8,1,1.7,1.6,2.6c1.5,2.1,3.4,3.7,5.7,4.8c2.3,1.2,4.8,1.7,7.4,1.7
	c2.8,0,5.5-0.7,8-2.1c2.4-1.3,4.4-3.3,5.9-5.8c0.5-0.9,0.9-1.8,1.3-2.5c0.3-0.8,0.6-1.7,0.8-2.7c0.2-1,0.3-2.1,0.4-3.4
	c0.1-1.3,0.2-2.7,0.2-4.4v-59.8c0-3.2-0.3-5.8-0.8-7.9c-0.6-2.1-1.4-3.9-2.8-5.6c-1.5-2-3.4-3.5-5.7-4.6c-2.3-1.1-4.8-1.6-7.4-1.6
	c-2.6,0-4.9,0.6-7.1,1.7c-2.2,1.2-4,2.7-5.5,4.7c-1.4,1.8-2.3,3.8-2.8,5.7c-0.4,1.9-0.7,4.9-0.7,8.8v13.5h-20.1v-13.9
	c0-2.1-0.1-3.9-0.2-5.3c-0.1-1.4-0.3-2.7-0.5-3.6c-0.3-1-0.6-1.8-0.9-2.7c-0.4-0.8-0.9-1.6-1.6-2.5c-1.5-2-3.4-3.5-5.8-4.7
	c-2.3-1.2-4.9-1.7-7.4-1.7c-2.6,0-4.9,0.6-7.2,1.7c-2.3,1.2-4.1,2.7-5.7,4.7c-1.3,1.7-2.3,3.4-2.8,5.4c-0.4,1.8-0.7,4.5-0.7,8v59.6
	c0,1.8,0.1,3.5,0.2,4.8C316.9,453.9,317.1,455.2,317.3,456.2z M476.6,466.4c0.8-0.4,1.7-1,2.4-1.7c1.7-1.3,3-3.1,3.9-5.3
	c0.9-2.1,1.4-4.4,1.4-6.6c0-4.6-1.8-8.5-5.4-11.6c-1.7-1.3-3.5-2.3-5.4-2.8c-1.9-0.5-4.7-0.8-8.3-0.8h-15v-7.4H462
	c2.6,0,4.6-0.2,6-0.5c1.4-0.3,2.8-1,4.1-2c2.8-2.3,4.3-5.4,4.3-9.3c0-3.4-1.2-6.3-3.6-8.5c-2.3-2.2-5.6-3.3-9.6-3.3h-12.9v-6.8h16.4
	c3.1,0,5.5-0.3,7.5-0.8c1.8-0.5,3.6-1.4,5-2.8c1.7-1.3,3-3.1,3.9-5.3c0.9-2.1,1.4-4.4,1.4-6.7c0-3.4-1-6.4-3-9
	c-2-2.6-4.8-4.3-8.3-5.2c-0.6-0.1-1.2-0.2-1.7-0.3c-0.5-0.1-1.2-0.2-1.9-0.3c-0.8-0.1-1.9-0.2-3.3-0.2c-1.4,0-3.3,0-5.6,0h-19.6
	c-2.3,0-4.3,0-5.7,0.1c-1.4,0.1-2.6,0.1-3.6,0.3c-0.9,0.1-1.8,0.3-2.4,0.4c-0.7,0.2-1.5,0.5-2.3,0.9c-1.7,0.8-3.3,1.8-4.7,3.3
	c-1.4,1.4-2.5,3-3.2,4.9c-0.3,0.8-0.6,1.5-0.8,2.1c-0.2,0.6-0.3,1.3-0.4,2.2c-0.1,0.8-0.2,1.9-0.3,3.2s-0.1,2.9-0.1,5v53.6
	c0,1.7,0,3.1,0,4.2c0,1,0,1.8,0.1,2.5c0.1,0.7,0.1,1.3,0.3,1.7c0.1,0.4,0.2,0.9,0.3,1.4c1,5.7,4.1,9.7,9.4,11.8
	c1.4,0.5,2.8,0.8,4.4,1c1.6,0.2,4.3,0.3,8,0.3h25.5c1.8,0,3.5-0.1,4.9-0.2c1.3-0.1,2.5-0.3,3.5-0.5
	C474.8,467.2,475.7,466.8,476.6,466.4z M564.4,383.5c2.3,3,4.1,6.4,5.4,10c1.3,3.7,1.9,7.5,1.9,11.4c0,4.8-0.8,9-2.4,13
	c-1.7,3.9-4.4,8-8.1,12.2l7.7,12.3c1.1,1.7,1.8,3.4,2.3,5.3c0.5,1.8,0.8,3.6,0.8,5.3c0,2.3-0.4,4.4-1.3,6.3c-0.8,1.9-2,3.6-3.5,5
	c-1.5,1.4-3.2,2.6-5.2,3.4c-2,0.8-4.1,1.3-6.4,1.3c-5.9,0-10.5-2.5-13.6-7.5L528.5,439v13.5c0,2.3-0.4,4.5-1.3,6.5
	c-0.8,2-2,3.7-3.4,5.2c-1.4,1.5-3.1,2.7-5,3.5c-1.9,0.8-4,1.3-6.3,1.3c-2.5,0-4.9-0.5-7.1-1.6c-2.3-1-4.2-2.5-5.6-4.4
	c-2.6-3.3-3.9-7.9-3.9-13.9v-60.9c0-3.5,0.4-6.4,1.2-8.6c0.8-2.3,2.2-4.2,4.2-5.9c1.8-1.7,3.9-2.8,5.9-3.4c2-0.6,5-0.9,9-0.9h13.7
	c4.1,0,7.2,0.1,9.4,0.3c2.2,0.3,4.4,0.6,6.5,1.1c3.9,1.1,7.4,2.7,10.6,4.9C559.4,377.9,562.2,380.5,564.4,383.5z M539.6,405
	c0-3.8-2.5-5.5-7.6-5.4c-0.4,0-0.9,0-1.5,0c-0.5,0-1.2-0.1-1.9-0.2v10.6h1.3h2.3C537.1,410.4,539.6,408.7,539.6,405z M647.4,417.6
	l16.7-24.1c1.7-2.4,2.5-5.4,2.5-8.6c0-2.2-0.4-4.3-1.3-6.2c-0.9-2-2.1-3.7-3.6-5.2c-1.5-1.5-3.3-2.7-5.3-3.5c-2-0.9-4.1-1.3-6.3-1.3
	c-5.6,0-10.1,2.5-13.6,7.5l-18.2,26.6v-15.8c0-2.9-0.3-5.4-1-7.4c-0.7-2-1.8-3.8-3.4-5.4c-1.5-1.7-3.4-3-5.5-4s-4.4-1.5-6.9-1.5
	c-4.9,0-9,1.7-11.9,5c-3,3.4-4.4,7.8-4.4,13.2v63.4c0,5.7,1.5,10.3,4.4,13.7c3,3.4,7,5,12.2,5c4.9,0,9-1.7,11.9-5.1
	c2.9-3.4,4.4-8,4.4-13.7v-17l24.5,30.9c1.2,1.5,2.8,2.7,4.9,3.5c2.1,0.9,4.3,1.3,6.5,1.3c2.2,0,4.3-0.4,6.3-1.3s3.7-2.1,5.2-3.5
	c1.5-1.4,2.7-3.3,3.6-5.3c0.9-2,1.3-4.2,1.3-6.4c0-3.4-1-6.3-3.1-8.9L647.4,417.6z M704.4,467.3c2.2-1,4-2.5,5.6-4.4
	c1.3-1.8,2.3-3.6,2.8-5.4c0.6-1.8,0.8-4.4,0.8-7.6v-20.8l26,33c3.4,4.4,7.7,6.7,13,6.7c2.6,0,5-0.5,7.2-1.6c2.3-1,4.1-2.5,5.6-4.5
	c1.4-1.8,2.3-3.9,2.8-5.9c0.5-2,0.8-5,0.8-9v-60.4c0-3.1-0.3-5.5-0.9-7.5c-0.6-1.9-1.6-3.8-3-5.5c-1.6-1.8-3.4-3.4-5.6-4.4
	c-2.1-1-4.4-1.6-7-1.6c-2.7,0-5.2,0.7-7.6,1.9c-2.4,1.3-4.4,3-5.7,5.2c-1.2,1.7-2,3.4-2.3,5.3c-0.4,1.8-0.6,4.4-0.6,7.6l0,0V407
	l-26.1-31.8c-1.9-2.3-3.8-3.9-5.7-4.9c-1.9-1-4.1-1.6-6.4-1.6c-5.2,0-9.3,1.6-12.4,4.8c-3.1,3.2-4.7,7.4-4.7,12.7v62.5
	c0,3.7,0.3,6.4,0.7,8.3c0.4,1.8,1.3,3.8,2.8,5.6c1.6,2,3.5,3.5,5.8,4.7c2.3,1.2,4.7,1.7,7.3,1.7C700,468.9,702.2,468.4,704.4,467.3z
	 M840.8,467.4c1-0.3,1.9-0.6,2.8-1c0.8-0.4,1.7-1,2.4-1.7c1.7-1.3,3-3.1,3.9-5.3c0.9-2.1,1.4-4.4,1.4-6.6c0-4.6-1.8-8.5-5.4-11.6
	c-1.7-1.3-3.5-2.3-5.4-2.8c-1.9-0.5-4.7-0.8-8.3-0.8h-15v-7.4H829c2.6,0,4.6-0.2,6-0.5c1.4-0.3,2.8-1,4.1-2c2.8-2.3,4.3-5.4,4.3-9.3
	c0-3.4-1.2-6.3-3.6-8.5c-2.3-2.2-5.6-3.3-9.6-3.3h-12.9v-6.8h16.3c3.1,0,5.5-0.3,7.5-0.8c1.8-0.5,3.6-1.4,5-2.8
	c1.7-1.3,3-3.1,3.9-5.3c0.9-2.1,1.4-4.4,1.4-6.7c0-3.4-1-6.4-3-9s-4.8-4.3-8.3-5.2c-0.6-0.1-1.2-0.2-1.7-0.3
	c-0.5-0.1-1.2-0.2-1.9-0.3c-0.8-0.1-1.9-0.2-3.3-0.2c-1.4,0-3.3,0-5.6,0H808c-2.3,0-4.3,0-5.7,0.1c-1.4,0.1-2.6,0.1-3.6,0.3
	c-0.9,0.1-1.8,0.3-2.4,0.4c-0.7,0.2-1.5,0.5-2.3,0.9c-1.7,0.8-3.3,1.8-4.7,3.3c-1.4,1.4-2.5,3-3.2,4.9c-0.3,0.8-0.6,1.5-0.8,2.1
	c-0.2,0.6-0.3,1.3-0.4,2.2c-0.1,0.8-0.2,1.9-0.3,3.2c-0.1,1.3-0.1,2.9-0.1,5v53.6c0,1.7,0,3.1,0,4.2c0,1,0,1.8,0.1,2.5
	c0.1,0.7,0.1,1.3,0.3,1.7c0.1,0.4,0.2,0.9,0.3,1.4c1,5.7,4.1,9.7,9.4,11.8c1.4,0.5,2.8,0.8,4.4,1c1.6,0.2,4.3,0.3,8,0.3h25.5
	c1.8,0,3.5-0.1,4.9-0.2C838.6,467.9,839.8,467.7,840.8,467.4z M897.4,392.9c0.9,0,1.8,0.3,2.8,0.8c1,0.5,2.3,1.4,4,2.8
	c2.8,2.1,5.2,3.5,7.1,4.4c2,0.8,4.1,1.3,6.4,1.3c3.8,0,6.9-1.3,9.2-3.8c2.3-2.5,3.6-5.8,3.6-9.7c0-3.1-0.8-5.9-2.4-8.5
	c-1.7-2.6-3.9-4.9-6.8-6.8c-2.8-1.9-6.3-3.4-10.1-4.6c-3.9-1.2-8-1.7-12.5-1.7c-5.4,0-10.3,0.8-14.8,2.3c-4.5,1.6-8.4,3.8-11.6,6.7
	c-3.2,2.8-5.6,6.3-7.5,10.2c-1.8,3.9-2.7,8.4-2.7,13.2c0,13.7,7.2,23.1,21.5,28.1c1.4,0.5,2.8,1,4,1.4c1.3,0.4,2.6,0.9,4,1.4
	c1.3,0.5,2.3,0.9,3,1.2c0.8,0.3,1.3,0.6,1.8,0.8s0.8,0.3,1,0.5c0.3,0.2,0.5,0.3,0.7,0.3c1.7,1.1,2.5,2.4,2.5,4.2
	c0,1.3-0.3,2.3-1.1,3.1c-0.8,0.8-1.8,1.2-3,1.2c-0.6,0-1.2-0.1-1.7-0.2c-0.5-0.1-1.1-0.3-1.8-0.8c-0.7-0.4-1.6-1.1-2.7-1.8
	c-1.1-0.8-2.5-1.8-4.3-3.3c-2.1-1.7-4-2.8-5.9-3.6c-1.8-0.8-3.8-1.1-5.7-1.1c-2.1,0-4,0.4-5.9,1.2c-1.8,0.8-3.4,1.8-4.8,3.2
	c-1.3,1.3-2.3,2.8-3.1,4.7c-0.8,1.8-1.1,3.7-1.1,5.8c0,3.5,0.9,6.9,2.8,9.9c1.8,3,4.5,5.6,7.9,8c3.4,2.3,7.4,4,11.9,5.4
	c4.5,1.3,9.5,1.9,14.7,1.9c6.1,0,11.5-0.8,16-2.4c4.5-1.6,8.5-4.1,11.8-7.5c2.9-3.1,5.3-6.6,7-10.7c1.7-4.1,2.4-8.4,2.4-12.8
	c0-4.8-0.9-9.1-2.7-13.2c-1.8-4.1-4.2-7.5-7.3-10c-2.3-2-5.3-3.9-9-5.7c-3.8-1.8-7.8-3.4-12.1-4.7c-3.9-1.3-6.4-2.3-7.8-3.3
	c-1.3-0.9-2-2.1-2-3.5c0-1.1,0.3-2,1.1-2.8C895.4,393.3,896.3,392.9,897.4,392.9z M1008.4,413.9c-2.3-2-5.3-3.9-9-5.7
	c-3.8-1.8-7.8-3.4-12.1-4.7c-3.9-1.3-6.4-2.3-7.8-3.3c-1.3-0.9-2-2.1-2-3.5c0-1.1,0.3-2,1.1-2.8c0.8-0.8,1.7-1.1,2.8-1.1
	c0.9,0,1.8,0.3,2.8,0.8c1,0.5,2.3,1.4,4,2.8c2.8,2.1,5.2,3.5,7.1,4.4c2,0.8,4.1,1.3,6.4,1.3c3.8,0,6.9-1.3,9.2-3.8
	c2.3-2.5,3.6-5.8,3.6-9.7c0-3.1-0.8-5.9-2.4-8.5c-1.7-2.6-3.9-4.9-6.8-6.8c-2.8-1.9-6.3-3.4-10.1-4.6c-3.9-1.2-8-1.7-12.5-1.7
	c-5.4,0-10.3,0.8-14.8,2.3c-4.5,1.6-8.4,3.8-11.6,6.7c-3.2,2.8-5.6,6.3-7.5,10.2c-1.8,3.9-2.7,8.4-2.7,13.2
	c0,13.7,7.2,23.1,21.5,28.1c1.4,0.5,2.8,1,4,1.4c1.3,0.4,2.6,0.9,4,1.4c1.3,0.5,2.3,0.9,3,1.2c0.8,0.3,1.3,0.6,1.8,0.8
	s0.8,0.3,1,0.5c0.3,0.2,0.5,0.3,0.7,0.3c1.7,1.1,2.5,2.4,2.5,4.2c0,1.3-0.3,2.3-1.1,3.1s-1.8,1.2-3,1.2c-0.6,0-1.2-0.1-1.7-0.2
	c-0.5-0.1-1.1-0.3-1.8-0.8c-0.7-0.4-1.6-1.1-2.7-1.8c-1.1-0.8-2.5-1.8-4.3-3.3c-2.1-1.7-4-2.8-5.9-3.6c-1.8-0.8-3.8-1.1-5.7-1.1
	c-2.1,0-4,0.4-5.9,1.2c-1.8,0.8-3.4,1.8-4.8,3.2c-1.3,1.3-2.3,2.8-3.1,4.7c-0.8,1.8-1.1,3.7-1.1,5.8c0,3.5,0.9,6.9,2.8,9.9
	c1.8,3,4.5,5.6,7.9,8c3.4,2.3,7.4,4,11.9,5.4c4.5,1.3,9.5,1.9,14.7,1.9c6.1,0,11.5-0.8,16-2.4c4.5-1.6,8.5-4.1,11.8-7.5
	c3-3.1,5.3-6.6,7-10.7c1.7-4.1,2.4-8.4,2.4-12.8c0-4.8-0.9-9.1-2.7-13.2C1013.9,419.9,1011.5,416.5,1008.4,413.9z M332.4,500.5
	c0.8-0.8,1.8-1.4,2.8-1.8c1.1-0.4,2.3-0.7,3.4-0.7c1.2,0,2.3,0.3,3.5,0.7c1.1,0.4,2.1,1.1,2.9,2l2.2,2.3c0.5,0.5,1.2,1,2,1.3
	c0.8,0.3,1.8,0.5,2.6,0.5c1,0,2-0.2,2.9-0.6c0.9-0.4,1.7-0.9,2.3-1.6c0.7-0.7,1.2-1.4,1.6-2.3c0.4-0.9,0.6-1.8,0.6-2.9
	c0-3-1.8-5.9-5.4-8.9c-2.2-1.8-4.5-3.1-7-4c-2.6-0.9-5.2-1.3-8-1.3c-3.3,0-6.4,0.6-9.2,1.8c-2.8,1.3-5.4,2.9-7.5,5s-3.9,4.6-5.1,7.5
	c-1.3,2.8-1.8,5.9-1.8,9.2s0.6,6.3,1.8,9.1c1.3,2.8,2.9,5.4,5,7.5c2.2,2.1,4.7,3.8,7.5,5c2.8,1.3,5.9,1.8,9.2,1.8
	c2.8,0,5.6-0.5,8.4-1.6c2.8-1.1,5.1-2.5,7.4-4.4c3.3-2.8,4.9-5.6,4.9-8.3c0-0.9-0.2-1.8-0.6-2.8c-0.4-0.8-0.9-1.7-1.6-2.3
	c-0.7-0.7-1.4-1.2-2.3-1.6c-0.9-0.4-1.8-0.6-2.8-0.6c-0.9,0-1.8,0.2-2.8,0.6c-0.9,0.4-1.7,0.9-2.3,1.5l-1.5,1.6
	c-0.9,0.9-1.9,1.7-3.1,2.2c-1.2,0.5-2.3,0.8-3.5,0.8s-2.3-0.3-3.4-0.7s-2-1.1-2.8-1.8c-0.8-0.8-1.4-1.8-1.8-2.8
	c-0.4-1.1-0.7-2.2-0.7-3.4c0-1.3,0.3-2.3,0.7-3.4C331,502.3,331.7,501.4,332.4,500.5z M408.7,497.6c1.3,2.8,1.8,5.9,1.8,9.1
	c0,3.2-0.6,6.3-1.8,9.1c-1.3,2.8-2.9,5.4-5.1,7.5c-2.2,2.2-4.7,3.9-7.5,5.1c-2.8,1.3-5.9,1.8-9.1,1.8c-3.4,0-6.4-0.6-9.3-1.8
	c-2.8-1.3-5.4-2.9-7.5-5.1c-2.1-2.2-3.9-4.7-5-7.5c-1.3-2.9-1.8-6-1.8-9.3c0-3.3,0.6-6.3,1.8-9c1.3-2.8,2.9-5.3,5-7.4
	s4.6-3.8,7.5-4.9c2.8-1.2,5.9-1.8,9.2-1.8s6.4,0.6,9.2,1.8c2.8,1.3,5.4,2.9,7.5,5C405.8,492.2,407.5,494.7,408.7,497.6z
	 M395.7,506.7c0-1.3-0.3-2.3-0.7-3.4c-0.5-1.1-1.1-2-1.9-2.8c-0.8-0.8-1.8-1.4-2.8-1.8c-1.1-0.4-2.3-0.7-3.4-0.7
	c-1.3,0-2.3,0.3-3.4,0.7c-1.1,0.4-2,1.1-2.8,1.8c-0.8,0.8-1.4,1.7-1.9,2.8c-0.5,1-0.7,2.2-0.7,3.4c0,1.3,0.3,2.3,0.7,3.5
	c0.5,1.1,1.1,2.1,1.9,2.8c0.8,0.8,1.8,1.4,2.8,1.9c1.1,0.5,2.3,0.7,3.4,0.7c1.3,0,2.3-0.3,3.4-0.7c1.1-0.5,2-1.1,2.8-1.9
	c0.8-0.8,1.4-1.8,1.9-2.8C395.5,509.1,395.7,508,395.7,506.7z M467.4,519.8l-5.1-28.9c-0.3-1.2-0.5-2.2-0.8-2.9
	c-0.3-0.8-0.8-1.4-1.4-2c-0.7-0.7-1.4-1.1-2.3-1.5c-0.9-0.3-1.8-0.5-2.8-0.5c-1.4,0-2.7,0.3-3.9,1.1c-1.2,0.8-2.1,1.7-2.7,2.8
	l-7.5,15.9l-6.7-14.9c-0.7-1.5-1.6-2.8-3-3.6c-1.3-0.9-2.8-1.3-4.4-1.3c-1.9,0-3.5,0.6-4.8,1.8s-2.1,2.9-2.4,5.1l-5.1,28.7
	c-0.1,0.3-0.1,0.6-0.1,0.9c0,0.3,0,0.6,0,0.9c0,2.3,0.7,4.4,2.1,5.8c1.4,1.5,3.2,2.3,5.4,2.3c1.9,0,3.5-0.6,4.9-1.8
	c1.3-1.3,2.2-2.9,2.5-5.1l1.2-7.1l2.9,8c0.8,2.1,1.8,3.7,2.9,4.6c1.2,1,2.8,1.4,4.6,1.4c3.6,0,6.1-2,7.6-6.1l2.9-8l1.7,8.4
	c0.3,1.7,1.2,3.1,2.5,4.1c1.3,1,2.9,1.5,4.9,1.5c1,0,1.9-0.2,2.8-0.6c0.9-0.4,1.7-0.9,2.3-1.5c0.7-0.6,1.2-1.3,1.5-2.3
	c0.4-0.8,0.6-1.8,0.6-2.8c0-0.3,0-0.8-0.1-1.2C467.6,520.8,467.5,520.3,467.4,519.8z M505.5,493.4c1.1,2.3,1.7,4.6,1.7,7.1
	s-0.6,4.9-1.8,7.1s-2.8,4.2-4.9,5.7c-1.5,1.2-3.1,2-4.7,2.5c-1.6,0.5-3.5,0.8-5.8,0.8h-2.5v4.4l0,0c0,2.6-0.7,4.6-2,6.2
	c-1.3,1.6-3.1,2.3-5.4,2.3c-1.3,0-2.4-0.3-3.5-0.9c-1.1-0.6-2-1.4-2.7-2.4c-0.3-0.4-0.5-0.8-0.7-1.3c-0.2-0.4-0.3-0.8-0.4-1.3
	c-0.1-0.5-0.2-1.1-0.2-1.8c0-0.8,0-1.7,0-2.8v-26.2c0-1.6,0.2-2.8,0.4-3.8c0.3-0.9,0.8-1.8,1.6-2.6c0.8-0.8,1.6-1.3,2.6-1.7
	c1-0.3,2.1-0.5,3.5-0.5h6.2c1.8,0,3.4,0.1,4.7,0.2c1.3,0.1,2.5,0.3,3.6,0.6s2,0.6,2.8,1c0.8,0.4,1.8,1,2.6,1.7
	C502.9,489.2,504.4,491.1,505.5,493.4z M492.6,500.4c0-0.8-0.3-1.3-0.9-1.8c-0.7-0.4-1.5-0.6-2.7-0.6h-1.4v4.9l0,0
	c1.8,0.1,3.1-0.1,3.9-0.4C492.2,502.1,492.6,501.4,492.6,500.4z M549.4,489.2c-0.2-0.5-0.3-1-0.5-1.4c-0.3-0.4-0.5-0.8-0.8-1.3
	c-0.7-0.8-1.5-1.4-2.6-1.9c-1.1-0.5-2.1-0.8-3.2-0.8c-1.1,0-2.2,0.3-3.2,0.8c-1,0.5-1.8,1.2-2.5,2.1c-0.3,0.4-0.7,0.8-0.8,1.2
	c-0.2,0.4-0.3,0.8-0.5,1.2c-0.1,0.4-0.2,0.9-0.3,1.5c-0.1,0.6-0.1,1.3-0.1,2.1v17.9c0,1.6-0.3,2.8-1.1,3.7c-0.7,0.8-1.8,1.3-3,1.3
	c-1.3,0-2.3-0.4-3-1.3c-0.7-0.9-1.1-2.2-1.1-3.8l0,0v-17.7c0-1.6-0.2-2.8-0.4-3.8c-0.3-1-0.8-1.8-1.6-2.6c-0.7-0.8-1.5-1.3-2.4-1.7
	c-0.9-0.4-1.9-0.7-3-0.7c-1.1,0-2.1,0.3-3.2,0.8c-1.1,0.5-1.9,1.3-2.7,2.1c-0.3,0.4-0.6,0.8-0.8,1.2c-0.2,0.4-0.3,0.8-0.5,1.3
	c-0.1,0.5-0.2,1.1-0.3,1.8c-0.1,0.7-0.1,1.6-0.1,2.7v15.8c0,1.5,0.1,2.8,0.2,3.9c0.1,1.2,0.3,2.3,0.6,3.3c0.3,1,0.7,2,1.2,2.8
	c0.5,0.9,1,1.8,1.7,2.8c1.8,2.4,4,4.4,6.7,5.8s5.5,2.1,8.5,2.1c2.7,0,5.3-0.6,7.7-1.8s4.6-2.8,6.4-4.9c1.6-1.8,2.8-3.9,3.6-6.1
	c0.8-2.3,1.2-4.9,1.2-8v-15.9c0-1,0-1.8-0.1-2.6C549.6,490.4,549.4,489.8,549.4,489.2z M585.7,484.4c-0.3-0.1-0.4-0.1-0.6-0.1
	s-0.4,0-0.7,0c-0.3,0-0.8,0-1.3,0s-1.4,0-2.4,0h-14.9c-1.5,0-2.7,0-3.5,0c-0.8,0-1.6,0.1-2.1,0.1c-0.5,0.1-1,0.1-1.3,0.2
	c-0.3,0.1-0.7,0.3-1.1,0.4c-1.1,0.5-2,1.3-2.8,2.5c-0.8,1.2-1.1,2.4-1.1,3.7c0,1.8,0.7,3.4,2.1,4.9c0.7,0.7,1.4,1.2,2.3,1.5
	c0.8,0.3,1.9,0.5,3.3,0.5l0,0h3.9v22.4c0,1.5,0.1,2.7,0.3,3.5c0.2,0.8,0.5,1.6,1,2.3c0.8,1,1.6,1.8,2.7,2.3c1.1,0.5,2.2,0.8,3.4,0.8
	c1.3,0,2.5-0.3,3.5-0.8c1.1-0.6,1.9-1.4,2.6-2.5c0.5-0.8,0.8-1.6,1-2.4c0.2-0.8,0.3-1.9,0.3-3.3v-22.4h3.3c2.7,0,4.5-0.5,5.7-1.6
	c0.8-0.7,1.3-1.5,1.8-2.4c0.4-0.9,0.7-1.9,0.7-2.9c0-1.8-0.6-3.3-1.7-4.5C589,485.4,587.6,484.7,585.7,484.4z M618.7,498.2
	c1.4,0,2.5-0.1,3.4-0.3c0.8-0.3,1.6-0.7,2.3-1.3c0.8-0.6,1.3-1.4,1.8-2.4s0.7-2,0.7-3.1c0-1.6-0.4-2.9-1.3-4.1
	c-0.9-1.2-2.2-1.9-3.8-2.3c-0.3-0.1-0.5-0.1-0.8-0.2c-0.3-0.1-0.5-0.1-0.8-0.2c-0.3-0.1-0.8-0.1-1.5-0.1c-0.7,0-1.5,0-2.6,0h-8.9
	c-1.1,0-1.9,0-2.6,0c-0.7,0-1.2,0.1-1.6,0.1c-0.4,0.1-0.8,0.1-1.1,0.2c-0.3,0.1-0.7,0.3-1.1,0.4c-0.8,0.3-1.5,0.8-2.1,1.5
	c-0.6,0.7-1.2,1.3-1.4,2.3c-0.2,0.3-0.3,0.7-0.3,0.9c-0.1,0.3-0.2,0.6-0.2,1c-0.1,0.4-0.1,0.8-0.1,1.4c0,0.6,0,1.3,0,2.3v24.4
	c0,0.8,0,1.4,0,1.8c0,0.4,0,0.8,0,1.2s0.1,0.6,0.1,0.8s0.1,0.4,0.2,0.7c0.4,2.6,1.8,4.4,4.3,5.4c0.7,0.3,1.3,0.4,2,0.5
	c0.8,0.1,1.9,0.2,3.6,0.2h11.5c0.8,0,1.6,0,2.2-0.1s1.2-0.1,1.6-0.3c0.4-0.1,0.8-0.3,1.3-0.5c0.4-0.2,0.8-0.4,1.1-0.8
	c0.8-0.7,1.3-1.4,1.8-2.4c0.4-0.9,0.7-1.9,0.7-3c0-2.1-0.8-3.9-2.4-5.3c-0.8-0.7-1.6-1.1-2.4-1.3c-0.8-0.3-2.1-0.3-3.8-0.3l0,0h-6.8
	v-3.4h5.3c1.2,0,2.1-0.1,2.8-0.3c0.7-0.2,1.3-0.4,1.8-0.9c1.3-1.1,1.9-2.5,1.9-4.3c0-1.6-0.5-2.8-1.6-3.9c-1.1-1-2.5-1.5-4.4-1.5
	h-5.9v-3.1h7.4V498.2z M666,519.9c0.3,0.8,0.3,1.6,0.3,2.4c0,1-0.2,2-0.6,2.8c-0.4,0.8-0.9,1.7-1.6,2.3c-0.7,0.7-1.4,1.2-2.3,1.5
	c-0.9,0.3-1.8,0.6-2.9,0.6c-2.7,0-4.8-1.2-6.1-3.4l-6.1-10.1v6.1c0,1.1-0.2,2.1-0.6,2.9c-0.4,0.9-0.9,1.7-1.5,2.3
	c-0.7,0.7-1.4,1.2-2.3,1.6c-0.8,0.4-1.8,0.6-2.8,0.6c-1.1,0-2.2-0.3-3.3-0.7c-1-0.5-1.8-1.2-2.6-2c-1.2-1.5-1.8-3.6-1.8-6.4v-27.6
	c0-1.6,0.2-2.9,0.5-3.9s1-1.9,1.9-2.7c0.8-0.8,1.8-1.3,2.7-1.5c0.9-0.3,2.3-0.4,4.1-0.4h6.2c1.8,0,3.3,0.1,4.3,0.2
	c1,0.1,2,0.3,2.9,0.5c1.8,0.5,3.4,1.3,4.8,2.3c1.4,1,2.7,2.2,3.7,3.5c1,1.3,1.8,2.8,2.4,4.5c0.6,1.7,0.8,3.4,0.8,5.2
	c0,2.2-0.3,4.1-1.1,5.9c-0.8,1.8-1.9,3.6-3.7,5.5l3.5,5.6C665.5,518.2,665.8,519,666,519.9z M651.7,500.5c0-1.7-1.2-2.5-3.4-2.4
	c-0.2,0-0.4,0-0.7,0c-0.3,0-0.5,0-0.8-0.1v4.9h0.6h1C650.5,502.9,651.7,502.2,651.7,500.5z M720.3,504.5c-1-0.9-2.4-1.8-4.1-2.6
	c-1.7-0.8-3.5-1.5-5.4-2.1c-1.8-0.6-2.9-1.1-3.5-1.5c-0.6-0.4-0.9-0.9-0.9-1.6c0-0.5,0.2-0.9,0.5-1.3c0.3-0.3,0.8-0.5,1.3-0.5
	c0.4,0,0.8,0.1,1.3,0.3c0.4,0.3,1.1,0.7,1.8,1.3c1.3,0.9,2.3,1.6,3.3,2c0.9,0.4,1.8,0.6,2.9,0.6c1.7,0,3.1-0.6,4.2-1.7
	c1.1-1.2,1.6-2.6,1.6-4.4c0-1.4-0.3-2.7-1.1-3.9c-0.8-1.2-1.8-2.3-3.1-3.1c-1.3-0.8-2.8-1.6-4.6-2.1c-1.8-0.5-3.6-0.8-5.6-0.8
	c-2.4,0-4.7,0.3-6.7,1.1c-2,0.8-3.8,1.8-5.2,3c-1.4,1.3-2.6,2.8-3.4,4.6c-0.8,1.8-1.2,3.8-1.2,5.9c0,6.2,3.3,10.5,9.7,12.8
	c0.6,0.3,1.3,0.4,1.8,0.7c0.6,0.2,1.2,0.4,1.8,0.7c0.6,0.3,1,0.4,1.3,0.5c0.3,0.2,0.6,0.3,0.8,0.3c0.2,0.1,0.3,0.2,0.5,0.3
	c0.1,0.1,0.3,0.1,0.3,0.2c0.8,0.5,1.2,1.1,1.2,1.8c0,0.6-0.2,1.1-0.5,1.4s-0.8,0.5-1.3,0.5c-0.3,0-0.5,0-0.8-0.1
	c-0.3-0.1-0.5-0.2-0.8-0.3s-0.8-0.5-1.2-0.8c-0.5-0.3-1.2-0.8-1.9-1.5c-0.9-0.8-1.8-1.3-2.7-1.7c-0.8-0.3-1.7-0.5-2.6-0.5
	c-0.9,0-1.8,0.2-2.7,0.5c-0.8,0.3-1.5,0.8-2.2,1.4c-0.6,0.6-1.1,1.3-1.4,2.1c-0.3,0.8-0.5,1.7-0.5,2.6c0,1.6,0.4,3.1,1.3,4.4
	c0.8,1.3,2,2.6,3.6,3.6c1.5,1,3.4,1.8,5.4,2.4c2,0.6,4.3,0.8,6.7,0.8c2.8,0,5.2-0.3,7.2-1.1c2-0.8,3.9-1.8,5.4-3.4
	c1.3-1.4,2.3-3,3.1-4.9c0.8-1.8,1.1-3.8,1.1-5.8c0-2.2-0.4-4.2-1.2-6C722.8,507.2,721.7,505.7,720.3,504.5z M746.4,500.5
	c0.8-0.8,1.8-1.4,2.8-1.8c1.1-0.4,2.3-0.7,3.4-0.7c1.2,0,2.3,0.3,3.5,0.7c1.1,0.4,2.1,1.1,2.9,2l2.2,2.3c0.5,0.5,1.2,1,2,1.3
	c0.8,0.3,1.8,0.5,2.6,0.5c1,0,2-0.2,2.9-0.6c0.9-0.4,1.7-0.9,2.3-1.6c0.7-0.7,1.2-1.4,1.6-2.3c0.4-0.9,0.6-1.8,0.6-2.9
	c0-3-1.8-5.9-5.4-8.9c-2.2-1.8-4.5-3.1-7-4c-2.6-0.9-5.2-1.3-8-1.3c-3.3,0-6.4,0.6-9.2,1.8c-2.8,1.3-5.4,2.9-7.5,5s-3.9,4.6-5.1,7.5
	c-1.3,2.8-1.8,5.9-1.8,9.2s0.6,6.3,1.8,9.1c1.3,2.8,2.9,5.4,5,7.5c2.2,2.1,4.7,3.8,7.5,5c2.8,1.3,5.9,1.8,9.2,1.8
	c2.8,0,5.6-0.5,8.4-1.6c2.8-1.1,5.1-2.5,7.4-4.4c3.3-2.8,4.9-5.6,4.9-8.3c0-0.9-0.2-1.8-0.6-2.8c-0.4-0.8-0.9-1.7-1.6-2.3
	c-0.7-0.7-1.4-1.2-2.3-1.6c-0.9-0.4-1.8-0.6-2.8-0.6c-0.9,0-1.8,0.2-2.8,0.6c-0.9,0.4-1.7,0.9-2.3,1.5l-1.5,1.6
	c-0.9,0.9-1.9,1.7-3.1,2.2c-1.2,0.5-2.3,0.8-3.5,0.8c-1.2,0-2.3-0.3-3.4-0.7c-1.1-0.4-2-1.1-2.8-1.8c-0.8-0.8-1.4-1.8-1.9-2.8
	c-0.4-1.1-0.7-2.2-0.7-3.4c0-1.3,0.3-2.3,0.7-3.4C744.9,502.3,745.6,501.4,746.4,500.5z M791.3,486.3c-1.4-1.6-3.3-2.3-5.5-2.3
	s-4,0.8-5.4,2.4c-0.4,0.4-0.8,0.8-1,1.3c-0.3,0.4-0.4,0.9-0.6,1.3c-0.2,0.5-0.3,1.1-0.3,1.8c-0.1,0.7-0.1,1.5-0.1,2.4V521
	c0,1.6,0.2,2.8,0.4,3.7c0.3,0.9,0.8,1.8,1.5,2.5c0.7,0.8,1.4,1.3,2.4,1.7c1,0.4,2,0.7,3.1,0.7c1,0,2-0.3,2.9-0.7
	c1-0.4,1.8-1.1,2.6-1.8c0.7-0.8,1.2-1.6,1.4-2.5c0.3-0.9,0.4-2.1,0.4-3.5v-27.8c0-1.8-0.2-3.3-0.4-4.2
	C792.6,488,792.1,487.2,791.3,486.3z M822.4,498.2c1.4,0,2.5-0.1,3.4-0.3c0.8-0.3,1.6-0.7,2.3-1.3c0.8-0.6,1.3-1.4,1.8-2.4
	s0.7-2,0.7-3.1c0-1.6-0.4-2.9-1.3-4.1s-2.2-1.9-3.8-2.3c-0.3-0.1-0.5-0.1-0.8-0.2c-0.3-0.1-0.5-0.1-0.8-0.2
	c-0.3-0.1-0.8-0.1-1.5-0.1c-0.7,0-1.5,0-2.6,0h-8.9c-1.1,0-1.9,0-2.6,0c-0.7,0-1.2,0.1-1.6,0.1c-0.4,0.1-0.8,0.1-1.1,0.2
	c-0.3,0.1-0.7,0.3-1.1,0.4c-0.8,0.3-1.5,0.8-2.1,1.5c-0.7,0.7-1.2,1.3-1.4,2.3c-0.2,0.3-0.3,0.7-0.3,0.9c-0.1,0.3-0.2,0.6-0.2,1
	c-0.1,0.4-0.1,0.8-0.1,1.4c0,0.6,0,1.3,0,2.3v24.4c0,0.8,0,1.4,0,1.8c0,0.4,0,0.8,0,1.2s0.1,0.6,0.1,0.8c0.1,0.2,0.1,0.4,0.2,0.7
	c0.4,2.6,1.8,4.4,4.3,5.4c0.7,0.3,1.3,0.4,2,0.5c0.8,0.1,1.9,0.2,3.6,0.2h11.5c0.8,0,1.6,0,2.2-0.1c0.6-0.1,1.2-0.1,1.6-0.3
	c0.4-0.1,0.8-0.3,1.3-0.5c0.4-0.2,0.8-0.4,1.1-0.8c0.8-0.7,1.3-1.4,1.8-2.4c0.4-0.9,0.7-1.9,0.7-3c0-2.1-0.8-3.9-2.4-5.3
	c-0.8-0.7-1.6-1.1-2.4-1.3c-0.8-0.3-2.1-0.3-3.8-0.3l0,0h-6.8v-3.4h5.3c1.2,0,2.1-0.1,2.8-0.3c0.7-0.2,1.3-0.4,1.8-0.9
	c1.3-1.1,1.9-2.5,1.9-4.3c0-1.6-0.5-2.8-1.6-3.9c-1.1-1-2.5-1.5-4.4-1.5h-5.9v-3.1h7.4V498.2z M873.7,486.6c-0.8-0.8-1.6-1.5-2.5-2
	c-1-0.5-2-0.7-3.1-0.7c-1.2,0-2.3,0.3-3.4,0.8c-1.1,0.6-1.9,1.3-2.6,2.3c-0.5,0.8-0.9,1.6-1.1,2.4c-0.2,0.8-0.3,2-0.3,3.4l0,0v8.4
	l-11.8-14.5c-0.8-1-1.7-1.8-2.6-2.3c-0.8-0.5-1.8-0.7-2.9-0.7c-2.3,0-4.2,0.8-5.6,2.2c-1.4,1.4-2.1,3.4-2.1,5.8v28.4
	c0,1.7,0.1,2.9,0.3,3.8c0.2,0.8,0.6,1.7,1.3,2.6c0.8,0.9,1.6,1.6,2.6,2.1c1,0.5,2.1,0.8,3.3,0.8c1.1,0,2.2-0.3,3.2-0.7
	c1-0.5,1.8-1.2,2.5-2c0.6-0.8,1.1-1.6,1.3-2.4c0.3-0.8,0.3-2,0.3-3.4v-9.5l11.7,15c1.5,2,3.5,3,5.9,3c1.2,0,2.3-0.3,3.3-0.7
	c1-0.5,1.8-1.2,2.5-2c0.7-0.8,1.1-1.8,1.3-2.7c0.3-0.9,0.3-2.3,0.3-4.1v-27.5c0-1.4-0.2-2.5-0.4-3.4
	C874.8,488.3,874.4,487.5,873.7,486.6z M912,484.4c-0.3-0.1-0.4-0.1-0.6-0.1s-0.4,0-0.7,0c-0.3,0-0.8,0-1.3,0c-0.6,0-1.4,0-2.4,0
	H892c-1.5,0-2.7,0-3.5,0c-0.8,0-1.6,0.1-2.1,0.1c-0.5,0.1-1,0.1-1.3,0.2c-0.3,0.1-0.7,0.3-1.1,0.4c-1.1,0.5-2,1.3-2.8,2.5
	c-0.8,1.2-1.1,2.4-1.1,3.7c0,1.8,0.7,3.4,2.1,4.9c0.7,0.7,1.4,1.2,2.3,1.5c0.8,0.3,1.9,0.5,3.3,0.5l0,0h3.9v22.4
	c0,1.5,0.1,2.7,0.3,3.5c0.2,0.8,0.5,1.6,1,2.3c0.8,1,1.6,1.8,2.7,2.3c1.1,0.5,2.2,0.8,3.4,0.8c1.3,0,2.5-0.3,3.5-0.8
	c1.1-0.6,1.9-1.4,2.6-2.5c0.5-0.8,0.8-1.6,1-2.4c0.2-0.8,0.3-1.9,0.3-3.3v-22.4h3.3c2.7,0,4.5-0.5,5.7-1.6c0.8-0.7,1.3-1.5,1.8-2.4
	c0.4-0.9,0.7-1.9,0.7-2.9c0-1.8-0.6-3.3-1.7-4.5C915.2,485.4,913.8,484.7,912,484.4z M937.6,493.1c0-1.8-0.2-3.3-0.4-4.2
	c-0.3-0.9-0.8-1.8-1.5-2.7c-1.4-1.6-3.3-2.3-5.5-2.3c-2.3,0-4,0.8-5.4,2.4c-0.4,0.4-0.8,0.8-1,1.3c-0.3,0.4-0.4,0.9-0.6,1.3
	c-0.2,0.5-0.3,1.1-0.3,1.8c-0.1,0.7-0.1,1.5-0.1,2.4V521c0,1.6,0.2,2.8,0.4,3.7c0.3,0.9,0.8,1.8,1.5,2.5c0.7,0.8,1.4,1.3,2.4,1.7
	c1,0.4,2,0.7,3.1,0.7c1,0,2-0.3,2.9-0.7c1-0.4,1.8-1.1,2.6-1.8c0.7-0.8,1.2-1.6,1.4-2.5c0.3-0.9,0.4-2.1,0.4-3.5l0,0V493.1z
	 M972.4,504.5c-1-0.9-2.4-1.8-4.1-2.6c-1.7-0.8-3.5-1.5-5.4-2.1c-1.8-0.6-2.9-1.1-3.5-1.5c-0.6-0.4-0.9-0.9-0.9-1.6
	c0-0.5,0.2-0.9,0.5-1.3c0.3-0.3,0.8-0.5,1.3-0.5c0.4,0,0.8,0.1,1.3,0.3c0.4,0.3,1.1,0.7,1.8,1.3c1.3,0.9,2.3,1.6,3.3,2
	c0.9,0.4,1.8,0.6,2.9,0.6c1.7,0,3.1-0.6,4.2-1.7c1.1-1.1,1.6-2.6,1.6-4.4c0-1.4-0.3-2.7-1.1-3.9s-1.8-2.3-3.1-3.1
	c-1.3-0.8-2.8-1.6-4.6-2.1c-1.8-0.5-3.6-0.8-5.6-0.8c-2.4,0-4.7,0.3-6.7,1.1c-2,0.8-3.8,1.8-5.2,3c-1.4,1.3-2.6,2.8-3.4,4.6
	c-0.8,1.8-1.2,3.8-1.2,5.9c0,6.2,3.3,10.5,9.7,12.8c0.6,0.3,1.3,0.4,1.8,0.7c0.6,0.3,1.2,0.4,1.8,0.7c0.6,0.3,1,0.4,1.3,0.5
	c0.3,0.1,0.6,0.3,0.8,0.3c0.2,0.1,0.3,0.2,0.5,0.3c0.1,0.1,0.3,0.1,0.3,0.2c0.8,0.5,1.2,1.1,1.2,1.8c0,0.6-0.2,1.1-0.5,1.4
	c-0.3,0.3-0.8,0.5-1.3,0.5c-0.3,0-0.5,0-0.8-0.1c-0.3-0.1-0.5-0.2-0.8-0.3s-0.8-0.5-1.2-0.8c-0.5-0.3-1.2-0.8-1.9-1.5
	c-0.9-0.8-1.8-1.3-2.7-1.7c-0.8-0.3-1.7-0.5-2.6-0.5c-0.9,0-1.8,0.2-2.7,0.5c-0.8,0.3-1.5,0.8-2.2,1.4c-0.6,0.6-1.1,1.3-1.4,2.1
	c-0.3,0.8-0.5,1.7-0.5,2.6c0,1.6,0.4,3.1,1.3,4.4c0.8,1.3,2,2.6,3.6,3.6c1.5,1,3.4,1.8,5.4,2.4c2.1,0.6,4.3,0.8,6.7,0.8
	c2.8,0,5.2-0.3,7.2-1.1c2-0.8,3.9-1.8,5.4-3.4c1.3-1.4,2.4-3,3.1-4.9c0.8-1.8,1.1-3.8,1.1-5.8c0-2.2-0.4-4.2-1.2-6
	C974.9,507.2,973.8,505.7,972.4,504.5z M1011.1,484.4c-0.3-0.1-0.4-0.1-0.6-0.1s-0.4,0-0.7,0c-0.3,0-0.8,0-1.3,0s-1.4,0-2.4,0h-14.9
	c-1.5,0-2.7,0-3.5,0s-1.6,0.1-2.1,0.1c-0.5,0.1-1,0.1-1.3,0.2c-0.3,0.1-0.7,0.3-1.1,0.4c-1.1,0.5-2,1.3-2.8,2.5
	c-0.8,1.2-1.1,2.4-1.1,3.7c0,1.8,0.7,3.4,2.1,4.9c0.7,0.7,1.4,1.2,2.3,1.5c0.8,0.3,1.9,0.5,3.3,0.5l0,0h3.9v22.4
	c0,1.5,0.1,2.7,0.3,3.5c0.2,0.8,0.5,1.6,1,2.3c0.8,1,1.6,1.8,2.7,2.3c1.1,0.5,2.2,0.8,3.4,0.8c1.3,0,2.5-0.3,3.5-0.8
	c1.1-0.6,1.9-1.4,2.6-2.5c0.5-0.8,0.8-1.6,1-2.4c0.2-0.8,0.3-1.9,0.3-3.3v-22.4h3.3c2.7,0,4.5-0.5,5.7-1.6c0.8-0.7,1.3-1.5,1.8-2.4
	c0.4-0.9,0.7-1.9,0.7-2.9c0-1.8-0.6-3.3-1.7-4.5C1014.3,485.4,1012.9,484.7,1011.1,484.4z"/>
</svg>
