<?xml version="1.0" encoding="utf-8"?>
<!-- Generator: Adobe Illustrator 18.0.0, SVG Export Plug-In . SVG Version: 6.00 Build 0)  -->
<!DOCTYPE svg PUBLIC "-//W3C//DTD SVG 1.1//EN" "http://www.w3.org/Graphics/SVG/1.1/DTD/svg11.dtd">
<svg version="1.1" id="webpage_x5F_cover" xmlns="http://www.w3.org/2000/svg" xmlns:xlink="http://www.w3.org/1999/xlink" x="0px"
	 y="0px" viewBox="163.7 143.7 1592.6 792.7" enable-background="new 163.7 143.7 1592.6 792.7" xml:space="preserve">
<g id="symbols">
	<g>
		<path fill="#F2F2F2" d="M1543.3,596.7c3.2,1.5,5.5,2.9,7,4.2c1.5,1.3,2.7,2.9,3.6,4.9c1.8,3.9,1.8,8-0.2,12.1
			c-2,4.3-5.1,6.9-9.3,8c-1,0.3-2,0.4-2.9,0.5c-0.9,0-1.9,0-3-0.3s-2.2-0.6-3.4-1c-1.2-0.5-2.7-1.1-4.3-1.9l-14.5-6.9
			c-1.7-0.8-3.1-1.5-4.2-2.1c-1.1-0.6-2-1.1-2.8-1.5c-0.8-0.4-1.4-0.9-2-1.3c-0.5-0.5-1.1-1-1.5-1.6c-3.7-4.1-4.9-8.9-3.5-14.6
			c0.2-0.6,0.3-1.1,0.5-1.5c0.1-0.4,0.3-1,0.6-1.6c0.2-0.6,0.6-1.4,1-2.3c0.5-1,1.1-2.3,1.8-3.9l34.5-72.7c0.9-1.9,1.6-3.4,2.2-4.5
			c0.6-1.1,1.1-2.1,1.5-2.8c0.4-0.7,0.8-1.3,1.2-1.8c0.4-0.4,0.9-1,1.6-1.5c3.1-2.8,6.6-4.1,10.7-3.9c1,0,1.8,0.1,2.5,0.2
			c0.7,0.1,1.5,0.3,2.4,0.6c0.9,0.3,2,0.8,3.3,1.3c1.3,0.6,3,1.4,5.2,2.4l9.1,4.3c2.1,1,3.8,1.8,5.1,2.4c1.2,0.6,2.2,1.1,3,1.5
			c0.7,0.4,1.3,0.8,1.7,1.1c0.4,0.3,0.8,0.6,1.3,1c2.7,2.4,4.4,5.1,5.1,8.1c0.7,3.1,0.4,6.1-1,9c-2.1,4.4-5.3,7.1-9.6,8.2
			c-1.9,0.5-3.8,0.6-5.8,0.3c-2-0.3-4.3-1.1-6.9-2.4l-7.2-3.4l-28.7,60.5L1543.3,596.7z"/>
	</g>
	<path fill="#F2F2F2" d="M788.8,784.7c3.1,0.3,5.7,0.8,7.6,1.6c2,0.8,3.7,2,5.2,3.6c1.5,1.7,2.7,3.7,3.5,5.9
		c0.8,2.2,1.1,4.4,0.9,6.6c-0.2,2.3-0.8,4.4-1.9,6.6c-1.1,2.1-2.5,3.8-4.2,5.1c-1.8,1.4-3.7,2.4-5.7,2.8c-2,0.4-4.7,0.5-8.2,0.2
		l-60.7-5c-2.1-0.2-3.8-0.4-5.3-0.6c-1.5-0.2-2.7-0.5-3.8-0.9c-1.1-0.4-2-0.9-2.9-1.5c-0.9-0.6-1.7-1.4-2.5-2.4
		c-3.3-3.3-4.7-7.4-4.3-12.3c0.4-4.9,2.5-8.8,6.1-11.6c2-1.5,4-2.5,6.2-2.9c2.1-0.4,5.2-0.5,9.2-0.1L788.8,784.7z"/>
	<g>
		<path fill="#F2F2F2" d="M536.4,275.5L505.8,216l-7.1,3.6c-2.6,1.3-4.9,2.2-6.9,2.6c-2,0.4-3.9,0.4-5.8-0.1c-4.4-1-7.6-3.6-9.8-7.9
			c-1.5-2.9-1.9-5.9-1.3-9c0.6-3.1,2.2-5.8,4.9-8.3c0.5-0.4,0.9-0.7,1.3-1c0.4-0.3,1-0.7,1.7-1.1c0.7-0.4,1.7-1,2.9-1.6
			c1.2-0.6,2.9-1.5,5-2.6l8.9-4.6c2.1-1.1,3.8-1.9,5.1-2.5c1.3-0.6,2.4-1.1,3.2-1.4c0.9-0.3,1.7-0.6,2.4-0.7
			c0.7-0.1,1.5-0.2,2.5-0.3c4-0.3,7.6,0.9,10.8,3.6c0.6,0.6,1.2,1.1,1.6,1.5c0.4,0.4,0.9,1,1.3,1.7c0.4,0.7,1,1.6,1.6,2.8
			c0.6,1.1,1.4,2.6,2.4,4.4l36.8,71.6c0.8,1.6,1.5,2.8,2,3.8c0.5,0.9,0.8,1.6,1.1,2.3c0.3,0.6,0.5,1.2,0.6,1.6
			c0.2,0.4,0.3,0.9,0.5,1.5c1.6,5.6,0.5,10.5-3.1,14.7c-0.5,0.6-1,1.1-1.5,1.6c-0.5,0.5-1.2,1-1.9,1.4c-0.8,0.4-1.7,1-2.8,1.6
			c-1.1,0.6-2.4,1.3-4.1,2.2l-14.3,7.3c-1.6,0.8-3,1.5-4.2,2c-1.2,0.5-2.4,0.9-3.4,1.2c-1,0.3-2,0.4-3,0.4c-0.9,0-1.9-0.1-2.9-0.4
			c-4.2-0.9-7.4-3.5-9.6-7.7c-2.1-4.1-2.3-8.1-0.6-12.1c0.9-2,2-3.7,3.5-5c1.5-1.4,3.8-2.8,6.9-4.5L536.4,275.5z"/>
	</g>
	<g>
		<path fill="#F2F2F2" d="M714,265.4c-2.7,2.7-5.1,4.8-7.1,6.2c-2,1.4-4.3,2.6-7,3.6c-4.7,1.8-9.4,2.7-14.3,2.5
			c-4.8-0.1-9.4-1.1-13.7-2.9c-4.3-1.8-8.1-4.4-11.4-7.7c-3.3-3.3-5.9-7.2-7.7-11.8c-0.7-1.7-1.2-3.4-1.6-5
			c-0.4-1.6-0.5-3.2-0.4-4.9c0.1-1.7,0.4-3.4,0.8-5.3c0.4-1.9,1.1-4,1.9-6.4c-1.7-1-3.1-2-4.3-3c-1.2-1-2.2-1.9-3.1-2.9
			c-0.9-1-1.7-2-2.3-3.1c-0.6-1.1-1.2-2.3-1.7-3.5c-1.6-4-2.2-8.2-1.8-12.5c0.3-4.3,1.5-8.4,3.4-12.2c1.9-3.9,4.5-7.4,7.9-10.5
			c3.3-3.1,7.2-5.6,11.6-7.3c3.9-1.5,8.1-2.3,12.4-2.4c4.4-0.1,8.5,0.5,12.3,1.8c3.9,1.2,7.3,3.1,10.3,5.4c3,2.4,5.1,5.2,6.3,8.4
			c0.7,1.9,1.1,3.9,1,5.9c-0.1,2-0.6,4-1.4,5.9c-0.9,1.9-2,3.5-3.5,4.9c-1.5,1.4-3.3,2.5-5.3,3.3c-2.9,1.1-5.6,1.5-8,1
			c-2.4-0.4-5.1-1.8-8.2-3.9c-0.9-0.7-1.7-1.1-2.3-1.2c-0.6-0.1-1.3,0-2,0.2c-1.1,0.4-1.9,1.2-2.4,2.3c-0.5,1.1-0.5,2.2-0.1,3.3
			c0.4,1.1,1,1.8,1.8,2.2c0.8,0.4,2.2,0.6,4.2,0.7c2.6,0.2,4.6,0.8,6.1,1.9c1.5,1.1,2.7,3,3.8,5.6c1.6,4,1.1,7.3-1.4,9.7l-4.1,4
			c-0.6,0.4-0.9,1.1-1,2c-0.1,0.9,0.1,1.8,0.5,2.8c0.4,1.1,1.2,1.9,2.3,2.4c1.1,0.5,2.2,0.6,3.3,0.1c2.2-0.9,3.7-2.9,4.5-6.2
			l2.6-10.8c0.4-1.9,1.6-3.9,3.5-5.9c1.9-2,3.9-3.4,6-4.2c1.9-0.7,4-1.1,6.2-1c2.2,0,4.2,0.4,6.1,1.2c1.9,0.7,3.6,1.8,5.1,3.1
			c1.5,1.3,2.6,2.8,3.3,4.6c0.9,2.3,1.2,5.5,0.9,9.8c2.7,1.4,4.6,2.7,6,4c1.3,1.3,2.4,2.9,3.1,4.8c0.8,2,1.1,4.1,1,6.2
			c-0.1,2.1-0.6,4.1-1.5,6c-0.8,1.9-2,3.6-3.6,5.1c-1.6,1.5-3.4,2.7-5.4,3.4c-1.6,0.6-3.3,1-5,1.1C719.1,266.3,716.9,266,714,265.4z
			"/>
		<path fill="#F2F2F2" d="M798.1,232.7c-2.7,2.7-5.1,4.8-7.1,6.2c-2,1.4-4.3,2.6-7,3.6c-4.7,1.8-9.4,2.7-14.3,2.5
			c-4.8-0.1-9.4-1.1-13.7-2.9c-4.3-1.8-8.1-4.4-11.4-7.7c-3.3-3.3-5.9-7.2-7.7-11.8c-0.7-1.7-1.2-3.4-1.6-5
			c-0.4-1.6-0.5-3.2-0.4-4.9c0.1-1.7,0.4-3.4,0.8-5.3c0.4-1.9,1.1-4,1.9-6.4c-1.7-1-3.1-2-4.3-3c-1.2-1-2.2-1.9-3.1-2.9
			c-0.9-1-1.7-2-2.3-3.1c-0.6-1.1-1.2-2.3-1.7-3.5c-1.6-4-2.2-8.2-1.8-12.5c0.3-4.3,1.5-8.4,3.4-12.2c1.9-3.9,4.5-7.4,7.9-10.5
			c3.3-3.1,7.2-5.6,11.6-7.3c3.9-1.5,8.1-2.3,12.4-2.4c4.4-0.1,8.5,0.5,12.3,1.8c3.9,1.2,7.3,3.1,10.3,5.4c3,2.4,5.1,5.2,6.3,8.4
			c0.7,1.9,1.1,3.9,1,5.9c-0.1,2-0.6,4-1.4,5.9c-0.9,1.9-2,3.5-3.5,4.9c-1.5,1.4-3.3,2.5-5.3,3.3c-2.9,1.1-5.6,1.5-8,1
			c-2.4-0.4-5.1-1.8-8.2-3.9c-0.9-0.7-1.7-1.1-2.3-1.2c-0.6-0.1-1.3,0-2,0.2c-1.1,0.4-1.9,1.2-2.4,2.3c-0.5,1.1-0.5,2.2-0.1,3.3
			c0.4,1.1,1,1.8,1.8,2.2c0.8,0.4,2.2,0.6,4.2,0.7c2.6,0.2,4.6,0.8,6.1,1.9c1.5,1.1,2.7,3,3.8,5.6c1.6,4,1.1,7.3-1.4,9.7l-4.1,4
			c-0.6,0.4-0.9,1.1-1,2c-0.1,0.9,0.1,1.8,0.5,2.8c0.4,1.1,1.2,1.9,2.3,2.4c1.1,0.5,2.2,0.6,3.3,0.1c2.2-0.9,3.7-2.9,4.5-6.2
			l2.6-10.8c0.4-1.9,1.6-3.9,3.5-5.9c1.9-2,3.9-3.4,6-4.2c1.9-0.7,4-1.1,6.2-1c2.2,0.1,4.2,0.4,6.1,1.2c1.9,0.7,3.6,1.8,5.1,3.1
			c1.5,1.3,2.6,2.8,3.3,4.6c0.9,2.3,1.2,5.5,0.9,9.8c2.7,1.4,4.6,2.7,6,4c1.3,1.3,2.4,2.9,3.1,4.8c0.8,2,1.1,4.1,1,6.2
			s-0.6,4.1-1.5,6c-0.8,1.9-2,3.6-3.6,5.1c-1.6,1.5-3.4,2.7-5.4,3.4c-1.6,0.6-3.3,1-5,1.1C803.2,233.6,800.9,233.3,798.1,232.7z"/>
	</g>
	<g>
		<path fill="#F2F2F2" d="M1671.2,554.1c-1.2,2.9-2.5,5.2-3.9,6.8c-1.4,1.6-3.1,2.9-5.1,3.9c-2.1,0.9-4.3,1.4-6.7,1.5
			c-2.4,0.1-4.6-0.3-6.6-1.1c-2.1-0.9-4-2.2-5.6-3.9s-2.9-3.6-3.5-5.5c-0.8-2.1-1.1-4.2-0.9-6.3c0.2-2,1-4.6,2.3-7.8l23.5-56.2
			c0.8-1.9,1.5-3.5,2.2-4.8c0.7-1.3,1.3-2.4,2-3.3c0.7-0.9,1.5-1.7,2.3-2.3c0.9-0.7,1.9-1.2,3-1.7c4.2-2.1,8.5-2.2,13.1-0.3
			c4.5,1.9,7.6,5,9.2,9.4c0.8,2.4,1.1,4.6,0.9,6.7c-0.3,2.1-1.2,5.1-2.7,8.8L1671.2,554.1z"/>
		<path fill="#F2F2F2" d="M1730,578.7c-1.2,2.9-2.5,5.2-3.9,6.8c-1.4,1.6-3.1,2.9-5.1,3.9c-2.1,0.9-4.3,1.4-6.7,1.5
			c-2.4,0.1-4.6-0.3-6.6-1.1c-2.1-0.9-4-2.2-5.7-3.9s-2.9-3.6-3.5-5.5c-0.8-2.1-1.1-4.2-0.9-6.3c0.2-2,1-4.6,2.3-7.8l23.5-56.2
			c0.8-1.9,1.5-3.5,2.2-4.8c0.7-1.3,1.3-2.4,2-3.3c0.7-0.9,1.5-1.7,2.3-2.3c0.9-0.7,1.9-1.2,3-1.7c4.2-2.1,8.5-2.2,13.1-0.3
			c4.5,1.9,7.6,5,9.2,9.4c0.8,2.4,1.1,4.6,0.9,6.7c-0.3,2.1-1.2,5.1-2.7,8.8L1730,578.7z"/>
	</g>
	<g>
		<path fill="#F2F2F2" d="M1014.5,159.3c2.3,1.5,4,3.3,5.2,5.5c1.2,2.2,1.8,4.6,1.8,7.1c0,2-0.4,3.8-1.3,5.6
			c-0.8,1.8-1.9,3.3-3.2,4.6c-1.3,1.3-2.9,2.4-4.7,3.2c-1.8,0.8-3.7,1.3-5.5,1.3c-1.9,0-3.7-0.4-5.4-1.2c-1.7-0.8-3.2-1.8-4.6-3
			c-1.3-1.2-2.4-2.7-3.2-4.3c-0.8-1.6-1.3-3.3-1.3-5.1c0-3.5,1.3-7.7,3.8-12.5l3.1-5.9c1.9-3.4,3.5-5.9,5-7.3
			c1.5-1.4,3.2-2.1,5.2-2.1c2,0,3.7,0.6,5.1,1.8c1.4,1.2,2.1,2.7,2.1,4.3c0,1.5-0.5,3.5-1.6,6.2c-0.1,0.2-0.2,0.4-0.2,0.7
			C1014.8,158.7,1014.7,159,1014.5,159.3z M1050.5,159.3c2.3,1.5,4,3.3,5.2,5.5c1.2,2.2,1.8,4.6,1.8,7.1c0,2-0.4,3.8-1.3,5.6
			c-0.8,1.8-1.9,3.3-3.3,4.6c-1.4,1.3-2.9,2.4-4.7,3.2c-1.8,0.8-3.6,1.3-5.6,1.3c-1.8,0-3.5-0.4-5.2-1.2c-1.7-0.8-3.2-1.8-4.6-3
			c-1.3-1.2-2.4-2.7-3.2-4.3c-0.8-1.6-1.3-3.3-1.3-5.1c0-3.5,1.3-7.7,3.8-12.5l3.1-5.9c1.8-3.4,3.4-5.9,4.9-7.3
			c1.5-1.4,3.3-2.1,5.2-2.1c2,0,3.7,0.6,5.1,1.8c1.4,1.2,2.1,2.7,2.1,4.3c0,1.5-0.5,3.5-1.6,6.2c-0.1,0.2-0.2,0.4-0.2,0.7
			C1050.8,158.7,1050.7,159,1050.5,159.3z"/>
	</g>
	<g>
		<path fill="#F2F2F2" d="M303.3,520c-2.3-1.5-4-3.3-5.2-5.5c-1.2-2.2-1.8-4.6-1.8-7.1c0-1.9,0.4-3.7,1.3-5.5
			c0.8-1.8,1.9-3.4,3.2-4.7c1.3-1.3,2.9-2.4,4.6-3.2c1.8-0.8,3.6-1.3,5.6-1.3c1.9,0,3.7,0.4,5.4,1.2c1.7,0.8,3.2,1.8,4.6,3
			c1.3,1.2,2.4,2.7,3.2,4.3c0.8,1.6,1.3,3.3,1.3,5.1c0,1.7-0.3,3.6-1,5.7c-0.6,2.2-1.6,4.4-2.9,6.8l-3.1,5.7c-1.9,3.5-3.5,6-5,7.4
			c-1.5,1.4-3.2,2.1-5.2,2.1c-2,0-3.7-0.6-5.1-1.9c-1.4-1.3-2.1-2.8-2.1-4.4c0-1.5,0.5-3.5,1.6-6.2c0.1-0.2,0.2-0.4,0.2-0.7
			C303,520.6,303.1,520.3,303.3,520z M339.3,520c-2.3-1.5-4-3.3-5.2-5.5c-1.2-2.2-1.8-4.6-1.8-7.1c0-1.9,0.4-3.7,1.3-5.5
			c0.8-1.8,1.9-3.4,3.2-4.7c1.3-1.3,2.9-2.4,4.6-3.2c1.8-0.8,3.6-1.3,5.6-1.3c1.9,0,3.7,0.4,5.4,1.2c1.7,0.8,3.2,1.8,4.6,3
			c1.3,1.2,2.4,2.7,3.2,4.3c0.8,1.6,1.3,3.3,1.3,5.1c0,1.7-0.3,3.6-1,5.7c-0.7,2.2-1.7,4.4-2.9,6.8l-2.9,5.7c-1.9,3.5-3.5,6-5,7.4
			c-1.5,1.4-3.2,2.1-5.2,2.1c-2,0-3.7-0.6-5.2-1.9c-1.5-1.3-2.2-2.8-2.2-4.4c0-0.7,0.2-1.6,0.5-2.7c0.3-1.1,0.8-2.3,1.3-3.5
			c0.1-0.2,0.2-0.4,0.2-0.7C339,520.6,339.1,520.3,339.3,520z"/>
	</g>
	<g>
		<path fill="#F2F2F2" d="M1265.8,168.2c3.5-6.1,8.4-9.1,14.4-9.1c4.3,0,7.9,1.5,10.8,4.4c2.8,2.9,4.3,6.7,4.3,11.2
			c0,2.6-1.2,5.8-3.5,9.7l-48.1,81.2c-1.4,2.3-2.7,4.2-3.8,5.7c-1.2,1.6-2.4,2.8-3.7,3.8c-1.3,0.9-2.6,1.6-4,2
			c-1.4,0.4-2.9,0.6-4.7,0.6c-4.2,0-7.7-1.5-10.5-4.3c-2.8-2.9-4.1-6.5-4.1-10.8c0-3.1,0.8-6.1,2.5-8.8L1265.8,168.2z"/>
	</g>
	<g>
		<path fill="#F2F2F2" d="M1525.4,773.7c1.7,2.8,2.5,5.7,2.5,8.8c0,4.3-1.4,7.9-4.1,10.8c-2.7,2.9-6.2,4.3-10.5,4.3
			c-1.8,0-3.3-0.2-4.7-0.6c-1.4-0.4-2.7-1.1-4-2c-1.3-0.9-2.5-2.2-3.7-3.8c-1.2-1.6-2.5-3.5-3.8-5.7l-48.1-81.2
			c-2.4-3.9-3.5-7.2-3.5-9.7c0-4.5,1.4-8.3,4.3-11.2c2.9-2.9,6.4-4.4,10.8-4.4c6.1,0,10.9,3,14.4,9.1L1525.4,773.7z"/>
	</g>
	<g>
		<path fill="#F2F2F2" d="M1486.2,275.1c1.1-1.8,2.4-3.2,4.1-4.4c1.6-1.2,3.4-2,5.3-2.5c1.9-0.5,3.9-0.6,5.9-0.3
			c2,0.3,3.9,1,5.8,2.1c1.8,1.1,3.3,2.5,4.5,4.2c1.2,1.7,2.1,3.5,2.5,5.4c0.5,1.9,0.6,3.9,0.3,6c-0.3,2.1-0.9,4-2,5.8
			s-2.4,3.2-4.1,4.4c-1.7,1.2-3.5,2-5.4,2.5c-1.9,0.5-3.9,0.6-6,0.3c-2.1-0.3-4-1-5.7-2.1c-1.9-1.1-3.4-2.5-4.6-4.2
			c-1.2-1.6-2-3.4-2.5-5.4c-0.4-1.9-0.5-3.9-0.2-5.9C1484.3,278.9,1485,277,1486.2,275.1z M1463,313.3c2.2-3.7,5.4-6,9.4-7
			c4.1-1,7.9-0.4,11.7,1.9c1.8,1.1,3.3,2.4,4.5,4.1c1.2,1.7,2.1,3.5,2.5,5.4c0.4,1.9,0.5,3.9,0.3,5.9c-0.3,2-0.9,3.9-2,5.7
			c-1.1,1.9-2.5,3.4-4.2,4.5c-1.7,1.2-3.5,2-5.4,2.5c-1.9,0.5-3.9,0.6-6,0.3c-2.1-0.3-4-1-5.7-2.1c-1.9-1.1-3.4-2.5-4.6-4.2
			c-1.2-1.6-2-3.4-2.5-5.4c-0.4-1.9-0.5-3.9-0.2-5.9C1461.2,317.1,1461.9,315.2,1463,313.3z"/>
	</g>
	<g>
		<path fill="#F2F2F2" d="M983.4,803.3c-1.6-1.3-2.9-2.8-3.9-4.6c-1-1.8-1.6-3.6-1.9-5.6c-0.2-2-0.1-4,0.4-5.9
			c0.5-2,1.5-3.8,2.8-5.5c1.3-1.6,2.8-2.9,4.7-3.9c1.8-1,3.7-1.6,5.6-1.9c1.9-0.2,3.9-0.1,5.9,0.4c2,0.5,3.9,1.4,5.5,2.7
			c1.6,1.3,2.9,2.8,3.9,4.6c1,1.8,1.6,3.7,1.9,5.6c0.3,2,0.1,3.9-0.4,5.9c-0.6,2-1.5,3.8-2.7,5.4c-1.3,1.7-2.9,3.1-4.6,4
			c-1.8,1-3.7,1.6-5.6,1.9c-2,0.3-4,0.1-5.9-0.4C986.9,805.6,985.1,804.6,983.4,803.3z M1032.8,833.6c-3.4,0.6-6.1,0.6-8.1,0.2
			c-2-0.4-4-1.4-6-3c-3.5-2.7-5.5-6.2-6.1-10.3c-0.6-4.2,0.5-8,3.2-11.5c1.3-1.6,2.8-2.9,4.6-3.9c1.8-1,3.7-1.6,5.7-1.8
			c2-0.2,4-0.1,6,0.5c2,0.6,3.8,1.5,5.6,2.8c0.9,0.7,1.7,1.6,2.6,2.7c0.9,1.1,1.7,2.4,2.4,3.8l5.8,11.6c2.6,5.5,2.6,9.9,0.1,13.1
			c-1.4,1.8-3.2,2.9-5.4,3.4c-2.2,0.5-4.1,0.1-5.7-1.1c-0.8-0.6-1.5-1.4-2.2-2.4C1034.7,836.7,1033.8,835.3,1032.8,833.6z"/>
	</g>
	<g>
		<path fill="#F2F2F2" d="M1384.3,250.6c1.4,3.5,3.4,6.8,6,10c2.6,3.2,5.4,5.8,8.5,7.8c1.6,1.1,3.5,2.2,5.5,3.1
			c2,0.9,4.6,1.9,7.8,2.9c3.8,1.2,6.6,2.6,8.5,4.1c1.9,1.5,3.4,3.6,4.5,6.2c0.8,1.9,1.2,3.9,1.1,6c0,2.1-0.5,4.1-1.3,6
			c-0.8,1.9-1.9,3.6-3.4,5.1c-1.5,1.5-3.1,2.6-5,3.4c-3.5,1.5-8,1.6-13.5,0.5c-5.4-1.1-11.1-3.5-17-7.1c-15-9-25.6-20.9-31.7-35.7
			c-3.9-9.5-5.8-19.5-5.5-29.9c0.3-10.4,2.6-20.2,7-29.3c3.8-7.8,7.9-12.6,12.3-14.5c2-0.8,4.1-1.2,6.2-1.2c2.1,0,4.2,0.4,6.1,1.2
			c1.9,0.8,3.7,1.9,5.2,3.4c1.6,1.5,2.8,3.2,3.6,5.2c1.1,2.7,1.5,5.6,1.2,8.6c-0.1,0.6-0.2,1-0.2,1.4c-0.1,0.3-0.3,0.9-0.6,1.5
			c-0.3,0.7-0.8,1.6-1.4,2.9c-0.6,1.3-1.5,3-2.6,5.3c-2.7,4.9-4.1,10.3-4.3,16.2C1381.1,239.6,1382.1,245.3,1384.3,250.6z"/>
	</g>
	<g>
		<path fill="#F2F2F2" d="M904.4,221.7c-2.1-5.5-5.2-10.1-9.3-13.9c-1.8-1.8-3.2-3.2-4.2-4.1c-1-1-1.8-1.7-2.3-2.3
			c-0.5-0.5-0.9-0.9-1-1.2c-0.2-0.3-0.4-0.7-0.7-1.2c-1.3-2.7-1.9-5.6-1.7-8.5c0.1-2.2,0.7-4.2,1.7-6.1c1-1.9,2.3-3.6,3.8-5
			c1.6-1.4,3.3-2.4,5.3-3.2c2-0.7,4.1-1,6.3-0.9c4.8,0.3,10.3,3.5,16.4,9.6c7.1,7.2,12.6,15.7,16.2,25.4c3.7,9.7,5.2,19.8,4.7,30.1
			c-0.9,16-6.9,30.7-18.2,44.2c-4.4,5.4-9,9.5-13.8,12.3c-4.8,2.8-9.1,4.2-12.9,3.9c-2.1-0.1-4-0.6-5.9-1.6
			c-1.9-0.9-3.5-2.2-4.9-3.7c-1.4-1.6-2.4-3.3-3.2-5.3c-0.7-2-1-4-0.9-6c0.2-2.8,0.9-5.3,2.2-7.3c1.3-2,3.5-4.3,6.7-6.6
			c2.7-2,4.8-3.8,6.4-5.3c1.6-1.5,3-3.1,4.2-4.7c2.2-2.9,4-6.3,5.4-10.2c1.4-3.9,2.2-7.7,2.4-11.4
			C907.4,232.8,906.6,227.1,904.4,221.7z"/>
	</g>
	<g>
		<path fill="#F2F2F2" d="M176,455.4c0.3-1.1,0.8-2.2,1.6-3.3c0.8-1,1.7-2,2.7-2.8c1-0.8,2.1-1.5,3.3-2c1.2-0.5,2.3-0.7,3.5-0.7
			l7.9-0.2c2,0,3.3-0.9,3.9-2.7c0.4-1,0.3-2-0.2-3.1c-0.5-1-1.3-1.7-2.3-2.1c-1.3-0.5-2.9-0.1-4.8,1.1c-2.8,2-5.3,3.3-7.6,3.7
			c-2.2,0.5-4.8,0.2-7.7-0.9c-2-0.7-3.8-1.8-5.3-3.2c-1.5-1.4-2.7-3-3.6-4.8c-0.9-1.8-1.4-3.7-1.5-5.8c-0.1-2.1,0.1-4.1,0.8-6
			c1.2-3.3,3.2-6.2,6-8.6c2.8-2.4,6-4.2,9.8-5.5c3.7-1.3,7.8-1.9,12-2c4.3,0,8.5,0.7,12.7,2.2c4.7,1.7,8.8,4.1,12.2,7.2
			c3.4,3.1,6.1,6.8,8,10.8c1.9,4.1,3,8.5,3.2,13.1c0.2,4.7-0.5,9.4-2.2,14.2c-3.2,9-8.8,15.3-16.8,19.1c-3.9,1.8-7.9,2.9-12.2,3.2
			c-4.2,0.3-8.2-0.3-12-1.6C177.1,471.3,173.3,464.8,176,455.4z M164.7,484.9c0.7-1.9,1.7-3.6,3.1-5.1c1.3-1.4,2.9-2.6,4.7-3.4
			c1.8-0.8,3.7-1.3,5.7-1.4c2-0.1,4,0.2,5.9,0.9c1.9,0.7,3.7,1.7,5.2,3.1c1.5,1.4,2.7,3,3.5,4.8c0.9,1.8,1.4,3.7,1.5,5.7
			c0.1,2-0.1,3.9-0.8,5.9c-0.7,2-1.8,3.8-3.1,5.3c-1.4,1.5-3,2.7-4.8,3.5c-1.8,0.9-3.7,1.4-5.8,1.5c-2,0.1-4-0.2-5.9-0.9
			c-4.2-1.5-7.1-4.1-8.8-7.9C163.4,493,163.3,489.1,164.7,484.9z"/>
	</g>
	<g>
		<path fill="#F2F2F2" d="M692.6,888.7c0-4.3,1.5-8,4.4-10.9c3-2.9,6.6-4.4,11-4.4c2.1,0,4.1,0.4,6,1.2c1.9,0.8,3.6,1.9,5,3.3
			c1.4,1.4,2.5,3.1,3.3,4.9c0.8,1.9,1.3,3.8,1.3,5.9c0,2.2-0.4,4.2-1.3,6c-0.8,1.9-2,3.5-3.3,4.9c-1.4,1.4-3,2.5-5,3.3
			c-1.9,0.8-3.9,1.2-6,1.2c-2.2,0-4.2-0.4-6.1-1.2c-1.9-0.8-3.5-1.9-4.9-3.3c-1.4-1.4-2.5-3.1-3.3-4.9
			C693,892.9,692.6,890.9,692.6,888.7z"/>
	</g>
	<g>
		<path fill="#F2F2F2" d="M255.8,594.7c3.1,0.6,5.5,1.5,7.4,2.5c1.8,1,3.4,2.4,4.8,4.2c1.3,1.9,2.2,4,2.8,6.3
			c0.5,2.3,0.6,4.5,0.1,6.6c-0.5,2.2-1.4,4.3-2.7,6.3c-1.4,2-3,3.5-4.8,4.5c-2,1.2-4,1.9-6,2.1c-2,0.2-4.7-0.1-8.1-0.8l-59.6-12.3
			c-2-0.4-3.7-0.8-5.2-1.2c-1.4-0.4-2.6-0.8-3.6-1.4c-1-0.5-1.9-1.1-2.7-1.8c-0.8-0.7-1.6-1.6-2.2-2.6c-2.8-3.7-3.8-8-2.8-12.8
			c1-4.8,3.5-8.4,7.5-10.8c2.2-1.3,4.3-2,6.5-2.1c2.1-0.2,5.2,0.2,9.1,1L255.8,594.7z"/>
		<path fill="#F2F2F2" d="M246.8,638.2c3.1,0.6,5.5,1.5,7.4,2.5c1.8,1,3.4,2.4,4.8,4.2c1.3,1.9,2.2,4,2.8,6.3
			c0.5,2.3,0.6,4.5,0.1,6.6c-0.5,2.2-1.4,4.3-2.7,6.3c-1.4,2-3,3.5-4.8,4.5c-2,1.2-4,1.9-6,2.1c-2,0.2-4.7-0.1-8.1-0.8l-59.6-12.3
			c-2-0.4-3.7-0.8-5.2-1.2c-1.4-0.4-2.6-0.8-3.6-1.4c-1-0.5-1.9-1.1-2.7-1.8c-0.8-0.7-1.6-1.6-2.2-2.6c-2.8-3.7-3.8-8-2.8-12.8
			c1-4.8,3.5-8.4,7.5-10.8c2.2-1.3,4.3-2,6.5-2.1c2.1-0.2,5.2,0.2,9.1,1L246.8,638.2z"/>
	</g>
	<path fill="#F2F2F2" d="M359.6,323.5c-0.1-2.4-0.7-4.6-1.7-6.7c-1-2-2.4-3.6-4-5c-1.6-1.3-3.9-2.6-6.9-3.7l-13.9-5.4l4.2-10.7
		c1.5-3.8,2.3-6.7,2.5-8.8c0.2-2.1-0.1-4.4-1-6.7c-1.7-4.3-4.8-7.4-9.4-9.2c-4.6-1.8-8.9-1.6-13,0.6c-1.1,0.5-2.1,1.1-3,1.8
		c-0.8,0.7-1.6,1.5-2.3,2.4c-0.7,0.9-1.3,2-1.9,3.4c-0.6,1.3-1.3,3-2.1,4.9l-4.2,10.7l-12.6-4.9c-3.8-1.5-6.7-2.3-8.8-2.5
		c-2.1-0.2-4.4,0.1-6.7,1c-4.3,1.7-7.4,4.8-9.2,9.4c-1.8,4.6-1.6,8.9,0.6,13c0.5,1.1,1.1,2.1,1.8,3c0.7,0.8,1.5,1.6,2.4,2.3
		c0.9,0.7,2,1.3,3.4,1.9c1.3,0.6,3,1.3,4.9,2.1l12.6,4.9L285,337c-1.2,3.2-2,5.8-2.1,7.9c-0.2,2,0.2,4.1,1,6.3
		c0.7,2,1.9,3.8,3.6,5.5c1.7,1.7,3.6,2.9,5.7,3.7c2,0.8,4.2,1.1,6.6,1c2.4-0.1,4.6-0.7,6.7-1.7c2-1,3.6-2.4,5-4
		c1.3-1.6,2.6-3.9,3.7-6.9l6.1-15.8l13.9,5.4c3.2,1.2,5.8,2,7.9,2.1c2,0.2,4.1-0.2,6.3-1c2-0.7,3.8-1.9,5.5-3.7
		c1.7-1.7,2.9-3.6,3.7-5.7C359.4,328,359.7,325.8,359.6,323.5z"/>
	<g>
		<path fill="#F2F2F2" d="M1358.7,792.7c2.9-1.1,5.5-1.7,7.6-1.8c2.1-0.1,4.2,0.2,6.3,1c2.1,0.9,4,2.2,5.7,3.8
			c1.7,1.7,2.9,3.5,3.7,5.5c0.8,2.1,1.2,4.4,1.1,6.8c-0.1,2.4-0.6,4.5-1.6,6.4c-1,2.1-2.3,3.7-3.9,5c-1.6,1.2-4.1,2.5-7.3,3.7
			l-56.9,21.6c-1.9,0.7-3.6,1.3-5,1.7c-1.4,0.4-2.7,0.7-3.8,0.8c-1.1,0.1-2.2,0.1-3.3-0.1c-1.1-0.2-2.2-0.5-3.3-1
			c-4.4-1.6-7.5-4.7-9.2-9.3c-1.7-4.6-1.6-9,0.5-13.1c1.2-2.2,2.6-4,4.3-5.3c1.7-1.3,4.5-2.6,8.2-4.1L1358.7,792.7z"/>
		<g>
			<path fill="#F2F2F2" d="M1307.6,789.5c-1.5-4-1.4-8,0.3-11.8c1.7-3.8,4.6-6.5,8.7-8c1.9-0.7,3.9-1.1,6-1c2.1,0.1,4,0.5,5.8,1.3
				c1.8,0.8,3.4,2,4.9,3.4c1.4,1.4,2.5,3.1,3.3,5.1c0.8,2,1.1,4.1,1,6.1c-0.1,2-0.6,4-1.4,5.8c-0.8,1.8-1.9,3.4-3.5,4.9
				s-3.3,2.5-5.2,3.2c-2,0.8-4.1,1.1-6.1,1.1c-2-0.1-3.9-0.5-5.7-1.4c-1.8-0.8-3.4-2-4.8-3.5
				C1309.5,793.3,1308.4,791.5,1307.6,789.5z"/>
		</g>
		<g>
			<path fill="#F2F2F2" d="M1334,859.2c-1.5-4-1.4-8,0.3-11.8c1.7-3.8,4.6-6.5,8.7-8c1.9-0.7,3.9-1.1,6-1c2.1,0.1,4,0.5,5.8,1.3
				s3.4,2,4.9,3.4c1.4,1.4,2.5,3.1,3.3,5.1c0.8,2,1.1,4.1,1,6.1c-0.1,2-0.6,4-1.4,5.8c-0.8,1.8-1.9,3.4-3.5,4.9s-3.3,2.5-5.2,3.2
				c-2,0.8-4.1,1.1-6.1,1c-2-0.1-3.9-0.5-5.7-1.4c-1.8-0.8-3.4-2-4.8-3.5C1335.9,863,1334.8,861.2,1334,859.2z"/>
		</g>
	</g>
	<g>
		<g>
			<path fill="#F2F2F2" d="M1625.7,328c4.9-5,10.3-6.8,16.2-5.3c4.2,1.1,7.3,3.4,9.4,6.9c2,3.6,2.5,7.5,1.4,11.9
				c-0.6,2.5-2.6,5.3-5.8,8.6l-66.4,67c-1.9,1.9-3.6,3.4-5.1,4.6c-1.5,1.2-3,2.2-4.5,2.7c-1.5,0.6-2.9,0.9-4.3,1
				c-1.4,0-3-0.1-4.7-0.6c-4.1-1-7.1-3.3-9.1-6.8c-2-3.5-2.4-7.3-1.4-11.5c0.8-3,2.3-5.7,4.6-8L1625.7,328z"/>
		</g>
		<g>
			<path fill="#F2F2F2" d="M1553.8,340.5c0-4.3,1.5-8,4.4-10.9c3-2.9,6.6-4.4,11-4.4c2.1,0,4.1,0.4,6,1.2c1.9,0.8,3.6,1.9,5,3.3
				c1.4,1.4,2.5,3.1,3.3,4.9c0.8,1.9,1.3,3.8,1.3,5.9c0,2.2-0.4,4.2-1.3,6c-0.8,1.9-2,3.5-3.3,4.9c-1.4,1.4-3,2.5-5,3.3
				c-1.9,0.8-3.9,1.2-6,1.2c-2.2,0-4.2-0.4-6.1-1.2c-1.9-0.8-3.5-1.9-4.9-3.3c-1.4-1.4-2.5-3.1-3.3-4.9
				C1554.2,344.7,1553.8,342.6,1553.8,340.5z"/>
		</g>
		<g>
			<path fill="#F2F2F2" d="M1619.4,407.1c0-4.3,1.5-8,4.4-10.9c3-2.9,6.6-4.4,11-4.4c2.1,0,4.1,0.4,6,1.2c1.9,0.8,3.6,1.9,5,3.3
				c1.4,1.4,2.5,3.1,3.3,4.9c0.8,1.9,1.3,3.8,1.3,5.9c0,2.2-0.4,4.2-1.3,6c-0.8,1.9-2,3.5-3.3,4.9c-1.4,1.4-3,2.5-5,3.3
				c-1.9,0.8-3.9,1.2-6,1.2c-2.2,0-4.2-0.4-6.1-1.2c-1.9-0.8-3.5-1.9-4.9-3.3c-1.4-1.4-2.5-3.1-3.3-4.9
				C1619.8,411.2,1619.4,409.2,1619.4,407.1z"/>
		</g>
	</g>
	<path fill="#F2F2F2" d="M462.5,548.5c-5.6-1.3-11.3-2.5-17-2.5c-7.7,0.1-14.6,3.1-20.3,8c-6.4,5.5-7.9,13.7-9.7,21.5
		c-0.6,2.4-1.1,4.9-1.7,7.3c-0.1,0.3-0.2,0.7-0.2,1c-0.1,0.2-0.2,0.4-0.3,0.6c0,0-0.1,0.1-0.1,0.1c-0.1,0.1-0.1,0.1-0.2,0.1
		c-0.1,0.1-0.2,0.1-0.3,0.2c-0.4,0.2-0.9,0.3-1.4,0.4c-14.6,2.7-18.9,21.2-6.8,30c0.3,0.2,0.6,0.5,0.8,0.8c0.1,0.1,0.1,0.1,0.2,0.2
		c0.1,0.2,0.2,0.3,0.3,0.5c0,0,0,0.1,0,0.1c0,0.5-0.1,1-0.2,1.4c-0.6,2.4-1.1,4.9-1.7,7.3c-1.8,7.8-4,16.1-0.6,23.9
		c3,7,7.6,11.8,14.2,15.7c4.8,2.8,10.5,4,15.9,5.2c8.8,2,17.9-3.7,19.9-12.5c2-8.8-3.7-17.8-12.5-19.9c-1.8-0.4-3.7-0.9-5.5-1.3
		c0.8-3.6,1.8-7.2,2.6-10.7c1.5-6.5,1.2-13-0.6-19c4.2-4.6,7.3-10.3,8.8-16.7c0.8-3.6,1.6-7.2,2.5-10.8c2.2,0.4,4.4,0.9,6.5,1.4
		c8.8,2,17.8-3.6,19.9-12.5C477,559.6,471.3,550.5,462.5,548.5z M413,584.7C413,584.7,413.1,584.7,413,584.7
		C413.1,584.7,413.1,584.7,413,584.7C413.1,584.7,413,584.7,413,584.7z M413.9,583.9C414.4,583.5,414.3,583.6,413.9,583.9
		C413.9,584,413.9,583.9,413.9,583.9z M405.9,616.2C405.9,615.4,405.9,615.6,405.9,616.2L405.9,616.2z M405.7,616.4
		c0,0-0.1-0.1-0.1-0.1c-0.1-0.1-0.1-0.3-0.2-0.4c0,0,0.1,0.1,0.1,0.1C405.5,616.1,405.6,616.3,405.7,616.4z M405.5,616
		c0,0-0.1-0.1-0.1-0.1C404.6,614.4,405,615.1,405.5,616z M405,615.6c-0.1,0-0.1-0.1-0.2-0.1C403.5,614,404.4,614.8,405,615.6z
		 M405,615.7c0,0,0.1,0,0.1,0.1c0,0.1,0.1,0.1,0.1,0.2c0,0,0,0.1,0,0.1C405.2,615.9,405.1,615.8,405,615.7z M405.6,616.4
		C405.7,616.5,405.7,616.5,405.6,616.4c0.1,0.1,0.1,0.1,0.1,0.2c0,0,0,0,0,0C405.7,616.6,405.7,616.5,405.6,616.4z M406.1,618.2
		C406.2,618.5,406.2,618.6,406.1,618.2L406.1,618.2z M406,616.3C406.9,616.9,407.9,617.7,406,616.3L406,616.3z M413.6,584.5
		C413.6,584.5,413.6,584.5,413.6,584.5C414.8,583.9,414.3,584.2,413.6,584.5z M433,635.8C433,635.8,433,635.8,433,635.8
		c-0.2-0.1-0.5-0.3-0.7-0.4C432.6,635.5,432.8,635.7,433,635.8z"/>
	<g>
		<path fill="#F2F2F2" d="M924.8,904.4c1.8-0.7,3.6-1.5,5.3-2.3c0.9-0.4,3.9-2.1,0,0.3c0.9-0.6,1.7-1.3,2.6-2
			c-3.2,2.7-1.1,1.1-0.3,0c-0.4,0.7-0.8,1.4-1.2,2.1c0.6-1.6,0.5-1.1-0.3,1.6c0.8-3.1,0.4,4,0.1,0.7c-0.3-4.1,1.4,4.4,0.3,1.2
			c-1.6-4.7-3.8-9.3-5.7-13.8c-6-14.6-2.3-30.9,9.7-41.1c4.1,9.9,8.1,19.7,12.2,29.6c-15.7,1.1-29.8-7.8-35.8-22.3
			c-1.7-4.2-3.4-8.4-5.2-12.6c-0.4-0.9-0.8-1.8-1.2-2.6c0.4,0.7,0.9,1.5,1.3,2.2c2.2,2.1,2.7,2.6,1.3,1.3c-2.5-2.2,3.5,1.5,0.3,0.3
			c0.7,0.2,1.4,0.4,2.2,0.6c-1.7-0.2-1.4-0.2,1.1-0.2c-1.2,0-2.4,0.2-3.6,0.4c4.1-0.6,1-0.2-0.1,0.2c-2.2,0.8-4.4,1.7-6.5,2.6
			c-8.4,3.4-18.2-0.7-21.6-9c-3.4-8.3,0.7-18.2,9-21.6c5.3-2.2,10.7-4.4,16.4-5.2c7.7-1.2,14.9,0.6,21.4,4.6
			c7.2,4.3,10.1,12.2,13.1,19.6c0.9,2.3,1.9,4.6,2.8,6.9c0.4,0.9,0.7,1.7,1.2,2.6c-2.1-4.3-1-1.8-0.2-0.8c2,2.6-3.1-2.7-0.7-0.7
			c0.6,0.5,1.2,0.9,1.9,1.3c-4.3-2.7-2.4-1.4-1.1-0.8c0.6,0.3,1.2,0.5,1.9,0.7c-5.2-1.6-3.1-0.8-1.8-0.6c0.9,0.2,1.8,0.3,2.7,0.3
			c2.2,0.1-5.3,0.1-2.8,0c16.6-1.2,24.8,18.7,12.2,29.6c-1.1,0.9-2.5,2.6,2.2-2.2c-0.6,0.6-1.1,1.3-1.6,2c-0.3,0.4-0.6,0.9-0.9,1.4
			c3-4.6,1.5-2.7,0.9-1.5c-0.3,0.6-0.5,1.3-0.8,1.9c1.7-4.7,0.7-2.6,0.4-1.2c-0.2,1.2-0.1,4.1-0.1-1c0,0.9,0.2,1.8,0.3,2.7
			c-0.8-4.9-0.4-1.5,0.2,0c1,2.3,1.9,4.6,2.8,6.9c3.1,7.4,6.6,15.2,4.5,23.4c-1.8,7.4-5.6,12.9-11.4,17.9c-4.2,3.6-9.7,5.7-14.8,7.8
			c-8.4,3.5-18.2-0.7-21.6-9C912.3,917.7,916.5,907.9,924.8,904.4L924.8,904.4z"/>
	</g>
	<g>
		<path fill="#F2F2F2" d="M1448.2,429.4c0-5.3,1.5-9.6,4.5-12.8c3-3.2,6.9-4.9,11.9-4.9c2.7,0,5.2,0.6,7.6,1.8
			c2.4,1.2,4.3,2.9,5.8,5.1c1.8,2.5,2.7,6.1,2.7,10.9v31.1c0,5.4-1.4,9.7-4.3,12.9c-2.9,3.2-6.7,4.8-11.6,4.8c-2.6,0-5-0.5-7.4-1.6
			c-2.4-1.1-4.3-2.6-5.9-4.4c-2.1-2.7-3.1-6.5-3.1-11.5L1448.2,429.4z M1449.2,496c0-2.1,0.4-4,1.2-5.8c0.8-1.8,1.9-3.4,3.3-4.9
			c1.4-1.4,3.1-2.5,4.9-3.3c1.9-0.8,3.8-1.2,5.9-1.2c4.3,0,8,1.5,10.9,4.4c2.9,2.9,4.4,6.6,4.4,10.9c0,4.4-1.5,8.1-4.3,11
			c-2.9,2.9-6.5,4.3-10.8,4.3c-2.1,0-4.1-0.4-6-1.3c-1.9-0.8-3.6-1.9-4.9-3.3c-1.4-1.4-2.5-3-3.3-4.9
			C1449.7,500.1,1449.2,498.1,1449.2,496z"/>
	</g>
	<path fill="#F2F2F2" d="M410.2,742.1c-1-0.3-2.1-0.3-3.2-0.2c-1.1,0.1-2.4,0.5-3.7,1c-1.3,0.6-2.8,1.3-4.5,2.2l-3.3,1.9l-7.7-13.8
		l5.9-3.3c2-1.1,3.6-2.7,4.8-4.6c1.6-2.7,2-5.5,1.3-8.3c-0.7-2.8-2.3-5-5-6.5c-1.1-0.6-2.2-1.1-3.2-1.3c-1-0.3-2.1-0.3-3.2-0.2
		c-1.1,0.1-2.4,0.5-3.7,1c-1.3,0.6-2.8,1.3-4.5,2.2l-3.3,1.8l-2.5-4.5c-1.6-2.9-3.2-4.8-4.8-5.7c-2.8-1.6-5.7-2.1-8.6-1.4
		c-2.9,0.7-5.1,2.4-6.7,5.1c-2.2,3.8-2,7.9,0.5,12.4l2.8,5l-13.7,7.7l-2.5-4.4c-1.6-2.9-3.2-4.8-4.8-5.7c-2.8-1.6-5.7-2.1-8.6-1.4
		c-2.9,0.7-5.1,2.4-6.7,5.1c-2.2,3.8-2,7.9,0.5,12.4l2.8,4.9l-4,2.2c-2.9,1.6-4.8,3.2-5.7,4.8c-1.6,2.8-2.1,5.7-1.4,8.6
		c0.7,2.9,2.4,5.1,5.1,6.7c3.8,2.2,7.9,2,12.4-0.5l4.5-2.5l7.7,13.7l-3.9,2.2c-2.9,1.6-4.8,3.2-5.7,4.8c-1.6,2.8-2.1,5.7-1.4,8.6
		c0.7,2.9,2.4,5.1,5.1,6.7c3.8,2.2,7.9,2,12.4-0.5l4.4-2.5l3,5.4c1.1,2,2.7,3.6,4.6,4.8c2.7,1.6,5.5,2,8.3,1.3c2.8-0.7,5-2.3,6.5-5
		c0.6-1.1,1.1-2.2,1.3-3.2c0.3-1,0.3-2.1,0.2-3.2c-0.1-1.1-0.5-2.4-1-3.7c-0.6-1.3-1.3-2.8-2.2-4.5l-1.6-2.8l13.8-7.8l3,5.4
		c1.1,2,2.7,3.6,4.6,4.8c2.7,1.6,5.5,2,8.3,1.3c2.8-0.7,5-2.3,6.5-5c0.6-1.1,1.1-2.2,1.3-3.2c0.3-1,0.3-2.1,0.2-3.2
		c-0.1-1.1-0.5-2.4-1-3.7c-0.6-1.3-1.3-2.8-2.2-4.5l-1.6-2.8l5.9-3.3c2-1.1,3.6-2.7,4.8-4.6c1.6-2.7,2-5.5,1.3-8.3
		c-0.7-2.8-2.3-5-5-6.5C412.2,742.8,411.2,742.3,410.2,742.1z M362.5,765.5l-7.7-13.7l13.7-7.7l7.7,13.8L362.5,765.5z"/>
	<g>
		<path fill="#F2F2F2" d="M1633.2,662.1c1.1-0.7,2-1.2,2.7-1.4c0.7-0.2,1.4-0.4,2.1-0.4c2.1,0,3.9,0.8,5.4,2.4
			c1.5,1.6,2.3,3.4,2.3,5.5c0,1.7-0.3,3-1,4c-0.6,1-1.9,2.1-3.8,3.2l-4.1,2.7l4,2.4c2,1.1,3.3,2.1,4,3.2c0.7,1,1,2.4,1,4.1
			c0,2.2-0.7,4-2.2,5.5c-1.5,1.5-3.2,2.3-5.2,2.3c-1.8,0-3.5-0.5-5.3-1.5l-4-2.4v4.4c0,6-2.5,9-7.5,9c-2.6,0-4.5-0.8-5.9-2.4
			c-1.4-1.6-2.1-3.8-2.1-6.6v-4.4l-4.6,2.4c-1.7,1-3.2,1.5-4.6,1.5c-2.3,0-4.1-0.8-5.6-2.3c-1.5-1.5-2.2-3.4-2.2-5.7
			c0-2.8,1.6-5.2,4.7-7.1l4.1-2.4l-4.1-2.4c-2.9-1.8-4.4-4.2-4.4-7.2c0-2,0.7-3.7,2.1-5.3c1.4-1.6,3.1-2.4,5.1-2.4
			c1.6,0,3.3,0.5,5.2,1.6l4.3,2.2v-4.3c0-2.8,0.7-5.1,2.1-6.7c1.4-1.6,3.2-2.4,5.5-2.4c2.5,0,4.4,0.8,5.8,2.4
			c1.4,1.6,2.1,3.8,2.1,6.4v4.3L1633.2,662.1z"/>
	</g>
	<g>
		<path fill="#F2F2F2" d="M422,359.6c1.7-4.8,5-7.9,9.7-9.2c2-0.5,3.8-0.7,5.5-0.6c1.7,0.1,4,0.7,7,1.8l4.6,1.6
			c3.4,1.2,6,2.5,7.6,3.7c1.6,1.2,3,2.9,4.2,4.9c1.3,2.5,2,4.8,1.9,7c0,2.2-0.7,5.3-2.1,9l-20.9,58c-1.8,5-4.7,8.6-8.6,10.7
			c-4,2.2-8.2,2.5-12.6,0.9c-2.2-0.8-4.2-2.1-6-3.9c-1.8-1.8-3.1-3.8-3.9-6.1c-0.7-2-1-4-0.9-5.9c0.1-1.9,0.6-4.1,1.6-6.7l17.4-48.4
			C421.2,371.6,419.7,366,422,359.6z"/>
	</g>
	<g>
		<path fill="#F2F2F2" d="M1121.6,852.6c0-7.2,1.3-13.9,4.1-20.1c2.7-6.2,6.4-11.7,11.1-16.3c4.7-4.6,10.1-8.3,16.4-10.9
			c6.3-2.7,13-4,20.2-4c7.2,0,13.9,1.4,20.2,4.1c6.3,2.7,11.8,6.4,16.4,11.1c4.7,4.7,8.4,10.1,11.1,16.4c2.7,6.2,4.1,12.9,4.1,20.1
			c0,7.1-1.4,13.8-4.1,20c-2.7,6.3-6.4,11.8-11.1,16.4c-4.7,4.7-10.2,8.4-16.5,11.1c-6.3,2.7-13,4.1-20,4.1
			c-7.2,0-13.9-1.4-20.2-4.1c-6.3-2.7-11.8-6.4-16.4-11.1c-4.7-4.7-8.4-10.2-11.1-16.5C1123,866.5,1121.6,859.7,1121.6,852.6z
			 M1154,852.6c0,2.6,0.5,5.1,1.5,7.5c1,2.4,2.4,4.5,4.1,6.2c1.7,1.8,3.7,3.1,6.1,4.2c2.3,1,4.8,1.5,7.5,1.5s5.1-0.5,7.5-1.5
			c2.3-1,4.4-2.4,6.2-4.2c1.8-1.8,3.2-3.8,4.2-6.1c1-2.3,1.5-4.8,1.5-7.4c0-2.6-0.5-5.1-1.5-7.4c-1-2.3-2.4-4.3-4.2-6.1
			c-1.8-1.8-3.8-3.1-6.2-4.2c-2.3-1-4.8-1.5-7.5-1.5c-2.5,0-5,0.5-7.3,1.5c-2.3,1-4.4,2.4-6.2,4.1c-1.8,1.7-3.2,3.7-4.2,6
			C1154.6,847.6,1154,850,1154,852.6z"/>
	</g>
	<path fill="#F2F2F2" d="M1170.3,269.8c-1-2.2-2.3-4-4-5.6c-1.7-1.5-3.5-2.5-5.5-3.2c-2-0.6-4.6-1-7.7-1h-41.6l14.5-39.1
		c1.2-3.2,1.9-5.9,2-7.9c0.1-2-0.3-4.1-1.2-6.2c-0.7-2-2-3.8-3.7-5.4c-1.8-1.6-3.7-2.9-5.8-3.6c-2-0.7-4.2-1-6.6-0.9
		c-2.4,0.2-4.6,0.8-6.6,1.8c-2,1.1-3.6,2.4-4.9,4.1c-1.3,1.7-2.5,4-3.6,6.9l-21.1,57.1c-0.3,0.9-0.6,1.7-0.9,2.5
		c-1,2.1-1.5,4.5-1.5,7.1c0,0,0,0,0,0c0,0.5,0,1,0.1,1.5c0.3,4.2,2.1,7.7,5.2,10.4c0.9,0.9,1.8,1.6,2.7,2.1c0.9,0.5,1.9,1,3,1.3
		c0.8,0.2,1.8,0.4,2.9,0.5c1.2,0.2,2.4,0.3,3.5,0.2c0.8,0,1.7,0,2.7,0h60.9c3.4,0,6.1-0.3,8.1-0.9c2-0.6,3.8-1.7,5.5-3.2
		c1.6-1.4,2.8-3.2,3.8-5.4c0.9-2.2,1.4-4.4,1.4-6.7C1171.8,274.2,1171.3,272,1170.3,269.8z"/>
	<path fill="#F2F2F2" d="M547.2,761.7c-1.7,1.7-3,3.6-3.9,5.7c-0.8,2.1-1.2,4.2-1.1,6.3c0.1,2.1,0.7,4.6,1.8,7.6l14.3,39.1
		l-41.7-0.1c-3.4,0-6.1,0.3-8.1,0.9c-2,0.6-3.8,1.7-5.5,3.2c-1.6,1.4-2.8,3.2-3.8,5.4c-0.9,2.2-1.4,4.4-1.4,6.7
		c0,2.2,0.5,4.3,1.5,6.5c1,2.2,2.3,4,4,5.6c1.7,1.5,3.5,2.5,5.5,3.2c2,0.6,4.6,1,7.7,1l60.9,0.2c0.9,0,1.8,0,2.7,0
		c2.3,0.2,4.7-0.1,7.2-1c0,0,0,0,0,0c0.5-0.2,0.9-0.4,1.4-0.6c3.8-1.8,6.5-4.6,8-8.5c0.5-1.1,0.9-2.2,1.1-3.3
		c0.2-1.1,0.2-2.2,0.1-3.3c-0.1-0.9-0.2-1.8-0.5-2.9c-0.2-1.2-0.6-2.3-1-3.4c-0.3-0.8-0.6-1.6-0.9-2.6l-20.9-57.2
		c-1.2-3.2-2.4-5.7-3.6-7.3c-1.2-1.6-2.9-3-4.9-4c-1.8-1-3.9-1.6-6.3-1.7c-2.4-0.1-4.7,0.2-6.8,1
		C550.8,758.9,548.9,760.1,547.2,761.7z"/>
</g>
<g id="text">
	<g>
		<path fill="#01ADFE" d="M612.3,390.9c0-3.5,0-6.5,0.1-8.9c0.1-2.4,0.3-4.4,0.7-6s0.9-3.1,1.5-4.4c0.6-1.3,1.4-2.6,2.5-4
			c2.1-3.2,5.1-5.8,8.9-7.7c3.8-1.9,7.7-2.9,11.7-2.9c4.3,0,8.3,1,12.1,3c3.8,2,6.8,4.8,8.9,8.3c0.9,1.4,1.6,2.7,2.2,3.9
			c0.5,1.2,1,2.6,1.3,4.3c0.3,1.6,0.5,3.5,0.6,5.8c0.1,2.2,0.1,5.1,0.1,8.6V444c0,5.8-0.2,10.9-0.5,15.1c-0.3,4.2-0.9,8-1.7,11.4
			c-0.8,3.4-1.9,6.5-3.2,9.4c-1.3,2.9-3,5.8-4.9,8.7c-5.7,8.4-12.9,15-21.7,19.8c-8.8,4.8-18.3,7.1-28.4,7.1
			c-8.6,0-16.7-1.7-24.4-5.1c-7.7-3.4-14.4-8.2-20.2-14.5c-5.4-5.8-9.4-12.2-12-19.2c-2.6-7-3.9-15.1-3.9-24.3
			c0-6.9,0.6-12.4,1.7-16.6c1.2-4.1,3.1-7.7,5.9-10.8c4.4-5.4,10.3-8,17.7-8c7.8,0,14.1,2.5,19,7.6s7.1,11.7,6.8,20v8.5
			c-0.2,3.5,0.7,6.3,2.4,8.3c1.8,2,4.2,3,7.1,3c4.3,0,7.4-2,9.1-6c0.3-0.9,0.5-2,0.6-3.3c0.1-1.3,0.1-3.9,0.1-7.9L612.3,390.9
			L612.3,390.9z"/>
		<path fill="#01ADFE" d="M680.8,434.1c0-11,2.1-21.4,6.3-31c4.2-9.7,10-18.1,17.3-25.3c7.3-7.2,15.8-12.9,25.6-17
			c9.8-4.1,20.3-6.2,31.5-6.2c11.2,0,21.7,2.1,31.5,6.3c9.8,4.2,18.4,9.9,25.8,17.1c7.4,7.2,13.1,15.7,17.4,25.5
			c4.2,9.8,6.3,20.2,6.3,31.3s-2.1,21.5-6.3,31.3c-4.2,9.8-10,18.4-17.4,25.8c-7.4,7.4-15.9,13.1-25.8,17.4
			c-9.8,4.2-20.2,6.3-31.3,6.3c-11.3,0-21.9-2.1-31.7-6.3c-9.8-4.2-18.4-10-25.6-17.4c-7.3-7.4-13-16-17.3-25.9
			C682.9,456.1,680.8,445.5,680.8,434.1z M731.4,434.7c0,4.2,0.8,8.1,2.4,11.9c1.6,3.8,3.8,7,6.5,9.8c2.7,2.8,5.9,5,9.6,6.6
			s7.6,2.4,11.8,2.4c4.2,0,8.1-0.8,11.8-2.4s6.9-3.8,9.6-6.6s4.8-6,6.5-9.7c1.6-3.7,2.4-7.6,2.4-11.8s-0.8-8-2.4-11.7
			c-1.6-3.6-3.8-6.8-6.5-9.5c-2.7-2.7-5.9-4.8-9.6-6.3s-7.6-2.3-11.8-2.3c-4.2,0-8.1,0.8-11.8,2.3s-6.9,3.7-9.6,6.3
			c-2.7,2.7-4.8,5.8-6.5,9.4C732.2,426.7,731.4,430.5,731.4,434.7z"/>
		<path fill="#01ADFE" d="M915.4,515.5c-8.1,0-15.7-1-22.8-3c-7.1-2-13.2-4.8-18.4-8.3c-5.2-3.5-9.3-7.6-12.2-12.3
			c-2.9-4.7-4.4-9.8-4.4-15.3c0-3.2,0.6-6.2,1.7-9c1.1-2.8,2.8-5.2,4.8-7.2c2.1-2.1,4.5-3.7,7.4-4.9c2.8-1.2,5.9-1.8,9.1-1.8
			c3.1,0,6,0.6,8.9,1.7c2.8,1.1,5.9,3,9.1,5.6c2.8,2.1,5,3.8,6.7,5.1c1.7,1.2,3.1,2.2,4.1,2.9c1.1,0.7,2,1.1,2.8,1.3
			c0.8,0.2,1.6,0.2,2.5,0.2c2,0,3.6-0.6,4.7-1.8c1.2-1.2,1.7-2.8,1.7-4.8c0-2.6-1.3-4.8-3.9-6.4c-0.3-0.2-0.7-0.3-1-0.6
			c-0.4-0.2-0.9-0.5-1.6-0.8c-0.7-0.3-1.6-0.7-2.8-1.1c-1.1-0.5-2.7-1.1-4.7-1.8c-2.1-0.8-4.2-1.5-6.2-2.2c-2-0.7-4.1-1.4-6.2-2.2
			c-22.2-7.8-33.4-22.4-33.4-43.7c0-7.5,1.4-14.3,4.1-20.5c2.8-6.1,6.6-11.4,11.5-15.9c4.9-4.4,10.8-7.9,17.8-10.4
			c7-2.5,14.6-3.7,22.9-3.7c6.9,0,13.3,0.9,19.3,2.6c6,1.8,11.2,4.1,15.6,7.1c4.4,3,7.9,6.5,10.5,10.6c2.5,4.1,3.8,8.5,3.8,13.2
			c0,6.1-1.8,11.2-5.5,15.1c-3.7,3.9-8.4,5.9-14.3,5.9c-3.5,0-6.8-0.6-9.9-2c-3.1-1.3-6.7-3.6-11-6.8c-2.6-2.1-4.7-3.6-6.2-4.4
			c-1.5-0.8-3-1.1-4.4-1.1c-1.7,0-3.1,0.6-4.3,1.7c-1.2,1.1-1.7,2.6-1.7,4.3c0,2.3,1,4.1,3.1,5.5c2.1,1.4,6.1,3.1,12.1,5.1
			c6.6,2,12.8,4.4,18.6,7.2c5.8,2.8,10.5,5.8,14,8.9c4.8,4,8.5,9.2,11.3,15.5c2.8,6.4,4.1,13.2,4.1,20.6c0,6.9-1.3,13.5-3.8,19.9
			c-2.5,6.4-6.1,11.9-10.7,16.7c-5.2,5.2-11.3,9.1-18.3,11.6C933.2,514.3,924.9,515.5,915.4,515.5z"/>
		<path fill="#01ADFE" d="M1065.6,464.2c5.5,0,9.8,0.4,12.8,1.3c3,0.8,5.8,2.3,8.4,4.5c5.5,4.8,8.3,10.7,8.3,17.9
			c0,3.5-0.7,6.9-2.2,10.2c-1.5,3.3-3.5,6-6.1,8.2c-1.2,1.1-2.5,2-3.8,2.6c-1.3,0.7-2.7,1.2-4.3,1.6c-1.5,0.4-3.3,0.7-5.4,0.8
			c-2.1,0.2-4.6,0.2-7.5,0.2h-39.3c-5.8,0-10-0.2-12.4-0.5c-2.5-0.3-4.8-0.8-6.9-1.6c-8.1-3.4-13-9.5-14.5-18.4
			c-0.2-0.8-0.3-1.5-0.5-2.2c-0.2-0.7-0.3-1.6-0.3-2.6c-0.1-1.1-0.1-2.4-0.1-3.9c0-1.7,0-3.8,0-6.4v-83.3c0-3.2,0-5.8,0.1-7.8
			c0.1-2,0.2-3.6,0.3-4.9c0.2-1.3,0.4-2.4,0.7-3.3c0.3-0.9,0.7-2,1.1-3.2c1.1-2.9,2.7-5.4,4.9-7.6c2.2-2.1,4.6-3.8,7.2-5.1
			c1.4-0.6,2.6-1.1,3.7-1.4c1.1-0.3,2.3-0.5,3.8-0.7c1.5-0.2,3.3-0.3,5.5-0.3c2.2-0.1,5.2-0.1,8.9-0.1h30.4c3.7,0,6.6,0,8.7,0
			c2.1,0,3.8,0.1,5.1,0.2c1.2,0.2,2.2,0.3,3,0.5c0.8,0.2,1.6,0.3,2.5,0.5c5.4,1.4,9.6,4.1,12.8,8c3.1,4,4.7,8.7,4.7,14
			c0,3.7-0.7,7.2-2.2,10.5c-1.5,3.3-3.5,6-6.1,8.2c-2.3,2-4.9,3.4-7.8,4.3c-2.9,0.8-6.7,1.3-11.5,1.3h-25.3v10.6h20
			c6.3,0,11.3,1.7,14.9,5.1c3.7,3.4,5.5,7.7,5.5,13.1c0,6-2.2,10.8-6.7,14.5c-2,1.5-4.1,2.6-6.3,3.1c-2.2,0.5-5.3,0.8-9.3,0.8h-18.2
			v11.5L1065.6,464.2L1065.6,464.2z"/>
		<path fill="#01ADFE" d="M1163.3,483.6c0,8.7-2.3,15.8-6.9,21.2c-4.6,5.4-10.7,8-18.3,8c-4.3,0-8.3-1-12-3.1
			c-3.7-2.1-6.8-4.9-9-8.4c-0.9-1.5-1.7-3-2.3-4.3c-0.6-1.3-1.1-2.8-1.4-4.4s-0.5-3.6-0.6-6.1c-0.1-2.5-0.1-5.6-0.1-9.4v-89.7
			c0-5.5,0.5-9.8,1.5-12.9c1-3.1,2.8-6,5.4-8.7c2.6-2.6,5.5-4.5,8.7-5.8c3.2-1.2,7.2-1.8,12-1.8h21.2c6.1,0,11.5,0.2,16.1,0.6
			c4.6,0.4,8.7,1,12.2,2c3.5,0.9,6.8,2.1,9.8,3.6c3,1.5,5.9,3.3,8.9,5.6c6.9,5.2,12.2,11.7,16,19.3c3.8,7.7,5.6,15.8,5.6,24.4
			c0,8.6-2,16.7-5.9,24.4c-3.9,7.7-9.4,14.2-16.5,19.5c-5.2,4-10.6,6.8-16.2,8.5c-5.5,1.7-12.1,2.5-19.6,2.5h-8.5V483.6z
			 M1163.3,421.7c6.2,0.3,10.6-0.2,13.2-1.4c2.6-1.2,3.8-3.6,3.8-7.1c0-2.6-1.1-4.6-3.3-6s-5.2-2.1-9.1-2.1h-4.7V421.7z"/>
		<path fill="#01ADFE" d="M1298.4,480.1c0,3.2-0.1,5.9-0.2,7.9c-0.2,2.1-0.4,3.9-0.7,5.4c-0.3,1.5-0.7,2.9-1.3,4.1
			c-0.5,1.2-1.3,2.5-2.2,3.9c-2.3,3.5-5.3,6.3-8.9,8.3c-3.7,2-7.6,3-11.9,3c-4.4,0-8.5-1-12.1-3c-3.7-2-6.6-4.8-8.9-8.3
			c-0.9-1.4-1.6-2.7-2.2-4c-0.5-1.3-1-2.8-1.3-4.4s-0.5-3.5-0.7-5.5c-0.2-2.1-0.2-4.6-0.2-7.5v-92.5c0-5.4,0.3-9.5,1-12.4
			c0.7-2.9,2.1-5.7,4.2-8.3c2.4-3.1,5.4-5.5,8.8-7.2c3.4-1.8,7.1-2.6,11.1-2.6c4,0,7.8,0.9,11.4,2.6c3.7,1.8,6.6,4.2,8.9,7.2
			c1.1,1.4,1.9,2.7,2.5,3.9c0.6,1.2,1.1,2.6,1.5,4.1c0.4,1.5,0.7,3.4,0.8,5.6c0.2,2.2,0.2,4.9,0.2,8.2v21.6h31.1v-20.9
			c0-6.1,0.3-10.7,1-13.7c0.7-3,2.1-5.9,4.3-8.9c2.3-3.1,5.1-5.5,8.5-7.2c3.4-1.8,7.1-2.6,11-2.6c4,0,7.8,0.8,11.4,2.5
			c3.6,1.7,6.6,4.1,8.9,7.1c2,2.6,3.4,5.5,4.3,8.7c0.8,3.2,1.3,7.3,1.3,12.2v92.9c0,2.6-0.1,4.9-0.2,6.8c-0.2,1.9-0.4,3.6-0.7,5.2
			c-0.3,1.5-0.7,2.9-1.3,4.1c-0.5,1.2-1.2,2.5-2,3.9c-2.3,3.8-5.3,6.8-9.1,9c-3.8,2.1-7.9,3.2-12.3,3.2c-4,0-7.8-0.9-11.4-2.6
			c-3.6-1.8-6.6-4.3-8.9-7.5c-0.9-1.4-1.7-2.7-2.4-4c-0.7-1.3-1.2-2.8-1.5-4.5c-0.3-1.7-0.5-3.6-0.7-5.8c-0.2-2.1-0.2-4.8-0.2-7.8
			v-22.1h-31V480.1z"/>
	</g>
	<g>
		<path fill="#01ADFE" d="M581,627c0,2.5-0.1,4.5-0.2,6.1c-0.1,1.6-0.3,3-0.5,4.2c-0.2,1.2-0.6,2.2-1,3.2c-0.4,0.9-1,1.9-1.7,3
			c-1.8,2.7-4.1,4.8-6.9,6.4c-2.8,1.5-5.9,2.3-9.2,2.3c-3.4,0-6.5-0.8-9.4-2.3c-2.8-1.5-5.1-3.7-6.9-6.4c-0.7-1.1-1.3-2.1-1.7-3.1
			c-0.4-1-0.7-2.1-1-3.4c-0.2-1.2-0.4-2.7-0.5-4.2c-0.1-1.6-0.2-3.5-0.2-5.7v-71.1c0-4.1,0.3-7.3,0.8-9.5c0.5-2.2,1.6-4.4,3.3-6.4
			c1.9-2.4,4.2-4.2,6.8-5.6c2.7-1.4,5.5-2,8.6-2c3.1,0,6,0.7,8.8,2c2.8,1.4,5.1,3.2,6.9,5.6c0.8,1.1,1.5,2.1,1.9,3
			c0.5,0.9,0.9,2,1.1,3.2c0.3,1.2,0.5,2.6,0.6,4.3c0.1,1.7,0.2,3.8,0.2,6.3v16.6h24v-16.1c0-4.7,0.3-8.2,0.8-10.5
			c0.5-2.3,1.6-4.6,3.3-6.8c1.8-2.4,4-4.2,6.6-5.6c2.6-1.4,5.4-2,8.5-2c3.1,0,6,0.7,8.8,1.9c2.8,1.3,5.1,3.1,6.8,5.5
			c1.5,2,2.6,4.2,3.3,6.7c0.6,2.5,1,5.6,1,9.4v71.4c0,2-0.1,3.7-0.2,5.2c-0.1,1.5-0.3,2.8-0.5,4c-0.2,1.2-0.6,2.2-1,3.2
			c-0.4,0.9-0.9,1.9-1.5,3c-1.8,2.9-4.1,5.2-7,6.9c-2.9,1.7-6.1,2.5-9.5,2.5c-3.1,0-6-0.7-8.8-2c-2.8-1.4-5.1-3.3-6.8-5.7
			c-0.7-1.1-1.3-2.1-1.9-3.1c-0.5-1-0.9-2.2-1.2-3.4c-0.2-1.3-0.4-2.8-0.5-4.4c-0.1-1.6-0.2-3.7-0.2-6v-17h-24L581,627L581,627z"/>
		<path fill="#01ADFE" d="M719.4,614.8c4.3,0,7.5,0.3,9.9,1c2.3,0.7,4.5,1.8,6.5,3.4c4.3,3.7,6.4,8.3,6.4,13.8
			c0,2.7-0.6,5.3-1.7,7.9c-1.1,2.5-2.7,4.6-4.7,6.3c-1,0.8-1.9,1.5-2.9,2c-1,0.5-2.1,0.9-3.3,1.2c-1.2,0.3-2.6,0.5-4.2,0.6
			c-1.6,0.1-3.5,0.2-5.8,0.2h-30.4c-4.5,0-7.7-0.1-9.6-0.4c-1.9-0.2-3.7-0.6-5.3-1.2c-6.3-2.6-10-7.3-11.2-14.1
			c-0.1-0.6-0.2-1.1-0.4-1.7c-0.1-0.5-0.2-1.2-0.3-2c-0.1-0.8-0.1-1.8-0.1-3c0-1.3,0-2.9,0-5v-64c0-2.5,0-4.5,0.1-6
			c0.1-1.5,0.1-2.8,0.3-3.8c0.1-1,0.3-1.9,0.5-2.6c0.2-0.7,0.5-1.5,0.9-2.5c0.8-2.2,2.1-4.2,3.8-5.8c1.7-1.6,3.6-2.9,5.6-3.9
			c1.1-0.5,2-0.8,2.8-1.1c0.8-0.2,1.8-0.4,2.9-0.5c1.1-0.1,2.5-0.2,4.3-0.3c1.7-0.1,4-0.1,6.8-0.1h23.4c2.8,0,5.1,0,6.7,0
			c1.7,0,3,0.1,3.9,0.2c0.9,0.1,1.7,0.2,2.3,0.4c0.6,0.1,1.2,0.2,2,0.4c4.1,1.1,7.4,3.1,9.9,6.2c2.4,3.1,3.6,6.7,3.6,10.8
			c0,2.8-0.6,5.5-1.7,8c-1.1,2.5-2.7,4.6-4.7,6.3c-1.8,1.5-3.8,2.6-6,3.3c-2.3,0.6-5.2,1-8.9,1h-19.5v8.1H717
			c4.9,0,8.7,1.3,11.5,3.9c2.8,2.6,4.3,6,4.3,10.1c0,4.6-1.7,8.3-5.1,11.1c-1.5,1.2-3.2,2-4.9,2.4c-1.7,0.4-4.1,0.6-7.2,0.6h-14v8.8
			H719.4z"/>
		<path fill="#01ADFE" d="M843,620.5c1.3,2,2.2,4.1,2.8,6.3c0.6,2.2,0.9,4.3,0.9,6.3c0,2.7-0.5,5.2-1.5,7.5c-1,2.3-2.4,4.3-4.2,6
			c-1.8,1.7-3.8,3.1-6.2,4.1c-2.4,1-4.9,1.5-7.6,1.5c-7.1,0-12.5-3-16.2-9l-16.2-26.7v16.1c0,2.8-0.5,5.4-1.5,7.8
			c-1,2.4-2.4,4.4-4.1,6.2c-1.7,1.8-3.7,3.2-6,4.2c-2.3,1-4.8,1.5-7.5,1.5c-3,0-5.8-0.6-8.5-1.9c-2.7-1.2-5-3-6.7-5.2
			c-3.1-3.9-4.6-9.4-4.6-16.6v-72.7c0-4.2,0.5-7.7,1.4-10.3c0.9-2.7,2.6-5,5-7c2.2-2,4.6-3.4,7-4.1c2.4-0.7,6-1.1,10.7-1.1h16.3
			c4.9,0,8.6,0.1,11.2,0.4c2.6,0.3,5.2,0.7,7.8,1.3c4.6,1.3,8.8,3.2,12.6,5.8c3.8,2.6,7,5.7,9.8,9.3c2.7,3.6,4.9,7.6,6.4,11.9
			c1.5,4.4,2.3,8.9,2.3,13.6c0,5.7-1,10.8-2.9,15.5c-2,4.7-5.2,9.5-9.7,14.6L843,620.5z M794.9,582.1h1.6h2.7
			c5.9,0.2,8.9-1.8,8.9-6.2c0-4.5-3-6.6-9.1-6.4c-0.5,0-1.1,0-1.8,0c-0.6,0-1.4-0.1-2.3-0.2L794.9,582.1L794.9,582.1z"/>
		<path fill="#01ADFE" d="M923.8,541.4c4-6,9.4-9,16.2-9c2.6,0,5.1,0.5,7.5,1.6c2.4,1.1,4.5,2.5,6.3,4.2c1.8,1.8,3.2,3.8,4.3,6.2
			c1.1,2.4,1.6,4.8,1.6,7.4c0,3.9-1,7.3-3,10.3l-19.9,28.8l24.1,30.8c2.5,3.1,3.7,6.6,3.7,10.6c0,2.7-0.5,5.3-1.6,7.7
			c-1.1,2.4-2.5,4.5-4.3,6.3s-3.8,3.2-6.2,4.2c-2.4,1.1-4.9,1.6-7.5,1.6c-2.7,0-5.3-0.5-7.8-1.6c-2.5-1.1-4.4-2.5-5.9-4.2
			l-29.3-36.9v20.3c0,6.8-1.8,12.3-5.3,16.4s-8.3,6.1-14.2,6.1c-6.2,0-11-2-14.6-6c-3.6-4-5.3-9.4-5.3-16.3v-75.7
			c0-6.5,1.8-11.7,5.3-15.7c3.5-4,8.3-6,14.2-6c2.8,0,5.6,0.6,8.2,1.8c2.6,1.2,4.8,2.8,6.6,4.8c1.9,2,3.2,4.2,4,6.5
			c0.8,2.4,1.2,5.3,1.2,8.8v18.9L923.8,541.4z"/>
		<path fill="#01ADFE" d="M1042.9,556.3c0-3.9,0.2-6.9,0.7-9.1c0.5-2.2,1.4-4.3,2.8-6.3c1.7-2.6,3.9-4.7,6.8-6.2
			c2.9-1.5,5.9-2.3,9.1-2.3c3,0,5.7,0.6,8.3,1.9c2.5,1.2,4.8,3,6.7,5.2c1.7,2.1,2.8,4.3,3.6,6.6s1.1,5.3,1.1,8.9v72.1
			c0,4.7-0.3,8.3-0.9,10.7c-0.6,2.4-1.7,4.7-3.4,7c-1.8,2.4-4,4.2-6.7,5.4c-2.7,1.2-5.5,1.9-8.6,1.9c-6.3,0-11.5-2.7-15.5-8
			l-31-39.4v24.8c0,3.9-0.3,6.9-1,9.1c-0.6,2.2-1.8,4.3-3.4,6.5c-1.9,2.2-4.1,4-6.7,5.2c-2.6,1.2-5.4,1.9-8.3,1.9
			c-3.1,0-6-0.7-8.7-2c-2.7-1.4-5-3.2-6.9-5.6c-1.6-2.2-2.7-4.5-3.3-6.7c-0.5-2.2-0.8-5.5-0.8-9.9v-74.6c0-6.4,1.9-11.4,5.6-15.2
			c3.7-3.8,8.7-5.7,14.8-5.7c2.8,0,5.4,0.6,7.7,1.9c2.3,1.2,4.6,3.2,6.8,5.9l31.1,38L1042.9,556.3L1042.9,556.3z"/>
		<path fill="#01ADFE" d="M1157.5,614.8c4.3,0,7.5,0.3,9.9,1c2.3,0.7,4.5,1.8,6.5,3.4c4.3,3.7,6.4,8.3,6.4,13.8
			c0,2.7-0.6,5.3-1.7,7.9c-1.1,2.5-2.7,4.6-4.7,6.3c-0.9,0.8-1.9,1.5-2.9,2c-1,0.5-2.1,0.9-3.3,1.2c-1.2,0.3-2.6,0.5-4.2,0.6
			c-1.6,0.1-3.5,0.2-5.8,0.2h-30.4c-4.5,0-7.7-0.1-9.6-0.4c-1.9-0.2-3.7-0.6-5.3-1.2c-6.3-2.6-10-7.3-11.2-14.1
			c-0.1-0.6-0.2-1.1-0.4-1.7c-0.1-0.5-0.2-1.2-0.3-2c-0.1-0.8-0.1-1.8-0.1-3c0-1.3,0-2.9,0-5v-64c0-2.5,0-4.5,0.1-6
			c0.1-1.5,0.1-2.8,0.3-3.8c0.1-1,0.3-1.9,0.5-2.6c0.2-0.7,0.5-1.5,0.9-2.5c0.8-2.2,2.1-4.2,3.8-5.8c1.7-1.6,3.6-2.9,5.6-3.9
			c1.1-0.5,2-0.8,2.8-1.1c0.8-0.2,1.8-0.4,2.9-0.5c1.1-0.1,2.5-0.2,4.3-0.3c1.7-0.1,4-0.1,6.8-0.1h23.4c2.8,0,5.1,0,6.7,0
			c1.7,0,3,0.1,3.9,0.2c0.9,0.1,1.7,0.2,2.3,0.4c0.6,0.1,1.2,0.2,2,0.4c4.1,1.1,7.4,3.1,9.9,6.2c2.4,3.1,3.6,6.7,3.6,10.8
			c0,2.8-0.6,5.5-1.7,8c-1.1,2.5-2.7,4.6-4.7,6.3c-1.8,1.5-3.8,2.6-6,3.3c-2.3,0.6-5.2,1-8.9,1h-19.5v8.1h15.4
			c4.9,0,8.7,1.3,11.5,3.9c2.8,2.6,4.3,6,4.3,10.1c0,4.6-1.7,8.3-5.1,11.1c-1.5,1.2-3.2,2-4.9,2.4c-1.7,0.4-4.1,0.6-7.2,0.6h-14v8.8
			H1157.5z"/>
		<path fill="#01ADFE" d="M1235.1,654.2c-6.3,0-12.1-0.8-17.6-2.3c-5.4-1.5-10.2-3.7-14.2-6.4c-4-2.7-7.2-5.9-9.4-9.5
			c-2.2-3.6-3.4-7.5-3.4-11.8c0-2.5,0.4-4.8,1.3-6.9c0.9-2.1,2.1-4,3.7-5.6c1.6-1.6,3.5-2.9,5.7-3.8c2.2-0.9,4.5-1.4,7-1.4
			c2.4,0,4.6,0.4,6.8,1.3c2.2,0.9,4.5,2.3,7,4.3c2.1,1.7,3.8,2.9,5.1,3.9c1.3,0.9,2.4,1.7,3.2,2.2c0.8,0.5,1.5,0.9,2.1,1
			c0.6,0.1,1.2,0.2,2,0.2c1.5,0,2.8-0.5,3.6-1.4c0.9-0.9,1.3-2.2,1.3-3.7c0-2-1-3.7-3-5c-0.2-0.1-0.5-0.3-0.8-0.4
			c-0.3-0.2-0.7-0.4-1.2-0.6c-0.5-0.2-1.2-0.5-2.1-0.9c-0.9-0.4-2.1-0.8-3.6-1.4c-1.7-0.6-3.3-1.1-4.8-1.7c-1.5-0.5-3.1-1.1-4.8-1.7
			c-17.2-6-25.7-17.2-25.7-33.6c0-5.8,1.1-11,3.2-15.7c2.1-4.7,5.1-8.8,8.9-12.2c3.8-3.4,8.4-6.1,13.8-8c5.4-1.9,11.3-2.8,17.7-2.8
			c5.3,0,10.3,0.7,14.9,2c4.6,1.4,8.6,3.2,12.1,5.5c3.4,2.3,6.1,5,8.1,8.1c2,3.1,2.9,6.5,2.9,10.2c0,4.7-1.4,8.6-4.3,11.6
			c-2.8,3-6.5,4.5-11,4.5c-2.7,0-5.3-0.5-7.6-1.5c-2.4-1-5.2-2.7-8.5-5.2c-2-1.6-3.6-2.8-4.8-3.4c-1.2-0.6-2.3-0.9-3.4-0.9
			c-1.3,0-2.4,0.4-3.3,1.3c-0.9,0.9-1.3,2-1.3,3.3c0,1.8,0.8,3.2,2.4,4.2c1.6,1.1,4.7,2.4,9.3,3.9c5.1,1.5,9.9,3.4,14.4,5.6
			c4.5,2.2,8.1,4.4,10.8,6.8c3.7,3.1,6.6,7,8.7,11.9c2.1,4.9,3.2,10.2,3.2,15.8c0,5.3-1,10.4-2.9,15.3c-2,4.9-4.7,9.2-8.3,12.8
			c-4,4-8.7,7-14.1,8.9C1248.8,653.3,1242.4,654.2,1235.1,654.2z"/>
		<path fill="#01ADFE" d="M1335.2,654.2c-6.3,0-12.1-0.8-17.6-2.3c-5.4-1.5-10.2-3.7-14.2-6.4c-4-2.7-7.2-5.9-9.4-9.5
			c-2.2-3.6-3.4-7.5-3.4-11.8c0-2.5,0.4-4.8,1.3-6.9c0.9-2.1,2.1-4,3.7-5.6c1.6-1.6,3.5-2.9,5.7-3.8c2.2-0.9,4.5-1.4,7-1.4
			c2.4,0,4.6,0.4,6.8,1.3c2.2,0.9,4.5,2.3,7,4.3c2.1,1.7,3.8,2.9,5.1,3.9c1.3,0.9,2.4,1.7,3.2,2.2c0.8,0.5,1.5,0.9,2.1,1
			c0.6,0.1,1.2,0.2,2,0.2c1.5,0,2.8-0.5,3.6-1.4c0.9-0.9,1.3-2.2,1.3-3.7c0-2-1-3.7-3-5c-0.2-0.1-0.5-0.3-0.8-0.4
			c-0.3-0.2-0.7-0.4-1.2-0.6c-0.5-0.2-1.2-0.5-2.1-0.9c-0.9-0.4-2.1-0.8-3.6-1.4c-1.7-0.6-3.3-1.1-4.8-1.7c-1.5-0.5-3.1-1.1-4.8-1.7
			c-17.2-6-25.7-17.2-25.7-33.6c0-5.8,1.1-11,3.2-15.7s5.1-8.8,8.9-12.2c3.8-3.4,8.4-6.1,13.8-8c5.4-1.9,11.3-2.8,17.7-2.8
			c5.3,0,10.3,0.7,14.9,2c4.6,1.4,8.6,3.2,12.1,5.5c3.4,2.3,6.1,5,8.1,8.1c2,3.1,2.9,6.5,2.9,10.2c0,4.7-1.4,8.6-4.3,11.6
			c-2.8,3-6.5,4.5-11,4.5c-2.7,0-5.3-0.5-7.6-1.5c-2.4-1-5.2-2.7-8.5-5.2c-2-1.6-3.6-2.8-4.8-3.4c-1.2-0.6-2.3-0.9-3.4-0.9
			c-1.3,0-2.4,0.4-3.3,1.3c-0.9,0.9-1.3,2-1.3,3.3c0,1.8,0.8,3.2,2.4,4.2c1.6,1.1,4.7,2.4,9.3,3.9c5.1,1.5,9.9,3.4,14.4,5.6
			c4.5,2.2,8.1,4.4,10.8,6.8c3.7,3.1,6.6,7,8.7,11.9c2.1,4.9,3.2,10.2,3.2,15.8c0,5.3-1,10.4-2.9,15.3c-2,4.9-4.7,9.2-8.3,12.8
			c-4,4-8.7,7-14.1,8.9C1348.9,653.3,1342.5,654.2,1335.2,654.2z"/>
	</g>
	<g>
		<path fill="#01ADFE" d="M592.8,708.4c0,3.2-1.9,6.5-5.8,9.9c-2.6,2.3-5.5,4-8.8,5.2s-6.5,1.9-10,1.9c-3.9,0-7.6-0.7-11-2.2
			c-3.4-1.5-6.4-3.5-9-6c-2.6-2.5-4.6-5.5-6-8.9c-1.5-3.4-2.2-7.1-2.2-10.9c0-3.9,0.7-7.6,2.2-11c1.5-3.4,3.5-6.4,6.1-9
			c2.6-2.5,5.6-4.6,9-6c3.4-1.5,7.1-2.2,11-2.2c3.3,0,6.4,0.5,9.5,1.6c3.1,1.1,5.9,2.7,8.4,4.8c4.3,3.5,6.5,7,6.5,10.6
			c0,1.2-0.2,2.4-0.7,3.5c-0.5,1.1-1.1,2-1.9,2.8c-0.8,0.8-1.7,1.4-2.8,1.9c-1.1,0.5-2.2,0.7-3.5,0.7c-1.1,0-2.1-0.2-3.1-0.6
			c-1-0.4-1.8-0.9-2.4-1.6l-2.6-2.8c-1-1.1-2.1-1.9-3.5-2.4c-1.3-0.5-2.7-0.8-4.2-0.8c-1.4,0-2.8,0.3-4.1,0.8
			c-1.3,0.5-2.4,1.3-3.4,2.2c-1,0.9-1.7,2-2.2,3.3c-0.5,1.3-0.8,2.7-0.8,4.1s0.3,2.8,0.8,4.1c0.5,1.3,1.3,2.4,2.2,3.3
			c1,1,2.1,1.7,3.3,2.2c1.3,0.5,2.6,0.8,4.1,0.8s2.9-0.3,4.2-0.9c1.4-0.6,2.6-1.5,3.7-2.6l1.8-1.9c0.7-0.8,1.7-1.4,2.8-1.8
			c1.1-0.5,2.2-0.7,3.3-0.7c1.2,0,2.3,0.2,3.4,0.7c1.1,0.5,2,1.1,2.8,1.9c0.8,0.8,1.4,1.7,1.9,2.8
			C592.5,706.2,592.8,707.3,592.8,708.4z"/>
		<path fill="#01ADFE" d="M597.5,697c0-3.9,0.7-7.5,2.2-10.8c1.5-3.4,3.5-6.3,6-8.8c2.5-2.5,5.5-4.5,9-5.9c3.4-1.4,7.1-2.2,11-2.2
			c3.9,0,7.6,0.7,11,2.2c3.4,1.5,6.4,3.5,9,6c2.6,2.5,4.6,5.5,6.1,8.9c1.5,3.4,2.2,7.1,2.2,10.9s-0.7,7.5-2.2,10.9
			c-1.5,3.4-3.5,6.4-6.1,9c-2.6,2.6-5.6,4.6-9,6.1c-3.4,1.5-7.1,2.2-10.9,2.2c-4,0-7.7-0.7-11.1-2.2c-3.4-1.5-6.4-3.5-9-6.1
			c-2.5-2.6-4.6-5.6-6-9C598.2,704.7,597.5,701,597.5,697z M615.2,697.2c0,1.5,0.3,2.8,0.8,4.2c0.6,1.3,1.3,2.5,2.3,3.4
			c0.9,1,2.1,1.7,3.3,2.3c1.3,0.6,2.7,0.8,4.1,0.8c1.5,0,2.8-0.3,4.1-0.8c1.3-0.6,2.4-1.3,3.3-2.3c0.9-1,1.7-2.1,2.3-3.4
			c0.6-1.3,0.8-2.7,0.8-4.1c0-1.5-0.3-2.8-0.8-4.1c-0.6-1.3-1.3-2.4-2.3-3.3c-0.9-0.9-2.1-1.7-3.3-2.2c-1.3-0.5-2.7-0.8-4.1-0.8
			c-1.5,0-2.8,0.3-4.1,0.8c-1.3,0.5-2.4,1.3-3.3,2.2c-0.9,0.9-1.7,2-2.3,3.3C615.5,694.4,615.2,695.8,615.2,697.2z"/>
		<path fill="#01ADFE" d="M699.2,674.9c0.7-1.4,1.8-2.5,3.2-3.4c1.4-0.9,3-1.3,4.6-1.3c1.1,0,2.2,0.2,3.3,0.6c1.1,0.4,2.1,1,2.8,1.8
			c0.7,0.8,1.3,1.6,1.7,2.4c0.4,0.9,0.7,2,1,3.5l6.1,34.5c0.1,0.6,0.2,1.1,0.2,1.6c0.1,0.5,0.1,0.9,0.1,1.4c0,1.2-0.2,2.4-0.7,3.4
			c-0.5,1-1.1,1.9-1.8,2.7c-0.8,0.8-1.7,1.4-2.8,1.8c-1.1,0.5-2.2,0.7-3.4,0.7c-2.2,0-4.2-0.6-5.8-1.8c-1.6-1.2-2.6-2.9-3-4.9l-2-10
			l-3.5,9.5c-1.8,4.9-4.8,7.3-9.1,7.3c-2.2,0-4-0.6-5.5-1.7c-1.4-1.2-2.6-3-3.5-5.5l-3.5-9.6l-1.4,8.5c-0.4,2.6-1.4,4.6-3,6.1
			c-1.6,1.5-3.5,2.2-5.8,2.2c-2.6,0-4.8-0.9-6.4-2.7c-1.7-1.8-2.5-4.1-2.5-6.9c0-0.4,0-0.7,0-1.1c0-0.3,0.1-0.7,0.1-1.1l6.1-34.3
			c0.4-2.6,1.4-4.6,2.9-6.1c1.5-1.5,3.4-2.2,5.7-2.2c1.9,0,3.6,0.5,5.3,1.6c1.6,1.1,2.8,2.5,3.6,4.3l8,17.8L699.2,674.9z"/>
		<path fill="#01ADFE" d="M746,714.3c0,3.1-0.8,5.5-2.4,7.4c-1.6,1.9-3.7,2.8-6.4,2.8c-1.5,0-2.9-0.4-4.2-1.1
			c-1.3-0.7-2.4-1.7-3.2-2.9c-0.3-0.5-0.6-1-0.8-1.5c-0.2-0.5-0.4-1-0.5-1.5c-0.1-0.6-0.2-1.3-0.2-2.1c0-0.9,0-2,0-3.3v-31.3
			c0-1.9,0.2-3.4,0.5-4.5c0.3-1.1,1-2.1,1.9-3.1c0.9-0.9,1.9-1.6,3.1-2s2.5-0.6,4.2-0.6h7.4c2.1,0,4,0.1,5.6,0.2
			c1.6,0.1,3,0.4,4.3,0.7s2.4,0.7,3.4,1.2c1,0.5,2.1,1.2,3.1,2c2.4,1.8,4.3,4.1,5.6,6.7c1.3,2.7,2,5.5,2,8.5c0,3-0.7,5.8-2.1,8.5
			s-3.3,5-5.8,6.8c-1.8,1.4-3.7,2.4-5.6,3c-1.9,0.6-4.2,0.9-6.9,0.9h-3L746,714.3L746,714.3z M746,692.7c2.2,0.1,3.7-0.1,4.6-0.5
			c0.9-0.4,1.3-1.3,1.3-2.5c0-0.9-0.4-1.6-1.1-2.1c-0.8-0.5-1.8-0.7-3.2-0.7H746L746,692.7L746,692.7z"/>
		<path fill="#01ADFE" d="M792.6,701.6c0,1.9,0.4,3.4,1.3,4.5s2.1,1.6,3.6,1.6s2.8-0.5,3.6-1.6c0.8-1,1.3-2.5,1.3-4.4v-21.4
			c0-1,0-1.8,0.1-2.5c0.1-0.7,0.1-1.3,0.3-1.8c0.1-0.5,0.3-1,0.6-1.4s0.6-0.9,1-1.4c0.9-1.1,1.9-1.9,3-2.5c1.2-0.6,2.4-0.9,3.8-0.9
			c1.3,0,2.5,0.3,3.8,0.9c1.3,0.6,2.3,1.4,3.1,2.3c0.4,0.5,0.8,1,1,1.5c0.3,0.5,0.5,1.1,0.6,1.7c0.2,0.6,0.3,1.4,0.3,2.2
			c0.1,0.9,0.1,1.9,0.1,3.1v19c0,3.6-0.5,6.8-1.4,9.5c-0.9,2.7-2.3,5.1-4.3,7.3c-2.2,2.5-4.8,4.5-7.7,5.9c-2.9,1.4-6,2.1-9.2,2.1
			c-3.6,0-7-0.8-10.2-2.5c-3.2-1.7-5.9-4-8-6.9c-0.8-1.1-1.5-2.2-2-3.3c-0.6-1.1-1-2.2-1.4-3.4c-0.3-1.2-0.6-2.5-0.7-3.9
			c-0.1-1.4-0.2-3-0.2-4.7v-18.9c0-1.3,0-2.3,0.1-3.2c0.1-0.8,0.1-1.5,0.3-2.1c0.1-0.6,0.3-1.1,0.6-1.6c0.2-0.5,0.5-1,0.9-1.4
			c0.9-1.1,1.9-1.9,3.2-2.5c1.3-0.6,2.5-0.9,3.8-0.9c1.2,0,2.4,0.3,3.6,0.8c1.1,0.5,2.1,1.2,2.9,2c0.9,0.9,1.5,1.9,1.9,3.1
			c0.3,1.2,0.5,2.7,0.5,4.5L792.6,701.6L792.6,701.6z"/>
		<path fill="#01ADFE" d="M834.3,687c-1.6,0-2.9-0.2-3.9-0.6c-1-0.4-2-1-2.8-1.8c-1.7-1.8-2.5-3.7-2.5-5.9c0-1.6,0.4-3,1.3-4.4
			c0.9-1.4,2-2.4,3.3-3c0.5-0.2,0.9-0.4,1.3-0.5c0.4-0.1,0.9-0.2,1.5-0.2c0.6-0.1,1.5-0.1,2.5-0.1c1,0,2.5,0,4.2,0h17.8
			c1.2,0,2.2,0,2.9,0s1.2,0,1.6,0c0.4,0,0.7,0,0.8,0c0.2,0,0.4,0.1,0.7,0.1c2.1,0.3,3.9,1.2,5.2,2.7c1.3,1.5,2,3.3,2,5.4
			c0,1.2-0.3,2.3-0.8,3.5c-0.5,1.1-1.2,2.1-2.1,2.9c-1.4,1.3-3.7,1.9-6.8,1.9h-3.9v26.7c0,1.6-0.1,2.9-0.3,3.9c-0.2,1-0.6,2-1.2,2.9
			c-0.8,1.3-1.8,2.3-3.1,3c-1.3,0.7-2.7,1-4.2,1c-1.5,0-2.9-0.3-4.1-1c-1.3-0.6-2.3-1.6-3.2-2.7c-0.6-0.9-1-1.8-1.2-2.8
			c-0.2-1-0.3-2.4-0.3-4.2V687L834.3,687L834.3,687z"/>
		<path fill="#01ADFE" d="M901.8,707.6c1.9,0,3.4,0.1,4.5,0.4c1,0.3,2,0.8,2.9,1.6c1.9,1.7,2.9,3.7,2.9,6.3c0,1.2-0.3,2.4-0.8,3.6
			c-0.5,1.2-1.2,2.1-2.1,2.9c-0.4,0.4-0.9,0.7-1.3,0.9c-0.5,0.2-1,0.4-1.5,0.6c-0.5,0.1-1.2,0.2-1.9,0.3c-0.7,0.1-1.6,0.1-2.6,0.1
			h-13.7c-2,0-3.5-0.1-4.3-0.2c-0.9-0.1-1.7-0.3-2.4-0.6c-2.8-1.2-4.5-3.3-5.1-6.4c-0.1-0.3-0.1-0.5-0.2-0.8s-0.1-0.5-0.1-0.9
			c0-0.4,0-0.8,0-1.4c0-0.6,0-1.3,0-2.2v-29.1c0-1.1,0-2,0-2.7c0-0.7,0.1-1.3,0.1-1.7c0.1-0.5,0.1-0.8,0.2-1.2
			c0.1-0.3,0.2-0.7,0.4-1.1c0.4-1,1-1.9,1.7-2.7s1.6-1.3,2.5-1.8c0.5-0.2,0.9-0.4,1.3-0.5c0.4-0.1,0.8-0.2,1.3-0.2
			c0.5-0.1,1.2-0.1,1.9-0.1c0.8,0,1.8,0,3.1,0h10.6c1.3,0,2.3,0,3.1,0s1.3,0,1.8,0.1c0.4,0.1,0.8,0.1,1,0.2c0.3,0.1,0.6,0.1,0.9,0.2
			c1.9,0.5,3.4,1.4,4.5,2.8c1.1,1.4,1.6,3,1.6,4.9c0,1.3-0.3,2.5-0.8,3.7c-0.5,1.2-1.2,2.1-2.1,2.9c-0.8,0.7-1.7,1.2-2.7,1.5
			c-1,0.3-2.4,0.4-4,0.4h-8.8v3.7h7c2.2,0,3.9,0.6,5.2,1.8c1.3,1.2,1.9,2.7,1.9,4.6c0,2.1-0.8,3.8-2.3,5.1c-0.7,0.5-1.4,0.9-2.2,1.1
			c-0.8,0.2-1.9,0.3-3.3,0.3h-6.3v4L901.8,707.6L901.8,707.6z"/>
		<path fill="#01ADFE" d="M957.7,710.1c0.6,0.9,1,1.9,1.3,2.9c0.3,1,0.4,1.9,0.4,2.9c0,1.2-0.2,2.4-0.7,3.4c-0.5,1-1.1,2-1.9,2.7
			c-0.8,0.8-1.7,1.4-2.8,1.8s-2.2,0.7-3.5,0.7c-3.2,0-5.7-1.4-7.3-4.1l-7.3-12.1v7.3c0,1.3-0.2,2.5-0.7,3.5c-0.5,1.1-1.1,2-1.8,2.8
			c-0.8,0.8-1.7,1.4-2.7,1.9c-1,0.5-2.2,0.7-3.4,0.7c-1.3,0-2.6-0.3-3.9-0.8c-1.2-0.6-2.2-1.4-3.1-2.4c-1.4-1.8-2.1-4.3-2.1-7.6v-33
			c0-1.9,0.2-3.5,0.6-4.7s1.2-2.3,2.3-3.2c1-0.9,2.1-1.5,3.2-1.8c1.1-0.3,2.7-0.5,4.9-0.5h7.4c2.2,0,3.9,0.1,5.1,0.2
			c1.2,0.1,2.4,0.3,3.5,0.6c2.1,0.6,4,1.5,5.7,2.7c1.7,1.2,3.2,2.6,4.4,4.2c1.2,1.6,2.2,3.4,2.9,5.4c0.7,2,1,4,1,6.2
			c0,2.6-0.4,4.9-1.3,7c-0.9,2.1-2.3,4.3-4.4,6.6L957.7,710.1z M935.9,692.7h0.7h1.2c2.7,0.1,4-0.8,4-2.8c0-2-1.4-3-4.1-2.9
			c-0.2,0-0.5,0-0.8,0c-0.3,0-0.6,0-1-0.1L935.9,692.7L935.9,692.7z"/>
		<path fill="#01ADFE" d="M1009.1,725.5c-2.8,0-5.5-0.3-8-1s-4.6-1.7-6.4-2.9c-1.8-1.2-3.2-2.7-4.3-4.3c-1-1.6-1.5-3.4-1.5-5.3
			c0-1.1,0.2-2.2,0.6-3.1c0.4-1,1-1.8,1.7-2.5c0.7-0.7,1.6-1.3,2.6-1.7c1-0.4,2-0.6,3.2-0.6c1.1,0,2.1,0.2,3.1,0.6s2,1.1,3.2,2
			c1,0.8,1.7,1.3,2.3,1.8c0.6,0.4,1.1,0.8,1.4,1c0.4,0.2,0.7,0.4,1,0.4c0.3,0.1,0.6,0.1,0.9,0.1c0.7,0,1.2-0.2,1.6-0.6
			c0.4-0.4,0.6-1,0.6-1.7c0-0.9-0.5-1.7-1.4-2.2c-0.1-0.1-0.2-0.1-0.4-0.2c-0.1-0.1-0.3-0.2-0.6-0.3c-0.2-0.1-0.6-0.2-1-0.4
			c-0.4-0.2-1-0.4-1.6-0.6c-0.8-0.3-1.5-0.5-2.2-0.8c-0.7-0.2-1.4-0.5-2.2-0.8c-7.8-2.7-11.6-7.8-11.6-15.3c0-2.6,0.5-5,1.4-7.1
			c1-2.1,2.3-4,4-5.5c1.7-1.6,3.8-2.8,6.2-3.6c2.4-0.9,5.1-1.3,8-1.3c2.4,0,4.7,0.3,6.7,0.9c2.1,0.6,3.9,1.4,5.5,2.5
			s2.8,2.3,3.7,3.7c0.9,1.4,1.3,3,1.3,4.6c0,2.1-0.6,3.9-1.9,5.3c-1.3,1.4-2.9,2-5,2c-1.2,0-2.4-0.2-3.5-0.7
			c-1.1-0.5-2.4-1.2-3.9-2.4c-0.9-0.8-1.6-1.3-2.2-1.5s-1-0.4-1.5-0.4c-0.6,0-1.1,0.2-1.5,0.6c-0.4,0.4-0.6,0.9-0.6,1.5
			c0,0.8,0.4,1.4,1.1,1.9s2.1,1.1,4.2,1.8c2.3,0.7,4.5,1.5,6.5,2.5c2,1,3.7,2,4.9,3.1c1.7,1.4,3,3.2,3.9,5.4c1,2.2,1.4,4.6,1.4,7.2
			c0,2.4-0.4,4.7-1.3,6.9c-0.9,2.2-2.1,4.2-3.7,5.8c-1.8,1.8-4,3.2-6.4,4.1C1015.3,725,1012.4,725.5,1009.1,725.5z"/>
		<path fill="#01ADFE" d="M1087,708.4c0,3.2-1.9,6.5-5.8,9.9c-2.6,2.3-5.5,4-8.8,5.2s-6.5,1.9-10,1.9c-3.9,0-7.6-0.7-11-2.2
			c-3.4-1.5-6.4-3.5-9-6c-2.6-2.5-4.6-5.5-6-8.9c-1.5-3.4-2.2-7.1-2.2-10.9c0-3.9,0.7-7.6,2.2-11c1.5-3.4,3.5-6.4,6.1-9
			c2.6-2.5,5.6-4.6,9-6c3.4-1.5,7.1-2.2,11-2.2c3.3,0,6.4,0.5,9.5,1.6c3.1,1.1,5.9,2.7,8.4,4.8c4.3,3.5,6.5,7,6.5,10.6
			c0,1.2-0.2,2.4-0.7,3.5c-0.5,1.1-1.1,2-1.9,2.8c-0.8,0.8-1.7,1.4-2.8,1.9c-1.1,0.5-2.2,0.7-3.5,0.7c-1.1,0-2.1-0.2-3.1-0.6
			c-1-0.4-1.8-0.9-2.4-1.6l-2.6-2.8c-1-1.1-2.1-1.9-3.5-2.4c-1.3-0.5-2.7-0.8-4.2-0.8c-1.4,0-2.8,0.3-4.1,0.8
			c-1.3,0.5-2.4,1.3-3.4,2.2c-1,0.9-1.7,2-2.3,3.3c-0.5,1.3-0.8,2.7-0.8,4.1s0.3,2.8,0.8,4.1c0.5,1.3,1.3,2.4,2.3,3.3
			c1,1,2.1,1.7,3.3,2.2c1.3,0.5,2.6,0.8,4.1,0.8c1.4,0,2.9-0.3,4.2-0.9c1.4-0.6,2.6-1.5,3.7-2.6l1.8-1.9c0.8-0.8,1.7-1.4,2.8-1.8
			c1.1-0.5,2.2-0.7,3.3-0.7c1.2,0,2.3,0.2,3.4,0.7c1.1,0.5,2,1.1,2.8,1.9c0.8,0.8,1.4,1.7,1.9,2.8
			C1086.8,706.2,1087,707.3,1087,708.4z"/>
		<path fill="#01ADFE" d="M1110.9,714.3c0,1.7-0.2,3.1-0.5,4.2c-0.3,1.1-0.9,2.1-1.7,3c-0.9,0.9-1.9,1.6-3.1,2.2
			c-1.2,0.5-2.4,0.8-3.5,0.8c-1.2,0-2.4-0.3-3.7-0.8c-1.2-0.5-2.2-1.2-2.9-2c-0.9-0.9-1.4-1.9-1.8-3c-0.3-1.1-0.5-2.5-0.5-4.4v-33.2
			c0-1.1,0-2.1,0.1-2.9c0.1-0.8,0.2-1.5,0.3-2.1c0.2-0.6,0.4-1.1,0.7-1.6s0.7-1,1.2-1.5c1.7-1.9,3.8-2.9,6.5-2.9
			c2.7,0,4.9,0.9,6.6,2.8c0.9,1,1.5,2.1,1.8,3.2c0.3,1.1,0.5,2.8,0.5,5V714.3z"/>
		<path fill="#01ADFE" d="M1145,707.6c1.9,0,3.4,0.1,4.5,0.4c1,0.3,2,0.8,2.9,1.6c1.9,1.7,2.9,3.7,2.9,6.3c0,1.2-0.3,2.4-0.8,3.6
			c-0.5,1.2-1.2,2.1-2.1,2.9c-0.4,0.4-0.9,0.7-1.3,0.9c-0.5,0.2-1,0.4-1.5,0.6c-0.5,0.1-1.2,0.2-1.9,0.3c-0.7,0.1-1.6,0.1-2.6,0.1
			h-13.7c-2,0-3.5-0.1-4.3-0.2c-0.9-0.1-1.7-0.3-2.4-0.6c-2.8-1.2-4.5-3.3-5.1-6.4c-0.1-0.3-0.1-0.5-0.2-0.8
			c-0.1-0.2-0.1-0.5-0.1-0.9c0-0.4,0-0.8,0-1.4c0-0.6,0-1.3,0-2.2v-29.1c0-1.1,0-2,0-2.7c0-0.7,0.1-1.3,0.1-1.7
			c0.1-0.5,0.1-0.8,0.2-1.2c0.1-0.3,0.2-0.7,0.4-1.1c0.4-1,1-1.9,1.7-2.7c0.8-0.8,1.6-1.3,2.5-1.8c0.5-0.2,0.9-0.4,1.3-0.5
			c0.4-0.1,0.8-0.2,1.3-0.2c0.5-0.1,1.2-0.1,1.9-0.1c0.8,0,1.8,0,3.1,0h10.6c1.3,0,2.3,0,3.1,0c0.7,0,1.3,0,1.8,0.1
			c0.4,0.1,0.8,0.1,1,0.2c0.3,0.1,0.6,0.1,0.9,0.2c1.9,0.5,3.4,1.4,4.5,2.8c1.1,1.4,1.6,3,1.6,4.9c0,1.3-0.3,2.5-0.8,3.7
			c-0.5,1.2-1.2,2.1-2.1,2.9c-0.8,0.7-1.7,1.2-2.7,1.5c-1,0.3-2.4,0.4-4,0.4h-8.8v3.7h7c2.2,0,3.9,0.6,5.2,1.8
			c1.3,1.2,1.9,2.7,1.9,4.6c0,2.1-0.8,3.8-2.3,5.1c-0.7,0.5-1.4,0.9-2.2,1.1c-0.8,0.2-1.9,0.3-3.3,0.3h-6.3v4L1145,707.6L1145,707.6
			z"/>
		<path fill="#01ADFE" d="M1191.3,681c0-1.8,0.1-3.1,0.3-4.1c0.2-1,0.6-1.9,1.3-2.9c0.7-1.2,1.8-2.1,3.1-2.8c1.3-0.7,2.7-1,4.1-1
			c1.3,0,2.6,0.3,3.7,0.8c1.2,0.6,2.2,1.4,3,2.4c0.7,1,1.3,2,1.6,3c0.3,1,0.5,2.4,0.5,4.1v32.8c0,2.1-0.1,3.8-0.4,4.9
			c-0.3,1.1-0.8,2.2-1.5,3.2c-0.8,1.1-1.8,1.9-3,2.4c-1.2,0.6-2.5,0.8-3.9,0.8c-2.8,0-5.2-1.2-7-3.6l-14-17.9v11.2
			c0,1.8-0.1,3.1-0.4,4.1c-0.3,1-0.8,2-1.6,2.9c-0.9,1-1.9,1.8-3,2.4c-1.2,0.6-2.4,0.8-3.8,0.8c-1.4,0-2.7-0.3-3.9-0.9
			c-1.2-0.6-2.3-1.5-3.1-2.5c-0.7-1-1.2-2-1.5-3.1c-0.2-1-0.4-2.5-0.4-4.5v-33.9c0-2.9,0.8-5.2,2.5-6.9c1.7-1.7,3.9-2.6,6.7-2.6
			c1.3,0,2.5,0.3,3.5,0.8c1,0.6,2.1,1.5,3.1,2.7l14.1,17.3L1191.3,681L1191.3,681z"/>
		<path fill="#01ADFE" d="M1223.8,687c-1.6,0-2.8-0.2-3.9-0.6c-1-0.4-2-1-2.8-1.8c-1.7-1.8-2.5-3.7-2.5-5.9c0-1.6,0.4-3,1.3-4.4
			c0.9-1.4,2-2.4,3.3-3c0.5-0.2,0.9-0.4,1.3-0.5c0.4-0.1,0.9-0.2,1.5-0.2c0.6-0.1,1.5-0.1,2.5-0.1c1,0,2.5,0,4.2,0h17.8
			c1.2,0,2.2,0,2.9,0c0.7,0,1.2,0,1.6,0c0.4,0,0.7,0,0.8,0c0.2,0,0.4,0.1,0.7,0.1c2.1,0.3,3.9,1.2,5.2,2.7c1.3,1.5,2,3.3,2,5.4
			c0,1.2-0.3,2.3-0.8,3.5c-0.5,1.1-1.2,2.1-2.1,2.9c-1.4,1.3-3.7,1.9-6.8,1.9h-3.9v26.7c0,1.6-0.1,2.9-0.3,3.9c-0.2,1-0.6,2-1.2,2.9
			c-0.8,1.3-1.8,2.3-3.1,3c-1.3,0.7-2.7,1-4.2,1c-1.5,0-2.9-0.3-4.1-1c-1.3-0.6-2.3-1.6-3.2-2.7c-0.6-0.9-1-1.8-1.2-2.8
			c-0.2-1-0.3-2.4-0.3-4.2V687L1223.8,687L1223.8,687z"/>
		<path fill="#01ADFE" d="M1283.2,714.3c0,1.7-0.2,3.1-0.5,4.2c-0.3,1.1-0.9,2.1-1.7,3c-0.9,0.9-1.9,1.6-3.1,2.2
			c-1.2,0.5-2.4,0.8-3.5,0.8c-1.2,0-2.4-0.3-3.7-0.8c-1.2-0.5-2.2-1.2-2.9-2c-0.9-0.9-1.4-1.9-1.8-3c-0.3-1.1-0.5-2.5-0.5-4.4v-33.2
			c0-1.1,0-2.1,0.1-2.9c0.1-0.8,0.2-1.5,0.3-2.1c0.2-0.6,0.4-1.1,0.7-1.6c0.3-0.5,0.7-1,1.2-1.5c1.7-1.9,3.8-2.9,6.5-2.9
			c2.7,0,4.9,0.9,6.6,2.8c0.9,1,1.5,2.1,1.8,3.2c0.3,1.1,0.5,2.8,0.5,5L1283.2,714.3L1283.2,714.3z"/>
		<path fill="#01ADFE" d="M1310.1,725.5c-2.8,0-5.5-0.3-8-1c-2.5-0.7-4.6-1.7-6.4-2.9c-1.8-1.2-3.2-2.7-4.3-4.3
			c-1-1.6-1.5-3.4-1.5-5.3c0-1.1,0.2-2.2,0.6-3.1c0.4-1,1-1.8,1.7-2.5c0.7-0.7,1.6-1.3,2.6-1.7s2-0.6,3.2-0.6c1.1,0,2.1,0.2,3.1,0.6
			s2,1.1,3.2,2c1,0.8,1.7,1.3,2.3,1.8c0.6,0.4,1.1,0.8,1.4,1c0.4,0.2,0.7,0.4,1,0.4c0.3,0.1,0.6,0.1,0.9,0.1c0.7,0,1.2-0.2,1.6-0.6
			c0.4-0.4,0.6-1,0.6-1.7c0-0.9-0.5-1.7-1.4-2.2c-0.1-0.1-0.2-0.1-0.4-0.2c-0.1-0.1-0.3-0.2-0.6-0.3c-0.2-0.1-0.6-0.2-1-0.4
			s-1-0.4-1.6-0.6c-0.8-0.3-1.5-0.5-2.2-0.8s-1.4-0.5-2.2-0.8c-7.8-2.7-11.6-7.8-11.6-15.3c0-2.6,0.5-5,1.4-7.1c1-2.1,2.3-4,4-5.5
			c1.7-1.6,3.8-2.8,6.2-3.6c2.4-0.9,5.1-1.3,8-1.3c2.4,0,4.7,0.3,6.7,0.9c2.1,0.6,3.9,1.4,5.5,2.5c1.6,1,2.8,2.3,3.7,3.7
			c0.9,1.4,1.3,3,1.3,4.6c0,2.1-0.6,3.9-1.9,5.3s-2.9,2-5,2c-1.2,0-2.4-0.2-3.5-0.7c-1.1-0.5-2.4-1.2-3.9-2.4
			c-0.9-0.8-1.6-1.3-2.2-1.5c-0.5-0.3-1-0.4-1.5-0.4c-0.6,0-1.1,0.2-1.5,0.6c-0.4,0.4-0.6,0.9-0.6,1.5c0,0.8,0.4,1.4,1.1,1.9
			c0.7,0.5,2.1,1.1,4.2,1.8c2.3,0.7,4.5,1.5,6.5,2.5c2,1,3.7,2,4.9,3.1c1.7,1.4,3,3.2,3.9,5.4c1,2.2,1.4,4.6,1.4,7.2
			c0,2.4-0.4,4.7-1.3,6.9c-0.9,2.2-2.1,4.2-3.7,5.8c-1.8,1.8-3.9,3.2-6.4,4.1C1316.3,725,1313.4,725.5,1310.1,725.5z"/>
		<path fill="#01ADFE" d="M1342.1,687c-1.6,0-2.9-0.2-3.9-0.6c-1-0.4-2-1-2.8-1.8c-1.7-1.8-2.5-3.7-2.5-5.9c0-1.6,0.4-3,1.3-4.4
			c0.9-1.4,2-2.4,3.3-3c0.5-0.2,0.9-0.4,1.3-0.5c0.4-0.1,0.9-0.2,1.5-0.2c0.6-0.1,1.5-0.1,2.5-0.1c1,0,2.4,0,4.2,0h17.8
			c1.2,0,2.2,0,2.9,0c0.7,0,1.2,0,1.6,0c0.4,0,0.7,0,0.8,0c0.2,0,0.4,0.1,0.7,0.1c2.1,0.3,3.9,1.2,5.2,2.7c1.3,1.5,2,3.3,2,5.4
			c0,1.2-0.3,2.3-0.8,3.5c-0.5,1.1-1.2,2.1-2.1,2.9c-1.4,1.3-3.7,1.9-6.8,1.9h-3.9v26.7c0,1.6-0.1,2.9-0.3,3.9c-0.2,1-0.6,2-1.2,2.9
			c-0.8,1.3-1.8,2.3-3.1,3c-1.3,0.7-2.7,1-4.2,1c-1.5,0-2.9-0.3-4.1-1s-2.3-1.6-3.2-2.7c-0.6-0.9-1-1.8-1.2-2.8
			c-0.2-1-0.3-2.4-0.3-4.2V687L1342.1,687L1342.1,687z"/>
	</g>
</g>
</svg>
