<?xml version="1.0" encoding="utf-8"?>
<!-- Generator: Adobe Illustrator 16.0.0, SVG Export Plug-In . SVG Version: 6.00 Build 0)  -->
<!DOCTYPE svg PUBLIC "-//W3C//DTD SVG 1.1//EN" "http://www.w3.org/Graphics/SVG/1.1/DTD/svg11.dtd">
<svg version="1.1" id="webpage_x5F_cover" xmlns="http://www.w3.org/2000/svg" xmlns:xlink="http://www.w3.org/1999/xlink" x="0px"
	 y="0px" width="1578px" height="650px" viewBox="-289.5 166.5 1578 650" enable-background="new -289.5 166.5 1578 650"
	 xml:space="preserve">
<path id="symbols" fill="#101B2D" d="M803.33,525.92c1.668,0.781,2.865,1.51,3.646,2.188c0.781,0.676,1.406,1.51,1.875,2.551
	c0.938,2.031,0.938,4.168-0.104,6.303c-1.043,2.24-2.656,3.594-4.844,4.166c-0.521,0.156-1.043,0.209-1.512,0.262
	c-0.469,0-0.988,0-1.562-0.156c-0.572-0.156-1.145-0.312-1.77-0.521c-0.625-0.26-1.406-0.572-2.24-0.99l-7.553-3.594
	c-0.885-0.416-1.613-0.781-2.188-1.094c-0.572-0.312-1.041-0.572-1.457-0.781c-0.418-0.207-0.73-0.469-1.043-0.676
	c-0.26-0.262-0.572-0.521-0.781-0.834c-1.926-2.135-2.551-4.635-1.822-7.604c0.104-0.312,0.156-0.574,0.26-0.781
	c0.053-0.209,0.156-0.521,0.312-0.834c0.105-0.312,0.312-0.729,0.521-1.197c0.26-0.521,0.572-1.199,0.938-2.031l17.969-37.865
	c0.469-0.99,0.834-1.771,1.146-2.344s0.572-1.094,0.781-1.459c0.207-0.363,0.416-0.676,0.625-0.938
	c0.207-0.207,0.469-0.52,0.832-0.781c1.615-1.458,3.438-2.134,5.574-2.031c0.52,0,0.938,0.053,1.301,0.104
	c0.365,0.052,0.781,0.156,1.25,0.312s1.043,0.417,1.719,0.677c0.678,0.312,1.562,0.73,2.709,1.25l4.74,2.24
	c1.094,0.521,1.979,0.938,2.656,1.25c0.625,0.312,1.145,0.572,1.562,0.781c0.363,0.209,0.676,0.416,0.885,0.572
	s0.416,0.312,0.678,0.521c1.406,1.25,2.291,2.656,2.656,4.219c0.363,1.615,0.207,3.178-0.521,4.688c-1.094,2.291-2.76,3.697-5,4.271
	c-0.99,0.26-1.979,0.312-3.021,0.156c-1.041-0.156-2.238-0.574-3.594-1.25l-3.75-1.771l-14.947,31.509L803.33,525.92z
	 M410.361,623.836c1.615,0.156,2.969,0.416,3.959,0.834c1.041,0.416,1.927,1.041,2.708,1.875c0.781,0.885,1.406,1.926,1.823,3.072
	c0.416,1.146,0.572,2.291,0.469,3.438c-0.104,1.197-0.417,2.291-0.99,3.438c-0.572,1.094-1.302,1.979-2.188,2.656
	c-0.938,0.729-1.927,1.25-2.969,1.459c-1.041,0.207-2.447,0.26-4.271,0.104l-31.614-2.604c-1.094-0.105-1.979-0.209-2.761-0.312
	c-0.781-0.105-1.406-0.262-1.979-0.469c-0.572-0.209-1.041-0.469-1.51-0.781s-0.886-0.73-1.303-1.25
	c-1.719-1.719-2.447-3.855-2.239-6.406c0.208-2.553,1.302-4.584,3.177-6.043c1.042-0.781,2.084-1.301,3.229-1.51
	c1.094-0.209,2.708-0.26,4.792-0.053L410.361,623.836z M278.903,358.628l-15.938-30.99l-3.698,1.875
	c-1.354,0.677-2.552,1.146-3.594,1.354c-1.041,0.208-2.031,0.208-3.021-0.052c-2.292-0.521-3.958-1.875-5.104-4.115
	c-0.781-1.51-0.989-3.073-0.677-4.688s1.146-3.021,2.552-4.323c0.261-0.208,0.469-0.365,0.678-0.521
	c0.208-0.156,0.521-0.365,0.885-0.573c0.365-0.208,0.886-0.521,1.511-0.833s1.511-0.781,2.604-1.354l4.635-2.396
	c1.094-0.573,1.979-0.99,2.656-1.302c0.678-0.312,1.25-0.573,1.667-0.729c0.469-0.156,0.886-0.312,1.25-0.365
	c0.364-0.052,0.781-0.104,1.302-0.156c2.084-0.156,3.959,0.469,5.625,1.875c0.312,0.312,0.625,0.573,0.834,0.781
	c0.208,0.208,0.469,0.521,0.677,0.886c0.208,0.364,0.521,0.833,0.833,1.458c0.312,0.573,0.729,1.354,1.25,2.292l19.167,37.292
	c0.416,0.833,0.781,1.458,1.041,1.979c0.262,0.469,0.418,0.833,0.574,1.198c0.156,0.312,0.26,0.625,0.312,0.833
	c0.104,0.208,0.156,0.469,0.26,0.781c0.834,2.917,0.26,5.469-1.615,7.656c-0.26,0.312-0.52,0.573-0.781,0.833
	c-0.26,0.26-0.625,0.521-0.989,0.729c-0.416,0.208-0.885,0.521-1.458,0.833s-1.25,0.677-2.136,1.146l-7.447,3.802
	c-0.834,0.417-1.562,0.781-2.188,1.042c-0.625,0.26-1.25,0.469-1.771,0.625c-0.521,0.156-1.041,0.208-1.562,0.208
	c-0.469,0-0.989-0.052-1.51-0.208c-2.188-0.469-3.854-1.823-5-4.011c-1.094-2.135-1.198-4.219-0.312-6.302
	c0.469-1.042,1.041-1.927,1.822-2.604c0.781-0.729,1.979-1.458,3.594-2.344L278.903,358.628z M371.403,353.368
	c-1.406,1.406-2.656,2.5-3.698,3.229c-1.041,0.729-2.239,1.354-3.646,1.875c-2.448,0.938-4.896,1.406-7.448,1.302
	c-2.5-0.052-4.896-0.573-7.135-1.51c-2.24-0.938-4.219-2.292-5.938-4.01s-3.073-3.75-4.011-6.146
	c-0.364-0.885-0.625-1.771-0.833-2.604c-0.209-0.833-0.261-1.667-0.209-2.552c0.053-0.885,0.209-1.771,0.417-2.76
	c0.208-0.99,0.573-2.083,0.989-3.333c-0.885-0.521-1.614-1.042-2.239-1.562s-1.146-0.99-1.614-1.51
	c-0.469-0.521-0.886-1.042-1.198-1.615s-0.625-1.198-0.886-1.823c-0.833-2.083-1.146-4.271-0.938-6.511
	c0.156-2.239,0.781-4.375,1.771-6.354c0.989-2.031,2.344-3.854,4.114-5.469c1.719-1.615,3.75-2.917,6.042-3.802
	c2.031-0.781,4.219-1.198,6.458-1.25c2.292-0.052,4.427,0.261,6.406,0.938c2.031,0.625,3.802,1.615,5.364,2.812
	c1.562,1.25,2.656,2.708,3.281,4.375c0.365,0.99,0.573,2.031,0.521,3.073c-0.053,1.042-0.312,2.083-0.729,3.073
	c-0.469,0.99-1.042,1.823-1.823,2.552c-0.781,0.729-1.719,1.302-2.76,1.719c-1.511,0.573-2.917,0.781-4.167,0.521
	c-1.25-0.208-2.656-0.938-4.271-2.031c-0.469-0.364-0.886-0.573-1.198-0.625c-0.312-0.052-0.677,0-1.042,0.104
	c-0.572,0.208-0.989,0.625-1.25,1.198c-0.26,0.573-0.26,1.146-0.052,1.719s0.521,0.938,0.938,1.146
	c0.417,0.208,1.146,0.312,2.188,0.364c1.354,0.104,2.396,0.417,3.177,0.99s1.406,1.562,1.979,2.917
	c0.833,2.083,0.573,3.802-0.729,5.052l-2.135,2.083c-0.312,0.208-0.469,0.573-0.521,1.042c-0.052,0.469,0.053,0.938,0.261,1.458
	c0.208,0.573,0.625,0.989,1.198,1.25c0.572,0.26,1.146,0.312,1.719,0.052c1.146-0.469,1.927-1.51,2.344-3.229l1.354-5.625
	c0.209-0.99,0.834-2.031,1.823-3.073c0.989-1.042,2.031-1.771,3.125-2.188c0.989-0.365,2.083-0.573,3.229-0.521
	c1.146,0,2.188,0.208,3.177,0.625c0.989,0.365,1.875,0.938,2.656,1.615c0.781,0.677,1.354,1.458,1.719,2.396
	c0.469,1.198,0.625,2.865,0.469,5.104c1.406,0.729,2.396,1.406,3.125,2.083c0.677,0.677,1.25,1.511,1.614,2.5
	c0.417,1.042,0.573,2.136,0.521,3.229c-0.053,1.094-0.312,2.135-0.781,3.125c-0.469,0.989-1.042,1.875-1.875,2.656
	c-0.834,0.781-1.771,1.406-2.812,1.771c-0.834,0.312-1.719,0.521-2.604,0.573C374.06,353.836,372.914,353.68,371.403,353.368z
	 M415.205,336.336c-1.406,1.406-2.656,2.5-3.697,3.229c-1.042,0.729-2.24,1.354-3.646,1.875c-2.447,0.938-4.896,1.406-7.447,1.302
	c-2.5-0.052-4.896-0.573-7.136-1.51s-4.219-2.292-5.938-4.01s-3.073-3.75-4.011-6.146c-0.364-0.885-0.625-1.771-0.833-2.604
	c-0.208-0.833-0.261-1.667-0.208-2.552c0.052-0.885,0.208-1.771,0.416-2.76c0.209-0.99,0.573-2.083,0.99-3.333
	c-0.886-0.521-1.615-1.042-2.24-1.562s-1.146-0.99-1.614-1.51c-0.469-0.521-0.886-1.042-1.198-1.615s-0.625-1.198-0.885-1.823
	c-0.834-2.083-1.146-4.271-0.938-6.511c0.156-2.239,0.781-4.375,1.771-6.354c0.989-2.031,2.344-3.854,4.114-5.469
	c1.719-1.615,3.75-2.917,6.042-3.802c2.031-0.781,4.219-1.198,6.458-1.25c2.292-0.052,4.428,0.261,6.406,0.938
	c2.031,0.625,3.803,1.615,5.365,2.812c1.562,1.25,2.656,2.708,3.281,4.375c0.364,0.99,0.572,2.031,0.521,3.073
	c-0.052,1.042-0.312,2.083-0.729,3.073c-0.469,0.99-1.041,1.823-1.822,2.552c-0.781,0.729-1.719,1.302-2.761,1.719
	c-1.511,0.573-2.917,0.781-4.167,0.521c-1.25-0.208-2.656-0.938-4.271-2.031c-0.469-0.364-0.886-0.573-1.198-0.625
	c-0.312-0.052-0.677,0-1.041,0.104c-0.573,0.208-0.99,0.625-1.25,1.198c-0.261,0.573-0.261,1.146-0.053,1.719
	c0.209,0.573,0.521,0.938,0.938,1.146c0.417,0.208,1.146,0.312,2.188,0.364c1.354,0.104,2.396,0.417,3.178,0.99
	s1.406,1.562,1.979,2.917c0.834,2.083,0.573,3.802-0.729,5.052l-2.136,2.083c-0.312,0.208-0.469,0.573-0.521,1.042
	c-0.053,0.469,0.052,0.938,0.26,1.458c0.209,0.573,0.625,0.989,1.198,1.25c0.573,0.26,1.146,0.312,1.719,0.052
	c1.146-0.469,1.927-1.51,2.344-3.229l1.354-5.625c0.208-0.99,0.833-2.031,1.822-3.073c0.99-1.042,2.031-1.771,3.125-2.188
	c0.99-0.365,2.084-0.573,3.229-0.521s2.188,0.208,3.177,0.625c0.99,0.365,1.875,0.938,2.656,1.615
	c0.781,0.677,1.354,1.458,1.719,2.396c0.469,1.198,0.625,2.865,0.469,5.104c1.406,0.729,2.396,1.406,3.125,2.083
	c0.678,0.677,1.25,1.511,1.615,2.5c0.416,1.042,0.572,2.136,0.521,3.229s-0.312,2.135-0.781,3.125
	c-0.417,0.989-1.042,1.875-1.875,2.656s-1.771,1.406-2.812,1.771c-0.833,0.312-1.719,0.521-2.604,0.573
	C417.861,336.805,416.664,336.649,415.205,336.336z M869.945,503.732c-0.625,1.51-1.303,2.707-2.031,3.541s-1.615,1.51-2.656,2.031
	c-1.094,0.469-2.24,0.729-3.49,0.781s-2.395-0.156-3.438-0.572c-1.094-0.469-2.082-1.146-2.916-2.031
	c-0.834-0.887-1.51-1.875-1.822-2.865c-0.418-1.094-0.574-2.188-0.469-3.281c0.104-1.041,0.52-2.396,1.197-4.062l12.24-29.271
	c0.416-0.989,0.781-1.822,1.145-2.5c0.365-0.677,0.678-1.25,1.043-1.719c0.363-0.469,0.781-0.885,1.197-1.197
	c0.469-0.365,0.99-0.625,1.562-0.886c2.188-1.094,4.428-1.146,6.822-0.156c2.344,0.989,3.959,2.604,4.793,4.896
	c0.416,1.25,0.572,2.396,0.469,3.49c-0.156,1.094-0.625,2.656-1.406,4.583L869.945,503.732z M900.57,516.545
	c-0.625,1.51-1.303,2.707-2.031,3.541s-1.615,1.51-2.656,2.031c-1.094,0.469-2.24,0.729-3.49,0.781s-2.395-0.156-3.438-0.572
	c-1.094-0.469-2.082-1.146-2.969-2.031c-0.885-0.887-1.51-1.875-1.822-2.865c-0.416-1.094-0.572-2.188-0.469-3.281
	c0.104-1.041,0.521-2.396,1.197-4.062l12.24-29.271c0.416-0.988,0.781-1.822,1.146-2.5c0.363-0.676,0.676-1.25,1.041-1.719
	c0.365-0.468,0.781-0.884,1.197-1.197c0.469-0.365,0.99-0.625,1.562-0.886c2.188-1.094,4.428-1.146,6.824-0.156
	c2.344,0.989,3.957,2.604,4.791,4.895c0.416,1.25,0.572,2.396,0.469,3.49c-0.156,1.094-0.625,2.656-1.406,4.584L900.57,516.545z
	 M527.914,298.107c1.197,0.781,2.084,1.719,2.709,2.865c0.625,1.146,0.938,2.396,0.938,3.698c0,1.042-0.209,1.979-0.678,2.917
	c-0.416,0.938-0.99,1.719-1.666,2.396c-0.678,0.677-1.512,1.25-2.449,1.667c-0.938,0.417-1.926,0.677-2.863,0.677
	c-0.99,0-1.928-0.208-2.812-0.625c-0.887-0.417-1.668-0.938-2.396-1.562c-0.678-0.625-1.25-1.406-1.666-2.24
	c-0.418-0.833-0.678-1.719-0.678-2.656c0-1.823,0.678-4.01,1.979-6.51l1.615-3.073c0.99-1.771,1.822-3.073,2.604-3.802
	s1.668-1.094,2.709-1.094s1.928,0.312,2.656,0.938s1.094,1.406,1.094,2.24c0,0.781-0.26,1.823-0.834,3.229
	c-0.051,0.104-0.104,0.208-0.104,0.365C528.07,297.795,528.018,297.951,527.914,298.107z M546.664,298.107
	c1.197,0.781,2.084,1.719,2.709,2.865c0.625,1.146,0.938,2.396,0.938,3.698c0,1.042-0.209,1.979-0.678,2.917
	c-0.416,0.938-0.99,1.719-1.719,2.396s-1.51,1.25-2.447,1.667c-0.938,0.417-1.875,0.677-2.918,0.677
	c-0.938,0-1.822-0.208-2.707-0.625c-0.887-0.417-1.668-0.938-2.396-1.562c-0.678-0.625-1.25-1.406-1.666-2.24
	c-0.418-0.833-0.678-1.719-0.678-2.656c0-1.823,0.678-4.01,1.979-6.51l1.615-3.073c0.938-1.771,1.771-3.073,2.553-3.802
	s1.719-1.094,2.707-1.094c1.043,0,1.928,0.312,2.656,0.938c0.73,0.625,1.094,1.406,1.094,2.24c0,0.781-0.26,1.823-0.832,3.229
	c-0.053,0.104-0.105,0.208-0.105,0.365C546.82,297.795,546.768,297.951,546.664,298.107z M157.497,485.971
	c-1.197-0.781-2.084-1.719-2.709-2.863c-0.625-1.146-0.938-2.396-0.938-3.699c0-0.988,0.209-1.926,0.678-2.863
	c0.416-0.938,0.99-1.771,1.666-2.449c0.678-0.677,1.512-1.25,2.396-1.666c0.938-0.417,1.875-0.678,2.916-0.678
	c0.99,0,1.928,0.209,2.812,0.625c0.887,0.417,1.668,0.938,2.396,1.562c0.678,0.625,1.25,1.406,1.666,2.24
	c0.418,0.833,0.678,1.718,0.678,2.656c0,0.885-0.156,1.875-0.521,2.969c-0.312,1.146-0.832,2.291-1.51,3.541l-1.615,2.969
	c-0.988,1.824-1.822,3.125-2.604,3.855c-0.781,0.729-1.666,1.094-2.709,1.094c-1.041,0-1.926-0.312-2.656-0.99
	c-0.729-0.678-1.094-1.459-1.094-2.291c0-0.781,0.262-1.824,0.834-3.23c0.053-0.104,0.104-0.207,0.104-0.363
	C157.341,486.284,157.394,486.127,157.497,485.971z M176.247,485.971c-1.197-0.781-2.084-1.719-2.709-2.863
	c-0.625-1.146-0.938-2.396-0.938-3.699c0-0.988,0.209-1.926,0.678-2.863c0.416-0.938,0.99-1.771,1.666-2.449
	c0.678-0.677,1.512-1.25,2.396-1.666c0.938-0.417,1.875-0.678,2.916-0.678c0.99,0,1.928,0.209,2.812,0.625
	c0.887,0.417,1.668,0.938,2.396,1.562c0.678,0.625,1.25,1.406,1.666,2.24c0.418,0.833,0.678,1.718,0.678,2.656
	c0,0.885-0.156,1.875-0.521,2.969c-0.363,1.146-0.885,2.291-1.51,3.541l-1.51,2.969c-0.99,1.824-1.824,3.125-2.605,3.855
	c-0.781,0.729-1.666,1.094-2.707,1.094c-1.043,0-1.928-0.312-2.709-0.99s-1.146-1.459-1.146-2.291c0-0.365,0.105-0.834,0.262-1.406
	c0.156-0.574,0.416-1.199,0.676-1.824c0.053-0.104,0.105-0.207,0.105-0.363C176.091,486.284,176.144,486.127,176.247,485.971z
	 M658.799,302.743c1.824-3.177,4.375-4.739,7.5-4.739c2.24,0,4.115,0.781,5.625,2.292c1.459,1.51,2.24,3.49,2.24,5.833
	c0,1.354-0.625,3.021-1.822,5.052l-25.053,42.292c-0.729,1.198-1.406,2.188-1.979,2.969c-0.625,0.833-1.25,1.458-1.928,1.979
	c-0.678,0.469-1.354,0.833-2.082,1.042c-0.73,0.208-1.512,0.312-2.449,0.312c-2.188,0-4.01-0.781-5.469-2.239
	c-1.457-1.511-2.135-3.386-2.135-5.625c0-1.615,0.416-3.177,1.303-4.583L658.799,302.743z M794.008,618.107
	c0.885,1.457,1.303,2.969,1.303,4.582c0,2.24-0.73,4.115-2.137,5.625c-1.406,1.512-3.229,2.24-5.469,2.24
	c-0.938,0-1.719-0.104-2.447-0.312s-1.406-0.572-2.084-1.041c-0.676-0.469-1.301-1.146-1.926-1.98
	c-0.625-0.832-1.303-1.822-1.98-2.969l-25.051-42.291c-1.25-2.031-1.824-3.75-1.824-5.053c0-2.344,0.73-4.322,2.24-5.832
	c1.512-1.512,3.334-2.293,5.625-2.293c3.178,0,5.678,1.562,7.5,4.74L794.008,618.107z M773.592,358.42
	c0.572-0.938,1.25-1.667,2.135-2.292c0.834-0.625,1.771-1.042,2.76-1.302c0.99-0.26,2.031-0.312,3.074-0.156
	c1.041,0.156,2.031,0.521,3.02,1.094c0.938,0.573,1.719,1.302,2.344,2.188s1.094,1.823,1.303,2.812
	c0.26,0.99,0.312,2.031,0.156,3.125s-0.469,2.083-1.041,3.021c-0.574,0.938-1.25,1.667-2.137,2.292
	c-0.885,0.625-1.822,1.042-2.812,1.302c-0.988,0.26-2.031,0.312-3.125,0.156s-2.082-0.521-2.969-1.094
	c-0.988-0.573-1.77-1.302-2.395-2.188c-0.625-0.833-1.043-1.771-1.303-2.812c-0.209-0.99-0.26-2.031-0.104-3.073
	C772.602,360.399,772.967,359.41,773.592,358.42z M761.508,378.316c1.146-1.927,2.812-3.125,4.896-3.646
	c2.135-0.521,4.113-0.208,6.094,0.99c0.938,0.573,1.719,1.25,2.344,2.135s1.094,1.823,1.301,2.812
	c0.209,0.99,0.262,2.031,0.156,3.073c-0.156,1.042-0.469,2.031-1.041,2.969c-0.572,0.99-1.303,1.771-2.188,2.344
	c-0.885,0.625-1.822,1.042-2.812,1.302s-2.031,0.312-3.125,0.156s-2.084-0.521-2.969-1.094c-0.99-0.573-1.771-1.302-2.396-2.188
	c-0.625-0.833-1.041-1.771-1.301-2.812c-0.209-0.99-0.262-2.031-0.105-3.073C760.57,380.295,760.936,379.305,761.508,378.316z
	 M511.717,633.523c-0.834-0.678-1.512-1.459-2.031-2.396c-0.521-0.938-0.834-1.875-0.99-2.916c-0.104-1.041-0.053-2.084,0.209-3.072
	c0.26-1.043,0.781-1.98,1.457-2.865c0.678-0.834,1.459-1.51,2.449-2.031c0.938-0.521,1.926-0.834,2.916-0.99
	c0.99-0.104,2.031-0.051,3.072,0.209c1.043,0.26,2.031,0.729,2.865,1.406s1.51,1.459,2.031,2.396s0.834,1.926,0.99,2.916
	c0.156,1.041,0.051,2.031-0.209,3.072c-0.312,1.043-0.781,1.98-1.406,2.812c-0.678,0.887-1.51,1.615-2.396,2.084
	c-0.938,0.521-1.926,0.834-2.916,0.99c-1.041,0.156-2.084,0.051-3.072-0.209C513.539,634.721,512.602,634.201,511.717,633.523z
	 M537.445,649.305c-1.771,0.312-3.178,0.312-4.219,0.104c-1.041-0.207-2.084-0.729-3.125-1.562
	c-1.822-1.406-2.865-3.229-3.178-5.363c-0.312-2.188,0.262-4.168,1.668-5.99c0.676-0.834,1.457-1.51,2.395-2.031
	s1.928-0.834,2.969-0.938c1.043-0.104,2.084-0.053,3.125,0.26c1.043,0.312,1.98,0.781,2.918,1.459
	c0.469,0.365,0.885,0.834,1.354,1.406s0.885,1.25,1.25,1.979l3.021,6.043c1.354,2.863,1.354,5.156,0.051,6.822
	c-0.729,0.938-1.666,1.51-2.812,1.771c-1.145,0.26-2.135,0.051-2.969-0.574c-0.416-0.312-0.781-0.729-1.145-1.25
	C538.436,650.92,537.967,650.189,537.445,649.305z M720.518,345.66c0.73,1.823,1.771,3.542,3.125,5.208
	c1.355,1.667,2.812,3.021,4.428,4.062c0.834,0.573,1.822,1.146,2.865,1.615c1.041,0.469,2.395,0.99,4.062,1.51
	c1.979,0.625,3.438,1.354,4.426,2.136c0.99,0.781,1.771,1.875,2.344,3.229c0.418,0.99,0.625,2.031,0.574,3.125
	c0,1.094-0.262,2.135-0.678,3.125s-0.99,1.875-1.771,2.656s-1.613,1.354-2.604,1.771c-1.822,0.781-4.166,0.833-7.031,0.26
	c-2.812-0.573-5.781-1.823-8.854-3.698c-7.812-4.688-13.334-10.886-16.512-18.594c-2.031-4.948-3.02-10.156-2.863-15.573
	c0.156-5.417,1.354-10.521,3.645-15.26c1.98-4.062,4.115-6.562,6.406-7.552c1.043-0.417,2.137-0.625,3.23-0.625
	s2.188,0.208,3.176,0.625c0.99,0.417,1.928,0.99,2.709,1.771c0.834,0.781,1.459,1.667,1.875,2.708
	c0.572,1.406,0.781,2.917,0.625,4.479c-0.053,0.312-0.104,0.521-0.104,0.729c-0.053,0.156-0.156,0.469-0.312,0.781
	c-0.156,0.365-0.418,0.833-0.73,1.511c-0.312,0.677-0.781,1.562-1.354,2.76c-1.406,2.552-2.135,5.365-2.24,8.438
	C718.852,339.93,719.373,342.899,720.518,345.66z M470.57,330.607c-1.094-2.865-2.709-5.26-4.844-7.24
	c-0.938-0.938-1.667-1.667-2.188-2.135c-0.521-0.521-0.938-0.885-1.198-1.198c-0.261-0.261-0.469-0.469-0.521-0.625
	c-0.104-0.156-0.209-0.365-0.365-0.625c-0.677-1.406-0.989-2.917-0.885-4.427c0.052-1.146,0.364-2.188,0.885-3.177
	c0.521-0.989,1.198-1.875,1.979-2.604c0.833-0.729,1.719-1.25,2.761-1.667c1.041-0.365,2.135-0.521,3.281-0.469
	c2.5,0.156,5.364,1.823,8.541,5c3.698,3.75,6.562,8.177,8.438,13.229c1.928,5.052,2.709,10.312,2.448,15.677
	c-0.469,8.333-3.594,15.989-9.479,23.021c-2.291,2.812-4.688,4.948-7.188,6.406c-2.5,1.458-4.739,2.188-6.719,2.031
	c-1.094-0.052-2.083-0.312-3.072-0.833c-0.99-0.469-1.823-1.146-2.553-1.927c-0.729-0.833-1.25-1.719-1.666-2.76
	c-0.365-1.042-0.521-2.083-0.469-3.125c0.104-1.458,0.469-2.761,1.146-3.802s1.823-2.24,3.489-3.438
	c1.406-1.042,2.5-1.979,3.334-2.76c0.833-0.781,1.562-1.615,2.188-2.448c1.146-1.51,2.083-3.281,2.812-5.312
	c0.729-2.031,1.146-4.01,1.25-5.938C472.133,336.389,471.716,333.42,470.57,330.607z M91.194,452.326
	c0.156-0.573,0.418-1.146,0.834-1.719c0.416-0.521,0.885-1.042,1.406-1.458c0.521-0.417,1.094-0.781,1.719-1.042
	s1.197-0.364,1.822-0.364l4.115-0.104c1.041,0,1.719-0.469,2.031-1.406c0.209-0.521,0.156-1.042-0.104-1.614
	c-0.262-0.521-0.678-0.886-1.199-1.094c-0.676-0.261-1.51-0.053-2.5,0.572c-1.457,1.042-2.76,1.719-3.957,1.928
	c-1.146,0.26-2.5,0.104-4.012-0.469c-1.041-0.365-1.979-0.938-2.76-1.667s-1.406-1.562-1.875-2.5s-0.729-1.927-0.781-3.021
	s0.053-2.136,0.416-3.125c0.625-1.719,1.668-3.229,3.125-4.479c1.459-1.25,3.125-2.188,5.105-2.864
	c1.926-0.678,4.062-0.99,6.25-1.042c2.238,0,4.426,0.364,6.613,1.146c2.449,0.886,4.584,2.136,6.355,3.75
	c1.77,1.615,3.176,3.542,4.166,5.625c0.99,2.136,1.562,4.428,1.666,6.823c0.105,2.448-0.26,4.896-1.145,7.396
	c-1.668,4.688-4.584,7.969-8.75,9.948c-2.031,0.938-4.115,1.511-6.355,1.667c-2.188,0.156-4.27-0.156-6.25-0.834
	C91.769,460.607,89.788,457.222,91.194,452.326z M85.31,467.69c0.365-0.989,0.885-1.875,1.615-2.656
	c0.676-0.729,1.51-1.354,2.447-1.771s1.928-0.677,2.969-0.729c1.041-0.052,2.084,0.104,3.072,0.469
	c0.99,0.365,1.928,0.886,2.709,1.615c0.781,0.729,1.406,1.562,1.822,2.5c0.469,0.938,0.73,1.927,0.781,2.969
	c0.053,1.041-0.051,2.031-0.416,3.072c-0.365,1.042-0.938,1.979-1.615,2.761c-0.729,0.782-1.562,1.407-2.5,1.823
	c-0.938,0.469-1.926,0.729-3.02,0.781c-1.043,0.053-2.084-0.104-3.074-0.469c-2.188-0.781-3.697-2.135-4.582-4.115
	C84.632,471.909,84.581,469.878,85.31,467.69z M360.258,678.002c0-2.238,0.781-4.166,2.291-5.676
	c1.562-1.512,3.438-2.293,5.729-2.293c1.094,0,2.136,0.209,3.125,0.625c0.989,0.418,1.875,0.99,2.604,1.719
	c0.729,0.73,1.302,1.615,1.719,2.553c0.416,0.99,0.677,1.979,0.677,3.072c0,1.146-0.208,2.188-0.677,3.125
	c-0.417,0.99-1.042,1.824-1.719,2.553c-0.729,0.729-1.562,1.303-2.604,1.719c-0.989,0.416-2.031,0.625-3.125,0.625
	c-1.146,0-2.188-0.209-3.177-0.625c-0.99-0.416-1.823-0.99-2.553-1.719c-0.729-0.729-1.302-1.615-1.719-2.553
	C360.466,680.189,360.258,679.148,360.258,678.002z M132.757,524.877c1.615,0.312,2.865,0.781,3.855,1.303
	c0.938,0.521,1.77,1.25,2.5,2.188c0.676,0.99,1.145,2.084,1.457,3.281c0.262,1.197,0.312,2.344,0.053,3.438
	c-0.26,1.146-0.729,2.24-1.406,3.281c-0.729,1.041-1.562,1.822-2.5,2.344c-1.041,0.625-2.084,0.99-3.125,1.094
	s-2.447-0.053-4.219-0.416l-31.041-6.406c-1.043-0.209-1.928-0.418-2.709-0.625c-0.729-0.209-1.354-0.418-1.875-0.73
	c-0.521-0.26-0.99-0.572-1.406-0.938c-0.416-0.363-0.834-0.832-1.146-1.354c-1.457-1.928-1.979-4.166-1.457-6.666
	c0.52-2.5,1.822-4.375,3.906-5.625c1.145-0.678,2.238-1.043,3.385-1.094c1.094-0.105,2.709,0.104,4.74,0.52L132.757,524.877z
	 M128.069,547.533c1.615,0.312,2.865,0.781,3.855,1.303c0.938,0.521,1.77,1.25,2.5,2.188c0.676,0.99,1.145,2.084,1.457,3.281
	c0.262,1.197,0.312,2.344,0.053,3.438c-0.26,1.146-0.729,2.24-1.406,3.281c-0.729,1.041-1.562,1.822-2.5,2.344
	c-1.041,0.625-2.084,0.99-3.125,1.094s-2.447-0.053-4.219-0.416l-31.041-6.406c-1.043-0.209-1.928-0.418-2.709-0.625
	c-0.729-0.209-1.354-0.418-1.875-0.73c-0.521-0.26-0.99-0.572-1.406-0.938c-0.416-0.363-0.834-0.832-1.146-1.354
	c-1.457-1.928-1.979-4.166-1.457-6.666c0.52-2.5,1.822-4.375,3.906-5.625c1.145-0.678,2.238-1.043,3.385-1.094
	c1.094-0.105,2.709,0.104,4.74,0.52L128.069,547.533z M186.819,383.628c-0.051-1.25-0.363-2.396-0.885-3.49
	c-0.521-1.042-1.25-1.875-2.084-2.604c-0.832-0.677-2.031-1.354-3.594-1.927l-7.238-2.812l2.188-5.573
	c0.781-1.979,1.197-3.49,1.301-4.583c0.105-1.094-0.051-2.292-0.52-3.49c-0.887-2.239-2.5-3.854-4.896-4.792
	s-4.635-0.833-6.771,0.312c-0.572,0.26-1.094,0.573-1.562,0.938c-0.416,0.365-0.832,0.781-1.197,1.25s-0.678,1.042-0.99,1.771
	c-0.312,0.677-0.676,1.562-1.094,2.552l-2.188,5.573l-6.562-2.552c-1.979-0.781-3.488-1.198-4.582-1.302
	c-1.094-0.104-2.293,0.052-3.49,0.521c-2.24,0.885-3.854,2.5-4.791,4.896c-0.938,2.396-0.834,4.635,0.312,6.771
	c0.26,0.573,0.572,1.094,0.938,1.562c0.363,0.417,0.781,0.833,1.25,1.198c0.469,0.364,1.041,0.677,1.77,0.989
	c0.678,0.312,1.562,0.677,2.553,1.094l6.562,2.552l-3.281,8.177c-0.625,1.667-1.041,3.021-1.094,4.115
	c-0.104,1.041,0.104,2.135,0.521,3.281c0.363,1.041,0.988,1.979,1.875,2.864c0.885,0.886,1.875,1.511,2.969,1.927
	c1.041,0.417,2.188,0.573,3.438,0.521c1.25-0.053,2.395-0.365,3.488-0.886c1.043-0.521,1.875-1.25,2.605-2.083
	c0.676-0.834,1.354-2.031,1.926-3.594l3.178-8.229l7.24,2.812c1.666,0.625,3.02,1.042,4.113,1.094
	c1.043,0.104,2.137-0.104,3.281-0.521c1.043-0.364,1.98-0.989,2.865-1.927c0.885-0.886,1.51-1.875,1.928-2.969
	C186.716,385.972,186.872,384.826,186.819,383.628z M707.186,628.002c1.51-0.572,2.863-0.885,3.957-0.938
	c1.094-0.051,2.188,0.105,3.281,0.521c1.094,0.469,2.084,1.146,2.969,1.979c0.887,0.887,1.512,1.824,1.928,2.865
	c0.416,1.094,0.625,2.291,0.572,3.541c-0.051,1.25-0.312,2.344-0.832,3.334c-0.521,1.094-1.199,1.928-2.031,2.604
	c-0.834,0.625-2.137,1.303-3.803,1.928l-29.635,11.25c-0.99,0.365-1.875,0.678-2.605,0.885c-0.729,0.209-1.406,0.365-1.979,0.418
	c-0.572,0.051-1.146,0.051-1.719-0.053s-1.146-0.26-1.719-0.521c-2.291-0.832-3.906-2.447-4.791-4.844
	c-0.887-2.395-0.834-4.688,0.26-6.822c0.625-1.146,1.354-2.084,2.24-2.76c0.885-0.678,2.344-1.355,4.27-2.137L707.186,628.002z
	 M680.57,626.336c-0.781-2.084-0.729-4.166,0.156-6.146c0.885-1.979,2.396-3.385,4.531-4.166c0.99-0.365,2.031-0.572,3.125-0.521
	c1.094,0.053,2.084,0.262,3.021,0.678s1.77,1.041,2.551,1.771c0.73,0.729,1.303,1.613,1.719,2.656
	c0.418,1.041,0.574,2.135,0.521,3.176c-0.053,1.043-0.312,2.084-0.729,3.021c-0.418,0.938-0.99,1.771-1.824,2.553
	c-0.832,0.781-1.719,1.301-2.707,1.666c-1.043,0.416-2.137,0.572-3.178,0.572c-1.041-0.051-2.031-0.26-2.969-0.729
	c-0.938-0.416-1.771-1.041-2.5-1.822C681.561,628.314,680.986,627.377,680.57,626.336z M694.32,662.639
	c-0.781-2.084-0.729-4.168,0.156-6.146s2.396-3.385,4.531-4.166c0.99-0.365,2.031-0.574,3.125-0.521s2.084,0.26,3.021,0.678
	c0.938,0.416,1.77,1.041,2.551,1.77c0.73,0.73,1.303,1.615,1.719,2.656c0.418,1.043,0.574,2.137,0.521,3.178
	s-0.312,2.084-0.729,3.021c-0.418,0.938-0.99,1.77-1.824,2.551c-0.832,0.781-1.719,1.303-2.707,1.668
	c-1.043,0.416-2.137,0.572-3.178,0.52c-1.041-0.051-2.031-0.26-2.969-0.729c-0.938-0.416-1.77-1.041-2.5-1.822
	C695.311,664.617,694.736,663.68,694.32,662.639z M846.248,385.972c2.551-2.604,5.363-3.542,8.438-2.761
	c2.188,0.573,3.801,1.771,4.895,3.594c1.043,1.875,1.303,3.906,0.73,6.198c-0.312,1.303-1.355,2.761-3.021,4.479l-34.584,34.896
	c-0.988,0.99-1.875,1.771-2.656,2.396s-1.562,1.146-2.344,1.406c-0.781,0.312-1.51,0.469-2.238,0.521
	c-0.73,0-1.562-0.052-2.449-0.312c-2.135-0.521-3.697-1.719-4.738-3.542c-1.043-1.822-1.25-3.802-0.73-5.989
	c0.418-1.562,1.199-2.969,2.396-4.167L846.248,385.972z M808.799,392.482c0-2.24,0.781-4.167,2.293-5.677
	c1.562-1.51,3.438-2.292,5.729-2.292c1.094,0,2.135,0.208,3.125,0.625s1.875,0.99,2.604,1.719c0.73,0.729,1.303,1.615,1.719,2.552
	c0.418,0.989,0.678,1.979,0.678,3.073c0,1.146-0.209,2.188-0.678,3.125c-0.416,0.989-1.041,1.823-1.719,2.552
	c-0.729,0.729-1.562,1.303-2.604,1.719c-0.99,0.417-2.031,0.625-3.125,0.625c-1.146,0-2.188-0.208-3.178-0.625
	c-0.988-0.416-1.822-0.989-2.551-1.719c-0.73-0.729-1.303-1.614-1.719-2.552C809.008,394.67,808.799,393.576,808.799,392.482z
	 M842.967,427.17c0-2.239,0.781-4.167,2.291-5.677c1.562-1.511,3.438-2.292,5.729-2.292c1.094,0,2.137,0.208,3.125,0.625
	c0.99,0.417,1.875,0.989,2.605,1.719c0.729,0.729,1.301,1.614,1.719,2.552c0.416,0.99,0.676,1.979,0.676,3.073
	c0,1.146-0.207,2.188-0.676,3.125c-0.418,0.989-1.043,1.823-1.719,2.552c-0.73,0.729-1.562,1.303-2.605,1.719
	c-0.988,0.417-2.031,0.625-3.125,0.625c-1.145,0-2.188-0.208-3.176-0.625c-0.99-0.416-1.824-0.989-2.553-1.719
	c-0.729-0.729-1.303-1.614-1.719-2.552C843.174,429.306,842.967,428.264,842.967,427.17z M240.414,500.814
	c-2.917-0.676-5.886-1.301-8.854-1.301c-4.011,0.051-7.604,1.613-10.573,4.166c-3.333,2.865-4.114,7.135-5.052,11.197
	c-0.312,1.25-0.573,2.553-0.886,3.803c-0.052,0.156-0.104,0.365-0.104,0.521c-0.053,0.104-0.104,0.207-0.156,0.312l-0.053,0.051
	c-0.052,0.053-0.052,0.053-0.104,0.053c-0.053,0.053-0.104,0.053-0.156,0.104c-0.209,0.105-0.469,0.156-0.729,0.209
	c-7.604,1.406-9.844,11.041-3.542,15.625c0.156,0.104,0.312,0.26,0.417,0.416c0.052,0.053,0.052,0.053,0.104,0.105
	c0.052,0.104,0.104,0.156,0.156,0.26v0.053c0,0.26-0.053,0.52-0.104,0.729c-0.312,1.25-0.573,2.553-0.886,3.803
	c-0.938,4.062-2.083,8.385-0.312,12.447c1.562,3.646,3.959,6.146,7.396,8.178c2.5,1.457,5.469,2.082,8.281,2.707
	c4.583,1.043,9.322-1.926,10.364-6.51s-1.927-9.271-6.511-10.365c-0.938-0.207-1.927-0.469-2.864-0.676
	c0.417-1.875,0.938-3.75,1.354-5.574c0.781-3.385,0.625-6.77-0.312-9.895c2.188-2.396,3.802-5.365,4.583-8.699
	c0.417-1.875,0.833-3.75,1.302-5.625c1.146,0.209,2.292,0.469,3.386,0.73c4.583,1.041,9.271-1.875,10.364-6.512
	C247.966,506.596,244.997,501.857,240.414,500.814z M214.633,519.67C214.633,519.67,214.685,519.67,214.633,519.67
	C214.685,519.67,214.685,519.67,214.633,519.67C214.685,519.67,214.633,519.67,214.633,519.67z M215.102,519.252
	C215.361,519.045,215.31,519.096,215.102,519.252C215.102,519.305,215.102,519.252,215.102,519.252z M210.935,536.076
	C210.935,535.658,210.935,535.764,210.935,536.076L210.935,536.076z M210.83,536.18l-0.052-0.053
	c-0.052-0.051-0.052-0.156-0.104-0.207l0.053,0.051C210.727,536.023,210.778,536.127,210.83,536.18z M210.727,535.971l-0.053-0.051
	C210.258,535.139,210.466,535.502,210.727,535.971z M210.466,535.764c-0.052,0-0.052-0.053-0.104-0.053
	C209.685,534.93,210.153,535.346,210.466,535.764z M210.466,535.814c0,0,0.052,0,0.052,0.053s0.053,0.053,0.053,0.104v0.053
	C210.57,535.92,210.518,535.867,210.466,535.814z M210.778,536.18C210.83,536.232,210.83,536.232,210.778,536.18
	c0.052,0.053,0.052,0.053,0.052,0.104l0,0C210.83,536.283,210.83,536.232,210.778,536.18z M211.039,537.117
	C211.091,537.273,211.091,537.326,211.039,537.117L211.039,537.117z M210.986,536.127
	C211.455,536.439,211.977,536.857,210.986,536.127L210.986,536.127z M214.945,519.564L214.945,519.564
	C215.57,519.252,215.31,519.408,214.945,519.564z M225.049,546.283L225.049,546.283c-0.104-0.051-0.26-0.156-0.364-0.207
	C224.841,546.127,224.945,546.232,225.049,546.283z M481.195,686.18c0.938-0.365,1.875-0.781,2.76-1.197
	c0.469-0.209,2.031-1.094,0,0.156c0.469-0.312,0.886-0.678,1.354-1.043c-1.667,1.406-0.573,0.574-0.156,0
	c-0.208,0.365-0.417,0.73-0.625,1.094c0.312-0.832,0.261-0.572-0.156,0.834c0.417-1.615,0.208,2.084,0.052,0.365
	c-0.156-2.137,0.729,2.291,0.156,0.625c-0.833-2.449-1.979-4.844-2.969-7.188c-3.125-7.605-1.197-16.094,5.053-21.406
	c2.135,5.156,4.219,10.26,6.354,15.416c-8.177,0.572-15.521-4.062-18.646-11.615c-0.886-2.188-1.771-4.375-2.708-6.562
	c-0.209-0.469-0.417-0.938-0.625-1.354c0.208,0.365,0.469,0.781,0.677,1.146c1.146,1.094,1.406,1.354,0.677,0.676
	c-1.302-1.145,1.823,0.781,0.156,0.156c0.365,0.105,0.729,0.209,1.146,0.312c-0.886-0.104-0.729-0.104,0.572-0.104
	c-0.625,0-1.25,0.104-1.875,0.209c2.136-0.312,0.521-0.105-0.052,0.104c-1.146,0.416-2.292,0.885-3.386,1.354
	c-4.375,1.771-9.479-0.363-11.25-4.688c-1.771-4.322,0.365-9.479,4.688-11.25c2.761-1.145,5.573-2.291,8.542-2.707
	c4.011-0.625,7.761,0.312,11.146,2.395c3.75,2.24,5.261,6.355,6.823,10.209c0.469,1.197,0.989,2.396,1.458,3.594
	c0.209,0.469,0.365,0.885,0.625,1.354c-1.094-2.238-0.521-0.938-0.104-0.416c1.041,1.354-1.615-1.406-0.365-0.365
	c0.312,0.262,0.625,0.469,0.99,0.678c-2.24-1.406-1.25-0.729-0.573-0.416c0.312,0.156,0.625,0.26,0.989,0.363
	c-2.708-0.832-1.614-0.416-0.938-0.312c0.469,0.105,0.938,0.156,1.406,0.156c1.146,0.053-2.76,0.053-1.458,0
	c8.646-0.625,12.917,9.74,6.354,15.418c-0.573,0.469-1.303,1.354,1.146-1.146c-0.312,0.312-0.573,0.678-0.833,1.041
	c-0.156,0.209-0.312,0.469-0.469,0.73c1.562-2.396,0.781-1.406,0.469-0.781c-0.156,0.312-0.261,0.676-0.417,0.988
	c0.886-2.447,0.364-1.354,0.208-0.625c-0.104,0.625-0.052,2.137-0.052-0.52c0,0.469,0.104,0.938,0.156,1.406
	c-0.417-2.553-0.208-0.781,0.104,0c0.521,1.197,0.989,2.395,1.458,3.594c1.614,3.854,3.438,7.916,2.344,12.188
	c-0.938,3.854-2.917,6.719-5.938,9.322c-2.188,1.875-5.052,2.969-7.708,4.062c-4.375,1.822-9.479-0.365-11.25-4.688
	C474.685,693.107,476.872,688.002,481.195,686.18L481.195,686.18z M753.799,438.784c0-2.76,0.781-5,2.344-6.666
	c1.562-1.667,3.594-2.553,6.199-2.553c1.406,0,2.707,0.312,3.957,0.938s2.24,1.511,3.021,2.656c0.938,1.303,1.406,3.178,1.406,5.678
	v16.197c0,2.812-0.729,5.053-2.24,6.719c-1.51,1.667-3.488,2.5-6.041,2.5c-1.354,0-2.604-0.26-3.854-0.833s-2.24-1.354-3.074-2.292
	c-1.094-1.406-1.613-3.385-1.613-5.989L753.799,438.784z M754.32,473.472c0-1.094,0.209-2.083,0.625-3.021s0.99-1.771,1.719-2.552
	c0.729-0.729,1.615-1.303,2.553-1.719c0.988-0.417,1.979-0.625,3.072-0.625c2.24,0,4.166,0.781,5.678,2.291
	c1.51,1.511,2.291,3.438,2.291,5.678c0,2.291-0.781,4.218-2.24,5.728c-1.51,1.512-3.385,2.24-5.625,2.24
	c-1.094,0-2.135-0.209-3.125-0.678c-0.988-0.416-1.875-0.988-2.551-1.719c-0.73-0.729-1.303-1.562-1.719-2.551
	C754.58,475.607,754.32,474.565,754.32,473.472z M213.174,601.648c-0.521-0.156-1.094-0.156-1.666-0.104
	c-0.573,0.051-1.25,0.26-1.928,0.52c-0.677,0.312-1.458,0.678-2.344,1.146l-1.719,0.99l-4.01-7.188l3.072-1.719
	c1.042-0.574,1.875-1.406,2.5-2.396c0.834-1.406,1.042-2.865,0.678-4.322c-0.365-1.459-1.198-2.605-2.604-3.387
	c-0.573-0.312-1.146-0.572-1.667-0.676c-0.521-0.156-1.094-0.156-1.666-0.105c-0.573,0.053-1.25,0.262-1.928,0.521
	c-0.677,0.312-1.458,0.678-2.344,1.146l-1.719,0.938l-1.302-2.344c-0.833-1.512-1.667-2.5-2.5-2.969
	c-1.459-0.834-2.969-1.094-4.479-0.73c-1.512,0.365-2.656,1.25-3.49,2.656c-1.146,1.98-1.041,4.115,0.26,6.459l1.459,2.604
	l-7.135,4.012l-1.303-2.293c-0.834-1.51-1.666-2.5-2.5-2.969c-1.459-0.832-2.969-1.094-4.479-0.729
	c-1.512,0.365-2.656,1.25-3.49,2.656c-1.146,1.979-1.041,4.115,0.26,6.459l1.459,2.551l-2.084,1.146
	c-1.51,0.834-2.5,1.666-2.969,2.5c-0.832,1.459-1.094,2.969-0.729,4.479c0.365,1.512,1.25,2.656,2.656,3.49
	c1.979,1.146,4.115,1.041,6.459-0.26l2.344-1.303l4.01,7.135l-2.031,1.146c-1.51,0.834-2.5,1.666-2.969,2.5
	c-0.834,1.459-1.094,2.969-0.729,4.479c0.363,1.512,1.25,2.656,2.656,3.49c1.979,1.146,4.113,1.041,6.457-0.26l2.293-1.303
	l1.562,2.812c0.572,1.041,1.406,1.875,2.395,2.5c1.406,0.834,2.865,1.041,4.323,0.678c1.459-0.365,2.604-1.199,3.386-2.605
	c0.312-0.572,0.573-1.145,0.677-1.666c0.156-0.521,0.156-1.094,0.104-1.666c-0.052-0.574-0.261-1.25-0.521-1.928
	c-0.312-0.678-0.678-1.459-1.146-2.344l-0.833-1.459l7.188-4.062l1.562,2.812c0.573,1.043,1.406,1.875,2.396,2.5
	c1.406,0.834,2.865,1.043,4.323,0.678s2.604-1.197,3.386-2.604c0.312-0.574,0.572-1.146,0.677-1.668
	c0.156-0.52,0.156-1.094,0.104-1.666c-0.053-0.572-0.261-1.25-0.521-1.928c-0.312-0.676-0.677-1.457-1.146-2.344l-0.833-1.457
	l3.072-1.719c1.042-0.574,1.875-1.406,2.5-2.396c0.834-1.406,1.042-2.865,0.678-4.322c-0.365-1.459-1.198-2.605-2.604-3.387
	C214.216,602.014,213.695,601.752,213.174,601.648z M188.331,613.836l-4.012-7.135l7.136-4.012l4.011,7.188L188.331,613.836z
	 M850.154,559.982c0.572-0.365,1.041-0.625,1.406-0.73c0.363-0.104,0.729-0.207,1.094-0.207c1.094,0,2.031,0.416,2.812,1.25
	c0.781,0.832,1.197,1.77,1.197,2.863c0,0.887-0.156,1.562-0.521,2.084c-0.312,0.521-0.988,1.094-1.979,1.666l-2.135,1.406
	l2.082,1.25c1.043,0.574,1.719,1.094,2.084,1.668c0.365,0.52,0.521,1.25,0.521,2.135c0,1.146-0.365,2.084-1.146,2.865
	s-1.666,1.197-2.709,1.197c-0.938,0-1.822-0.26-2.76-0.781l-2.084-1.25v2.291c0,3.125-1.301,4.688-3.906,4.688
	c-1.354,0-2.344-0.416-3.072-1.25c-0.729-0.832-1.094-1.979-1.094-3.438v-2.291l-2.396,1.25c-0.885,0.521-1.666,0.781-2.395,0.781
	c-1.199,0-2.137-0.416-2.918-1.197s-1.145-1.771-1.145-2.969c0-1.459,0.832-2.709,2.447-3.699l2.135-1.25l-2.135-1.25
	c-1.51-0.938-2.291-2.188-2.291-3.75c0-1.041,0.363-1.926,1.094-2.76c0.729-0.834,1.613-1.25,2.656-1.25
	c0.832,0,1.719,0.26,2.707,0.834l2.24,1.145v-2.238c0-1.459,0.365-2.656,1.094-3.49s1.666-1.25,2.865-1.25
	c1.301,0,2.291,0.416,3.02,1.25c0.73,0.834,1.094,1.979,1.094,3.334v2.238L850.154,559.982z M219.32,402.431
	c0.885-2.5,2.604-4.115,5.052-4.792c1.042-0.261,1.979-0.364,2.864-0.312c0.886,0.052,2.084,0.364,3.646,0.938l2.396,0.833
	c1.771,0.625,3.125,1.303,3.958,1.928c0.834,0.625,1.562,1.51,2.188,2.552c0.678,1.302,1.042,2.5,0.99,3.646
	c0,1.146-0.365,2.761-1.094,4.688l-10.886,30.209c-0.938,2.604-2.448,4.479-4.479,5.572c-2.083,1.146-4.271,1.303-6.562,0.469
	c-1.146-0.416-2.188-1.094-3.125-2.031s-1.614-1.979-2.031-3.177c-0.364-1.042-0.521-2.083-0.469-3.073
	c0.053-0.989,0.312-2.135,0.834-3.489l9.062-25.208C218.903,408.681,218.122,405.764,219.32,402.431z M583.695,659.201
	c0-3.75,0.678-7.24,2.135-10.469c1.406-3.23,3.334-6.094,5.781-8.49c2.449-2.396,5.262-4.322,8.543-5.678
	c3.281-1.406,6.77-2.082,10.52-2.082s7.24,0.729,10.521,2.135s6.146,3.334,8.541,5.781c2.449,2.447,4.375,5.26,5.781,8.541
	c1.406,3.23,2.137,6.719,2.137,10.469c0,3.699-0.73,7.188-2.137,10.418c-1.406,3.281-3.332,6.145-5.781,8.541
	c-2.447,2.447-5.312,4.375-8.594,5.781s-6.77,2.135-10.416,2.135c-3.75,0-7.24-0.729-10.521-2.135s-6.145-3.334-8.541-5.781
	c-2.447-2.447-4.375-5.312-5.781-8.594C584.424,666.439,583.695,662.898,583.695,659.201z M600.57,659.201
	c0,1.354,0.26,2.656,0.781,3.906s1.25,2.344,2.135,3.229c0.887,0.938,1.928,1.615,3.178,2.188c1.197,0.521,2.5,0.781,3.906,0.781
	s2.656-0.26,3.906-0.781c1.197-0.521,2.291-1.25,3.229-2.188s1.668-1.979,2.188-3.178c0.521-1.197,0.781-2.5,0.781-3.854
	s-0.26-2.656-0.781-3.854c-0.52-1.199-1.25-2.24-2.188-3.178s-1.979-1.615-3.229-2.188c-1.197-0.521-2.5-0.781-3.906-0.781
	c-1.303,0-2.604,0.26-3.803,0.781c-1.197,0.521-2.291,1.25-3.229,2.135c-0.938,0.887-1.666,1.928-2.188,3.125
	C600.883,656.596,600.57,657.846,600.57,659.201z M609.061,355.66c-0.521-1.146-1.199-2.083-2.084-2.917
	c-0.885-0.781-1.822-1.302-2.865-1.667c-1.041-0.312-2.395-0.521-4.01-0.521h-21.666l7.551-20.364
	c0.625-1.667,0.99-3.073,1.043-4.115c0.051-1.042-0.156-2.135-0.625-3.229c-0.365-1.042-1.043-1.979-1.928-2.812
	c-0.938-0.833-1.926-1.511-3.021-1.875c-1.041-0.365-2.186-0.521-3.436-0.469c-1.252,0.104-2.396,0.417-3.438,0.938
	c-1.043,0.573-1.875,1.25-2.553,2.135s-1.303,2.083-1.875,3.594l-10.99,29.74c-0.156,0.469-0.312,0.885-0.469,1.302
	c-0.52,1.094-0.781,2.344-0.781,3.698l0,0c0,0.26,0,0.521,0.053,0.781c0.156,2.188,1.094,4.01,2.707,5.417
	c0.469,0.469,0.939,0.833,1.406,1.094c0.469,0.26,0.99,0.521,1.562,0.677c0.418,0.104,0.938,0.208,1.512,0.26
	c0.625,0.104,1.25,0.156,1.822,0.104c0.416,0,0.885,0,1.406,0h31.719c1.771,0,3.178-0.156,4.219-0.469s1.979-0.885,2.865-1.667
	c0.832-0.729,1.457-1.667,1.979-2.812c0.469-1.146,0.729-2.292,0.729-3.49C609.842,357.951,609.58,356.805,609.061,355.66z
	 M284.528,611.857c-0.886,0.885-1.562,1.875-2.031,2.969c-0.417,1.094-0.625,2.188-0.573,3.281c0.053,1.094,0.365,2.395,0.938,3.957
	l7.448,20.365l-21.719-0.053c-1.771,0-3.177,0.156-4.219,0.469s-1.979,0.887-2.864,1.668c-0.834,0.729-1.459,1.666-1.979,2.812
	c-0.469,1.145-0.729,2.291-0.729,3.488c0,1.146,0.261,2.24,0.781,3.387c0.521,1.145,1.198,2.082,2.084,2.916
	c0.885,0.781,1.822,1.303,2.864,1.666c1.042,0.312,2.396,0.521,4.011,0.521l31.718,0.104c0.469,0,0.938,0,1.406,0
	c1.199,0.105,2.449-0.051,3.75-0.52l0,0c0.261-0.105,0.47-0.209,0.729-0.312c1.979-0.938,3.386-2.396,4.167-4.428
	c0.261-0.572,0.469-1.146,0.573-1.719c0.104-0.572,0.104-1.146,0.052-1.719c-0.052-0.469-0.104-0.938-0.261-1.51
	c-0.104-0.625-0.312-1.199-0.521-1.771c-0.156-0.416-0.312-0.834-0.469-1.354L298.8,616.283c-0.625-1.666-1.25-2.969-1.875-3.801
	c-0.625-0.834-1.512-1.562-2.553-2.084c-0.938-0.521-2.031-0.834-3.281-0.885c-1.25-0.053-2.448,0.104-3.542,0.52
	C286.403,610.398,285.414,611.023,284.528,611.857z"/>
<path fill="#F9F9F9" d="M343.614,460.276c-0.416,1.771-0.989,3.386-1.666,4.896c-0.678,1.51-1.562,3.021-2.553,4.531
	c-2.969,4.375-6.719,7.812-11.302,10.312s-9.531,3.697-14.792,3.697c-4.479,0-8.698-0.885-12.708-2.656
	c-4.01-1.77-7.5-4.27-10.521-7.551c-2.812-3.021-4.896-6.354-6.25-10c-1.354-3.646-2.031-7.864-2.031-12.656
	c0-3.594,0.312-6.458,0.886-8.646c0.626-2.136,1.614-4.011,3.073-5.625c2.291-2.812,5.365-4.167,9.219-4.167
	c4.062,0,7.344,1.302,9.896,3.958c2.552,2.656,3.697,6.094,3.541,10.417v4.427c-0.104,1.823,0.364,3.281,1.25,4.323
	c0.938,1.042,2.188,1.562,3.698,1.562c2.239,0,3.854-1.042,4.739-3.125c0.156-0.469,0.261-1.042,0.312-1.719
	s0.052-2.031,0.052-4.114l-0.052-29.323c0-1.823,0-3.386,0.052-4.636c0.053-1.25,0.156-2.291,0.365-3.125
	c0.208-0.833,0.469-1.614,0.781-2.291c0.312-0.678,0.729-1.354,1.302-2.084c1.094-1.666,2.656-3.021,4.636-4.01
	c1.979-0.99,4.01-1.511,6.094-1.511c2.239,0,4.322,0.521,6.302,1.562s3.542,2.5,4.636,4.323c0.469,0.729,0.833,1.406,1.146,2.031
	c0.261,0.625,0.521,1.354,0.677,2.239c0.156,0.833,0.261,1.823,0.312,3.021c0.053,1.146,0.053,2.656,0.053,4.479v27.656
	c0,3.021-0.104,5.677-0.261,7.864S344.031,458.506,343.614,460.276z M357.364,457.933c-2.188-5.156-3.281-10.677-3.281-16.614
	c0-5.729,1.094-11.146,3.281-16.146c2.188-5.053,5.209-9.428,9.011-13.178s8.229-6.719,13.333-8.854
	c5.104-2.136,10.573-3.229,16.406-3.229c5.834,0,11.303,1.094,16.406,3.281c5.104,2.188,9.584,5.156,13.438,8.906
	c3.854,3.75,6.823,8.177,9.062,13.281c2.188,5.104,3.281,10.521,3.281,16.302c0,5.729-1.094,11.198-3.281,16.303
	c-2.188,5.104-5.208,9.583-9.062,13.438c-3.854,3.854-8.281,6.822-13.438,9.062c-5.104,2.188-10.521,3.281-16.302,3.281
	c-5.886,0-11.406-1.094-16.511-3.281c-5.104-2.188-9.583-5.208-13.333-9.062C362.573,467.568,359.604,463.089,357.364,457.933z
	 M380.438,441.631c0,2.188,0.417,4.219,1.25,6.198c0.833,1.979,1.979,3.646,3.386,5.104c1.406,1.459,3.072,2.604,5,3.438
	c1.927,0.834,3.958,1.25,6.146,1.25s4.219-0.416,6.146-1.25c1.928-0.833,3.594-1.979,5-3.438c1.406-1.458,2.5-3.125,3.386-5.052
	c0.833-1.927,1.25-3.958,1.25-6.146s-0.417-4.167-1.25-6.094c-0.833-1.875-1.979-3.542-3.386-4.948s-3.072-2.5-5-3.281
	c-1.927-0.781-3.958-1.198-6.146-1.198s-4.219,0.417-6.146,1.198c-1.928,0.781-3.594,1.927-5,3.281
	c-1.406,1.406-2.5,3.021-3.386,4.896C380.854,437.464,380.438,439.443,380.438,441.631z M498.094,437.881
	c-1.823-1.614-4.271-3.177-7.292-4.636c-3.021-1.458-6.25-2.708-9.688-3.75c-3.125-1.041-5.208-1.927-6.302-2.656
	c-1.094-0.729-1.614-1.666-1.614-2.864c0-0.886,0.26-1.614,0.885-2.239c0.625-0.573,1.354-0.886,2.24-0.886
	c0.729,0,1.51,0.156,2.291,0.573c0.781,0.416,1.875,1.197,3.229,2.291c2.239,1.667,4.114,2.865,5.729,3.542
	c1.614,0.729,3.333,1.042,5.156,1.042c3.072,0,5.521-1.042,7.447-3.073c1.928-2.031,2.865-4.688,2.865-7.864
	c0-2.448-0.678-4.74-1.979-6.875c-1.354-2.136-3.177-3.959-5.469-5.521s-5-2.76-8.125-3.697c-3.125-0.886-6.458-1.354-10.052-1.354
	c-4.323,0-8.281,0.625-11.928,1.927c-3.646,1.25-6.719,3.073-9.271,5.365c-2.552,2.344-4.531,5.104-5.989,8.281
	c-1.406,3.229-2.136,6.771-2.136,10.677c0,11.094,5.833,18.698,17.396,22.761c1.094,0.416,2.188,0.781,3.229,1.146
	s2.136,0.729,3.229,1.146c1.041,0.365,1.875,0.678,2.447,0.938c0.625,0.261,1.094,0.469,1.459,0.625
	c0.364,0.156,0.625,0.312,0.833,0.417c0.156,0.156,0.364,0.208,0.521,0.312c1.354,0.833,2.031,1.979,2.031,3.333
	c0,1.042-0.26,1.875-0.885,2.5c-0.573,0.625-1.406,0.938-2.448,0.938c-0.469,0-0.886,0-1.302-0.104
	c-0.417-0.104-0.886-0.312-1.459-0.678c-0.521-0.364-1.25-0.885-2.135-1.51c-0.886-0.678-2.031-1.562-3.49-2.656
	c-1.666-1.354-3.281-2.292-4.739-2.917c-1.511-0.573-3.021-0.886-4.636-0.886c-1.666,0-3.281,0.312-4.739,0.938
	c-1.511,0.625-2.761,1.459-3.854,2.553c-1.041,1.041-1.927,2.291-2.5,3.75c-0.572,1.458-0.885,3.021-0.885,4.688
	c0,2.864,0.781,5.521,2.291,7.969c1.511,2.447,3.646,4.583,6.354,6.406c2.708,1.822,5.886,3.281,9.583,4.322
	c3.698,1.043,7.656,1.562,11.875,1.562c4.948,0,9.271-0.625,12.761-1.926c3.646-1.303,6.822-3.334,9.531-6.042
	c2.396-2.5,4.271-5.364,5.572-8.697c1.303-3.334,1.979-6.771,1.979-10.365c0-3.854-0.677-7.396-2.136-10.729
	C502.521,442.673,500.594,439.964,498.094,437.881z M565.541,460.017c-1.354-1.146-2.812-1.928-4.375-2.344
	c-1.562-0.469-3.803-0.678-6.666-0.678l-12.188,0.104v-5.989h9.479c2.084,0,3.697-0.156,4.844-0.417s2.24-0.833,3.281-1.614
	c2.344-1.928,3.49-4.428,3.49-7.553c0-2.812-0.938-5.052-2.865-6.822c-1.875-1.771-4.479-2.656-7.76-2.656h-10.418v-5.521h13.178
	c2.5,0,4.479-0.26,5.99-0.677c1.51-0.469,2.863-1.198,4.062-2.239c1.354-1.146,2.395-2.553,3.176-4.271s1.146-3.541,1.146-5.469
	c0-2.76-0.834-5.208-2.447-7.291c-1.668-2.031-3.855-3.438-6.668-4.167c-0.469-0.104-0.885-0.156-1.301-0.261
	c-0.418-0.104-0.938-0.156-1.562-0.26c-0.678-0.053-1.562-0.104-2.656-0.104s-2.605,0-4.531,0h-15.834c-1.928,0-3.49,0-4.635,0.052
	c-1.146,0-2.084,0.053-2.865,0.156c-0.781,0.104-1.406,0.209-1.979,0.365c-0.574,0.156-1.199,0.416-1.928,0.729
	c-1.354,0.678-2.604,1.562-3.75,2.656c-1.146,1.146-1.979,2.448-2.553,3.959c-0.207,0.625-0.416,1.197-0.572,1.666
	s-0.26,1.042-0.365,1.719c-0.051,0.678-0.104,1.511-0.156,2.553c-0.051,1.041-0.051,2.396-0.051,4.062v43.385
	c0,1.354,0,2.448,0,3.334c0,0.781,0,1.458,0.051,2.031c0,0.521,0.053,0.989,0.156,1.354c0.105,0.365,0.156,0.729,0.262,1.146
	c0.781,4.635,3.332,7.812,7.551,9.583c1.094,0.416,2.293,0.676,3.594,0.832c1.25,0.156,3.438,0.262,6.459,0.262h20.469
	c1.51,0,2.812,0,3.906-0.105c1.094-0.051,2.031-0.207,2.812-0.416c0.834-0.209,1.562-0.469,2.24-0.834
	c0.676-0.312,1.354-0.781,1.979-1.354c1.354-1.146,2.396-2.552,3.178-4.271s1.145-3.489,1.145-5.312
	C569.863,465.589,568.406,462.517,565.541,460.017z M579.082,468.61c-0.051-1.303-0.051-2.917-0.051-4.896v-46.719
	c0-2.864,0.26-5.104,0.781-6.719c0.52-1.614,1.457-3.125,2.812-4.531c1.354-1.354,2.863-2.344,4.531-3.021
	c1.666-0.625,3.75-0.938,6.25-0.938h11.041c3.178,0,5.99,0.104,8.385,0.312c2.396,0.208,4.531,0.521,6.355,1.042
	c1.822,0.469,3.541,1.094,5.104,1.875s3.072,1.719,4.635,2.916c3.594,2.709,6.355,6.094,8.334,10.053
	c1.979,4.01,2.916,8.229,2.916,12.708s-1.041,8.698-3.072,12.708c-2.031,4.011-4.896,7.396-8.594,10.156
	c-2.709,2.084-5.521,3.542-8.438,4.428c-2.865,0.885-6.303,1.302-10.209,1.302h-4.426v7.812h-0.053
	c0,4.531-1.197,8.229-3.594,11.042c-2.396,2.812-5.572,4.166-9.531,4.166c-2.24,0-4.322-0.52-6.25-1.613s-3.541-2.553-4.688-4.375
	c-0.469-0.781-0.885-1.562-1.197-2.239c-0.312-0.678-0.574-1.459-0.73-2.292S579.135,469.912,579.082,468.61z M605.332,434.86h0.053
	c3.229,0.156,5.521-0.104,6.875-0.729s1.979-1.875,1.979-3.698c0-1.354-0.572-2.396-1.719-3.125
	c-1.145-0.729-2.707-1.094-4.738-1.094h-2.449V434.86z M717.572,410.642c-0.469-1.667-1.197-3.178-2.238-4.531
	c-1.199-1.562-2.762-2.812-4.637-3.698s-3.854-1.302-5.938-1.302c-2.031,0-3.957,0.416-5.729,1.354
	c-1.771,0.886-3.229,2.136-4.428,3.75c-1.146,1.562-1.875,3.073-2.24,4.636c-0.363,1.562-0.52,3.958-0.52,7.136v10.885h-16.197
	v-11.25c0-1.719,0-3.125-0.105-4.271c-0.053-1.146-0.207-2.136-0.416-2.917s-0.469-1.51-0.781-2.135s-0.73-1.303-1.303-2.031
	c-1.197-1.562-2.709-2.812-4.635-3.75c-1.875-0.886-3.855-1.354-5.938-1.354c-2.084,0-4.01,0.417-5.781,1.354
	c-1.771,0.885-3.334,2.135-4.584,3.75c-1.094,1.354-1.822,2.812-2.188,4.322c-0.363,1.511-0.521,3.646-0.521,6.459v48.177
	c0,1.511,0,2.864,0.105,3.906c0.104,1.042,0.207,2.031,0.363,2.864c0.156,0.834,0.418,1.615,0.678,2.292
	c0.312,0.677,0.678,1.354,1.146,2.083c1.197,1.824,2.707,3.281,4.635,4.324c1.875,1.041,4.01,1.562,6.303,1.562
	c2.238,0,4.27-0.521,6.197-1.562c1.875-1.043,3.438-2.5,4.635-4.324c0.469-0.729,0.887-1.406,1.146-2.031
	c0.312-0.625,0.521-1.354,0.678-2.135s0.26-1.719,0.363-2.812c0.053-1.042,0.105-2.448,0.105-4.115h-0.053V453.87h16.146v11.511
	c0,1.562,0,2.969,0.104,4.062c0.105,1.146,0.209,2.136,0.365,3.021c0.156,0.886,0.416,1.667,0.781,2.344
	c0.365,0.678,0.781,1.354,1.25,2.083c1.197,1.666,2.76,2.969,4.635,3.906c1.875,0.885,3.855,1.354,5.938,1.354
	c2.293,0,4.428-0.572,6.406-1.666c1.98-1.146,3.543-2.709,4.74-4.687c0.416-0.729,0.781-1.406,1.041-2.031
	c0.312-0.625,0.521-1.354,0.678-2.136c0.156-0.833,0.26-1.719,0.365-2.708c0.051-0.99,0.104-2.188,0.104-3.542v-48.386
	C718.25,414.443,717.99,412.308,717.572,410.642z M282.053,546.994c0.156,0.678,0.312,1.25,0.52,1.771
	c0.209,0.521,0.521,1.041,0.887,1.615c0.938,1.406,2.135,2.551,3.594,3.332c1.51,0.781,3.125,1.199,4.895,1.199
	c1.719,0,3.334-0.418,4.793-1.199c1.457-0.832,2.656-1.926,3.594-3.332c0.363-0.574,0.676-1.094,0.885-1.562
	c0.209-0.521,0.416-1.043,0.521-1.668c0.104-0.625,0.207-1.354,0.26-2.188c0.053-0.832,0.104-1.875,0.104-3.176L302,533.244h12.5
	v8.855c0,1.197,0.052,2.291,0.104,3.125c0.052,0.832,0.156,1.613,0.26,2.291c0.156,0.625,0.365,1.25,0.625,1.771
	c0.312,0.52,0.625,1.041,0.99,1.613c0.885,1.25,2.083,2.24,3.541,2.969c1.458,0.678,2.969,1.043,4.583,1.043
	c1.771,0,3.438-0.418,4.948-1.303s2.708-2.084,3.646-3.594c0.312-0.572,0.573-1.094,0.781-1.562
	c0.209-0.521,0.417-1.041,0.521-1.666c0.104-0.625,0.208-1.303,0.26-2.084c0.053-0.781,0.104-1.666,0.104-2.709v-37.188
	c0-1.979-0.208-3.594-0.521-4.895c-0.365-1.303-0.938-2.449-1.719-3.49c-0.886-1.25-2.084-2.188-3.542-2.865
	c-1.458-0.625-2.969-0.988-4.583-0.988s-3.073,0.312-4.427,1.041c-1.354,0.729-2.5,1.666-3.438,2.916
	c-0.886,1.146-1.459,2.343-1.719,3.542c-0.261,1.197-0.417,3.02-0.417,5.469v8.385H302v-8.646c0-1.301-0.053-2.395-0.104-3.281
	c-0.052-0.885-0.156-1.613-0.312-2.238c-0.104-0.625-0.312-1.199-0.573-1.668c-0.208-0.469-0.572-0.988-0.989-1.562
	c-0.938-1.25-2.136-2.188-3.594-2.916c-1.458-0.678-2.969-1.041-4.583-1.041c-1.615,0-3.072,0.312-4.479,1.041
	c-1.354,0.729-2.552,1.666-3.542,2.916c-0.885,1.042-1.457,2.187-1.719,3.333c-0.26,1.146-0.416,2.812-0.416,4.947v37.031
	c0,1.146,0.053,2.137,0.104,2.969C281.844,545.588,281.947,546.369,282.053,546.994z M381.219,553.35
	c0.521-0.262,0.989-0.625,1.511-1.043c1.041-0.885,1.875-1.979,2.447-3.281c0.573-1.354,0.886-2.707,0.886-4.113
	c0-2.865-1.094-5.262-3.333-7.188c-1.042-0.834-2.188-1.406-3.386-1.771c-1.25-0.365-2.917-0.521-5.156-0.521h-9.271v-4.582h7.291
	c1.615,0,2.865-0.105,3.75-0.312c0.886-0.209,1.771-0.625,2.553-1.25c1.771-1.459,2.656-3.387,2.656-5.781
	c0-2.137-0.781-3.906-2.24-5.262c-1.458-1.354-3.438-2.031-5.989-2.031h-8.177v-4.219h10.156c1.927,0,3.438-0.207,4.635-0.52
	c1.146-0.365,2.188-0.938,3.125-1.719c1.042-0.887,1.875-1.98,2.448-3.281c0.573-1.303,0.886-2.709,0.886-4.168
	c0-2.135-0.625-4.01-1.875-5.625c-1.303-1.613-3.021-2.656-5.156-3.229c-0.417-0.104-0.729-0.156-1.042-0.209
	c-0.312-0.104-0.729-0.156-1.198-0.207c-0.469-0.053-1.146-0.105-2.031-0.105c-0.833,0-2.031,0-3.489,0h-12.188
	c-1.458,0-2.656,0-3.542,0.053c-0.938,0.053-1.666,0.104-2.239,0.156s-1.094,0.156-1.511,0.26c-0.416,0.156-0.885,0.312-1.458,0.574
	c-1.042,0.52-2.031,1.197-2.917,2.031c-0.885,0.832-1.562,1.875-1.979,3.019c-0.209,0.521-0.365,0.938-0.469,1.303
	c-0.104,0.365-0.209,0.834-0.261,1.354c-0.104,0.521-0.104,1.199-0.156,1.98s-0.052,1.822-0.052,3.125v33.332
	c0,1.094,0,1.928,0,2.605c0,0.625,0,1.145,0.052,1.562c0.052,0.416,0.104,0.781,0.156,1.041c0.104,0.312,0.156,0.572,0.208,0.885
	c0.625,3.543,2.553,5.99,5.834,7.344c0.833,0.312,1.771,0.521,2.76,0.625c0.99,0.156,2.656,0.209,5,0.209h15.834
	c1.197,0,2.188-0.053,3.021-0.104c0.833-0.053,1.562-0.156,2.188-0.312S380.698,553.609,381.219,553.35z M435.802,501.787
	c1.406,1.875,2.553,3.957,3.334,6.197c0.781,2.291,1.197,4.635,1.197,7.084c0,2.969-0.521,5.625-1.51,8.072
	c-1.042,2.447-2.709,4.947-5.053,7.604l4.792,7.656c0.677,1.043,1.146,2.137,1.458,3.281c0.312,1.146,0.469,2.24,0.469,3.281
	c0,1.406-0.26,2.709-0.781,3.906c-0.521,1.199-1.25,2.24-2.188,3.125c-0.938,0.887-1.979,1.615-3.229,2.137
	c-1.25,0.52-2.553,0.781-3.959,0.781c-3.697,0-6.51-1.562-8.438-4.688l-8.438-13.906v8.385c0,1.459-0.26,2.812-0.781,4.062
	c-0.521,1.25-1.25,2.291-2.135,3.229c-0.886,0.938-1.928,1.668-3.125,2.188c-1.198,0.521-2.5,0.781-3.906,0.781
	c-1.562,0-3.021-0.312-4.428-0.988c-1.406-0.625-2.604-1.562-3.489-2.709c-1.614-2.031-2.396-4.896-2.396-8.646v-37.863
	c0-2.188,0.26-4.012,0.729-5.365c0.469-1.406,1.354-2.603,2.604-3.646c1.146-1.041,2.396-1.77,3.646-2.135s3.125-0.572,5.573-0.572
	h8.489c2.553,0,4.479,0.051,5.834,0.207c1.354,0.156,2.708,0.365,4.062,0.678c2.396,0.678,4.583,1.666,6.562,3.021
	C432.677,498.297,434.344,499.912,435.802,501.787z M420.386,515.172c0-2.344-1.562-3.438-4.74-3.334c-0.26,0-0.572,0-0.938,0
	c-0.312,0-0.729-0.051-1.197-0.104v6.666h0.833h1.406C418.823,518.506,420.386,517.463,420.386,515.172z M487.417,522.984l10.364-15
	c1.042-1.562,1.562-3.334,1.562-5.365c0-1.354-0.261-2.604-0.833-3.854c-0.573-1.25-1.303-2.291-2.24-3.228
	c-0.938-0.887-2.031-1.615-3.281-2.188c-1.25-0.574-2.552-0.834-3.906-0.834c-3.541,0-6.354,1.562-8.438,4.687l-11.302,16.615
	v-9.844c0-1.824-0.208-3.334-0.625-4.584c-0.417-1.197-1.094-2.344-2.083-3.384c-0.938-1.043-2.084-1.875-3.438-2.5
	c-1.354-0.625-2.812-0.938-4.271-0.938c-3.072,0-5.572,1.041-7.396,3.125c-1.823,2.082-2.761,4.791-2.761,8.175v39.428
	c0,3.594,0.886,6.406,2.761,8.49c1.875,2.082,4.375,3.125,7.604,3.125c3.072,0,5.572-1.043,7.396-3.178s2.761-5,2.761-8.541v-10.574
	l15.26,19.219c0.781,0.887,1.771,1.615,3.073,2.188c1.302,0.574,2.656,0.834,4.062,0.834c1.354,0,2.656-0.26,3.906-0.834
	c1.25-0.52,2.292-1.25,3.229-2.188s1.666-2.031,2.239-3.281s0.833-2.604,0.833-4.01c0-2.084-0.625-3.906-1.927-5.521
	L487.417,522.984z M522.832,553.922c1.355-0.625,2.5-1.562,3.49-2.709c0.834-1.145,1.459-2.238,1.771-3.385
	c0.363-1.146,0.52-2.709,0.52-4.74v-12.916l16.146,20.521c2.084,2.76,4.791,4.166,8.072,4.166c1.615,0,3.074-0.365,4.48-0.99
	s2.551-1.562,3.488-2.812c0.887-1.197,1.459-2.395,1.771-3.645s0.469-3.125,0.469-5.574v-37.551c0-1.875-0.156-3.438-0.572-4.637
	c-0.418-1.197-0.99-2.344-1.875-3.437c-0.99-1.145-2.188-2.082-3.49-2.707c-1.354-0.678-2.76-0.99-4.322-0.99
	c-1.668,0-3.23,0.416-4.74,1.197s-2.656,1.875-3.541,3.23c-0.73,1.041-1.199,2.134-1.459,3.281c-0.26,1.145-0.365,2.707-0.365,4.738
	l-0.051,11.459l-16.199-19.791c-1.145-1.406-2.344-2.449-3.541-3.074c-1.197-0.676-2.553-0.988-4.01-0.988
	c-3.178,0-5.781,0.988-7.709,2.969c-1.928,1.978-2.916,4.582-2.916,7.916v38.854c0,2.293,0.156,4.012,0.416,5.156
	c0.312,1.146,0.885,2.344,1.719,3.49c0.99,1.25,2.188,2.188,3.594,2.916c1.406,0.678,2.916,1.043,4.531,1.043
	C520.02,554.912,521.479,554.547,522.832,553.922z M607.676,553.975c0.625-0.156,1.199-0.365,1.719-0.625
	c0.521-0.262,1.043-0.625,1.512-1.043c1.041-0.885,1.875-1.979,2.447-3.281c0.572-1.354,0.885-2.707,0.885-4.113
	c0-2.865-1.094-5.262-3.332-7.188c-1.043-0.834-2.188-1.406-3.387-1.771c-1.25-0.365-2.916-0.521-5.156-0.521h-9.426v-4.582h7.291
	c1.615,0,2.865-0.105,3.75-0.312c0.887-0.209,1.771-0.625,2.553-1.25c1.771-1.459,2.656-3.387,2.656-5.781
	c0-2.137-0.781-3.906-2.24-5.262c-1.457-1.354-3.438-2.031-5.988-2.031h-8.021v-4.219h10.156c1.928,0,3.438-0.207,4.635-0.52
	c1.146-0.365,2.188-0.938,3.125-1.719c1.043-0.887,1.875-1.98,2.449-3.281c0.572-1.303,0.885-2.709,0.885-4.168
	c0-2.135-0.625-4.01-1.875-5.625c-1.303-1.613-3.021-2.656-5.156-3.229c-0.416-0.104-0.729-0.156-1.041-0.209
	c-0.312-0.104-0.73-0.156-1.199-0.207c-0.469-0.053-1.145-0.105-2.031-0.105c-0.832,0-2.031,0-3.488,0h-12.188
	c-1.459,0-2.658,0-3.543,0.053c-0.938,0.053-1.666,0.104-2.24,0.156c-0.572,0.053-1.092,0.156-1.51,0.26
	c-0.416,0.156-0.885,0.312-1.459,0.574c-1.041,0.52-2.031,1.197-2.916,2.031c-0.885,0.832-1.562,1.875-1.979,3.019
	c-0.209,0.521-0.365,0.938-0.469,1.303c-0.105,0.365-0.209,0.834-0.262,1.354c-0.104,0.521-0.104,1.199-0.156,1.98
	c-0.051,0.781-0.051,1.822-0.051,3.125v33.332c0,1.094,0,1.928,0,2.605c0,0.625,0,1.145,0.051,1.562
	c0.053,0.416,0.105,0.781,0.156,1.041c0.105,0.312,0.156,0.572,0.209,0.885c0.625,3.543,2.553,5.99,5.834,7.344
	c0.832,0.312,1.77,0.521,2.76,0.625c0.99,0.156,2.656,0.209,5,0.209h15.834c1.197,0,2.188-0.053,3.02-0.104
	C606.322,554.234,607.051,554.131,607.676,553.975z M642.885,507.516c0.572,0,1.146,0.156,1.771,0.469s1.457,0.938,2.5,1.771
	c1.719,1.301,3.176,2.188,4.426,2.707c1.199,0.521,2.553,0.781,3.959,0.781c2.344,0,4.271-0.781,5.729-2.344
	c1.512-1.562,2.24-3.594,2.24-6.041c0-1.928-0.469-3.697-1.51-5.312c-1.043-1.615-2.449-3.021-4.219-4.218
	c-1.824-1.197-3.906-2.135-6.303-2.865c-2.396-0.676-5-1.041-7.76-1.041c-3.334,0-6.406,0.469-9.219,1.459
	c-2.812,0.988-5.209,2.395-7.188,4.166c-1.98,1.771-3.543,3.906-4.637,6.354c-1.094,2.449-1.666,5.156-1.666,8.178
	c0,8.541,4.428,14.375,13.385,17.5c0.887,0.312,1.719,0.625,2.5,0.885c0.781,0.312,1.615,0.574,2.5,0.887
	c0.781,0.312,1.406,0.52,1.875,0.729s0.834,0.365,1.094,0.469c0.262,0.104,0.469,0.209,0.625,0.312
	c0.156,0.053,0.312,0.156,0.418,0.209c1.041,0.676,1.562,1.562,1.562,2.604c0,0.781-0.209,1.459-0.678,1.928
	c-0.416,0.469-1.094,0.729-1.875,0.729c-0.416,0-0.729-0.053-1.041-0.104c-0.312-0.053-0.678-0.262-1.094-0.521
	c-0.418-0.26-0.99-0.678-1.668-1.146c-0.676-0.52-1.562-1.145-2.656-2.031c-1.301-1.041-2.5-1.77-3.645-2.238
	c-1.146-0.469-2.293-0.678-3.543-0.678c-1.301,0-2.5,0.26-3.645,0.729c-1.146,0.469-2.137,1.146-2.969,1.98
	c-0.834,0.832-1.459,1.822-1.928,2.916s-0.678,2.291-0.678,3.594c0,2.24,0.625,4.271,1.771,6.146s2.812,3.541,4.896,4.947
	c2.082,1.406,4.582,2.553,7.395,3.334c2.865,0.781,5.887,1.197,9.168,1.197c3.801,0,7.135-0.469,9.947-1.666
	c2.812-0.99,5.26-2.553,7.344-4.637c1.875-1.875,3.281-4.113,4.322-6.666c0.99-2.553,1.512-5.209,1.512-7.969
	c0-2.916-0.574-5.678-1.668-8.229c-1.094-2.553-2.604-4.584-4.531-6.199c-1.406-1.25-3.281-2.395-5.625-3.541
	s-4.844-2.135-7.5-2.916c-2.395-0.781-4.01-1.459-4.844-2.031c-0.832-0.521-1.25-1.25-1.25-2.188c0-0.678,0.209-1.25,0.678-1.719
	S642.207,507.516,642.885,507.516z M711.844,520.588c-1.406-1.25-3.281-2.395-5.625-3.541s-4.844-2.135-7.5-2.916
	c-2.396-0.781-4.012-1.459-4.844-2.031c-0.834-0.521-1.25-1.25-1.25-2.188c0-0.678,0.207-1.25,0.676-1.719s1.043-0.678,1.719-0.678
	c0.574,0,1.146,0.156,1.771,0.469s1.459,0.938,2.5,1.771c1.719,1.301,3.178,2.188,4.428,2.707c1.197,0.521,2.551,0.781,3.957,0.781
	c2.344,0,4.271-0.781,5.73-2.344c1.51-1.562,2.238-3.594,2.238-6.041c0-1.928-0.469-3.697-1.51-5.312s-2.447-3.021-4.219-4.218
	c-1.822-1.197-3.906-2.135-6.303-2.865c-2.395-0.676-5-1.041-7.76-1.041c-3.334,0-6.406,0.469-9.219,1.459
	c-2.812,0.988-5.209,2.395-7.188,4.166c-1.979,1.771-3.541,3.906-4.635,6.354c-1.094,2.449-1.668,5.156-1.668,8.178
	c0,8.541,4.428,14.375,13.387,17.5c0.885,0.312,1.719,0.625,2.5,0.885c0.781,0.312,1.613,0.574,2.5,0.887
	c0.781,0.312,1.406,0.52,1.875,0.729s0.832,0.365,1.094,0.469c0.26,0.104,0.469,0.209,0.625,0.312
	c0.156,0.053,0.312,0.156,0.416,0.209c1.041,0.676,1.562,1.562,1.562,2.604c0,0.781-0.209,1.459-0.678,1.928
	c-0.416,0.469-1.094,0.729-1.875,0.729c-0.416,0-0.729-0.053-1.041-0.104c-0.312-0.053-0.678-0.262-1.094-0.521
	s-0.99-0.678-1.666-1.146c-0.678-0.52-1.562-1.145-2.656-2.031c-1.303-1.041-2.5-1.77-3.646-2.238s-2.291-0.678-3.541-0.678
	c-1.303,0-2.5,0.26-3.646,0.729s-2.135,1.146-2.969,1.98c-0.834,0.832-1.459,1.822-1.928,2.916s-0.676,2.291-0.676,3.594
	c0,2.24,0.625,4.271,1.77,6.146c1.146,1.875,2.812,3.541,4.896,4.947s4.584,2.553,7.396,3.334c2.863,0.781,5.885,1.197,9.166,1.197
	c3.803,0,7.135-0.469,9.947-1.666c2.812-0.99,5.262-2.553,7.344-4.637c1.875-1.875,3.281-4.113,4.324-6.666
	c0.988-2.553,1.51-5.209,1.51-7.969c0-2.916-0.572-5.678-1.666-8.229C715.281,524.234,713.77,522.203,711.844,520.588z
	 M306.739,581.057c-0.416-0.416-0.885-0.729-1.458-0.988c-0.572-0.262-1.146-0.365-1.771-0.365c-0.572,0-1.145,0.104-1.719,0.365
	c-0.572,0.207-1.094,0.52-1.457,0.938l-0.938,0.988c-0.574,0.574-1.199,1.043-1.928,1.355c-0.678,0.312-1.406,0.469-2.188,0.469
	s-1.459-0.156-2.135-0.418c-0.625-0.26-1.199-0.625-1.719-1.145c-0.469-0.469-0.887-1.043-1.146-1.719
	c-0.26-0.678-0.416-1.406-0.416-2.137c0-0.729,0.156-1.457,0.416-2.135s0.625-1.25,1.146-1.719c0.52-0.469,1.094-0.885,1.77-1.146
	c0.678-0.26,1.406-0.416,2.137-0.416c0.781,0,1.51,0.156,2.188,0.416c0.729,0.262,1.301,0.678,1.822,1.25l1.354,1.459
	c0.312,0.365,0.73,0.625,1.25,0.834c0.521,0.207,1.043,0.312,1.615,0.312c0.678,0,1.25-0.105,1.822-0.365
	c0.573-0.26,1.042-0.572,1.459-0.99c0.417-0.416,0.729-0.885,0.989-1.457c0.261-0.574,0.365-1.199,0.365-1.824
	c0-1.875-1.146-3.697-3.386-5.52c-1.303-1.094-2.76-1.928-4.375-2.5c-1.615-0.574-3.229-0.834-4.947-0.834
	c-2.031,0-3.959,0.365-5.73,1.146c-1.77,0.729-3.332,1.822-4.688,3.125c-1.354,1.354-2.395,2.916-3.176,4.688
	c-0.781,1.77-1.146,3.697-1.146,5.729c0,1.979,0.365,3.906,1.146,5.678c0.729,1.77,1.77,3.332,3.125,4.635
	c1.354,1.303,2.916,2.344,4.688,3.125c1.77,0.781,3.697,1.146,5.729,1.146c1.822,0,3.49-0.365,5.209-0.99s3.229-1.51,4.582-2.709
	c2.032-1.77,3.021-3.488,3.021-5.156c0-0.572-0.156-1.145-0.521-1.666C307.469,581.943,307.156,581.475,306.739,581.057z
	 M338.979,572.725c0.781,1.77,1.146,3.697,1.146,5.676c0,1.98-0.364,3.906-1.146,5.678s-1.823,3.334-3.178,4.688
	c-1.354,1.354-2.916,2.396-4.688,3.178c-1.771,0.781-3.697,1.145-5.677,1.145c-2.083,0-4.011-0.363-5.781-1.145
	s-3.333-1.824-4.688-3.178c-1.302-1.354-2.396-2.916-3.125-4.688c-0.781-1.822-1.146-3.75-1.146-5.834
	c0-2.031,0.364-3.906,1.146-5.625c0.781-1.77,1.823-3.281,3.125-4.582c1.302-1.303,2.864-2.344,4.688-3.074
	c1.771-0.729,3.698-1.145,5.729-1.145s3.958,0.363,5.729,1.145c1.771,0.781,3.334,1.824,4.688,3.125
	C337.156,569.391,338.198,570.953,338.979,572.725z M330.854,578.4c0-0.781-0.156-1.457-0.417-2.135
	c-0.312-0.678-0.677-1.25-1.198-1.719c-0.469-0.469-1.094-0.885-1.719-1.146c-0.677-0.26-1.406-0.416-2.135-0.416
	c-0.781,0-1.459,0.156-2.136,0.416c-0.677,0.262-1.25,0.678-1.719,1.146s-0.886,1.041-1.198,1.719
	c-0.26,0.625-0.416,1.354-0.416,2.084c0,0.781,0.156,1.457,0.416,2.188c0.312,0.676,0.678,1.301,1.198,1.77
	c0.469,0.521,1.094,0.887,1.719,1.199c0.677,0.312,1.406,0.416,2.136,0.416c0.781,0,1.458-0.156,2.135-0.416
	c0.678-0.312,1.25-0.678,1.719-1.199c0.469-0.52,0.886-1.094,1.198-1.77C330.75,579.859,330.854,579.131,330.854,578.4z
	 M375.489,586.578l-3.177-17.969c-0.156-0.781-0.312-1.354-0.521-1.822c-0.209-0.418-0.521-0.834-0.886-1.25
	c-0.364-0.418-0.886-0.73-1.458-0.938c-0.573-0.209-1.146-0.312-1.719-0.312c-0.834,0-1.667,0.207-2.396,0.676
	c-0.729,0.469-1.302,1.043-1.666,1.771l-4.688,9.947l-4.167-9.27c-0.417-0.938-1.042-1.668-1.875-2.24
	c-0.886-0.572-1.771-0.834-2.761-0.834c-1.197,0-2.188,0.365-2.969,1.146s-1.302,1.822-1.51,3.178l-3.178,17.863
	c0,0.209-0.052,0.418-0.052,0.574c0,0.207,0,0.363,0,0.572c0,1.459,0.417,2.656,1.302,3.594c0.834,0.938,1.979,1.406,3.334,1.406
	c1.197,0,2.188-0.365,3.021-1.146s1.354-1.822,1.562-3.176l0.729-4.428l1.822,5c0.469,1.303,1.094,2.24,1.823,2.865
	c0.781,0.572,1.719,0.885,2.864,0.885c2.24,0,3.803-1.25,4.74-3.803l1.822-4.947l1.042,5.209c0.208,1.041,0.729,1.926,1.562,2.551
	s1.875,0.938,3.021,0.938c0.625,0,1.198-0.104,1.771-0.363c0.572-0.209,1.041-0.521,1.458-0.938
	c0.364-0.418,0.677-0.887,0.938-1.406c0.261-0.521,0.364-1.146,0.364-1.771c0-0.26,0-0.469-0.052-0.729
	C375.594,587.15,375.542,586.891,375.489,586.578z M399.188,570.119c0.677,1.406,1.042,2.865,1.042,4.428s-0.365,3.021-1.094,4.428
	c-0.729,1.406-1.719,2.604-3.021,3.541c-0.938,0.729-1.927,1.25-2.916,1.562c-0.99,0.312-2.188,0.469-3.594,0.469h-1.562v2.709
	c0,1.613-0.417,2.863-1.25,3.854c-0.834,0.99-1.928,1.459-3.334,1.459c-0.781,0-1.51-0.209-2.188-0.574
	c-0.677-0.363-1.25-0.885-1.666-1.51c-0.156-0.26-0.312-0.521-0.417-0.781s-0.208-0.521-0.261-0.781
	c-0.052-0.312-0.104-0.678-0.104-1.094c0-0.469,0-1.041,0-1.719v-16.303c0-0.988,0.104-1.77,0.26-2.344
	c0.156-0.572,0.521-1.094,0.99-1.613c0.469-0.469,0.989-0.834,1.614-1.043c0.625-0.207,1.302-0.312,2.188-0.312h3.854
	c1.094,0,2.083,0.053,2.916,0.105c0.834,0.051,1.562,0.207,2.24,0.363c0.677,0.156,1.25,0.365,1.771,0.625
	c0.521,0.262,1.094,0.625,1.614,1.043C397.521,567.568,398.511,568.766,399.188,570.119z M391.114,574.443
	c0-0.469-0.208-0.834-0.572-1.094c-0.417-0.262-0.938-0.365-1.667-0.365h-0.833v3.021c1.146,0.051,1.927-0.053,2.396-0.262
	C390.906,575.537,391.114,575.068,391.114,574.443z M426.427,567.412c-0.052-0.312-0.156-0.625-0.312-0.887
	c-0.104-0.26-0.312-0.52-0.521-0.781c-0.417-0.469-0.938-0.885-1.614-1.197c-0.678-0.312-1.303-0.469-1.979-0.469
	c-0.729,0-1.354,0.156-1.979,0.469c-0.572,0.312-1.094,0.729-1.562,1.303c-0.208,0.26-0.364,0.52-0.521,0.729
	s-0.261,0.469-0.312,0.729c-0.104,0.262-0.104,0.574-0.156,0.938c-0.052,0.365-0.052,0.781-0.052,1.303v11.146
	c0,0.988-0.261,1.77-0.678,2.291c-0.416,0.572-1.094,0.834-1.875,0.834s-1.406-0.262-1.875-0.834s-0.677-1.354-0.677-2.344
	l0.104-11.041c0-0.938-0.104-1.719-0.26-2.344c-0.209-0.625-0.521-1.146-0.99-1.615c-0.416-0.416-0.938-0.781-1.51-1.041
	c-0.625-0.262-1.25-0.418-1.875-0.418c-0.678,0-1.303,0.156-1.979,0.469s-1.198,0.73-1.667,1.303
	c-0.208,0.209-0.364,0.469-0.469,0.729c-0.156,0.262-0.26,0.521-0.312,0.834c-0.104,0.312-0.104,0.678-0.156,1.094
	c-0.052,0.469-0.052,0.99-0.052,1.666v9.844c0,0.887,0.052,1.719,0.104,2.449c0.052,0.729,0.208,1.406,0.364,2.031
	c0.208,0.625,0.417,1.197,0.729,1.77c0.26,0.574,0.625,1.146,1.041,1.719c1.094,1.512,2.5,2.709,4.167,3.594
	c1.667,0.887,3.438,1.303,5.312,1.303c1.667,0,3.281-0.365,4.792-1.094c1.51-0.729,2.864-1.771,4.01-3.072
	c1.042-1.146,1.771-2.396,2.24-3.803s0.729-3.072,0.729-4.947v-9.896c0-0.625,0-1.146-0.052-1.615
	C426.583,568.141,426.531,567.725,426.427,567.412z M448.979,564.494c-0.156,0-0.261-0.051-0.365-0.051c-0.052,0-0.208,0-0.416,0
	c-0.209,0-0.469,0-0.834,0c-0.364,0-0.885,0-1.51,0h-9.271c-0.885,0-1.666,0-2.188,0c-0.521,0-0.989,0-1.302,0.051
	c-0.312,0-0.573,0.053-0.781,0.105c-0.208,0.051-0.417,0.156-0.677,0.26c-0.678,0.312-1.25,0.834-1.719,1.562
	s-0.678,1.459-0.678,2.291c0,1.146,0.417,2.137,1.303,3.074c0.416,0.416,0.938,0.729,1.458,0.938
	c0.521,0.207,1.198,0.312,2.031,0.312h2.448v13.957c0,0.938,0.052,1.668,0.156,2.188c0.104,0.521,0.312,0.99,0.625,1.459
	c0.469,0.572,0.989,1.094,1.666,1.406c0.625,0.365,1.354,0.521,2.136,0.521s1.511-0.156,2.188-0.521s1.198-0.885,1.614-1.562
	c0.312-0.469,0.521-0.99,0.625-1.51c0.104-0.521,0.156-1.199,0.156-2.031v-13.906h2.031c1.615,0,2.812-0.312,3.542-0.99
	c0.469-0.416,0.833-0.938,1.094-1.51c0.261-0.625,0.417-1.199,0.417-1.824c0-1.094-0.365-2.031-1.042-2.812
	S450.073,564.65,448.979,564.494z M469.552,573.244c0.834,0,1.562-0.051,2.084-0.207c0.521-0.156,0.989-0.418,1.406-0.781
	c0.469-0.418,0.833-0.887,1.094-1.512c0.26-0.625,0.416-1.25,0.416-1.926c0-0.99-0.26-1.824-0.833-2.553s-1.354-1.197-2.344-1.459
	c-0.156-0.051-0.312-0.051-0.469-0.104c-0.104-0.053-0.312-0.053-0.521-0.104c-0.261-0.053-0.521-0.053-0.938-0.053
	c-0.417,0-0.938,0-1.615,0h-5.521c-0.677,0-1.198,0-1.614,0c-0.365,0-0.729,0-0.99,0.053c-0.26,0-0.469,0.051-0.677,0.104
	s-0.417,0.156-0.677,0.26c-0.469,0.262-0.938,0.521-1.303,0.938c-0.364,0.418-0.677,0.887-0.885,1.406
	c-0.104,0.209-0.156,0.418-0.209,0.574c-0.052,0.207-0.052,0.363-0.104,0.625c0,0.207-0.053,0.52-0.053,0.885s0,0.834,0,1.406
	v15.156c0,0.469,0,0.834,0,1.146s0,0.52,0,0.729s0,0.312,0.053,0.469c0.052,0.156,0.052,0.26,0.104,0.416
	c0.312,1.615,1.198,2.709,2.656,3.334c0.365,0.156,0.781,0.26,1.25,0.312c0.417,0.053,1.198,0.104,2.24,0.104h7.135
	c0.521,0,0.99,0,1.354-0.051c0.364-0.053,0.729-0.105,0.989-0.156c0.261-0.105,0.521-0.209,0.781-0.312
	c0.209-0.105,0.469-0.262,0.678-0.469c0.469-0.418,0.833-0.887,1.094-1.512c0.26-0.625,0.416-1.25,0.416-1.875
	c0-1.354-0.521-2.395-1.51-3.281c-0.469-0.416-0.99-0.676-1.511-0.832c-0.573-0.156-1.354-0.209-2.344-0.209l-4.219,0.209v-2.084
	h3.281c0.729,0,1.302-0.053,1.719-0.156s0.781-0.312,1.146-0.572c0.781-0.678,1.198-1.562,1.198-2.656
	c0-0.99-0.312-1.771-0.989-2.396c-0.678-0.625-1.562-0.938-2.709-0.938h-3.646v-1.928H469.552z M498.979,586.578
	c0.156,0.521,0.208,0.99,0.208,1.51c0,0.625-0.104,1.25-0.364,1.771c-0.261,0.521-0.573,1.041-0.99,1.406
	c-0.416,0.416-0.885,0.729-1.458,0.938s-1.146,0.365-1.823,0.365c-1.666,0-2.969-0.73-3.802-2.137l-3.802-6.301v3.801
	c0,0.678-0.104,1.303-0.365,1.824c-0.26,0.572-0.572,1.041-0.938,1.457c-0.416,0.418-0.885,0.73-1.406,0.99
	c-0.521,0.26-1.146,0.365-1.771,0.365c-0.677,0-1.354-0.156-2.031-0.418c-0.625-0.312-1.146-0.729-1.614-1.25
	c-0.729-0.938-1.094-2.238-1.094-3.957v-17.188c0-0.99,0.104-1.824,0.312-2.449c0.208-0.625,0.625-1.197,1.197-1.666
	c0.521-0.469,1.094-0.781,1.667-0.938s1.406-0.26,2.552-0.26h3.854c1.146,0,2.031,0.051,2.656,0.104s1.25,0.156,1.823,0.312
	c1.094,0.312,2.083,0.781,2.969,1.406c0.885,0.625,1.666,1.354,2.291,2.188s1.146,1.771,1.511,2.812s0.521,2.084,0.521,3.229
	c0,1.355-0.208,2.553-0.677,3.646s-1.198,2.24-2.292,3.438l2.188,3.49C498.614,585.537,498.823,586.057,498.979,586.578z
	 M490.021,574.547c0-1.041-0.729-1.562-2.135-1.51c-0.104,0-0.261,0-0.417,0s-0.312,0-0.521-0.053v3.021h0.364h0.625
	C489.344,576.057,490.021,575.588,490.021,574.547z M532.572,577.203c-0.625-0.572-1.51-1.094-2.553-1.615
	c-1.041-0.52-2.188-0.938-3.385-1.301c-1.094-0.365-1.822-0.678-2.188-0.938c-0.365-0.262-0.572-0.574-0.572-0.99
	c0-0.312,0.104-0.572,0.312-0.781c0.207-0.209,0.469-0.312,0.781-0.312c0.26,0,0.469,0.104,0.781,0.209
	c0.312,0.104,0.676,0.363,1.145,0.781c0.781,0.625,1.459,0.988,2.031,1.25c0.574,0.26,1.199,0.363,1.824,0.363
	c1.094,0,1.926-0.312,2.604-1.041s0.99-1.666,0.99-2.76c0-0.834-0.209-1.668-0.678-2.396s-1.094-1.354-1.928-1.928
	c-0.832-0.572-1.77-0.988-2.863-1.301c-1.043-0.312-2.24-0.469-3.49-0.469c-1.51,0-2.916,0.207-4.166,0.676
	c-1.25,0.418-2.344,1.043-3.23,1.875c-0.885,0.781-1.562,1.771-2.082,2.865c-0.469,1.094-0.73,2.344-0.73,3.697
	c0,3.906,1.98,6.562,6.043,7.969c0.416,0.156,0.781,0.312,1.145,0.418c0.365,0.156,0.73,0.26,1.146,0.416
	c0.312,0.104,0.625,0.209,0.834,0.312c0.207,0.104,0.416,0.156,0.52,0.209c0.156,0.051,0.262,0.104,0.312,0.156
	c0.105,0.051,0.156,0.051,0.209,0.104c0.469,0.26,0.729,0.678,0.729,1.146c0,0.363-0.104,0.676-0.312,0.885
	c-0.207,0.209-0.469,0.312-0.832,0.312c-0.156,0-0.312,0-0.469-0.053c-0.156,0-0.312-0.104-0.521-0.207
	c-0.156-0.105-0.416-0.312-0.729-0.521c-0.312-0.26-0.678-0.521-1.199-0.938c-0.625-0.469-1.145-0.834-1.666-1.041
	c-0.521-0.209-1.041-0.312-1.615-0.312c-0.625,0-1.145,0.104-1.666,0.312c-0.521,0.207-0.99,0.52-1.354,0.885
	c-0.365,0.365-0.678,0.781-0.887,1.303c-0.207,0.469-0.312,1.041-0.312,1.613c0,0.99,0.262,1.928,0.781,2.762
	c0.574,0.832,1.303,1.613,2.24,2.238s2.031,1.146,3.334,1.512c1.301,0.363,2.707,0.52,4.166,0.52c1.719,0,3.229-0.26,4.322-0.572
	c1.25-0.469,2.396-1.197,3.334-2.135c0.834-0.834,1.459-1.875,1.928-3.021s0.676-2.344,0.676-3.594c0-1.354-0.207-2.604-0.729-3.75
	C534.135,578.869,533.457,577.932,532.572,577.203z M564.135,581.057c-0.416-0.416-0.885-0.729-1.459-0.988
	c-0.572-0.262-1.145-0.365-1.77-0.365c-0.574,0-1.146,0.104-1.719,0.365c-0.574,0.207-1.043,0.52-1.459,0.938l-0.938,0.988
	c-0.572,0.574-1.197,1.043-1.928,1.355c-0.676,0.312-1.457,0.469-2.188,0.469c-0.781,0-1.457-0.156-2.135-0.418
	c-0.625-0.26-1.197-0.625-1.719-1.145c-0.521-0.469-0.938-1.043-1.197-1.719c-0.262-0.678-0.418-1.406-0.418-2.137
	c0-0.729,0.156-1.457,0.418-2.135c0.312-0.678,0.676-1.25,1.197-1.719s1.094-0.885,1.771-1.146c0.676-0.26,1.406-0.416,2.135-0.416
	c0.781,0,1.51,0.156,2.188,0.416c0.729,0.262,1.303,0.678,1.822,1.25l1.355,1.459c0.312,0.365,0.729,0.625,1.25,0.834
	c0.52,0.207,1.041,0.312,1.613,0.312c0.678,0,1.25-0.105,1.824-0.365c0.572-0.26,1.041-0.572,1.457-0.99
	c0.418-0.416,0.73-0.885,0.99-1.457c0.26-0.574,0.365-1.199,0.365-1.824c0-1.875-1.146-3.697-3.387-5.52
	c-1.301-1.094-2.76-1.928-4.375-2.5c-1.613-0.574-3.229-0.834-4.947-0.834c-2.031,0-3.959,0.365-5.729,1.146
	c-1.771,0.729-3.334,1.822-4.688,3.125c-1.355,1.354-2.396,2.916-3.178,4.688c-0.781,1.77-1.146,3.697-1.146,5.729
	c0,1.979,0.365,3.906,1.146,5.678c0.729,1.77,1.771,3.332,3.125,4.635s2.916,2.344,4.688,3.125s3.697,1.146,5.729,1.146
	c1.824,0,3.49-0.365,5.209-0.99s3.229-1.51,4.584-2.709c2.031-1.77,3.02-3.488,3.02-5.156c0-0.572-0.104-1.145-0.52-1.666
	C564.863,581.943,564.551,581.475,564.135,581.057z M576.895,565.693c-0.885-0.99-2.031-1.459-3.438-1.459s-2.5,0.521-3.385,1.51
	c-0.26,0.262-0.469,0.521-0.625,0.781c-0.156,0.262-0.26,0.521-0.365,0.834c-0.051,0.312-0.104,0.678-0.156,1.094
	c-0.051,0.416-0.051,0.938-0.051,1.51v17.293c0,0.988,0.104,1.719,0.26,2.291c0.209,0.572,0.469,1.094,0.938,1.562
	c0.365,0.416,0.887,0.781,1.51,1.041c0.678,0.262,1.303,0.418,1.928,0.418c0.572,0,1.197-0.156,1.822-0.418
	c0.625-0.312,1.146-0.676,1.615-1.145c0.416-0.469,0.729-0.99,0.885-1.562c0.156-0.574,0.262-1.303,0.262-2.188v-17.293
	c0-1.145-0.105-2.031-0.262-2.604S577.363,566.213,576.895,565.693z M596.219,573.244c0.832,0,1.562-0.051,2.082-0.207
	c0.521-0.156,0.99-0.418,1.406-0.781c0.469-0.418,0.834-0.887,1.094-1.512c0.262-0.625,0.418-1.25,0.418-1.926
	c0-0.99-0.262-1.824-0.834-2.553s-1.354-1.197-2.344-1.459c-0.156-0.051-0.312-0.051-0.469-0.104
	c-0.104-0.053-0.312-0.053-0.521-0.104c-0.26-0.053-0.572-0.053-0.938-0.053c-0.416,0-0.938,0-1.613,0h-5.521
	c-0.678,0-1.197,0-1.615,0c-0.363,0-0.729,0-0.988,0.053c-0.262,0-0.469,0.051-0.678,0.104s-0.416,0.156-0.678,0.26
	c-0.469,0.262-0.885,0.521-1.301,0.938c-0.365,0.418-0.678,0.887-0.887,1.406c-0.104,0.209-0.156,0.418-0.207,0.574
	c-0.053,0.207-0.053,0.363-0.105,0.625c0,0.207-0.051,0.52-0.051,0.885s0,0.834,0,1.406v15.156c0,0.469,0,0.834,0,1.146
	s0,0.52,0,0.729s0,0.365,0.051,0.469c0.053,0.156,0.053,0.26,0.105,0.416c0.312,1.615,1.197,2.709,2.656,3.334
	c0.363,0.156,0.781,0.26,1.25,0.312c0.416,0.053,1.197,0.104,2.238,0.104h7.137c0.52,0,0.988,0,1.354-0.051
	c0.365-0.053,0.729-0.105,0.99-0.156c0.26-0.105,0.52-0.209,0.781-0.312c0.207-0.105,0.469-0.262,0.676-0.469
	c0.469-0.418,0.834-0.887,1.094-1.512c0.262-0.625,0.418-1.25,0.418-1.875c0-1.354-0.521-2.395-1.512-3.281
	c-0.469-0.416-0.988-0.676-1.51-0.832c-0.572-0.156-1.354-0.209-2.344-0.209l-4.219,0.209v-2.084h3.281
	c0.729,0,1.303-0.053,1.719-0.156s0.781-0.312,1.146-0.572c0.781-0.678,1.197-1.562,1.197-2.656c0-0.99-0.312-1.771-0.99-2.396
	c-0.676-0.625-1.562-0.938-2.707-0.938h-3.646v-1.928H596.219z M628.041,565.953c-0.416-0.521-0.938-0.938-1.562-1.25
	c-0.572-0.26-1.25-0.416-1.928-0.416c-0.729,0-1.457,0.156-2.135,0.52c-0.676,0.365-1.25,0.834-1.615,1.459
	c-0.363,0.521-0.572,0.99-0.676,1.51c-0.105,0.521-0.156,1.199-0.156,2.137v5.156l-7.344-9.012
	c-0.521-0.625-1.094-1.094-1.615-1.406c-0.521-0.26-1.146-0.416-1.822-0.416c-1.459,0-2.605,0.469-3.49,1.354
	c-0.885,0.887-1.303,2.084-1.303,3.594v17.656c0,1.043,0.105,1.824,0.209,2.344c0.156,0.574,0.416,1.094,0.781,1.615
	c0.416,0.521,0.99,0.99,1.615,1.303s1.301,0.469,2.031,0.469c0.729,0,1.354-0.105,1.979-0.418c0.572-0.312,1.094-0.729,1.562-1.25
	c0.416-0.469,0.678-0.988,0.834-1.51s0.207-1.197,0.207-2.135v-5.834l7.293,9.322c0.938,1.25,2.188,1.875,3.645,1.875
	c0.73,0,1.406-0.104,2.031-0.416c0.625-0.26,1.146-0.678,1.562-1.25c0.365-0.521,0.625-1.094,0.781-1.666
	c0.156-0.574,0.209-1.459,0.209-2.553V569.65c0-0.885-0.104-1.613-0.26-2.135S628.406,566.475,628.041,565.953z M651.844,564.494
	c-0.156,0-0.262-0.051-0.365-0.051c-0.053,0-0.209,0-0.416,0c-0.209,0-0.469,0-0.834,0s-0.885,0-1.51,0h-9.271
	c-0.885,0-1.666,0-2.188,0s-0.99,0-1.303,0.051c-0.312,0-0.572,0.053-0.781,0.105c-0.207,0.051-0.416,0.156-0.676,0.26
	c-0.678,0.312-1.25,0.834-1.719,1.562s-0.678,1.459-0.678,2.291c0,1.146,0.416,2.137,1.303,3.074
	c0.416,0.416,0.938,0.729,1.457,0.938c0.574,0.207,1.199,0.312,2.031,0.312h2.449v13.957c0,0.938,0.053,1.668,0.156,2.188
	c0.104,0.521,0.312,0.99,0.625,1.459c0.469,0.572,0.988,1.094,1.666,1.406c0.625,0.365,1.354,0.521,2.135,0.521
	s1.512-0.156,2.188-0.521c0.678-0.365,1.199-0.885,1.615-1.562c0.312-0.469,0.521-0.99,0.625-1.51
	c0.104-0.521,0.156-1.199,0.156-2.031v-13.906h2.031c1.615,0,2.812-0.312,3.541-0.99c0.469-0.416,0.834-0.938,1.094-1.51
	c0.262-0.625,0.418-1.199,0.418-1.824c0-1.094-0.365-2.031-1.043-2.812C653.875,565.119,652.938,564.65,651.844,564.494z
	 M666.635,565.693c-0.885-0.99-2.031-1.459-3.438-1.459s-2.5,0.521-3.385,1.51c-0.262,0.262-0.469,0.521-0.625,0.781
	c-0.156,0.262-0.262,0.521-0.365,0.834c-0.053,0.312-0.104,0.678-0.156,1.094s-0.053,0.938-0.053,1.51v17.293
	c0,0.988,0.105,1.719,0.262,2.291c0.207,0.572,0.469,1.094,0.938,1.562c0.363,0.416,0.885,0.781,1.51,1.041
	c0.678,0.262,1.303,0.418,1.928,0.418c0.572,0,1.197-0.156,1.822-0.418c0.625-0.312,1.146-0.676,1.615-1.145
	c0.416-0.469,0.729-0.99,0.885-1.562c0.156-0.574,0.26-1.303,0.26-2.188v-17.293c0-1.145-0.104-2.031-0.26-2.604
	S667.104,566.213,666.635,565.693z M689.344,577.203c-0.625-0.572-1.512-1.094-2.553-1.615c-1.041-0.52-2.188-0.938-3.385-1.301
	c-1.094-0.365-1.824-0.678-2.188-0.938c-0.365-0.262-0.574-0.574-0.574-0.99c0-0.312,0.105-0.572,0.312-0.781
	c0.209-0.209,0.469-0.312,0.781-0.312c0.262,0,0.521,0.053,0.781,0.209c0.312,0.104,0.678,0.363,1.146,0.781
	c0.781,0.625,1.459,0.988,2.031,1.25c0.572,0.26,1.197,0.363,1.822,0.363c1.094,0,1.928-0.312,2.605-1.041
	c0.676-0.729,0.988-1.666,0.988-2.76c0-0.834-0.207-1.668-0.676-2.396s-1.094-1.406-1.928-1.928
	c-0.834-0.572-1.771-0.988-2.865-1.301c-1.041-0.312-2.238-0.469-3.488-0.469c-1.512,0-2.918,0.207-4.168,0.676
	c-1.25,0.418-2.344,1.043-3.229,1.875c-0.885,0.781-1.562,1.771-2.084,2.865c-0.469,1.094-0.729,2.344-0.729,3.697
	c0,3.906,1.979,6.562,6.041,7.969c0.418,0.156,0.781,0.262,1.146,0.418s0.729,0.26,1.146,0.416c0.312,0.104,0.625,0.209,0.832,0.312
	c0.209,0.104,0.418,0.156,0.521,0.209c0.156,0.051,0.26,0.104,0.312,0.156c0.104,0.051,0.156,0.051,0.209,0.104
	c0.469,0.26,0.729,0.678,0.729,1.146c0,0.363-0.104,0.676-0.312,0.885s-0.469,0.312-0.834,0.312c-0.156,0-0.312,0-0.469-0.053
	c-0.156,0-0.312-0.104-0.52-0.207c-0.156-0.105-0.418-0.312-0.73-0.521c-0.312-0.26-0.676-0.521-1.197-0.938
	c-0.625-0.469-1.146-0.834-1.666-1.041c-0.521-0.209-1.043-0.312-1.615-0.312c-0.625,0-1.146,0.104-1.666,0.312
	c-0.521,0.207-0.99,0.52-1.355,0.885c-0.363,0.365-0.676,0.781-0.885,1.303c-0.209,0.469-0.312,1.041-0.312,1.613
	c0,0.99,0.26,1.928,0.781,2.762c0.572,0.832,1.303,1.613,2.24,2.238s2.031,1.146,3.332,1.512c1.303,0.363,2.709,0.52,4.168,0.52
	c1.719,0,3.229-0.26,4.322-0.572c1.303-0.469,2.396-1.197,3.334-2.135c0.832-0.834,1.457-1.875,1.926-3.021s0.678-2.344,0.678-3.594
	c0-1.354-0.209-2.604-0.729-3.75C690.906,578.869,690.229,577.932,689.344,577.203z M713.457,564.494
	c-0.156,0-0.26-0.051-0.363-0.051c-0.053,0-0.209,0-0.418,0c-0.207,0-0.469,0-0.832,0c-0.365,0-0.887,0-1.512,0h-9.27
	c-0.938,0-1.668,0-2.188,0c-0.521,0-0.99,0-1.303,0.051c-0.312,0-0.572,0.053-0.781,0.105c-0.209,0.051-0.416,0.156-0.678,0.26
	c-0.676,0.312-1.25,0.834-1.719,1.562s-0.676,1.459-0.676,2.291c0,1.146,0.416,2.137,1.301,3.074
	c0.418,0.416,0.938,0.729,1.459,0.938c0.521,0.207,1.197,0.312,2.031,0.312h2.447v13.957c0,0.938,0.053,1.668,0.156,2.188
	c0.105,0.521,0.312,0.99,0.625,1.459c0.469,0.572,1.043,1.041,1.668,1.406s1.354,0.521,2.135,0.521s1.51-0.156,2.188-0.521
	s1.197-0.885,1.615-1.562c0.312-0.469,0.52-0.99,0.625-1.51c0.104-0.521,0.156-1.199,0.156-2.031v-13.906h2.031
	c1.613,0,2.812-0.312,3.541-0.99c0.469-0.416,0.834-0.938,1.094-1.51c0.26-0.625,0.416-1.199,0.416-1.824
	c0-1.094-0.363-2.031-1.041-2.812S714.551,564.65,713.457,564.494z"/>
</svg>
