<?xml version="1.0" encoding="utf-8"?>
<!-- Generator: Adobe Illustrator 16.0.0, SVG Export Plug-In . SVG Version: 6.00 Build 0)  -->
<!DOCTYPE svg PUBLIC "-//W3C//DTD SVG 1.1//EN" "http://www.w3.org/Graphics/SVG/1.1/DTD/svg11.dtd">
<svg version="1.1" id="webpage_x5F_cover" xmlns="http://www.w3.org/2000/svg" xmlns:xlink="http://www.w3.org/1999/xlink" x="0px"
	 y="0px" width="578.334px" height="625.768px" viewBox="216.977 298.732 578.334 625.768"
	 enable-background="new 216.977 298.732 578.334 625.768" xml:space="preserve">
<rect id="background" x="-289.5" y="166.5" display="none" fill="#FFFFFF" width="1578" height="650"/>
<g id="symbols">
	<g>
		<path fill="#F2F2F2" d="M803.33,525.92c1.668,0.781,2.865,1.51,3.646,2.188c0.781,0.676,1.406,1.51,1.875,2.551
			c0.938,2.031,0.938,4.168-0.104,6.303c-1.043,2.24-2.656,3.594-4.844,4.166c-0.521,0.156-1.043,0.209-1.512,0.262
			c-0.469,0-0.988,0-1.562-0.156c-0.572-0.156-1.145-0.312-1.77-0.521c-0.625-0.26-1.406-0.572-2.24-0.99l-7.553-3.594
			c-0.885-0.416-1.613-0.781-2.188-1.094c-0.572-0.312-1.041-0.572-1.457-0.781c-0.418-0.207-0.73-0.469-1.043-0.676
			c-0.26-0.262-0.572-0.521-0.781-0.834c-1.926-2.135-2.551-4.635-1.822-7.604c0.104-0.312,0.156-0.574,0.26-0.781
			c0.053-0.209,0.156-0.521,0.312-0.834c0.105-0.312,0.312-0.729,0.521-1.197c0.26-0.521,0.572-1.199,0.938-2.031l17.969-37.865
			c0.469-0.99,0.834-1.771,1.146-2.344s0.572-1.094,0.781-1.459c0.207-0.363,0.416-0.676,0.625-0.938
			c0.207-0.207,0.469-0.52,0.832-0.781c1.615-1.458,3.438-2.134,5.574-2.031c0.52,0,0.938,0.053,1.301,0.104
			c0.365,0.052,0.781,0.156,1.25,0.312s1.043,0.417,1.719,0.677c0.678,0.312,1.562,0.73,2.709,1.25l4.74,2.24
			c1.094,0.521,1.979,0.938,2.656,1.25c0.625,0.312,1.145,0.572,1.562,0.781c0.363,0.209,0.676,0.416,0.885,0.572
			s0.416,0.312,0.678,0.521c1.406,1.25,2.291,2.656,2.656,4.219c0.363,1.615,0.207,3.178-0.521,4.688
			c-1.094,2.291-2.76,3.697-5,4.271c-0.99,0.26-1.979,0.312-3.021,0.156c-1.041-0.156-2.238-0.574-3.594-1.25l-3.75-1.771
			l-14.947,31.509L803.33,525.92z"/>
	</g>
	<path fill="#F2F2F2" d="M410.361,623.836c1.615,0.156,2.969,0.416,3.959,0.834c1.041,0.416,1.927,1.041,2.708,1.875
		c0.781,0.885,1.406,1.926,1.823,3.072c0.416,1.146,0.572,2.291,0.469,3.438c-0.104,1.197-0.417,2.291-0.99,3.438
		c-0.572,1.094-1.302,1.979-2.188,2.656c-0.938,0.729-1.927,1.25-2.969,1.459c-1.041,0.207-2.447,0.26-4.271,0.104l-31.614-2.604
		c-1.094-0.105-1.979-0.209-2.761-0.312c-0.781-0.105-1.406-0.262-1.979-0.469c-0.572-0.209-1.041-0.469-1.51-0.781
		s-0.886-0.73-1.303-1.25c-1.719-1.719-2.447-3.855-2.239-6.406c0.208-2.553,1.302-4.584,3.177-6.043
		c1.042-0.781,2.084-1.301,3.229-1.51c1.094-0.209,2.708-0.26,4.792-0.053L410.361,623.836z"/>
	<g>
		<path fill="#F2F2F2" d="M278.903,358.628l-15.938-30.99l-3.698,1.875c-1.354,0.677-2.552,1.146-3.594,1.354
			c-1.041,0.208-2.031,0.208-3.021-0.052c-2.292-0.521-3.958-1.875-5.104-4.115c-0.781-1.51-0.989-3.073-0.677-4.688
			s1.146-3.021,2.552-4.323c0.261-0.208,0.469-0.365,0.678-0.521c0.208-0.156,0.521-0.365,0.885-0.573
			c0.365-0.208,0.886-0.521,1.511-0.833s1.511-0.781,2.604-1.354l4.635-2.396c1.094-0.573,1.979-0.99,2.656-1.302
			c0.678-0.312,1.25-0.573,1.667-0.729c0.469-0.156,0.886-0.312,1.25-0.365c0.364-0.052,0.781-0.104,1.302-0.156
			c2.084-0.156,3.959,0.469,5.625,1.875c0.312,0.312,0.625,0.573,0.834,0.781c0.208,0.208,0.469,0.521,0.677,0.886
			c0.208,0.364,0.521,0.833,0.833,1.458c0.312,0.573,0.729,1.354,1.25,2.292l19.167,37.292c0.416,0.833,0.781,1.458,1.041,1.979
			c0.262,0.469,0.418,0.833,0.574,1.198c0.156,0.312,0.26,0.625,0.312,0.833c0.104,0.208,0.156,0.469,0.26,0.781
			c0.834,2.917,0.26,5.469-1.615,7.656c-0.26,0.312-0.52,0.573-0.781,0.833c-0.26,0.26-0.625,0.521-0.989,0.729
			c-0.416,0.208-0.885,0.521-1.458,0.833s-1.25,0.677-2.136,1.146l-7.447,3.802c-0.834,0.417-1.562,0.781-2.188,1.042
			c-0.625,0.26-1.25,0.469-1.771,0.625c-0.521,0.156-1.041,0.208-1.562,0.208c-0.469,0-0.989-0.052-1.51-0.208
			c-2.188-0.469-3.854-1.823-5-4.011c-1.094-2.135-1.198-4.219-0.312-6.302c0.469-1.042,1.041-1.927,1.822-2.604
			c0.781-0.729,1.979-1.458,3.594-2.344L278.903,358.628z"/>
	</g>
	<g>
		<path fill="#F2F2F2" d="M371.403,353.368c-1.406,1.406-2.656,2.5-3.698,3.229c-1.041,0.729-2.239,1.354-3.646,1.875
			c-2.448,0.938-4.896,1.406-7.448,1.302c-2.5-0.052-4.896-0.573-7.135-1.51c-2.24-0.938-4.219-2.292-5.938-4.01
			s-3.073-3.75-4.011-6.146c-0.364-0.885-0.625-1.771-0.833-2.604c-0.209-0.833-0.261-1.667-0.209-2.552
			c0.053-0.885,0.209-1.771,0.417-2.76c0.208-0.99,0.573-2.083,0.989-3.333c-0.885-0.521-1.614-1.042-2.239-1.562
			s-1.146-0.99-1.614-1.51c-0.469-0.521-0.886-1.042-1.198-1.615s-0.625-1.198-0.886-1.823c-0.833-2.083-1.146-4.271-0.938-6.511
			c0.156-2.239,0.781-4.375,1.771-6.354c0.989-2.031,2.344-3.854,4.114-5.469c1.719-1.615,3.75-2.917,6.042-3.802
			c2.031-0.781,4.219-1.198,6.458-1.25c2.292-0.052,4.427,0.261,6.406,0.938c2.031,0.625,3.802,1.615,5.364,2.812
			c1.562,1.25,2.656,2.708,3.281,4.375c0.365,0.99,0.573,2.031,0.521,3.073c-0.053,1.042-0.312,2.083-0.729,3.073
			c-0.469,0.99-1.042,1.823-1.823,2.552c-0.781,0.729-1.719,1.302-2.76,1.719c-1.511,0.573-2.917,0.781-4.167,0.521
			c-1.25-0.208-2.656-0.938-4.271-2.031c-0.469-0.364-0.886-0.573-1.198-0.625c-0.312-0.052-0.677,0-1.042,0.104
			c-0.572,0.208-0.989,0.625-1.25,1.198c-0.26,0.573-0.26,1.146-0.052,1.719s0.521,0.938,0.938,1.146
			c0.417,0.208,1.146,0.312,2.188,0.364c1.354,0.104,2.396,0.417,3.177,0.99s1.406,1.562,1.979,2.917
			c0.833,2.083,0.573,3.802-0.729,5.052l-2.135,2.083c-0.312,0.208-0.469,0.573-0.521,1.042c-0.052,0.469,0.053,0.938,0.261,1.458
			c0.208,0.573,0.625,0.989,1.198,1.25c0.572,0.26,1.146,0.312,1.719,0.052c1.146-0.469,1.927-1.51,2.344-3.229l1.354-5.625
			c0.209-0.99,0.834-2.031,1.823-3.073c0.989-1.042,2.031-1.771,3.125-2.188c0.989-0.365,2.083-0.573,3.229-0.521
			c1.146,0,2.188,0.208,3.177,0.625c0.989,0.365,1.875,0.938,2.656,1.615c0.781,0.677,1.354,1.458,1.719,2.396
			c0.469,1.198,0.625,2.865,0.469,5.104c1.406,0.729,2.396,1.406,3.125,2.083c0.677,0.677,1.25,1.511,1.614,2.5
			c0.417,1.042,0.573,2.136,0.521,3.229c-0.053,1.094-0.312,2.135-0.781,3.125c-0.469,0.989-1.042,1.875-1.875,2.656
			c-0.834,0.781-1.771,1.406-2.812,1.771c-0.834,0.312-1.719,0.521-2.604,0.573C374.06,353.836,372.914,353.68,371.403,353.368z"/>
		<path fill="#F2F2F2" d="M415.205,336.336c-1.406,1.406-2.656,2.5-3.697,3.229c-1.042,0.729-2.24,1.354-3.646,1.875
			c-2.447,0.938-4.896,1.406-7.447,1.302c-2.5-0.052-4.896-0.573-7.136-1.51s-4.219-2.292-5.938-4.01s-3.073-3.75-4.011-6.146
			c-0.364-0.885-0.625-1.771-0.833-2.604c-0.208-0.833-0.261-1.667-0.208-2.552c0.052-0.885,0.208-1.771,0.416-2.76
			c0.209-0.99,0.573-2.083,0.99-3.333c-0.886-0.521-1.615-1.042-2.24-1.562s-1.146-0.99-1.614-1.51
			c-0.469-0.521-0.886-1.042-1.198-1.615s-0.625-1.198-0.885-1.823c-0.834-2.083-1.146-4.271-0.938-6.511
			c0.156-2.239,0.781-4.375,1.771-6.354c0.989-2.031,2.344-3.854,4.114-5.469c1.719-1.615,3.75-2.917,6.042-3.802
			c2.031-0.781,4.219-1.198,6.458-1.25c2.292-0.052,4.428,0.261,6.406,0.938c2.031,0.625,3.803,1.615,5.365,2.812
			c1.562,1.25,2.656,2.708,3.281,4.375c0.364,0.99,0.572,2.031,0.521,3.073c-0.052,1.042-0.312,2.083-0.729,3.073
			c-0.469,0.99-1.041,1.823-1.822,2.552c-0.781,0.729-1.719,1.302-2.761,1.719c-1.511,0.573-2.917,0.781-4.167,0.521
			c-1.25-0.208-2.656-0.938-4.271-2.031c-0.469-0.364-0.886-0.573-1.198-0.625c-0.312-0.052-0.677,0-1.041,0.104
			c-0.573,0.208-0.99,0.625-1.25,1.198c-0.261,0.573-0.261,1.146-0.053,1.719c0.209,0.573,0.521,0.938,0.938,1.146
			c0.417,0.208,1.146,0.312,2.188,0.364c1.354,0.104,2.396,0.417,3.178,0.99s1.406,1.562,1.979,2.917
			c0.834,2.083,0.573,3.802-0.729,5.052l-2.136,2.083c-0.312,0.208-0.469,0.573-0.521,1.042c-0.053,0.469,0.052,0.938,0.26,1.458
			c0.209,0.573,0.625,0.989,1.198,1.25c0.573,0.26,1.146,0.312,1.719,0.052c1.146-0.469,1.927-1.51,2.344-3.229l1.354-5.625
			c0.208-0.99,0.833-2.031,1.822-3.073c0.99-1.042,2.031-1.771,3.125-2.188c0.99-0.365,2.084-0.573,3.229-0.521
			s2.188,0.208,3.177,0.625c0.99,0.365,1.875,0.938,2.656,1.615c0.781,0.677,1.354,1.458,1.719,2.396
			c0.469,1.198,0.625,2.865,0.469,5.104c1.406,0.729,2.396,1.406,3.125,2.083c0.678,0.677,1.25,1.511,1.615,2.5
			c0.416,1.042,0.572,2.136,0.521,3.229s-0.312,2.135-0.781,3.125c-0.417,0.989-1.042,1.875-1.875,2.656s-1.771,1.406-2.812,1.771
			c-0.833,0.312-1.719,0.521-2.604,0.573C417.861,336.805,416.664,336.649,415.205,336.336z"/>
	</g>
	<g>
		<path fill="#F2F2F2" d="M746.573,702.719c-0.625,1.51-1.303,2.707-2.031,3.541s-1.615,1.51-2.656,2.031
			c-1.094,0.469-2.24,0.729-3.49,0.781s-2.395-0.156-3.438-0.572c-1.094-0.469-2.082-1.146-2.916-2.031
			c-0.834-0.887-1.51-1.875-1.822-2.865c-0.418-1.094-0.574-2.188-0.469-3.281c0.104-1.041,0.52-2.396,1.197-4.062l12.24-29.271
			c0.416-0.989,0.781-1.822,1.145-2.5c0.365-0.677,0.678-1.25,1.043-1.719c0.363-0.469,0.781-0.885,1.197-1.197
			c0.469-0.365,0.99-0.625,1.562-0.886c2.188-1.094,4.428-1.146,6.822-0.156c2.344,0.989,3.959,2.604,4.793,4.896
			c0.416,1.25,0.572,2.396,0.469,3.49c-0.156,1.094-0.625,2.656-1.406,4.583L746.573,702.719z"/>
		<path fill="#F2F2F2" d="M777.198,715.531c-0.625,1.51-1.303,2.707-2.031,3.541s-1.615,1.51-2.656,2.031
			c-1.094,0.469-2.24,0.729-3.49,0.781s-2.395-0.156-3.438-0.572c-1.094-0.469-2.082-1.146-2.969-2.031
			c-0.885-0.887-1.51-1.875-1.822-2.865c-0.416-1.094-0.572-2.188-0.469-3.281c0.104-1.041,0.521-2.396,1.197-4.062l12.24-29.271
			c0.416-0.988,0.781-1.822,1.146-2.5c0.363-0.676,0.676-1.25,1.041-1.719c0.365-0.468,0.781-0.884,1.197-1.196
			c0.469-0.365,0.99-0.625,1.562-0.886c2.188-1.094,4.428-1.146,6.824-0.156c2.344,0.989,3.957,2.604,4.791,4.895
			c0.416,1.25,0.572,2.396,0.469,3.49c-0.156,1.094-0.625,2.656-1.406,4.584L777.198,715.531z"/>
	</g>
	<g>
		<path fill="#F2F2F2" d="M527.914,298.107c1.197,0.781,2.084,1.719,2.709,2.865c0.625,1.146,0.938,2.396,0.938,3.698
			c0,1.042-0.209,1.979-0.678,2.917c-0.416,0.938-0.99,1.719-1.666,2.396c-0.678,0.677-1.512,1.25-2.449,1.667
			c-0.938,0.417-1.926,0.677-2.863,0.677c-0.99,0-1.928-0.208-2.812-0.625c-0.887-0.417-1.668-0.938-2.396-1.562
			c-0.678-0.625-1.25-1.406-1.666-2.24c-0.418-0.833-0.678-1.719-0.678-2.656c0-1.823,0.678-4.01,1.979-6.51l1.615-3.073
			c0.99-1.771,1.822-3.073,2.604-3.802s1.668-1.094,2.709-1.094s1.928,0.312,2.656,0.938s1.094,1.406,1.094,2.24
			c0,0.781-0.26,1.823-0.834,3.229c-0.051,0.104-0.104,0.208-0.104,0.365C528.07,297.795,528.018,297.951,527.914,298.107z
			 M546.664,298.107c1.197,0.781,2.084,1.719,2.709,2.865c0.625,1.146,0.938,2.396,0.938,3.698c0,1.042-0.209,1.979-0.678,2.917
			c-0.416,0.938-0.99,1.719-1.719,2.396s-1.51,1.25-2.447,1.667c-0.938,0.417-1.875,0.677-2.918,0.677
			c-0.938,0-1.822-0.208-2.707-0.625c-0.887-0.417-1.668-0.938-2.396-1.562c-0.678-0.625-1.25-1.406-1.666-2.24
			c-0.418-0.833-0.678-1.719-0.678-2.656c0-1.823,0.678-4.01,1.979-6.51l1.615-3.073c0.938-1.771,1.771-3.073,2.553-3.802
			s1.719-1.094,2.707-1.094c1.043,0,1.928,0.312,2.656,0.938c0.73,0.625,1.094,1.406,1.094,2.24c0,0.781-0.26,1.823-0.832,3.229
			c-0.053,0.104-0.105,0.208-0.105,0.365C546.82,297.795,546.768,297.951,546.664,298.107z"/>
	</g>
	<g>
		<path fill="#F2F2F2" d="M432.834,756.764c-1.197-0.781-2.084-1.719-2.709-2.863c-0.625-1.146-0.938-2.396-0.938-3.699
			c0-0.988,0.209-1.926,0.678-2.863c0.416-0.938,0.99-1.771,1.666-2.448c0.678-0.677,1.512-1.25,2.396-1.666
			c0.938-0.417,1.875-0.678,2.916-0.678c0.99,0,1.928,0.209,2.812,0.625c0.887,0.417,1.668,0.938,2.396,1.562
			c0.678,0.625,1.25,1.406,1.666,2.24c0.418,0.833,0.678,1.718,0.678,2.655c0,0.885-0.156,1.875-0.521,2.969
			c-0.312,1.146-0.832,2.291-1.51,3.541l-1.615,2.969c-0.988,1.824-1.822,3.125-2.604,3.855c-0.781,0.729-1.666,1.094-2.709,1.094
			c-1.041,0-1.926-0.312-2.656-0.99c-0.729-0.678-1.094-1.459-1.094-2.291c0-0.781,0.262-1.824,0.834-3.23
			c0.053-0.104,0.104-0.207,0.104-0.363C432.678,757.076,432.73,756.92,432.834,756.764z M451.584,756.764
			c-1.197-0.781-2.084-1.719-2.709-2.863c-0.625-1.146-0.938-2.396-0.938-3.699c0-0.988,0.209-1.926,0.678-2.863
			c0.416-0.938,0.99-1.771,1.666-2.448c0.678-0.677,1.512-1.25,2.396-1.666c0.938-0.417,1.875-0.678,2.916-0.678
			c0.99,0,1.928,0.209,2.812,0.625c0.887,0.417,1.668,0.938,2.396,1.562c0.678,0.625,1.25,1.406,1.666,2.24
			c0.418,0.833,0.678,1.718,0.678,2.655c0,0.885-0.156,1.875-0.521,2.969c-0.363,1.146-0.885,2.291-1.51,3.541l-1.51,2.969
			c-0.99,1.824-1.824,3.125-2.605,3.855c-0.781,0.729-1.666,1.094-2.707,1.094c-1.043,0-1.928-0.312-2.709-0.99
			s-1.146-1.459-1.146-2.291c0-0.365,0.105-0.834,0.262-1.406c0.156-0.574,0.416-1.199,0.676-1.824
			c0.053-0.104,0.105-0.207,0.105-0.363C451.428,757.076,451.48,756.92,451.584,756.764z"/>
	</g>
	<g>
		<path fill="#F2F2F2" d="M658.799,302.743c1.824-3.177,4.375-4.739,7.5-4.739c2.24,0,4.115,0.781,5.625,2.292
			c1.459,1.51,2.24,3.49,2.24,5.833c0,1.354-0.625,3.021-1.822,5.052l-25.053,42.292c-0.729,1.198-1.406,2.188-1.979,2.969
			c-0.625,0.833-1.25,1.458-1.928,1.979c-0.678,0.469-1.354,0.833-2.082,1.042c-0.73,0.208-1.512,0.312-2.449,0.312
			c-2.188,0-4.01-0.781-5.469-2.239c-1.457-1.511-2.135-3.386-2.135-5.625c0-1.615,0.416-3.177,1.303-4.583L658.799,302.743z"/>
	</g>
	<g>
		<path fill="#F2F2F2" d="M794.008,618.107c0.885,1.457,1.303,2.969,1.303,4.582c0,2.24-0.73,4.115-2.137,5.625
			c-1.406,1.512-3.229,2.24-5.469,2.24c-0.938,0-1.719-0.104-2.447-0.312s-1.406-0.572-2.084-1.041
			c-0.676-0.469-1.301-1.146-1.926-1.98c-0.625-0.832-1.303-1.822-1.98-2.969l-25.051-42.291c-1.25-2.031-1.824-3.75-1.824-5.053
			c0-2.344,0.73-4.322,2.24-5.832c1.512-1.512,3.334-2.293,5.625-2.293c3.178,0,5.678,1.562,7.5,4.74L794.008,618.107z"/>
	</g>
	<g>
		<path fill="#F2F2F2" d="M773.592,358.42c0.572-0.938,1.25-1.667,2.135-2.292c0.834-0.625,1.771-1.042,2.76-1.302
			c0.99-0.26,2.031-0.312,3.074-0.156c1.041,0.156,2.031,0.521,3.02,1.094c0.938,0.573,1.719,1.302,2.344,2.188
			s1.094,1.823,1.303,2.812c0.26,0.99,0.312,2.031,0.156,3.125s-0.469,2.083-1.041,3.021c-0.574,0.938-1.25,1.667-2.137,2.292
			c-0.885,0.625-1.822,1.042-2.812,1.302c-0.988,0.26-2.031,0.312-3.125,0.156s-2.082-0.521-2.969-1.094
			c-0.988-0.573-1.77-1.302-2.395-2.188c-0.625-0.833-1.043-1.771-1.303-2.812c-0.209-0.99-0.26-2.031-0.104-3.073
			C772.602,360.399,772.967,359.41,773.592,358.42z M761.508,378.316c1.146-1.927,2.812-3.125,4.896-3.646
			c2.135-0.521,4.113-0.208,6.094,0.99c0.938,0.573,1.719,1.25,2.344,2.135s1.094,1.823,1.301,2.812
			c0.209,0.99,0.262,2.031,0.156,3.073c-0.156,1.042-0.469,2.031-1.041,2.969c-0.572,0.99-1.303,1.771-2.188,2.344
			c-0.885,0.625-1.822,1.042-2.812,1.302s-2.031,0.312-3.125,0.156s-2.084-0.521-2.969-1.094c-0.99-0.573-1.771-1.302-2.396-2.188
			c-0.625-0.833-1.041-1.771-1.301-2.812c-0.209-0.99-0.262-2.031-0.105-3.073C760.57,380.295,760.936,379.305,761.508,378.316z"/>
	</g>
	<g>
		<path fill="#F2F2F2" d="M511.717,633.523c-0.834-0.678-1.512-1.459-2.031-2.396c-0.521-0.938-0.834-1.875-0.99-2.916
			c-0.104-1.041-0.053-2.084,0.209-3.072c0.26-1.043,0.781-1.98,1.457-2.865c0.678-0.834,1.459-1.51,2.449-2.031
			c0.938-0.521,1.926-0.834,2.916-0.99c0.99-0.104,2.031-0.051,3.072,0.209c1.043,0.26,2.031,0.729,2.865,1.406
			s1.51,1.459,2.031,2.396s0.834,1.926,0.99,2.916c0.156,1.041,0.051,2.031-0.209,3.072c-0.312,1.043-0.781,1.98-1.406,2.812
			c-0.678,0.887-1.51,1.615-2.396,2.084c-0.938,0.521-1.926,0.834-2.916,0.99c-1.041,0.156-2.084,0.051-3.072-0.209
			C513.539,634.721,512.602,634.201,511.717,633.523z M537.445,649.305c-1.771,0.312-3.178,0.312-4.219,0.104
			c-1.041-0.207-2.084-0.729-3.125-1.562c-1.822-1.406-2.865-3.229-3.178-5.363c-0.312-2.188,0.262-4.168,1.668-5.99
			c0.676-0.834,1.457-1.51,2.395-2.031s1.928-0.834,2.969-0.938c1.043-0.104,2.084-0.053,3.125,0.26
			c1.043,0.312,1.98,0.781,2.918,1.459c0.469,0.365,0.885,0.834,1.354,1.406s0.885,1.25,1.25,1.979l3.021,6.043
			c1.354,2.863,1.354,5.156,0.051,6.822c-0.729,0.938-1.666,1.51-2.812,1.771c-1.145,0.26-2.135,0.051-2.969-0.574
			c-0.416-0.312-0.781-0.729-1.145-1.25C538.436,650.92,537.967,650.189,537.445,649.305z"/>
	</g>
	<g>
		<path fill="#F2F2F2" d="M720.518,345.66c0.73,1.823,1.771,3.542,3.125,5.208c1.355,1.667,2.812,3.021,4.428,4.062
			c0.834,0.573,1.822,1.146,2.865,1.615c1.041,0.469,2.395,0.99,4.062,1.51c1.979,0.625,3.438,1.354,4.426,2.136
			c0.99,0.781,1.771,1.875,2.344,3.229c0.418,0.99,0.625,2.031,0.574,3.125c0,1.094-0.262,2.135-0.678,3.125
			s-0.99,1.875-1.771,2.656s-1.613,1.354-2.604,1.771c-1.822,0.781-4.166,0.833-7.031,0.26c-2.812-0.573-5.781-1.823-8.854-3.698
			c-7.812-4.688-13.334-10.886-16.512-18.594c-2.031-4.948-3.02-10.156-2.863-15.573c0.156-5.417,1.354-10.521,3.645-15.26
			c1.98-4.062,4.115-6.562,6.406-7.552c1.043-0.417,2.137-0.625,3.23-0.625s2.188,0.208,3.176,0.625
			c0.99,0.417,1.928,0.99,2.709,1.771c0.834,0.781,1.459,1.667,1.875,2.708c0.572,1.406,0.781,2.917,0.625,4.479
			c-0.053,0.312-0.104,0.521-0.104,0.729c-0.053,0.156-0.156,0.469-0.312,0.781c-0.156,0.365-0.418,0.833-0.73,1.511
			c-0.312,0.677-0.781,1.562-1.354,2.76c-1.406,2.552-2.135,5.365-2.24,8.438C718.852,339.93,719.373,342.899,720.518,345.66z"/>
	</g>
	<g>
		<path fill="#F2F2F2" d="M470.57,330.607c-1.094-2.865-2.709-5.26-4.844-7.24c-0.938-0.938-1.667-1.667-2.188-2.135
			c-0.521-0.521-0.938-0.885-1.198-1.198c-0.261-0.261-0.469-0.469-0.521-0.625c-0.104-0.156-0.209-0.365-0.365-0.625
			c-0.677-1.406-0.989-2.917-0.885-4.427c0.052-1.146,0.364-2.188,0.885-3.177c0.521-0.989,1.198-1.875,1.979-2.604
			c0.833-0.729,1.719-1.25,2.761-1.667c1.041-0.365,2.135-0.521,3.281-0.469c2.5,0.156,5.364,1.823,8.541,5
			c3.698,3.75,6.562,8.177,8.438,13.229c1.928,5.052,2.709,10.312,2.448,15.677c-0.469,8.333-3.594,15.989-9.479,23.021
			c-2.291,2.812-4.688,4.948-7.188,6.406c-2.5,1.458-4.739,2.188-6.719,2.031c-1.094-0.052-2.083-0.312-3.072-0.833
			c-0.99-0.469-1.823-1.146-2.553-1.927c-0.729-0.833-1.25-1.719-1.666-2.76c-0.365-1.042-0.521-2.083-0.469-3.125
			c0.104-1.458,0.469-2.761,1.146-3.802s1.823-2.24,3.489-3.438c1.406-1.042,2.5-1.979,3.334-2.76
			c0.833-0.781,1.562-1.615,2.188-2.448c1.146-1.51,2.083-3.281,2.812-5.312c0.729-2.031,1.146-4.01,1.25-5.938
			C472.133,336.389,471.716,333.42,470.57,330.607z"/>
	</g>
	<g>
		<path fill="#F2F2F2" d="M415.603,696.896c0.156-0.573,0.418-1.146,0.834-1.719c0.416-0.521,0.885-1.042,1.406-1.458
			c0.521-0.417,1.094-0.781,1.719-1.042s1.197-0.364,1.822-0.364l4.115-0.104c1.041,0,1.719-0.469,2.031-1.406
			c0.209-0.521,0.156-1.042-0.104-1.614c-0.262-0.521-0.678-0.886-1.199-1.094c-0.676-0.261-1.51-0.053-2.5,0.572
			c-1.457,1.042-2.76,1.719-3.957,1.928c-1.146,0.26-2.5,0.104-4.012-0.469c-1.041-0.365-1.979-0.938-2.76-1.667
			s-1.406-1.562-1.875-2.5s-0.729-1.927-0.781-3.021s0.053-2.136,0.416-3.125c0.625-1.719,1.668-3.229,3.125-4.479
			c1.459-1.25,3.125-2.188,5.105-2.864c1.926-0.678,4.062-0.99,6.25-1.042c2.238,0,4.426,0.364,6.613,1.146
			c2.449,0.886,4.584,2.136,6.355,3.75c1.77,1.615,3.176,3.542,4.166,5.625c0.99,2.136,1.562,4.428,1.666,6.823
			c0.105,2.448-0.26,4.896-1.145,7.396c-1.668,4.688-4.584,7.969-8.75,9.948c-2.031,0.938-4.115,1.511-6.355,1.667
			c-2.188,0.156-4.27-0.156-6.25-0.834C416.177,705.178,414.196,701.792,415.603,696.896z M409.718,712.261
			c0.365-0.989,0.885-1.875,1.615-2.656c0.676-0.729,1.51-1.354,2.447-1.771s1.928-0.677,2.969-0.729
			c1.041-0.052,2.084,0.104,3.072,0.469c0.99,0.365,1.928,0.886,2.709,1.615c0.781,0.729,1.406,1.562,1.822,2.5
			c0.469,0.938,0.73,1.927,0.781,2.969c0.053,1.041-0.051,2.031-0.416,3.072c-0.365,1.042-0.938,1.979-1.615,2.761
			c-0.729,0.781-1.562,1.406-2.5,1.822c-0.938,0.469-1.926,0.729-3.02,0.781c-1.043,0.053-2.084-0.104-3.074-0.469
			c-2.188-0.781-3.697-2.135-4.582-4.114C409.04,716.479,408.989,714.448,409.718,712.261z"/>
	</g>
	<g>
		<path fill="#F2F2F2" d="M360.258,678.002c0-2.238,0.781-4.166,2.291-5.676c1.562-1.512,3.438-2.293,5.729-2.293
			c1.094,0,2.136,0.209,3.125,0.625c0.989,0.418,1.875,0.99,2.604,1.719c0.729,0.73,1.302,1.615,1.719,2.553
			c0.416,0.99,0.677,1.979,0.677,3.072c0,1.146-0.208,2.188-0.677,3.125c-0.417,0.99-1.042,1.824-1.719,2.553
			c-0.729,0.729-1.562,1.303-2.604,1.719c-0.989,0.416-2.031,0.625-3.125,0.625c-1.146,0-2.188-0.209-3.177-0.625
			c-0.99-0.416-1.823-0.99-2.553-1.719c-0.729-0.729-1.302-1.615-1.719-2.553C360.466,680.189,360.258,679.148,360.258,678.002z"/>
	</g>
	<g>
		<path fill="#F2F2F2" d="M260.353,676.986c1.615,0.312,2.865,0.781,3.855,1.303c0.938,0.521,1.77,1.25,2.5,2.188
			c0.676,0.99,1.145,2.084,1.457,3.281c0.262,1.197,0.312,2.344,0.053,3.438c-0.26,1.146-0.729,2.24-1.406,3.281
			c-0.729,1.041-1.562,1.822-2.5,2.344c-1.041,0.625-2.084,0.99-3.125,1.094s-2.447-0.053-4.219-0.416l-31.041-6.406
			c-1.043-0.209-1.928-0.418-2.709-0.625c-0.729-0.209-1.354-0.418-1.875-0.73c-0.521-0.26-0.99-0.572-1.406-0.938
			c-0.416-0.363-0.834-0.832-1.146-1.354c-1.457-1.928-1.979-4.166-1.457-6.666c0.52-2.5,1.822-4.375,3.906-5.625
			c1.145-0.678,2.238-1.043,3.385-1.094c1.094-0.105,2.709,0.104,4.74,0.52L260.353,676.986z"/>
		<path fill="#F2F2F2" d="M255.666,699.643c1.615,0.312,2.865,0.781,3.855,1.303c0.938,0.521,1.77,1.25,2.5,2.188
			c0.676,0.99,1.145,2.084,1.457,3.281c0.262,1.197,0.312,2.344,0.053,3.438c-0.26,1.146-0.729,2.24-1.406,3.281
			c-0.729,1.041-1.562,1.822-2.5,2.344c-1.041,0.625-2.084,0.99-3.125,1.094s-2.447-0.053-4.219-0.416l-31.041-6.406
			c-1.043-0.209-1.928-0.418-2.709-0.625c-0.729-0.209-1.354-0.418-1.875-0.73c-0.521-0.26-0.99-0.572-1.406-0.938
			c-0.416-0.363-0.834-0.832-1.146-1.354c-1.457-1.928-1.979-4.166-1.457-6.666c0.52-2.5,1.822-4.375,3.906-5.625
			c1.145-0.678,2.238-1.043,3.385-1.094c1.094-0.105,2.709,0.104,4.74,0.52L255.666,699.643z"/>
	</g>
	<path fill="#F2F2F2" d="M560.122,750.385c-0.051-1.25-0.363-2.396-0.885-3.49c-0.521-1.041-1.25-1.875-2.084-2.604
		c-0.832-0.678-2.031-1.355-3.594-1.928l-7.238-2.812l2.188-5.572c0.781-1.98,1.197-3.49,1.301-4.584
		c0.105-1.094-0.051-2.291-0.52-3.49c-0.887-2.238-2.5-3.854-4.896-4.791s-4.635-0.834-6.771,0.312
		c-0.572,0.26-1.094,0.572-1.562,0.938c-0.416,0.365-0.832,0.781-1.197,1.25s-0.678,1.041-0.99,1.771
		c-0.312,0.676-0.676,1.562-1.094,2.551l-2.188,5.574l-6.562-2.553c-1.979-0.781-3.488-1.197-4.582-1.303
		c-1.094-0.104-2.293,0.053-3.49,0.521c-2.24,0.885-3.854,2.5-4.791,4.896c-0.938,2.395-0.834,4.635,0.312,6.77
		c0.26,0.574,0.572,1.094,0.938,1.562c0.363,0.418,0.781,0.834,1.25,1.199c0.469,0.363,1.041,0.676,1.77,0.988
		c0.678,0.312,1.562,0.678,2.553,1.094l6.562,2.553l-3.281,8.178c-0.625,1.666-1.041,3.021-1.094,4.114
		c-0.104,1.041,0.104,2.135,0.521,3.281c0.363,1.041,0.988,1.979,1.875,2.864c0.885,0.886,1.875,1.511,2.969,1.927
		c1.041,0.417,2.188,0.573,3.438,0.521c1.25-0.053,2.395-0.365,3.488-0.886c1.043-0.521,1.875-1.25,2.605-2.083
		c0.676-0.834,1.354-2.031,1.926-3.594l3.178-8.229l7.24,2.812c1.666,0.625,3.02,1.042,4.113,1.094
		c1.043,0.104,2.137-0.104,3.281-0.521c1.043-0.363,1.98-0.988,2.865-1.926c0.885-0.887,1.51-1.875,1.928-2.969
		C560.019,752.729,560.175,751.582,560.122,750.385z"/>
	<g>
		<path fill="#F2F2F2" d="M707.186,628.002c1.51-0.572,2.863-0.885,3.957-0.938c1.094-0.051,2.188,0.105,3.281,0.521
			c1.094,0.469,2.084,1.146,2.969,1.979c0.887,0.887,1.512,1.824,1.928,2.865c0.416,1.094,0.625,2.291,0.572,3.541
			c-0.051,1.25-0.312,2.344-0.832,3.334c-0.521,1.094-1.199,1.928-2.031,2.604c-0.834,0.625-2.137,1.303-3.803,1.928l-29.635,11.25
			c-0.99,0.365-1.875,0.678-2.605,0.885c-0.729,0.209-1.406,0.365-1.979,0.418c-0.572,0.051-1.146,0.051-1.719-0.053
			s-1.146-0.26-1.719-0.521c-2.291-0.832-3.906-2.447-4.791-4.844c-0.887-2.395-0.834-4.688,0.26-6.822
			c0.625-1.146,1.354-2.084,2.24-2.76c0.885-0.678,2.344-1.355,4.27-2.137L707.186,628.002z"/>
		<g>
			<path fill="#F2F2F2" d="M680.57,626.336c-0.781-2.084-0.729-4.166,0.156-6.146c0.885-1.979,2.396-3.385,4.531-4.166
				c0.99-0.365,2.031-0.572,3.125-0.521c1.094,0.053,2.084,0.262,3.021,0.678s1.77,1.041,2.551,1.771
				c0.73,0.729,1.303,1.613,1.719,2.656c0.418,1.041,0.574,2.135,0.521,3.176c-0.053,1.043-0.312,2.084-0.729,3.021
				c-0.418,0.938-0.99,1.771-1.824,2.553c-0.832,0.781-1.719,1.301-2.707,1.666c-1.043,0.416-2.137,0.572-3.178,0.572
				c-1.041-0.051-2.031-0.26-2.969-0.729c-0.938-0.416-1.771-1.041-2.5-1.822C681.561,628.314,680.986,627.377,680.57,626.336z"/>
		</g>
		<g>
			<path fill="#F2F2F2" d="M694.32,662.639c-0.781-2.084-0.729-4.168,0.156-6.146s2.396-3.385,4.531-4.166
				c0.99-0.365,2.031-0.574,3.125-0.521s2.084,0.26,3.021,0.678c0.938,0.416,1.77,1.041,2.551,1.77
				c0.73,0.73,1.303,1.615,1.719,2.656c0.418,1.043,0.574,2.137,0.521,3.178s-0.312,2.084-0.729,3.021
				c-0.418,0.938-0.99,1.77-1.824,2.551c-0.832,0.781-1.719,1.303-2.707,1.668c-1.043,0.416-2.137,0.572-3.178,0.52
				c-1.041-0.051-2.031-0.26-2.969-0.729c-0.938-0.416-1.77-1.041-2.5-1.822C695.311,664.617,694.736,663.68,694.32,662.639z"/>
		</g>
	</g>
	<g>
		<g>
			<path fill="#F2F2F2" d="M626.545,712.078c2.551-2.605,5.363-3.543,8.438-2.762c2.188,0.574,3.801,1.771,4.895,3.594
				c1.043,1.875,1.303,3.906,0.73,6.198c-0.312,1.303-1.355,2.761-3.021,4.479l-34.584,34.896c-0.988,0.99-1.875,1.771-2.656,2.396
				s-1.562,1.146-2.344,1.406c-0.781,0.312-1.51,0.469-2.238,0.521c-0.73,0-1.562-0.052-2.449-0.312
				c-2.135-0.521-3.697-1.719-4.738-3.542c-1.043-1.822-1.25-3.802-0.73-5.989c0.418-1.562,1.199-2.969,2.396-4.167L626.545,712.078
				z"/>
		</g>
		<g>
			<path fill="#F2F2F2" d="M589.096,718.588c0-2.24,0.781-4.166,2.293-5.678c1.562-1.51,3.438-2.291,5.729-2.291
				c1.094,0,2.135,0.209,3.125,0.625s1.875,0.99,2.604,1.719c0.73,0.729,1.303,1.615,1.719,2.553
				c0.418,0.988,0.678,1.979,0.678,3.072c0,1.146-0.209,2.188-0.678,3.125c-0.416,0.989-1.041,1.823-1.719,2.552
				c-0.729,0.729-1.562,1.303-2.604,1.719c-0.99,0.417-2.031,0.625-3.125,0.625c-1.146,0-2.188-0.208-3.178-0.625
				c-0.988-0.416-1.822-0.989-2.551-1.719c-0.73-0.729-1.303-1.614-1.719-2.552C589.305,720.775,589.096,719.682,589.096,718.588z"
				/>
		</g>
		<g>
			<path fill="#F2F2F2" d="M623.264,753.275c0-2.239,0.781-4.167,2.291-5.677c1.562-1.511,3.438-2.292,5.729-2.292
				c1.094,0,2.137,0.208,3.125,0.625c0.99,0.417,1.875,0.989,2.605,1.719c0.729,0.729,1.301,1.614,1.719,2.552
				c0.416,0.99,0.676,1.979,0.676,3.073c0,1.146-0.207,2.188-0.676,3.125c-0.418,0.989-1.043,1.823-1.719,2.552
				c-0.73,0.729-1.562,1.303-2.605,1.719c-0.988,0.417-2.031,0.625-3.125,0.625c-1.145,0-2.188-0.208-3.176-0.625
				c-0.99-0.416-1.824-0.989-2.553-1.719c-0.729-0.729-1.303-1.614-1.719-2.552C623.471,755.411,623.264,754.369,623.264,753.275z"
				/>
		</g>
	</g>
	<path fill="#F2F2F2" d="M240.414,500.814c-2.917-0.676-5.886-1.301-8.854-1.301c-4.011,0.051-7.604,1.613-10.573,4.166
		c-3.333,2.865-4.114,7.135-5.052,11.197c-0.312,1.25-0.573,2.553-0.886,3.803c-0.052,0.156-0.104,0.365-0.104,0.521
		c-0.053,0.104-0.104,0.207-0.156,0.312l-0.053,0.051c-0.052,0.053-0.052,0.053-0.104,0.053c-0.053,0.053-0.104,0.053-0.156,0.104
		c-0.209,0.105-0.469,0.156-0.729,0.209c-7.604,1.406-9.844,11.041-3.542,15.625c0.156,0.104,0.312,0.26,0.417,0.416
		c0.052,0.053,0.052,0.053,0.104,0.105c0.052,0.104,0.104,0.156,0.156,0.26v0.053c0,0.26-0.053,0.52-0.104,0.729
		c-0.312,1.25-0.573,2.553-0.886,3.803c-0.938,4.062-2.083,8.385-0.312,12.447c1.562,3.646,3.959,6.146,7.396,8.178
		c2.5,1.457,5.469,2.082,8.281,2.707c4.583,1.043,9.322-1.926,10.364-6.51s-1.927-9.271-6.511-10.365
		c-0.938-0.207-1.927-0.469-2.864-0.676c0.417-1.875,0.938-3.75,1.354-5.574c0.781-3.385,0.625-6.77-0.312-9.895
		c2.188-2.396,3.802-5.365,4.583-8.699c0.417-1.875,0.833-3.75,1.302-5.625c1.146,0.209,2.292,0.469,3.386,0.73
		c4.583,1.041,9.271-1.875,10.364-6.512C247.966,506.596,244.997,501.857,240.414,500.814z M214.633,519.67
		C214.633,519.67,214.685,519.67,214.633,519.67C214.685,519.67,214.685,519.67,214.633,519.67
		C214.685,519.67,214.633,519.67,214.633,519.67z M215.102,519.252C215.361,519.045,215.31,519.096,215.102,519.252
		C215.102,519.305,215.102,519.252,215.102,519.252z M210.935,536.076C210.935,535.658,210.935,535.764,210.935,536.076
		L210.935,536.076z M210.83,536.18l-0.052-0.053c-0.052-0.051-0.052-0.156-0.104-0.207l0.053,0.051
		C210.727,536.023,210.778,536.127,210.83,536.18z M210.727,535.971l-0.053-0.051C210.258,535.139,210.466,535.502,210.727,535.971z
		 M210.466,535.764c-0.052,0-0.052-0.053-0.104-0.053C209.685,534.93,210.153,535.346,210.466,535.764z M210.466,535.814
		c0,0,0.052,0,0.052,0.053s0.053,0.053,0.053,0.104v0.053C210.57,535.92,210.518,535.867,210.466,535.814z M210.778,536.18
		C210.83,536.232,210.83,536.232,210.778,536.18c0.052,0.053,0.052,0.053,0.052,0.104l0,0
		C210.83,536.283,210.83,536.232,210.778,536.18z M211.039,537.117C211.091,537.273,211.091,537.326,211.039,537.117
		L211.039,537.117z M210.986,536.127C211.455,536.439,211.977,536.857,210.986,536.127L210.986,536.127z M214.945,519.564
		L214.945,519.564C215.57,519.252,215.31,519.408,214.945,519.564z M225.049,546.283L225.049,546.283
		c-0.104-0.051-0.26-0.156-0.364-0.207C224.841,546.127,224.945,546.232,225.049,546.283z"/>
	<g>
		<path fill="#F2F2F2" d="M481.195,686.18c0.938-0.365,1.875-0.781,2.76-1.197c0.469-0.209,2.031-1.094,0,0.156
			c0.469-0.312,0.886-0.678,1.354-1.043c-1.667,1.406-0.573,0.574-0.156,0c-0.208,0.365-0.417,0.73-0.625,1.094
			c0.312-0.832,0.261-0.572-0.156,0.834c0.417-1.615,0.208,2.084,0.052,0.365c-0.156-2.137,0.729,2.291,0.156,0.625
			c-0.833-2.449-1.979-4.844-2.969-7.188c-3.125-7.605-1.197-16.094,5.053-21.406c2.135,5.156,4.219,10.26,6.354,15.416
			c-8.177,0.572-15.521-4.062-18.646-11.615c-0.886-2.188-1.771-4.375-2.708-6.562c-0.209-0.469-0.417-0.938-0.625-1.354
			c0.208,0.365,0.469,0.781,0.677,1.146c1.146,1.094,1.406,1.354,0.677,0.676c-1.302-1.145,1.823,0.781,0.156,0.156
			c0.365,0.105,0.729,0.209,1.146,0.312c-0.886-0.104-0.729-0.104,0.572-0.104c-0.625,0-1.25,0.104-1.875,0.209
			c2.136-0.312,0.521-0.105-0.052,0.104c-1.146,0.416-2.292,0.885-3.386,1.354c-4.375,1.771-9.479-0.363-11.25-4.688
			c-1.771-4.322,0.365-9.479,4.688-11.25c2.761-1.145,5.573-2.291,8.542-2.707c4.011-0.625,7.761,0.312,11.146,2.395
			c3.75,2.24,5.261,6.355,6.823,10.209c0.469,1.197,0.989,2.396,1.458,3.594c0.209,0.469,0.365,0.885,0.625,1.354
			c-1.094-2.238-0.521-0.938-0.104-0.416c1.041,1.354-1.615-1.406-0.365-0.365c0.312,0.262,0.625,0.469,0.99,0.678
			c-2.24-1.406-1.25-0.729-0.573-0.416c0.312,0.156,0.625,0.26,0.989,0.363c-2.708-0.832-1.614-0.416-0.938-0.312
			c0.469,0.105,0.938,0.156,1.406,0.156c1.146,0.053-2.76,0.053-1.458,0c8.646-0.625,12.917,9.74,6.354,15.418
			c-0.573,0.469-1.303,1.354,1.146-1.146c-0.312,0.312-0.573,0.678-0.833,1.041c-0.156,0.209-0.312,0.469-0.469,0.73
			c1.562-2.396,0.781-1.406,0.469-0.781c-0.156,0.312-0.261,0.676-0.417,0.988c0.886-2.447,0.364-1.354,0.208-0.625
			c-0.104,0.625-0.052,2.137-0.052-0.52c0,0.469,0.104,0.938,0.156,1.406c-0.417-2.553-0.208-0.781,0.104,0
			c0.521,1.197,0.989,2.395,1.458,3.594c1.614,3.854,3.438,7.916,2.344,12.188c-0.938,3.854-2.917,6.719-5.938,9.322
			c-2.188,1.875-5.052,2.969-7.708,4.062c-4.375,1.822-9.479-0.365-11.25-4.688C474.685,693.107,476.872,688.002,481.195,686.18
			L481.195,686.18z"/>
	</g>
	<g>
		<path fill="#F2F2F2" d="M753.799,438.784c0-2.76,0.781-5,2.344-6.666c1.562-1.667,3.594-2.553,6.199-2.553
			c1.406,0,2.707,0.312,3.957,0.938s2.24,1.511,3.021,2.656c0.938,1.303,1.406,3.178,1.406,5.678v16.197
			c0,2.812-0.729,5.053-2.24,6.719c-1.51,1.667-3.488,2.5-6.041,2.5c-1.354,0-2.604-0.26-3.854-0.833s-2.24-1.354-3.074-2.292
			c-1.094-1.406-1.613-3.385-1.613-5.989L753.799,438.784z M754.32,473.472c0-1.094,0.209-2.083,0.625-3.021s0.99-1.771,1.719-2.552
			c0.729-0.729,1.615-1.303,2.553-1.719c0.988-0.417,1.979-0.625,3.072-0.625c2.24,0,4.166,0.781,5.678,2.291
			c1.51,1.511,2.291,3.438,2.291,5.678c0,2.291-0.781,4.218-2.24,5.728c-1.51,1.512-3.385,2.24-5.625,2.24
			c-1.094,0-2.135-0.209-3.125-0.678c-0.988-0.416-1.875-0.988-2.551-1.719c-0.73-0.729-1.303-1.562-1.719-2.551
			C754.58,475.607,754.32,474.565,754.32,473.472z"/>
	</g>
	<path fill="#F2F2F2" d="M348.53,716.458c-0.521-0.156-1.094-0.156-1.666-0.104c-0.573,0.051-1.25,0.26-1.928,0.52
		c-0.677,0.312-1.458,0.678-2.344,1.146l-1.719,0.99l-4.01-7.188l3.072-1.719c1.042-0.574,1.875-1.406,2.5-2.396
		c0.834-1.406,1.042-2.865,0.678-4.322c-0.365-1.459-1.198-2.605-2.604-3.387c-0.573-0.312-1.146-0.572-1.667-0.676
		c-0.521-0.156-1.094-0.156-1.666-0.105c-0.573,0.053-1.25,0.262-1.928,0.521c-0.677,0.312-1.458,0.678-2.344,1.146l-1.719,0.938
		l-1.302-2.344c-0.833-1.512-1.667-2.5-2.5-2.969c-1.459-0.834-2.969-1.094-4.479-0.73c-1.512,0.365-2.656,1.25-3.49,2.656
		c-1.146,1.98-1.041,4.115,0.26,6.459l1.459,2.604L314,711.511l-1.303-2.293c-0.834-1.51-1.666-2.5-2.5-2.969
		c-1.459-0.832-2.969-1.094-4.479-0.729c-1.512,0.365-2.656,1.25-3.49,2.656c-1.146,1.979-1.041,4.115,0.26,6.459l1.459,2.551
		l-2.084,1.146c-1.51,0.834-2.5,1.666-2.969,2.5c-0.832,1.459-1.094,2.969-0.729,4.479c0.365,1.512,1.25,2.656,2.656,3.49
		c1.979,1.146,4.115,1.041,6.459-0.26l2.344-1.303l4.01,7.135l-2.031,1.146c-1.51,0.834-2.5,1.666-2.969,2.5
		c-0.834,1.459-1.094,2.969-0.729,4.479c0.363,1.512,1.25,2.656,2.656,3.49c1.979,1.146,4.113,1.041,6.457-0.26l2.293-1.303
		l1.562,2.812c0.572,1.041,1.406,1.875,2.395,2.5c1.406,0.834,2.865,1.041,4.323,0.678c1.459-0.365,2.604-1.199,3.386-2.605
		c0.312-0.572,0.573-1.145,0.677-1.666c0.156-0.521,0.156-1.094,0.104-1.666c-0.052-0.574-0.261-1.25-0.521-1.928
		c-0.312-0.678-0.678-1.459-1.146-2.344l-0.833-1.459l7.188-4.062l1.562,2.812c0.573,1.043,1.406,1.875,2.396,2.5
		c1.406,0.834,2.865,1.043,4.323,0.678s2.604-1.197,3.386-2.604c0.312-0.574,0.572-1.146,0.677-1.668
		c0.156-0.52,0.156-1.094,0.104-1.666c-0.053-0.572-0.261-1.25-0.521-1.928c-0.312-0.676-0.677-1.457-1.146-2.344l-0.833-1.457
		l3.072-1.719c1.042-0.574,1.875-1.406,2.5-2.396c0.834-1.406,1.042-2.865,0.678-4.322c-0.365-1.459-1.198-2.605-2.604-3.387
		C349.572,716.823,349.052,716.562,348.53,716.458z M323.688,728.646l-4.012-7.135l7.136-4.012l4.011,7.188L323.688,728.646z"/>
	<g>
		<path fill="#F2F2F2" d="M698.354,713.534c0.572-0.365,1.041-0.625,1.406-0.73c0.363-0.104,0.729-0.207,1.094-0.207
			c1.094,0,2.031,0.416,2.812,1.25c0.781,0.832,1.197,1.77,1.197,2.863c0,0.887-0.156,1.562-0.521,2.084
			c-0.312,0.521-0.988,1.094-1.979,1.666l-2.135,1.406l2.082,1.25c1.043,0.574,1.719,1.094,2.084,1.668
			c0.365,0.52,0.521,1.25,0.521,2.135c0,1.146-0.365,2.084-1.146,2.865s-1.666,1.197-2.709,1.197c-0.938,0-1.822-0.26-2.76-0.781
			l-2.084-1.25v2.291c0,3.125-1.301,4.688-3.906,4.688c-1.354,0-2.344-0.416-3.072-1.25c-0.729-0.832-1.094-1.979-1.094-3.438
			v-2.291l-2.396,1.25c-0.885,0.521-1.666,0.781-2.395,0.781c-1.199,0-2.137-0.416-2.918-1.197s-1.145-1.771-1.145-2.969
			c0-1.459,0.832-2.709,2.447-3.699l2.135-1.25l-2.135-1.25c-1.51-0.938-2.291-2.188-2.291-3.75c0-1.041,0.363-1.926,1.094-2.76
			c0.729-0.834,1.613-1.25,2.656-1.25c0.832,0,1.719,0.26,2.707,0.834l2.24,1.145v-2.238c0-1.459,0.365-2.656,1.094-3.49
			s1.666-1.25,2.865-1.25c1.301,0,2.291,0.416,3.02,1.25c0.73,0.834,1.094,1.979,1.094,3.334v2.238L698.354,713.534z"/>
	</g>
	<g>
		<path fill="#F2F2F2" d="M219.32,402.431c0.885-2.5,2.604-4.115,5.052-4.792c1.042-0.261,1.979-0.364,2.864-0.312
			c0.886,0.052,2.084,0.364,3.646,0.938l2.396,0.833c1.771,0.625,3.125,1.303,3.958,1.928c0.834,0.625,1.562,1.51,2.188,2.552
			c0.678,1.302,1.042,2.5,0.99,3.646c0,1.146-0.365,2.761-1.094,4.688l-10.886,30.209c-0.938,2.604-2.448,4.479-4.479,5.572
			c-2.083,1.146-4.271,1.303-6.562,0.469c-1.146-0.416-2.188-1.094-3.125-2.031s-1.614-1.979-2.031-3.177
			c-0.364-1.042-0.521-2.083-0.469-3.073c0.053-0.989,0.312-2.135,0.834-3.489l9.062-25.208
			C218.903,408.681,218.122,405.764,219.32,402.431z"/>
	</g>
	<g>
		<path fill="#F2F2F2" d="M583.695,659.201c0-3.75,0.678-7.24,2.135-10.469c1.406-3.23,3.334-6.094,5.781-8.49
			c2.449-2.396,5.262-4.322,8.543-5.678c3.281-1.406,6.77-2.082,10.52-2.082s7.24,0.729,10.521,2.135s6.146,3.334,8.541,5.781
			c2.449,2.447,4.375,5.26,5.781,8.541c1.406,3.23,2.137,6.719,2.137,10.469c0,3.699-0.73,7.188-2.137,10.418
			c-1.406,3.281-3.332,6.145-5.781,8.541c-2.447,2.447-5.312,4.375-8.594,5.781s-6.77,2.135-10.416,2.135
			c-3.75,0-7.24-0.729-10.521-2.135s-6.145-3.334-8.541-5.781c-2.447-2.447-4.375-5.312-5.781-8.594
			C584.424,666.439,583.695,662.898,583.695,659.201z M600.57,659.201c0,1.354,0.26,2.656,0.781,3.906s1.25,2.344,2.135,3.229
			c0.887,0.938,1.928,1.615,3.178,2.188c1.197,0.521,2.5,0.781,3.906,0.781s2.656-0.26,3.906-0.781
			c1.197-0.521,2.291-1.25,3.229-2.188s1.668-1.979,2.188-3.178c0.521-1.197,0.781-2.5,0.781-3.854s-0.26-2.656-0.781-3.854
			c-0.52-1.199-1.25-2.24-2.188-3.178s-1.979-1.615-3.229-2.188c-1.197-0.521-2.5-0.781-3.906-0.781
			c-1.303,0-2.604,0.26-3.803,0.781c-1.197,0.521-2.291,1.25-3.229,2.135c-0.938,0.887-1.666,1.928-2.188,3.125
			C600.883,656.596,600.57,657.846,600.57,659.201z"/>
	</g>
	<path fill="#F2F2F2" d="M609.061,355.66c-0.521-1.146-1.199-2.083-2.084-2.917c-0.885-0.781-1.822-1.302-2.865-1.667
		c-1.041-0.312-2.395-0.521-4.01-0.521h-21.666l7.551-20.364c0.625-1.667,0.99-3.073,1.043-4.115
		c0.051-1.042-0.156-2.135-0.625-3.229c-0.365-1.042-1.043-1.979-1.928-2.812c-0.938-0.833-1.926-1.511-3.021-1.875
		c-1.041-0.365-2.186-0.521-3.436-0.469c-1.252,0.104-2.396,0.417-3.438,0.938c-1.043,0.573-1.875,1.25-2.553,2.135
		s-1.303,2.083-1.875,3.594l-10.99,29.74c-0.156,0.469-0.312,0.885-0.469,1.302c-0.52,1.094-0.781,2.344-0.781,3.698l0,0
		c0,0.26,0,0.521,0.053,0.781c0.156,2.188,1.094,4.01,2.707,5.417c0.469,0.469,0.939,0.833,1.406,1.094
		c0.469,0.26,0.99,0.521,1.562,0.677c0.418,0.104,0.938,0.208,1.512,0.26c0.625,0.104,1.25,0.156,1.822,0.104
		c0.416,0,0.885,0,1.406,0h31.719c1.771,0,3.178-0.156,4.219-0.469s1.979-0.885,2.865-1.667c0.832-0.729,1.457-1.667,1.979-2.812
		c0.469-1.146,0.729-2.292,0.729-3.49C609.842,357.951,609.58,356.805,609.061,355.66z"/>
	<path fill="#F2F2F2" d="M284.528,611.857c-0.886,0.885-1.562,1.875-2.031,2.969c-0.417,1.094-0.625,2.188-0.573,3.281
		c0.053,1.094,0.365,2.395,0.938,3.957l7.448,20.365l-21.719-0.053c-1.771,0-3.177,0.156-4.219,0.469s-1.979,0.887-2.864,1.668
		c-0.834,0.729-1.459,1.666-1.979,2.812c-0.469,1.145-0.729,2.291-0.729,3.488c0,1.146,0.261,2.24,0.781,3.387
		c0.521,1.145,1.198,2.082,2.084,2.916c0.885,0.781,1.822,1.303,2.864,1.666c1.042,0.312,2.396,0.521,4.011,0.521l31.718,0.104
		c0.469,0,0.938,0,1.406,0c1.199,0.105,2.449-0.051,3.75-0.52l0,0c0.261-0.105,0.47-0.209,0.729-0.312
		c1.979-0.938,3.386-2.396,4.167-4.428c0.261-0.572,0.469-1.146,0.573-1.719c0.104-0.572,0.104-1.146,0.052-1.719
		c-0.052-0.469-0.104-0.938-0.261-1.51c-0.104-0.625-0.312-1.199-0.521-1.771c-0.156-0.416-0.312-0.834-0.469-1.354L298.8,616.283
		c-0.625-1.666-1.25-2.969-1.875-3.801c-0.625-0.834-1.512-1.562-2.553-2.084c-0.938-0.521-2.031-0.834-3.281-0.885
		c-1.25-0.053-2.448,0.104-3.542,0.52C286.403,610.398,285.414,611.023,284.528,611.857z"/>
</g>
<g id="text">
	<g>
		<path fill="#FF4568" d="M318.406,418.818c0-1.823,0-3.386,0.052-4.636c0.053-1.25,0.156-2.291,0.365-3.125
			c0.208-0.833,0.469-1.614,0.781-2.291c0.312-0.678,0.729-1.354,1.302-2.084c1.094-1.666,2.656-3.021,4.636-4.01
			c1.979-0.99,4.01-1.511,6.094-1.511c2.239,0,4.322,0.521,6.302,1.562s3.542,2.5,4.636,4.323c0.469,0.729,0.833,1.406,1.146,2.031
			c0.261,0.625,0.521,1.354,0.677,2.239c0.156,0.833,0.261,1.823,0.312,3.021c0.053,1.146,0.053,2.656,0.053,4.479v27.656
			c0,3.021-0.104,5.677-0.261,7.864s-0.469,4.167-0.886,5.938c-0.416,1.771-0.989,3.386-1.666,4.896
			c-0.678,1.51-1.562,3.021-2.553,4.531c-2.969,4.375-6.719,7.812-11.302,10.312s-9.531,3.697-14.792,3.697
			c-4.479,0-8.698-0.885-12.708-2.656c-4.01-1.77-7.5-4.27-10.521-7.551c-2.812-3.021-4.896-6.354-6.25-10
			c-1.354-3.646-2.031-7.864-2.031-12.656c0-3.594,0.312-6.458,0.886-8.646c0.626-2.136,1.614-4.011,3.073-5.625
			c2.291-2.812,5.365-4.167,9.219-4.167c4.062,0,7.344,1.302,9.896,3.958c2.552,2.656,3.697,6.094,3.541,10.417v4.427
			c-0.104,1.823,0.364,3.281,1.25,4.323c0.938,1.042,2.188,1.562,3.698,1.562c2.239,0,3.854-1.042,4.739-3.125
			c0.156-0.469,0.261-1.042,0.312-1.719s0.052-2.031,0.052-4.114L318.406,418.818L318.406,418.818z"/>
		<path fill="#FF4568" d="M354.083,441.318c0-5.729,1.094-11.146,3.281-16.146c2.188-5.053,5.209-9.428,9.011-13.178
			s8.229-6.719,13.333-8.854c5.104-2.136,10.573-3.229,16.406-3.229c5.834,0,11.303,1.094,16.406,3.281
			c5.104,2.188,9.584,5.156,13.438,8.906c3.854,3.75,6.823,8.177,9.062,13.281c2.188,5.104,3.281,10.521,3.281,16.302
			c0,5.729-1.094,11.198-3.281,16.303c-2.188,5.104-5.208,9.583-9.062,13.438c-3.854,3.854-8.281,6.822-13.438,9.062
			c-5.104,2.188-10.521,3.281-16.302,3.281c-5.886,0-11.406-1.094-16.511-3.281c-5.104-2.188-9.583-5.208-13.333-9.062
			c-3.802-3.854-6.771-8.334-9.011-13.49C355.177,452.776,354.083,447.256,354.083,441.318z M380.438,441.631
			c0,2.188,0.417,4.219,1.25,6.198c0.833,1.979,1.979,3.646,3.386,5.104c1.406,1.459,3.072,2.604,5,3.438
			c1.927,0.834,3.958,1.25,6.146,1.25s4.219-0.416,6.146-1.25c1.928-0.833,3.594-1.979,5-3.438c1.406-1.458,2.5-3.125,3.386-5.052
			c0.833-1.927,1.25-3.958,1.25-6.146s-0.417-4.167-1.25-6.094c-0.833-1.875-1.979-3.542-3.386-4.948s-3.072-2.5-5-3.281
			c-1.927-0.781-3.958-1.198-6.146-1.198s-4.219,0.417-6.146,1.198c-1.928,0.781-3.594,1.927-5,3.281
			c-1.406,1.406-2.5,3.021-3.386,4.896C380.854,437.464,380.438,439.443,380.438,441.631z"/>
		<path fill="#FF4568" d="M476.271,483.713c-4.219,0-8.177-0.52-11.875-1.562c-3.697-1.041-6.875-2.5-9.583-4.322
			c-2.708-1.823-4.844-3.958-6.354-6.406c-1.51-2.448-2.291-5.104-2.291-7.969c0-1.667,0.312-3.229,0.885-4.688
			c0.573-1.459,1.459-2.709,2.5-3.75c1.094-1.094,2.344-1.928,3.854-2.553c1.458-0.625,3.073-0.938,4.739-0.938
			c1.615,0,3.125,0.312,4.636,0.886c1.458,0.625,3.073,1.562,4.739,2.917c1.459,1.094,2.604,1.979,3.49,2.656
			c0.885,0.625,1.614,1.146,2.135,1.51c0.573,0.365,1.042,0.573,1.459,0.678c0.416,0.104,0.833,0.104,1.302,0.104
			c1.042,0,1.875-0.312,2.448-0.938c0.625-0.625,0.885-1.458,0.885-2.5c0-1.354-0.677-2.5-2.031-3.333
			c-0.156-0.104-0.364-0.156-0.521-0.312c-0.208-0.104-0.469-0.261-0.833-0.417c-0.365-0.156-0.834-0.364-1.459-0.625
			c-0.572-0.26-1.406-0.572-2.447-0.938c-1.094-0.416-2.188-0.781-3.229-1.146s-2.136-0.729-3.229-1.146
			c-11.562-4.062-17.396-11.667-17.396-22.761c0-3.906,0.729-7.448,2.136-10.677c1.458-3.178,3.438-5.938,5.989-8.281
			c2.552-2.292,5.625-4.115,9.271-5.365c3.646-1.302,7.604-1.927,11.928-1.927c3.594,0,6.927,0.469,10.052,1.354
			c3.125,0.938,5.833,2.135,8.125,3.697s4.114,3.386,5.469,5.521c1.302,2.135,1.979,4.427,1.979,6.875
			c0,3.177-0.938,5.833-2.865,7.864c-1.927,2.031-4.375,3.073-7.447,3.073c-1.823,0-3.542-0.312-5.156-1.042
			c-1.615-0.677-3.49-1.875-5.729-3.542c-1.354-1.094-2.448-1.875-3.229-2.291c-0.781-0.417-1.562-0.573-2.291-0.573
			c-0.886,0-1.615,0.312-2.24,0.886c-0.625,0.625-0.885,1.354-0.885,2.239c0,1.198,0.521,2.136,1.614,2.864
			c1.094,0.729,3.177,1.615,6.302,2.656c3.438,1.042,6.667,2.292,9.688,3.75c3.021,1.459,5.469,3.021,7.292,4.636
			c2.5,2.083,4.427,4.792,5.885,8.073c1.459,3.333,2.136,6.875,2.136,10.729c0,3.594-0.677,7.031-1.979,10.365
			c-1.302,3.333-3.177,6.197-5.572,8.697c-2.709,2.708-5.886,4.74-9.531,6.042C485.542,483.088,481.219,483.713,476.271,483.713z"/>
		<path fill="#FF4568" d="M554.5,456.995c2.863,0,5.104,0.209,6.666,0.678c1.562,0.416,3.021,1.197,4.375,2.344
			c2.865,2.5,4.322,5.572,4.322,9.322c0,1.823-0.363,3.594-1.145,5.312s-1.824,3.125-3.178,4.271
			c-0.625,0.572-1.303,1.041-1.979,1.354c-0.678,0.365-1.406,0.625-2.24,0.834c-0.781,0.209-1.719,0.365-2.812,0.416
			c-1.094,0.105-2.396,0.105-3.906,0.105h-20.469c-3.021,0-5.209-0.105-6.459-0.262c-1.301-0.156-2.5-0.416-3.594-0.832
			c-4.219-1.771-6.77-4.949-7.551-9.583c-0.105-0.417-0.156-0.781-0.262-1.146c-0.104-0.364-0.156-0.833-0.156-1.354
			c-0.051-0.573-0.051-1.25-0.051-2.031c0-0.886,0-1.979,0-3.334v-43.385c0-1.667,0-3.021,0.051-4.062
			c0.053-1.042,0.105-1.875,0.156-2.553c0.105-0.677,0.209-1.25,0.365-1.719s0.365-1.041,0.572-1.666
			c0.574-1.511,1.406-2.812,2.553-3.959c1.146-1.094,2.396-1.979,3.75-2.656c0.729-0.312,1.354-0.572,1.928-0.729
			c0.572-0.156,1.197-0.261,1.979-0.365c0.781-0.104,1.719-0.156,2.865-0.156c1.145-0.052,2.707-0.052,4.635-0.052h15.834
			c1.926,0,3.438,0,4.531,0s1.979,0.052,2.656,0.104c0.625,0.104,1.145,0.156,1.562,0.26c0.416,0.104,0.832,0.156,1.301,0.261
			c2.812,0.729,5,2.136,6.668,4.167c1.613,2.083,2.447,4.531,2.447,7.291c0,1.928-0.365,3.75-1.146,5.469s-1.822,3.125-3.176,4.271
			c-1.199,1.041-2.553,1.771-4.062,2.239c-1.512,0.417-3.49,0.677-5.99,0.677h-13.178v5.521h10.418c3.281,0,5.885,0.885,7.76,2.656
			c1.928,1.771,2.865,4.01,2.865,6.822c0,3.125-1.146,5.625-3.49,7.553c-1.041,0.781-2.135,1.354-3.281,1.614
			s-2.76,0.417-4.844,0.417h-9.479v5.989L554.5,456.995L554.5,456.995z"/>
		<path fill="#FF4568" d="M605.385,467.1c0,4.531-1.197,8.229-3.594,11.042c-2.396,2.812-5.572,4.166-9.531,4.166
			c-2.24,0-4.322-0.52-6.25-1.613s-3.541-2.553-4.688-4.375c-0.469-0.781-0.885-1.562-1.197-2.239
			c-0.312-0.678-0.574-1.459-0.73-2.292s-0.26-1.875-0.312-3.177c-0.051-1.303-0.051-2.917-0.051-4.896v-46.719
			c0-2.864,0.26-5.104,0.781-6.719c0.52-1.614,1.457-3.125,2.812-4.531c1.354-1.354,2.863-2.344,4.531-3.021
			c1.666-0.625,3.75-0.938,6.25-0.938h11.041c3.178,0,5.99,0.104,8.385,0.312c2.396,0.208,4.531,0.521,6.355,1.042
			c1.822,0.469,3.541,1.094,5.104,1.875s3.072,1.719,4.635,2.916c3.594,2.709,6.355,6.094,8.334,10.053
			c1.979,4.01,2.916,8.229,2.916,12.708s-1.041,8.698-3.072,12.708c-2.031,4.011-4.896,7.396-8.594,10.156
			c-2.709,2.084-5.521,3.542-8.438,4.428c-2.865,0.885-6.303,1.302-10.209,1.302h-4.426v7.812H605.385z M605.385,434.86
			c3.229,0.156,5.521-0.104,6.875-0.729s1.979-1.875,1.979-3.698c0-1.354-0.572-2.396-1.719-3.125
			c-1.145-0.729-2.707-1.094-4.738-1.094h-2.449v8.646H605.385z"/>
		<path fill="#FF4568" d="M675.75,465.276c0,1.667-0.053,3.073-0.105,4.115c-0.104,1.094-0.207,2.031-0.363,2.812
			s-0.365,1.51-0.678,2.135c-0.26,0.625-0.678,1.303-1.146,2.031c-1.197,1.824-2.76,3.281-4.635,4.324
			c-1.928,1.041-3.959,1.562-6.197,1.562c-2.293,0-4.428-0.521-6.303-1.562c-1.928-1.043-3.438-2.5-4.635-4.324
			c-0.469-0.729-0.834-1.406-1.146-2.083c-0.26-0.677-0.521-1.458-0.678-2.292c-0.156-0.833-0.26-1.822-0.363-2.864
			c-0.105-1.042-0.105-2.396-0.105-3.906v-48.177c0-2.812,0.158-4.948,0.521-6.459c0.365-1.51,1.094-2.969,2.188-4.322
			c1.25-1.615,2.812-2.865,4.584-3.75c1.771-0.938,3.697-1.354,5.781-1.354c2.082,0,4.062,0.469,5.938,1.354
			c1.926,0.938,3.438,2.188,4.635,3.75c0.572,0.729,0.99,1.406,1.303,2.031s0.572,1.354,0.781,2.135s0.363,1.771,0.416,2.917
			c0.105,1.146,0.105,2.552,0.105,4.271v11.25h16.197v-10.885c0-3.178,0.156-5.573,0.52-7.136c0.365-1.562,1.094-3.073,2.24-4.636
			c1.199-1.614,2.656-2.864,4.428-3.75c1.771-0.938,3.697-1.354,5.729-1.354c2.084,0,4.062,0.416,5.938,1.302
			s3.438,2.136,4.637,3.698c1.041,1.354,1.77,2.864,2.238,4.531c0.418,1.666,0.678,3.802,0.678,6.354v48.386
			c0,1.354-0.053,2.552-0.104,3.542c-0.105,0.989-0.209,1.875-0.365,2.708c-0.156,0.781-0.365,1.511-0.678,2.136
			c-0.26,0.625-0.625,1.302-1.041,2.031c-1.197,1.978-2.76,3.541-4.74,4.687c-1.979,1.094-4.113,1.666-6.406,1.666
			c-2.082,0-4.062-0.469-5.938-1.354c-1.875-0.938-3.438-2.24-4.635-3.906c-0.469-0.729-0.885-1.406-1.25-2.083
			c-0.365-0.677-0.625-1.458-0.781-2.344c-0.156-0.885-0.26-1.875-0.365-3.021c-0.104-1.094-0.104-2.5-0.104-4.062V453.87h-16.146
			v11.406H675.75z"/>
	</g>
	<g>
		<path fill="#01ADFE" d="M302.104,541.787c0,1.301-0.051,2.344-0.104,3.176c-0.053,0.834-0.156,1.562-0.26,2.188
			c-0.105,0.625-0.312,1.146-0.521,1.668c-0.209,0.469-0.521,0.988-0.885,1.562c-0.938,1.406-2.137,2.5-3.594,3.332
			c-1.459,0.781-3.074,1.199-4.793,1.199c-1.77,0-3.385-0.418-4.895-1.199c-1.459-0.781-2.656-1.926-3.594-3.332
			c-0.365-0.574-0.678-1.094-0.887-1.615c-0.207-0.521-0.363-1.094-0.52-1.771c-0.105-0.625-0.209-1.406-0.262-2.188
			c-0.051-0.832-0.104-1.822-0.104-2.969v-37.031c0-2.135,0.156-3.801,0.416-4.947c0.262-1.146,0.834-2.291,1.719-3.333
			c0.99-1.25,2.188-2.188,3.542-2.916c1.407-0.729,2.864-1.041,4.479-1.041c1.614,0,3.125,0.363,4.583,1.041
			c1.458,0.729,2.656,1.666,3.594,2.916c0.417,0.574,0.781,1.093,0.989,1.562c0.262,0.469,0.469,1.043,0.573,1.668
			c0.156,0.625,0.261,1.354,0.312,2.238c0.052,0.887,0.104,1.98,0.104,3.281v8.646h12.5v-8.385c0-2.449,0.156-4.271,0.417-5.469
			c0.26-1.199,0.833-2.396,1.719-3.542c0.938-1.25,2.083-2.188,3.438-2.916c1.354-0.729,2.812-1.041,4.427-1.041
			s3.125,0.363,4.583,0.988c1.458,0.678,2.656,1.615,3.542,2.865c0.781,1.041,1.354,2.187,1.719,3.49
			c0.312,1.301,0.521,2.916,0.521,4.895v37.188c0,1.043-0.052,1.928-0.104,2.709c-0.052,0.781-0.156,1.459-0.26,2.084
			c-0.104,0.625-0.312,1.145-0.521,1.666c-0.208,0.469-0.469,0.99-0.781,1.562c-0.938,1.51-2.135,2.709-3.646,3.594
			s-3.177,1.303-4.948,1.303c-1.614,0-3.125-0.365-4.583-1.043c-1.458-0.729-2.656-1.719-3.541-2.969
			c-0.365-0.572-0.678-1.094-0.99-1.613c-0.26-0.521-0.469-1.146-0.625-1.771c-0.104-0.678-0.208-1.459-0.26-2.291
			c-0.053-0.834-0.104-1.928-0.104-3.125v-8.855H302L302.104,541.787L302.104,541.787z"/>
		<path fill="#01ADFE" d="M374.188,535.432c2.239,0,3.906,0.156,5.156,0.521c1.198,0.365,2.344,0.938,3.386,1.771
			c2.239,1.926,3.333,4.322,3.333,7.188c0,1.406-0.312,2.76-0.886,4.113c-0.572,1.303-1.406,2.396-2.447,3.281
			c-0.521,0.418-0.99,0.781-1.511,1.043c-0.521,0.26-1.094,0.469-1.719,0.625s-1.354,0.26-2.188,0.312
			c-0.833,0.051-1.823,0.104-3.021,0.104h-15.834c-2.344,0-4.01-0.053-5-0.209c-0.989-0.104-1.927-0.312-2.76-0.625
			c-3.281-1.354-5.209-3.801-5.834-7.344c-0.052-0.312-0.104-0.572-0.208-0.885c-0.052-0.26-0.104-0.625-0.156-1.041
			c-0.052-0.418-0.052-0.938-0.052-1.562c0-0.678,0-1.512,0-2.605v-33.332c0-1.303,0-2.344,0.052-3.125s0.052-1.459,0.156-1.98
			c0.052-0.52,0.156-0.988,0.261-1.354c0.104-0.365,0.26-0.781,0.469-1.303c0.416-1.145,1.094-2.187,1.979-3.019
			c0.886-0.834,1.875-1.512,2.917-2.031c0.573-0.262,1.042-0.418,1.458-0.574c0.417-0.104,0.938-0.207,1.511-0.26
			s1.302-0.104,2.239-0.156c0.886-0.053,2.084-0.053,3.542-0.053h12.188c1.458,0,2.656,0,3.489,0c0.886,0,1.562,0.053,2.031,0.105
			c0.469,0.051,0.886,0.104,1.198,0.207c0.312,0.053,0.625,0.105,1.042,0.209c2.135,0.572,3.854,1.615,5.156,3.229
			c1.25,1.615,1.875,3.49,1.875,5.625c0,1.459-0.312,2.865-0.886,4.168c-0.573,1.301-1.406,2.395-2.448,3.281
			c-0.938,0.781-1.979,1.354-3.125,1.719c-1.197,0.312-2.708,0.52-4.635,0.52h-10.156v4.219h8.177c2.552,0,4.531,0.678,5.989,2.031
			c1.459,1.355,2.24,3.125,2.24,5.262c0,2.395-0.886,4.322-2.656,5.781c-0.781,0.625-1.667,1.041-2.553,1.25
			c-0.885,0.207-2.135,0.312-3.75,0.312h-7.291v4.582H374.188L374.188,535.432z"/>
		<path fill="#01ADFE" d="M438.562,538.4c0.677,1.043,1.146,2.137,1.458,3.281c0.312,1.146,0.469,2.24,0.469,3.281
			c0,1.406-0.26,2.709-0.781,3.906c-0.521,1.199-1.25,2.24-2.188,3.125c-0.938,0.887-1.979,1.615-3.229,2.137
			c-1.25,0.52-2.553,0.781-3.959,0.781c-3.697,0-6.51-1.562-8.438-4.688l-8.438-13.906v8.385c0,1.459-0.26,2.812-0.781,4.062
			c-0.521,1.25-1.25,2.291-2.135,3.229c-0.886,0.938-1.928,1.668-3.125,2.188c-1.198,0.521-2.5,0.781-3.906,0.781
			c-1.562,0-3.021-0.312-4.428-0.988c-1.406-0.625-2.604-1.562-3.489-2.709c-1.614-2.031-2.396-4.896-2.396-8.646v-37.863
			c0-2.188,0.26-4.012,0.729-5.365c0.469-1.406,1.354-2.603,2.604-3.646c1.146-1.041,2.396-1.77,3.646-2.135
			s3.125-0.572,5.573-0.572h8.489c2.553,0,4.479,0.051,5.834,0.207c1.354,0.156,2.708,0.365,4.062,0.678
			c2.396,0.678,4.583,1.666,6.562,3.021c1.979,1.353,3.646,2.968,5.104,4.843c1.406,1.875,2.553,3.957,3.334,6.197
			c0.781,2.291,1.197,4.635,1.197,7.084c0,2.969-0.521,5.625-1.51,8.072c-1.042,2.447-2.709,4.947-5.053,7.604L438.562,538.4z
			 M413.511,518.4h0.833h1.406c3.073,0.105,4.636-0.938,4.636-3.229c0-2.344-1.562-3.438-4.74-3.334c-0.26,0-0.572,0-0.938,0
			c-0.312,0-0.729-0.051-1.197-0.104V518.4L413.511,518.4z"/>
		<path fill="#01ADFE" d="M480.646,497.203c2.084-3.125,4.896-4.687,8.438-4.687c1.354,0,2.656,0.26,3.906,0.834
			c1.25,0.572,2.344,1.301,3.281,2.188c0.938,0.938,1.667,1.978,2.24,3.228c0.572,1.25,0.833,2.5,0.833,3.854
			c0,2.031-0.521,3.803-1.562,5.365l-10.364,15l12.552,16.041c1.302,1.615,1.927,3.438,1.927,5.521c0,1.406-0.26,2.76-0.833,4.01
			s-1.302,2.344-2.239,3.281s-1.979,1.668-3.229,2.188c-1.25,0.574-2.552,0.834-3.906,0.834c-1.406,0-2.761-0.26-4.062-0.834
			c-1.302-0.572-2.292-1.301-3.073-2.188l-15.26-19.219v10.574c0,3.541-0.938,6.406-2.761,8.541s-4.323,3.178-7.396,3.178
			c-3.229,0-5.729-1.043-7.604-3.125c-1.875-2.084-2.761-4.896-2.761-8.49v-39.428c0-3.385,0.938-6.094,2.761-8.175
			c1.823-2.084,4.323-3.125,7.396-3.125c1.459,0,2.917,0.312,4.271,0.938c1.354,0.625,2.5,1.457,3.438,2.5
			c0.989,1.041,1.666,2.187,2.083,3.384c0.417,1.25,0.625,2.76,0.625,4.584v9.844L480.646,497.203z"/>
		<path fill="#01ADFE" d="M542.676,504.963c0-2.031,0.105-3.594,0.365-4.738c0.26-1.146,0.729-2.24,1.459-3.281
			c0.885-1.355,2.031-2.449,3.541-3.23s3.072-1.197,4.74-1.197c1.562,0,2.969,0.312,4.322,0.99c1.303,0.625,2.5,1.562,3.49,2.707
			c0.885,1.093,1.457,2.24,1.875,3.437c0.416,1.199,0.572,2.762,0.572,4.637v37.551c0,2.449-0.156,4.324-0.469,5.574
			s-0.885,2.447-1.771,3.645c-0.938,1.25-2.082,2.188-3.488,2.812s-2.865,0.99-4.48,0.99c-3.281,0-5.988-1.406-8.072-4.166
			l-16.146-20.521v12.916c0,2.031-0.156,3.594-0.52,4.74c-0.312,1.146-0.938,2.24-1.771,3.385c-0.99,1.146-2.135,2.084-3.49,2.709
			c-1.354,0.625-2.812,0.99-4.322,0.99c-1.615,0-3.125-0.365-4.531-1.043c-1.406-0.729-2.604-1.666-3.594-2.916
			c-0.834-1.146-1.406-2.344-1.719-3.49c-0.26-1.145-0.416-2.863-0.416-5.156v-38.854c0-3.334,0.988-5.938,2.916-7.916
			c1.928-1.98,4.531-2.969,7.709-2.969c1.457,0,2.812,0.312,4.01,0.988c1.197,0.625,2.396,1.668,3.541,3.074l16.199,19.791
			L542.676,504.963L542.676,504.963z"/>
		<path fill="#01ADFE" d="M602.363,535.432c2.24,0,3.906,0.156,5.156,0.521c1.199,0.365,2.344,0.938,3.387,1.771
			c2.238,1.926,3.332,4.322,3.332,7.188c0,1.406-0.312,2.76-0.885,4.113c-0.572,1.303-1.406,2.396-2.447,3.281
			c-0.469,0.418-0.99,0.781-1.512,1.043c-0.52,0.26-1.094,0.469-1.719,0.625s-1.354,0.26-2.188,0.312
			c-0.832,0.051-1.822,0.104-3.02,0.104h-15.834c-2.344,0-4.01-0.053-5-0.209c-0.99-0.104-1.928-0.312-2.76-0.625
			c-3.281-1.354-5.209-3.801-5.834-7.344c-0.053-0.312-0.104-0.572-0.209-0.885c-0.051-0.26-0.104-0.625-0.156-1.041
			c-0.051-0.418-0.051-0.938-0.051-1.562c0-0.678,0-1.512,0-2.605v-33.332c0-1.303,0-2.344,0.051-3.125
			c0.053-0.781,0.053-1.459,0.156-1.98c0.053-0.52,0.156-0.988,0.262-1.354c0.104-0.365,0.26-0.781,0.469-1.303
			c0.416-1.145,1.094-2.187,1.979-3.019c0.885-0.834,1.875-1.512,2.916-2.031c0.574-0.262,1.043-0.418,1.459-0.574
			c0.418-0.104,0.938-0.207,1.51-0.26c0.574-0.053,1.303-0.104,2.24-0.156c0.885-0.053,2.084-0.053,3.543-0.053h12.188
			c1.457,0,2.656,0,3.488,0c0.887,0,1.562,0.053,2.031,0.105c0.469,0.051,0.887,0.104,1.199,0.207
			c0.312,0.053,0.625,0.105,1.041,0.209c2.135,0.572,3.854,1.615,5.156,3.229c1.25,1.615,1.875,3.49,1.875,5.625
			c0,1.459-0.312,2.865-0.885,4.168c-0.574,1.301-1.406,2.395-2.449,3.281c-0.938,0.781-1.979,1.354-3.125,1.719
			c-1.197,0.312-2.707,0.52-4.635,0.52h-10.156v4.219h8.021c2.551,0,4.531,0.678,5.988,2.031c1.459,1.355,2.24,3.125,2.24,5.262
			c0,2.395-0.885,4.322-2.656,5.781c-0.781,0.625-1.666,1.041-2.553,1.25c-0.885,0.207-2.135,0.312-3.75,0.312h-7.291v4.582H602.363
			L602.363,535.432z"/>
		<path fill="#01ADFE" d="M642.781,555.953c-3.281,0-6.303-0.416-9.168-1.197c-2.812-0.781-5.312-1.928-7.395-3.334
			c-2.084-1.406-3.75-3.072-4.896-4.947s-1.771-3.906-1.771-6.146c0-1.303,0.209-2.5,0.678-3.594s1.094-2.084,1.928-2.916
			c0.832-0.834,1.822-1.512,2.969-1.98c1.145-0.469,2.344-0.729,3.645-0.729c1.25,0,2.396,0.209,3.543,0.678
			c1.145,0.469,2.344,1.197,3.645,2.238c1.094,0.887,1.98,1.512,2.656,2.031c0.678,0.469,1.25,0.887,1.668,1.146
			c0.416,0.26,0.781,0.469,1.094,0.521c0.312,0.051,0.625,0.104,1.041,0.104c0.781,0,1.459-0.26,1.875-0.729
			c0.469-0.469,0.678-1.146,0.678-1.928c0-1.041-0.521-1.928-1.562-2.604c-0.105-0.053-0.262-0.156-0.418-0.209
			c-0.156-0.104-0.363-0.209-0.625-0.312c-0.26-0.104-0.625-0.26-1.094-0.469s-1.094-0.416-1.875-0.729
			c-0.885-0.312-1.719-0.574-2.5-0.887c-0.781-0.26-1.613-0.572-2.5-0.885c-8.957-3.125-13.385-8.959-13.385-17.5
			c0-3.021,0.572-5.729,1.666-8.178c1.094-2.447,2.656-4.582,4.637-6.354c1.979-1.771,4.375-3.177,7.188-4.166
			c2.812-0.99,5.885-1.459,9.219-1.459c2.76,0,5.363,0.365,7.76,1.041c2.396,0.73,4.479,1.668,6.303,2.865
			c1.77,1.197,3.176,2.603,4.219,4.218c1.041,1.615,1.51,3.385,1.51,5.312c0,2.447-0.729,4.479-2.24,6.041
			c-1.457,1.562-3.385,2.344-5.729,2.344c-1.406,0-2.76-0.26-3.959-0.781c-1.25-0.52-2.707-1.406-4.426-2.707
			c-1.043-0.834-1.875-1.459-2.5-1.771s-1.199-0.469-1.771-0.469c-0.678,0-1.25,0.209-1.719,0.678s-0.678,1.041-0.678,1.719
			c0,0.938,0.418,1.666,1.25,2.188c0.834,0.572,2.449,1.25,4.844,2.031c2.656,0.781,5.156,1.77,7.5,2.916s4.219,2.291,5.625,3.541
			c1.928,1.615,3.438,3.646,4.531,6.199c1.094,2.551,1.668,5.312,1.668,8.229c0,2.76-0.521,5.416-1.512,7.969
			c-1.041,2.553-2.447,4.791-4.322,6.666c-2.084,2.084-4.531,3.646-7.344,4.637C649.916,555.484,646.582,555.953,642.781,555.953z"
			/>
		<path fill="#01ADFE" d="M694.916,555.953c-3.281,0-6.303-0.416-9.166-1.197c-2.812-0.781-5.312-1.928-7.396-3.334
			s-3.75-3.072-4.896-4.947c-1.145-1.875-1.77-3.906-1.77-6.146c0-1.303,0.207-2.5,0.676-3.594s1.094-2.084,1.928-2.916
			c0.834-0.834,1.822-1.512,2.969-1.98s2.344-0.729,3.646-0.729c1.25,0,2.395,0.209,3.541,0.678s2.344,1.197,3.646,2.238
			c1.094,0.887,1.979,1.512,2.656,2.031c0.676,0.469,1.25,0.887,1.666,1.146s0.781,0.469,1.094,0.521
			c0.312,0.051,0.625,0.104,1.041,0.104c0.781,0,1.459-0.26,1.875-0.729c0.469-0.469,0.678-1.146,0.678-1.928
			c0-1.041-0.521-1.928-1.562-2.604c-0.104-0.053-0.26-0.156-0.416-0.209c-0.156-0.104-0.365-0.209-0.625-0.312
			c-0.262-0.104-0.625-0.26-1.094-0.469s-1.094-0.416-1.875-0.729c-0.887-0.312-1.719-0.574-2.5-0.887
			c-0.781-0.26-1.615-0.572-2.5-0.885c-8.959-3.125-13.387-8.959-13.387-17.5c0-3.021,0.574-5.729,1.668-8.178
			c1.094-2.447,2.656-4.582,4.635-6.354c1.979-1.771,4.375-3.177,7.188-4.166c2.812-0.99,5.885-1.459,9.219-1.459
			c2.76,0,5.365,0.365,7.76,1.041c2.396,0.73,4.48,1.668,6.303,2.865c1.771,1.197,3.178,2.603,4.219,4.218s1.51,3.385,1.51,5.312
			c0,2.447-0.729,4.479-2.238,6.041c-1.459,1.562-3.387,2.344-5.73,2.344c-1.406,0-2.76-0.26-3.957-0.781
			c-1.25-0.52-2.709-1.406-4.428-2.707c-1.041-0.834-1.875-1.459-2.5-1.771s-1.197-0.469-1.771-0.469
			c-0.676,0-1.25,0.209-1.719,0.678s-0.676,1.041-0.676,1.719c0,0.938,0.416,1.666,1.25,2.188c0.832,0.572,2.447,1.25,4.844,2.031
			c2.656,0.781,5.156,1.77,7.5,2.916s4.219,2.291,5.625,3.541c1.926,1.615,3.438,3.646,4.531,6.199
			c1.094,2.551,1.666,5.312,1.666,8.229c0,2.76-0.521,5.416-1.51,7.969c-1.043,2.553-2.449,4.791-4.324,6.666
			c-2.082,2.084-4.531,3.646-7.344,4.637C702.051,555.484,698.719,555.953,694.916,555.953z"/>
	</g>
	<g>
		<path fill="#00CE96" d="M308.25,584.182c0,1.668-0.989,3.387-3.021,5.156c-1.354,1.199-2.863,2.084-4.582,2.709
			s-3.387,0.99-5.209,0.99c-2.031,0-3.959-0.365-5.729-1.146c-1.771-0.781-3.334-1.822-4.688-3.125
			c-1.355-1.303-2.396-2.865-3.125-4.635c-0.781-1.771-1.146-3.699-1.146-5.678c0-2.031,0.365-3.959,1.146-5.729
			c0.781-1.771,1.822-3.334,3.176-4.688c1.355-1.303,2.918-2.396,4.688-3.125c1.771-0.781,3.699-1.146,5.73-1.146
			c1.719,0,3.332,0.26,4.947,0.834c1.615,0.572,3.072,1.406,4.375,2.5c2.239,1.822,3.386,3.645,3.386,5.52
			c0,0.625-0.104,1.25-0.365,1.824c-0.26,0.572-0.572,1.041-0.989,1.457c-0.417,0.418-0.886,0.73-1.459,0.99
			c-0.572,0.26-1.145,0.365-1.822,0.365c-0.572,0-1.094-0.105-1.615-0.312c-0.52-0.209-0.938-0.469-1.25-0.834l-1.354-1.459
			c-0.521-0.572-1.094-0.988-1.822-1.25c-0.678-0.26-1.406-0.416-2.188-0.416c-0.73,0-1.459,0.156-2.137,0.416
			c-0.676,0.262-1.25,0.678-1.77,1.146c-0.521,0.469-0.887,1.041-1.146,1.719s-0.416,1.406-0.416,2.135
			c0,0.73,0.156,1.459,0.416,2.137c0.26,0.676,0.678,1.25,1.146,1.719c0.52,0.52,1.094,0.885,1.719,1.145
			c0.676,0.262,1.354,0.418,2.135,0.418s1.51-0.156,2.188-0.469c0.729-0.312,1.354-0.781,1.928-1.355l0.938-0.988
			c0.363-0.418,0.885-0.73,1.457-0.938c0.574-0.262,1.146-0.365,1.719-0.365c0.625,0,1.199,0.104,1.771,0.365
			c0.573,0.26,1.042,0.572,1.458,0.988c0.417,0.418,0.729,0.887,0.99,1.459C308.094,583.037,308.25,583.609,308.25,584.182z"/>
		<path fill="#00CE96" d="M310.698,578.244c0-2.031,0.364-3.906,1.146-5.625c0.781-1.77,1.823-3.281,3.125-4.582
			c1.302-1.303,2.864-2.344,4.688-3.074c1.771-0.729,3.698-1.145,5.729-1.145s3.958,0.363,5.729,1.145
			c1.771,0.781,3.334,1.824,4.688,3.125c1.354,1.303,2.396,2.865,3.178,4.637c0.781,1.77,1.146,3.697,1.146,5.676
			c0,1.98-0.364,3.906-1.146,5.678s-1.823,3.334-3.178,4.688c-1.354,1.354-2.916,2.396-4.688,3.178
			c-1.771,0.781-3.697,1.145-5.677,1.145c-2.083,0-4.011-0.363-5.781-1.145s-3.333-1.824-4.688-3.178
			c-1.302-1.354-2.396-2.916-3.125-4.688C311.062,582.256,310.698,580.328,310.698,578.244z M319.917,578.35
			c0,0.781,0.156,1.457,0.416,2.188c0.312,0.676,0.678,1.301,1.198,1.77c0.469,0.521,1.094,0.887,1.719,1.199
			c0.677,0.312,1.406,0.416,2.136,0.416c0.781,0,1.458-0.156,2.135-0.416c0.678-0.312,1.25-0.678,1.719-1.199
			c0.469-0.52,0.886-1.094,1.198-1.77c0.312-0.678,0.417-1.406,0.417-2.137c0-0.781-0.156-1.457-0.417-2.135
			c-0.312-0.678-0.677-1.25-1.198-1.719c-0.469-0.469-1.094-0.885-1.719-1.146c-0.677-0.26-1.406-0.416-2.135-0.416
			c-0.781,0-1.459,0.156-2.136,0.416c-0.677,0.262-1.25,0.678-1.719,1.146s-0.886,1.041-1.198,1.719
			C320.073,576.891,319.917,577.619,319.917,578.35z"/>
		<path fill="#00CE96" d="M363.667,566.734c0.364-0.729,0.938-1.303,1.666-1.771c0.729-0.469,1.562-0.676,2.396-0.676
			c0.572,0,1.146,0.104,1.719,0.312c0.572,0.207,1.094,0.52,1.458,0.938c0.364,0.416,0.677,0.832,0.886,1.25
			c0.208,0.469,0.364,1.041,0.521,1.822l3.177,17.969c0.053,0.312,0.104,0.572,0.104,0.834c0.052,0.26,0.052,0.469,0.052,0.729
			c0,0.625-0.104,1.25-0.364,1.771c-0.261,0.52-0.573,0.988-0.938,1.406c-0.417,0.416-0.886,0.729-1.458,0.938
			c-0.573,0.26-1.146,0.363-1.771,0.363c-1.146,0-2.188-0.312-3.021-0.938s-1.354-1.51-1.562-2.551l-1.042-5.209l-1.822,4.947
			c-0.938,2.553-2.5,3.803-4.74,3.803c-1.146,0-2.083-0.312-2.864-0.885c-0.729-0.625-1.354-1.562-1.823-2.865l-1.822-5
			l-0.729,4.428c-0.208,1.354-0.729,2.395-1.562,3.176s-1.823,1.146-3.021,1.146c-1.354,0-2.5-0.469-3.334-1.406
			c-0.885-0.938-1.302-2.135-1.302-3.594c0-0.209,0-0.365,0-0.572c0-0.156,0.052-0.365,0.052-0.574l3.178-17.863
			c0.208-1.355,0.729-2.396,1.51-3.178s1.771-1.146,2.969-1.146c0.99,0,1.875,0.262,2.761,0.834c0.833,0.572,1.458,1.303,1.875,2.24
			l4.167,9.27L363.667,566.734z"/>
		<path fill="#00CE96" d="M388.042,587.256c0,1.613-0.417,2.863-1.25,3.854c-0.834,0.99-1.928,1.459-3.334,1.459
			c-0.781,0-1.51-0.209-2.188-0.574c-0.677-0.363-1.25-0.885-1.666-1.51c-0.156-0.26-0.312-0.521-0.417-0.781
			s-0.208-0.521-0.261-0.781c-0.052-0.312-0.104-0.678-0.104-1.094c0-0.469,0-1.041,0-1.719v-16.303c0-0.988,0.104-1.77,0.26-2.344
			c0.156-0.572,0.521-1.094,0.99-1.613c0.469-0.469,0.989-0.834,1.614-1.043c0.625-0.207,1.302-0.312,2.188-0.312h3.854
			c1.094,0,2.083,0.053,2.916,0.105c0.834,0.051,1.562,0.207,2.24,0.363c0.677,0.156,1.25,0.365,1.771,0.625
			c0.521,0.262,1.094,0.625,1.614,1.043c1.25,0.938,2.24,2.135,2.917,3.488c0.677,1.406,1.042,2.865,1.042,4.428
			s-0.365,3.021-1.094,4.428c-0.729,1.406-1.719,2.604-3.021,3.541c-0.938,0.729-1.927,1.25-2.916,1.562
			c-0.99,0.312-2.188,0.469-3.594,0.469h-1.562V587.256L388.042,587.256z M388.042,576.006c1.146,0.051,1.927-0.053,2.396-0.262
			c0.469-0.207,0.677-0.676,0.677-1.301c0-0.469-0.208-0.834-0.572-1.094c-0.417-0.262-0.938-0.365-1.667-0.365h-0.833V576.006
			L388.042,576.006z"/>
		<path fill="#00CE96" d="M412.312,580.641c0,0.99,0.208,1.771,0.677,2.344s1.094,0.834,1.875,0.834s1.459-0.262,1.875-0.834
			c0.417-0.521,0.678-1.303,0.678-2.291v-11.146c0-0.521,0-0.938,0.052-1.303c0.052-0.363,0.052-0.676,0.156-0.938
			c0.052-0.26,0.156-0.52,0.312-0.729s0.312-0.469,0.521-0.729c0.469-0.574,0.99-0.99,1.562-1.303
			c0.625-0.312,1.25-0.469,1.979-0.469c0.677,0,1.302,0.156,1.979,0.469c0.677,0.312,1.197,0.729,1.614,1.197
			c0.208,0.262,0.417,0.521,0.521,0.781c0.156,0.262,0.261,0.574,0.312,0.887c0.104,0.312,0.156,0.729,0.156,1.145
			c0.052,0.469,0.052,0.99,0.052,1.615v9.896c0,1.875-0.26,3.541-0.729,4.947s-1.198,2.656-2.24,3.803
			c-1.146,1.301-2.5,2.344-4.01,3.072c-1.511,0.729-3.125,1.094-4.792,1.094c-1.875,0-3.646-0.416-5.312-1.303
			c-1.667-0.885-3.073-2.082-4.167-3.594c-0.416-0.572-0.781-1.145-1.041-1.719c-0.312-0.572-0.521-1.145-0.729-1.77
			c-0.156-0.625-0.312-1.303-0.364-2.031c-0.053-0.73-0.104-1.562-0.104-2.449v-9.844c0-0.676,0-1.197,0.052-1.666
			c0.053-0.416,0.053-0.781,0.156-1.094c0.053-0.312,0.156-0.572,0.312-0.834c0.104-0.26,0.261-0.52,0.469-0.729
			c0.469-0.572,0.99-0.99,1.667-1.303s1.302-0.469,1.979-0.469c0.625,0,1.25,0.156,1.875,0.418c0.572,0.26,1.094,0.625,1.51,1.041
			c0.469,0.469,0.781,0.99,0.99,1.615c0.156,0.625,0.26,1.406,0.26,2.344L412.312,580.641L412.312,580.641z"/>
		<path fill="#00CE96" d="M434.031,573.037c-0.833,0-1.511-0.105-2.031-0.312c-0.521-0.209-1.042-0.521-1.458-0.938
			c-0.886-0.938-1.303-1.928-1.303-3.074c0-0.832,0.209-1.562,0.678-2.291s1.041-1.25,1.719-1.562
			c0.26-0.104,0.469-0.209,0.677-0.26c0.208-0.053,0.469-0.105,0.781-0.105c0.312-0.051,0.781-0.051,1.302-0.051
			c0.521,0,1.303,0,2.188,0h9.271c0.625,0,1.146,0,1.51,0c0.365,0,0.625,0,0.834,0c0.208,0,0.364,0,0.416,0
			c0.104,0,0.209,0.051,0.365,0.051c1.094,0.156,2.031,0.625,2.708,1.406s1.042,1.719,1.042,2.812c0,0.625-0.156,1.199-0.417,1.824
			c-0.261,0.572-0.625,1.094-1.094,1.51c-0.729,0.678-1.927,0.99-3.542,0.99h-2.031v13.906c0,0.832-0.052,1.51-0.156,2.031
			c-0.104,0.52-0.312,1.041-0.625,1.51c-0.416,0.678-0.938,1.197-1.614,1.562s-1.406,0.521-2.188,0.521s-1.511-0.156-2.136-0.521
			c-0.677-0.312-1.197-0.834-1.666-1.406c-0.312-0.469-0.521-0.938-0.625-1.459c-0.104-0.52-0.156-1.25-0.156-2.188v-13.957H434.031
			L434.031,573.037z"/>
		<path fill="#00CE96" d="M469.188,583.766c0.989,0,1.771,0.053,2.344,0.209c0.521,0.156,1.042,0.416,1.511,0.832
			c0.989,0.887,1.51,1.928,1.51,3.281c0,0.625-0.156,1.25-0.416,1.875c-0.261,0.625-0.625,1.094-1.094,1.512
			c-0.209,0.207-0.469,0.363-0.678,0.469c-0.26,0.104-0.521,0.207-0.781,0.312c-0.26,0.051-0.625,0.104-0.989,0.156
			c-0.364,0.051-0.833,0.051-1.354,0.051h-7.135c-1.042,0-1.823-0.051-2.24-0.104c-0.469-0.053-0.885-0.156-1.25-0.312
			c-1.458-0.625-2.344-1.719-2.656-3.334c-0.052-0.156-0.052-0.26-0.104-0.416c-0.053-0.156-0.053-0.26-0.053-0.469s0-0.416,0-0.729
			s0-0.678,0-1.146v-15.156c0-0.572,0-1.041,0-1.406s0.053-0.678,0.053-0.885c0.052-0.262,0.052-0.418,0.104-0.625
			c0.053-0.156,0.104-0.365,0.209-0.574c0.208-0.52,0.521-0.988,0.885-1.406c0.365-0.416,0.834-0.676,1.303-0.938
			c0.26-0.104,0.469-0.207,0.677-0.26s0.417-0.104,0.677-0.104c0.261-0.053,0.625-0.053,0.99-0.053c0.416,0,0.938,0,1.614,0h5.521
			c0.678,0,1.198,0,1.615,0c0.416,0,0.677,0,0.938,0.053c0.208,0.051,0.416,0.051,0.521,0.104c0.156,0.053,0.312,0.053,0.469,0.104
			c0.989,0.262,1.771,0.73,2.344,1.459s0.833,1.562,0.833,2.553c0,0.676-0.156,1.301-0.416,1.926
			c-0.261,0.625-0.625,1.094-1.094,1.512c-0.417,0.363-0.886,0.625-1.406,0.781c-0.521,0.156-1.25,0.207-2.084,0.207h-4.583v1.928
			h3.646c1.146,0,2.031,0.312,2.709,0.938c0.677,0.625,0.989,1.406,0.989,2.396c0,1.094-0.417,1.979-1.198,2.656
			c-0.364,0.26-0.729,0.469-1.146,0.572s-0.989,0.156-1.719,0.156h-3.281v2.084L469.188,583.766L469.188,583.766z"/>
		<path fill="#00CE96" d="M498.302,585.068c0.312,0.469,0.521,0.988,0.678,1.51s0.208,0.99,0.208,1.51
			c0,0.625-0.104,1.25-0.364,1.771c-0.261,0.521-0.573,1.041-0.99,1.406c-0.416,0.416-0.885,0.729-1.458,0.938
			s-1.146,0.365-1.823,0.365c-1.666,0-2.969-0.73-3.802-2.137l-3.802-6.301v3.801c0,0.678-0.104,1.303-0.365,1.824
			c-0.26,0.572-0.572,1.041-0.938,1.457c-0.416,0.418-0.885,0.73-1.406,0.99c-0.521,0.26-1.146,0.365-1.771,0.365
			c-0.677,0-1.354-0.156-2.031-0.418c-0.625-0.312-1.146-0.729-1.614-1.25c-0.729-0.938-1.094-2.238-1.094-3.957v-17.188
			c0-0.99,0.104-1.824,0.312-2.449c0.208-0.625,0.625-1.197,1.197-1.666c0.521-0.469,1.094-0.781,1.667-0.938s1.406-0.26,2.552-0.26
			h3.854c1.146,0,2.031,0.051,2.656,0.104s1.25,0.156,1.823,0.312c1.094,0.312,2.083,0.781,2.969,1.406
			c0.885,0.625,1.666,1.354,2.291,2.188s1.146,1.771,1.511,2.812s0.521,2.084,0.521,3.229c0,1.355-0.208,2.553-0.677,3.646
			s-1.198,2.24-2.292,3.438L498.302,585.068z M486.948,576.006h0.364h0.625c1.406,0.051,2.083-0.418,2.083-1.459
			s-0.729-1.562-2.135-1.51c-0.104,0-0.261,0-0.417,0s-0.312,0-0.521-0.053V576.006L486.948,576.006z"/>
		<path fill="#00CE96" d="M525.072,593.088c-1.459,0-2.865-0.156-4.166-0.52c-1.303-0.365-2.396-0.887-3.334-1.512
			s-1.666-1.406-2.24-2.238c-0.52-0.834-0.781-1.771-0.781-2.762c0-0.572,0.105-1.145,0.312-1.613
			c0.209-0.521,0.521-0.938,0.887-1.303c0.363-0.365,0.832-0.678,1.354-0.885c0.521-0.209,1.041-0.312,1.666-0.312
			c0.574,0,1.094,0.104,1.615,0.312c0.521,0.207,1.041,0.572,1.666,1.041c0.521,0.416,0.887,0.678,1.199,0.938
			c0.312,0.209,0.572,0.416,0.729,0.521c0.209,0.104,0.365,0.207,0.521,0.207c0.156,0.053,0.312,0.053,0.469,0.053
			c0.363,0,0.625-0.104,0.832-0.312c0.209-0.209,0.312-0.521,0.312-0.885c0-0.469-0.26-0.887-0.729-1.146
			c-0.053-0.053-0.104-0.053-0.209-0.104c-0.051-0.053-0.156-0.105-0.312-0.156c-0.104-0.053-0.312-0.105-0.52-0.209
			c-0.209-0.104-0.521-0.209-0.834-0.312c-0.416-0.156-0.781-0.26-1.146-0.416c-0.363-0.105-0.729-0.262-1.145-0.418
			c-4.062-1.406-6.043-4.062-6.043-7.969c0-1.354,0.262-2.604,0.73-3.697c0.52-1.094,1.197-2.084,2.082-2.865
			c0.887-0.832,1.98-1.457,3.23-1.875c1.25-0.469,2.656-0.676,4.166-0.676c1.25,0,2.447,0.156,3.49,0.469
			c1.094,0.312,2.031,0.729,2.863,1.301c0.834,0.574,1.459,1.199,1.928,1.928s0.678,1.562,0.678,2.396
			c0,1.094-0.312,2.031-0.99,2.76s-1.51,1.041-2.604,1.041c-0.625,0-1.25-0.104-1.824-0.363c-0.572-0.262-1.25-0.625-2.031-1.25
			c-0.469-0.418-0.832-0.678-1.145-0.781c-0.312-0.105-0.521-0.209-0.781-0.209c-0.312,0-0.574,0.104-0.781,0.312
			c-0.209,0.209-0.312,0.469-0.312,0.781c0,0.416,0.207,0.729,0.572,0.99c0.365,0.26,1.094,0.572,2.188,0.938
			c1.197,0.363,2.344,0.781,3.385,1.301c1.043,0.521,1.928,1.043,2.553,1.615c0.885,0.729,1.562,1.666,2.031,2.812
			c0.521,1.146,0.729,2.396,0.729,3.75c0,1.25-0.207,2.447-0.676,3.594s-1.094,2.188-1.928,3.021
			c-0.938,0.938-2.084,1.666-3.334,2.135C528.301,592.828,526.791,593.088,525.072,593.088z"/>
		<path fill="#00CE96" d="M565.645,584.182c0,1.668-0.988,3.387-3.02,5.156c-1.355,1.199-2.865,2.084-4.584,2.709
			s-3.385,0.99-5.209,0.99c-2.031,0-3.957-0.365-5.729-1.146s-3.334-1.822-4.688-3.125s-2.396-2.865-3.125-4.635
			c-0.781-1.771-1.146-3.699-1.146-5.678c0-2.031,0.365-3.959,1.146-5.729c0.781-1.771,1.822-3.334,3.178-4.688
			c1.354-1.303,2.916-2.396,4.688-3.125c1.77-0.781,3.697-1.146,5.729-1.146c1.719,0,3.334,0.26,4.947,0.834
			c1.615,0.572,3.074,1.406,4.375,2.5c2.24,1.822,3.387,3.645,3.387,5.52c0,0.625-0.105,1.25-0.365,1.824
			c-0.26,0.572-0.572,1.041-0.99,1.457c-0.416,0.418-0.885,0.73-1.457,0.99c-0.574,0.26-1.146,0.365-1.824,0.365
			c-0.572,0-1.094-0.105-1.613-0.312c-0.521-0.209-0.938-0.469-1.25-0.834l-1.355-1.459c-0.52-0.572-1.094-0.988-1.822-1.25
			c-0.678-0.26-1.406-0.416-2.188-0.416c-0.729,0-1.459,0.156-2.135,0.416c-0.678,0.262-1.25,0.678-1.771,1.146
			s-0.885,1.041-1.197,1.719c-0.262,0.678-0.418,1.406-0.418,2.135c0,0.73,0.156,1.459,0.418,2.137
			c0.26,0.676,0.676,1.25,1.197,1.719c0.521,0.52,1.094,0.885,1.719,1.145c0.678,0.262,1.354,0.418,2.135,0.418
			c0.73,0,1.512-0.156,2.188-0.469c0.73-0.312,1.355-0.781,1.928-1.355l0.938-0.988c0.416-0.418,0.885-0.73,1.459-0.938
			c0.572-0.262,1.145-0.365,1.719-0.365c0.625,0,1.197,0.104,1.77,0.365c0.574,0.26,1.043,0.572,1.459,0.988
			c0.416,0.418,0.729,0.887,0.99,1.459C565.541,583.037,565.645,583.609,565.645,584.182z"/>
		<path fill="#00CE96" d="M578.094,587.256c0,0.885-0.105,1.613-0.262,2.188c-0.156,0.572-0.469,1.094-0.885,1.562
			c-0.469,0.469-0.99,0.832-1.615,1.145c-0.625,0.262-1.25,0.418-1.822,0.418c-0.625,0-1.25-0.156-1.928-0.418
			c-0.623-0.26-1.145-0.625-1.51-1.041c-0.469-0.469-0.729-0.99-0.938-1.562c-0.156-0.572-0.26-1.303-0.26-2.291v-17.293
			c0-0.572,0-1.094,0.051-1.51c0.053-0.416,0.105-0.781,0.156-1.094c0.105-0.312,0.209-0.572,0.365-0.834
			c0.156-0.26,0.365-0.52,0.625-0.781c0.885-0.988,1.979-1.51,3.385-1.51s2.553,0.469,3.438,1.459
			c0.469,0.52,0.781,1.094,0.938,1.666s0.262,1.459,0.262,2.604V587.256z"/>
		<path fill="#00CE96" d="M595.854,583.766c0.99,0,1.771,0.053,2.344,0.209c0.521,0.156,1.041,0.416,1.51,0.832
			c0.99,0.887,1.512,1.928,1.512,3.281c0,0.625-0.156,1.25-0.418,1.875c-0.26,0.625-0.625,1.094-1.094,1.512
			c-0.207,0.207-0.469,0.363-0.676,0.469c-0.262,0.104-0.521,0.207-0.781,0.312c-0.262,0.051-0.625,0.104-0.99,0.156
			c-0.365,0.051-0.834,0.051-1.354,0.051h-7.137c-1.041,0-1.822-0.051-2.238-0.104c-0.469-0.053-0.887-0.156-1.25-0.312
			c-1.459-0.625-2.344-1.719-2.656-3.334c-0.053-0.156-0.053-0.26-0.105-0.416c-0.051-0.104-0.051-0.26-0.051-0.469s0-0.416,0-0.729
			s0-0.678,0-1.146v-15.156c0-0.572,0-1.041,0-1.406s0.051-0.678,0.051-0.885c0.053-0.262,0.053-0.418,0.105-0.625
			c0.051-0.156,0.104-0.365,0.207-0.574c0.209-0.52,0.521-0.988,0.887-1.406c0.416-0.416,0.832-0.676,1.301-0.938
			c0.262-0.104,0.469-0.207,0.678-0.26s0.416-0.104,0.678-0.104c0.26-0.053,0.625-0.053,0.988-0.053c0.418,0,0.938,0,1.615,0h5.521
			c0.676,0,1.197,0,1.613,0c0.365,0,0.678,0,0.938,0.053c0.209,0.051,0.418,0.051,0.521,0.104c0.156,0.053,0.312,0.053,0.469,0.104
			c0.99,0.262,1.771,0.73,2.344,1.459s0.834,1.562,0.834,2.553c0,0.676-0.156,1.301-0.418,1.926
			c-0.26,0.625-0.625,1.094-1.094,1.512c-0.416,0.363-0.885,0.625-1.406,0.781c-0.52,0.156-1.25,0.207-2.082,0.207h-4.584v1.928
			h3.646c1.145,0,2.031,0.312,2.707,0.938c0.678,0.625,0.99,1.406,0.99,2.396c0,1.094-0.416,1.979-1.197,2.656
			c-0.365,0.26-0.73,0.469-1.146,0.572s-0.99,0.156-1.719,0.156h-3.281v2.084L595.854,583.766L595.854,583.766z"/>
		<path fill="#00CE96" d="M619.969,569.912c0-0.938,0.051-1.615,0.156-2.137c0.104-0.52,0.312-0.988,0.676-1.51
			c0.365-0.625,0.939-1.094,1.615-1.459c0.678-0.363,1.406-0.52,2.135-0.52c0.678,0,1.355,0.156,1.928,0.416
			c0.625,0.312,1.146,0.729,1.562,1.25c0.365,0.521,0.678,1.041,0.834,1.562s0.26,1.25,0.26,2.135v17.084
			c0,1.094-0.053,1.979-0.209,2.553c-0.156,0.572-0.416,1.145-0.781,1.666c-0.416,0.572-0.938,0.99-1.562,1.25
			c-0.625,0.312-1.301,0.416-2.031,0.416c-1.457,0-2.707-0.625-3.645-1.875l-7.293-9.322v5.834c0,0.938-0.051,1.613-0.207,2.135
			s-0.418,1.041-0.834,1.51c-0.469,0.521-0.99,0.938-1.562,1.25c-0.625,0.312-1.25,0.418-1.979,0.418
			c-0.73,0-1.406-0.156-2.031-0.469s-1.199-0.781-1.615-1.303c-0.365-0.521-0.625-1.041-0.781-1.615
			c-0.104-0.52-0.209-1.301-0.209-2.344v-17.656c0-1.51,0.418-2.707,1.303-3.594c0.885-0.885,2.031-1.354,3.49-1.354
			c0.676,0,1.301,0.156,1.822,0.416c0.521,0.312,1.094,0.781,1.615,1.406l7.344,9.012V569.912L619.969,569.912z"/>
		<path fill="#00CE96" d="M636.895,573.037c-0.832,0-1.457-0.105-2.031-0.312c-0.52-0.209-1.041-0.521-1.457-0.938
			c-0.887-0.938-1.303-1.928-1.303-3.074c0-0.832,0.209-1.562,0.678-2.291s1.041-1.25,1.719-1.562
			c0.26-0.104,0.469-0.209,0.676-0.26c0.209-0.053,0.469-0.105,0.781-0.105c0.312-0.051,0.781-0.051,1.303-0.051s1.303,0,2.188,0
			h9.271c0.625,0,1.145,0,1.51,0s0.625,0,0.834,0c0.207,0,0.363,0,0.416,0c0.104,0,0.209,0.051,0.365,0.051
			c1.094,0.156,2.031,0.625,2.707,1.406c0.678,0.781,1.043,1.719,1.043,2.812c0,0.625-0.156,1.199-0.418,1.824
			c-0.26,0.572-0.625,1.094-1.094,1.51c-0.729,0.678-1.926,0.99-3.541,0.99h-2.031v13.906c0,0.832-0.053,1.51-0.156,2.031
			c-0.104,0.52-0.312,1.041-0.625,1.51c-0.416,0.678-0.938,1.197-1.615,1.562c-0.676,0.365-1.406,0.521-2.188,0.521
			s-1.51-0.156-2.135-0.521c-0.678-0.312-1.197-0.834-1.666-1.406c-0.312-0.469-0.521-0.938-0.625-1.459
			c-0.104-0.52-0.156-1.25-0.156-2.188v-13.957H636.895L636.895,573.037z"/>
		<path fill="#00CE96" d="M667.832,587.256c0,0.885-0.104,1.613-0.26,2.188c-0.156,0.572-0.469,1.094-0.885,1.562
			c-0.469,0.469-0.99,0.832-1.615,1.145c-0.625,0.262-1.25,0.418-1.822,0.418c-0.625,0-1.25-0.156-1.928-0.418
			c-0.625-0.26-1.146-0.625-1.51-1.041c-0.469-0.469-0.73-0.99-0.938-1.562c-0.156-0.572-0.262-1.303-0.262-2.291v-17.293
			c0-0.572,0-1.094,0.053-1.51s0.104-0.781,0.156-1.094c0.104-0.312,0.209-0.572,0.365-0.834c0.156-0.26,0.363-0.52,0.625-0.781
			c0.885-0.988,1.979-1.51,3.385-1.51s2.553,0.469,3.438,1.459c0.469,0.52,0.781,1.094,0.938,1.666s0.26,1.459,0.26,2.604V587.256
			L667.832,587.256z"/>
		<path fill="#00CE96" d="M681.844,593.088c-1.459,0-2.865-0.156-4.168-0.52c-1.301-0.365-2.395-0.887-3.332-1.512
			s-1.668-1.406-2.24-2.238c-0.521-0.834-0.781-1.771-0.781-2.762c0-0.572,0.104-1.145,0.312-1.613
			c0.209-0.521,0.521-0.938,0.885-1.303c0.365-0.365,0.834-0.678,1.355-0.885c0.52-0.209,1.041-0.312,1.666-0.312
			c0.572,0,1.094,0.104,1.615,0.312c0.52,0.207,1.041,0.572,1.666,1.041c0.521,0.416,0.885,0.678,1.197,0.938
			c0.312,0.209,0.574,0.416,0.73,0.521c0.207,0.104,0.363,0.207,0.52,0.207c0.156,0.053,0.312,0.053,0.469,0.053
			c0.365,0,0.625-0.104,0.834-0.312s0.312-0.521,0.312-0.885c0-0.469-0.26-0.887-0.729-1.146c-0.053-0.053-0.105-0.053-0.209-0.104
			c-0.053-0.053-0.156-0.105-0.312-0.156c-0.104-0.053-0.312-0.105-0.521-0.209c-0.207-0.104-0.52-0.209-0.832-0.312
			c-0.418-0.156-0.781-0.26-1.146-0.416s-0.729-0.262-1.146-0.418c-4.062-1.406-6.041-4.062-6.041-7.969
			c0-1.354,0.26-2.604,0.729-3.697c0.521-1.094,1.199-2.084,2.084-2.865c0.885-0.832,1.979-1.457,3.229-1.875
			c1.25-0.469,2.656-0.676,4.168-0.676c1.25,0,2.447,0.156,3.488,0.469c1.094,0.312,2.031,0.729,2.865,1.301
			c0.834,0.521,1.459,1.199,1.928,1.928s0.676,1.562,0.676,2.396c0,1.094-0.312,2.031-0.988,2.76
			c-0.678,0.729-1.512,1.041-2.605,1.041c-0.625,0-1.25-0.104-1.822-0.363c-0.572-0.262-1.25-0.625-2.031-1.25
			c-0.469-0.418-0.834-0.678-1.146-0.781c-0.26-0.156-0.52-0.209-0.781-0.209c-0.312,0-0.572,0.104-0.781,0.312
			c-0.207,0.209-0.312,0.469-0.312,0.781c0,0.416,0.209,0.729,0.574,0.99c0.363,0.26,1.094,0.572,2.188,0.938
			c1.197,0.363,2.344,0.781,3.385,1.301c1.041,0.521,1.928,1.043,2.553,1.615c0.885,0.729,1.562,1.666,2.031,2.812
			c0.52,1.146,0.729,2.396,0.729,3.75c0,1.25-0.209,2.447-0.678,3.594s-1.094,2.188-1.926,3.021
			c-0.938,0.938-2.031,1.666-3.334,2.135C685.072,592.828,683.562,593.088,681.844,593.088z"/>
		<path fill="#00CE96" d="M698.51,573.037c-0.834,0-1.51-0.105-2.031-0.312c-0.521-0.209-1.041-0.521-1.459-0.938
			c-0.885-0.938-1.301-1.928-1.301-3.074c0-0.832,0.207-1.562,0.676-2.291s1.043-1.25,1.719-1.562
			c0.262-0.104,0.469-0.209,0.678-0.26c0.209-0.053,0.469-0.105,0.781-0.105c0.312-0.051,0.781-0.051,1.303-0.051
			c0.52,0,1.25,0,2.188,0h9.27c0.625,0,1.146,0,1.512,0c0.363,0,0.625,0,0.832,0c0.209,0,0.365,0,0.418,0
			c0.104,0,0.207,0.051,0.363,0.051c1.094,0.156,2.031,0.625,2.709,1.406s1.041,1.719,1.041,2.812c0,0.625-0.156,1.199-0.416,1.824
			c-0.26,0.572-0.625,1.094-1.094,1.51c-0.729,0.678-1.928,0.99-3.541,0.99h-2.031v13.906c0,0.832-0.053,1.51-0.156,2.031
			c-0.105,0.52-0.312,1.041-0.625,1.51c-0.418,0.678-0.938,1.197-1.615,1.562s-1.406,0.521-2.188,0.521s-1.51-0.156-2.135-0.521
			s-1.199-0.834-1.668-1.406c-0.312-0.469-0.52-0.938-0.625-1.459c-0.104-0.52-0.156-1.25-0.156-2.188v-13.957H698.51
			L698.51,573.037z"/>
	</g>
</g>
</svg>
