<?xml version="1.0" encoding="utf-8"?>
<!-- Generator: Adobe Illustrator 16.0.0, SVG Export Plug-In . SVG Version: 6.00 Build 0)  -->
<!DOCTYPE svg PUBLIC "-//W3C//DTD SVG 1.1//EN" "http://www.w3.org/Graphics/SVG/1.1/DTD/svg11.dtd">
<svg version="1.1" id="Layer_1" xmlns="http://www.w3.org/2000/svg" xmlns:xlink="http://www.w3.org/1999/xlink" x="0px" y="0px"
	 width="63px" height="63px" viewBox="0 0 63 63" enable-background="new 0 0 63 63" xml:space="preserve">
<g display="none">
	<path display="inline" fill="#EE3A6D" d="M0,0v63h63V0H0z M54,54H9V9h45V54z"/>
	<polygon display="inline" fill="#EE3A6D" points="27,36 36,36 36,45 45,45 45,18 36,18 36,27 27,27 27,18 18,18 18,45 27,45 	"/>
</g>
<g>
	<path fill="#EE3A6D" d="M31.5,0C14.104,0,0,14.103,0,31.5C0,48.896,14.104,63,31.5,63S63,48.896,63,31.5C63,14.103,48.896,0,31.5,0
		z M31.5,54C19.074,54,9,43.926,9,31.5C9,19.074,19.074,9,31.5,9S54,19.074,54,31.5C54,43.926,43.926,54,31.5,54z"/>
	<polygon fill="#EE3A6D" points="36,27 27,27 27,18 18,18 18,45 27,45 27,36 36,36 36,45 45,45 45,18 36,18 	"/>
</g>
</svg>
