<?xml version="1.0" encoding="utf-8"?>
<!-- Generator: Adobe Illustrator 16.0.0, SVG Export Plug-In . SVG Version: 6.00 Build 0)  -->
<!DOCTYPE svg PUBLIC "-//W3C//DTD SVG 1.1//EN" "http://www.w3.org/Graphics/SVG/1.1/DTD/svg11.dtd">
<svg version="1.1" id="Layer_1" xmlns="http://www.w3.org/2000/svg" xmlns:xlink="http://www.w3.org/1999/xlink" x="0px" y="0px"
	 width="108px" height="108px" viewBox="0 0 108 108" enable-background="new 0 0 108 108" xml:space="preserve">
<path fill="#5C8BAE" d="M0,54c0,12.29,4.113,23.615,11.028,32.691l30.287,7.571l3.852-91.929L9.03,24.108
	C3.329,32.668,0,42.944,0,54z"/>
<path fill="#33BA9E" d="M41.315,106.487V94.263L6.969,80.524C14.229,93.371,26.594,102.941,41.315,106.487z"/>
<path fill="#33BA9E" d="M101.832,28.944L41.315,4.737v101.75C45.385,107.467,49.629,108,54,108c2.884,0,5.714-0.231,8.476-0.667
	l41.292-74.325C103.182,31.621,102.528,30.269,101.832,28.944z"/>
<path fill="#00949E" d="M54,0c-2.37,0-4.699,0.169-6.989,0.465l-5.695,4.271l60.517,24.207C92.802,11.741,74.777,0,54,0z"/>
<path fill="#10B3AC" d="M50.31,0.14C29.507,1.545,11.933,14.718,4.209,33.069L50.31,0.14z"/>
<path fill="#7ACBBB" d="M80.512,74.867L32.833,38.5l8.482,67.987C45.385,107.467,49.629,108,54,108c2.884,0,5.714-0.231,8.476-0.667
	L80.512,74.867z"/>
<path fill="#3B9EB9" d="M89.315,54l-31.409,53.844C85.904,105.84,108,82.508,108,54c0-8.276-1.868-16.114-5.195-23.125L89.315,54"/>
<polygon fill="#FFFFFF" points="27.26,26.524 45.26,26.524 45.26,44.524 63.26,44.524 63.26,26.524 81.26,26.524 81.26,80.524 
	63.26,80.524 63.26,62.524 45.26,62.524 45.26,80.524 27.26,80.524 "/>
</svg>
