<?xml version="1.0" encoding="utf-8"?>
<!-- Generator: Adobe Illustrator 16.0.0, SVG Export Plug-In . SVG Version: 6.00 Build 0)  -->
<!DOCTYPE svg PUBLIC "-//W3C//DTD SVG 1.1//EN" "http://www.w3.org/Graphics/SVG/1.1/DTD/svg11.dtd">
<svg version="1.1" id="Layer_1" xmlns="http://www.w3.org/2000/svg" xmlns:xlink="http://www.w3.org/1999/xlink" x="0px" y="0px"
	 width="181.866px" height="198.25px" viewBox="0 0 181.866 198.25" enable-background="new 0 0 181.866 198.25"
	 xml:space="preserve">
<path fill="#4070f8" d="M164.546,36.625l-56.293-32.5c-9.526-5.5-25.115-5.5-34.641,0l-56.292,32.5c-9.526,5.5-17.32,19-17.32,30
	l0.001,65c0,11,7.794,24.5,17.32,30l56.291,32.5c9.526,5.5,25.114,5.5,34.641,0l56.293-32.5c9.526-5.5,17.32-19,17.32-30v-65
	C181.866,55.625,174.072,42.125,164.546,36.625z M156.021,129.125c0,16.928-26.25,16.928-26.25,0c0-7.422,0-14.844,0-22.265
	c-8.57,4.947-17.141,9.896-25.712,14.844c0,12.474,0,24.947,0,37.421c0,9.988-11.139,16.305-19.75,11.334
	c-17.321-10-34.641-20-51.962-30c-14.651-8.459-1.438-31.146,13.249-22.666c10.738,6.199,21.475,12.398,32.212,18.598
	c0-24.843,0-49.687,0-74.529C67.071,68.061,56.334,74.26,45.596,80.459c-14.687,8.479-27.9-14.208-13.249-22.666
	c17.321-10,34.641-20,51.962-30c8.611-4.971,19.75,1.344,19.75,11.333c0,17.421,0,34.842,0,52.264
	c10.737-6.199,21.475-12.398,32.213-18.597c4.768-2.752,9.373-2.209,12.927,0.054c3.895,1.879,6.822,5.631,6.822,11.279
	C156.021,99.125,156.021,114.125,156.021,129.125z"/>
<g display="none">
	<g display="inline">
		<path fill="#FFFFFF" d="M45.596,80.458c17.321-10,34.641-20,51.961-30c-6.583-3.778-13.166-7.555-19.749-11.333c0,40,0,80,0,120
			c6.583-3.777,13.167-7.556,19.749-11.333c-17.32-10-34.641-20-51.961-30c-14.687-8.479-27.9,14.207-13.249,22.666
			c17.321,10,34.641,20,51.962,30c8.611,4.972,19.75-1.345,19.75-11.333c0-40,0-80,0-120c0-9.989-11.139-16.304-19.75-11.333
			c-17.321,10-34.641,20-51.962,30C17.696,66.251,30.909,88.938,45.596,80.458L45.596,80.458z"/>
		<path fill="#FFFFFF" d="M129.771,69.125c0,20,0,40,0,60c0,16.928,26.25,16.928,26.25,0c0-20,0-40,0-60
			C156.021,52.197,129.771,52.197,129.771,69.125L129.771,69.125z"/>
		<path fill="#FFFFFF" d="M136.271,72.792c-17.321,10-34.642,20-51.962,29.999c-14.651,8.458-1.438,31.146,13.249,22.666
			c17.321-10,34.642-19.999,51.962-29.999C164.171,87,150.958,64.312,136.271,72.792L136.271,72.792z"/>
	</g>
</g>
</svg>
