<?xml version="1.0" encoding="utf-8"?>
<!-- Generator: Adobe Illustrator 16.0.0, SVG Export Plug-In . SVG Version: 6.00 Build 0)  -->
<!DOCTYPE svg PUBLIC "-//W3C//DTD SVG 1.1//EN" "http://www.w3.org/Graphics/SVG/1.1/DTD/svg11.dtd">
<svg version="1.1" id="Layer_1" xmlns="http://www.w3.org/2000/svg" xmlns:xlink="http://www.w3.org/1999/xlink" x="0px" y="0px"
	 width="162px" height="162px" viewBox="0 0 162 162" enable-background="new 0 0 162 162" xml:space="preserve">
<path fill="#39BB9F" d="M81,9C41.235,9,9,41.235,9,81s32.235,72,72,72s72-32.235,72-72S120.765,9,81,9z M81,135
	c-29.823,0-54-24.177-54-54s24.177-54,54-54s54,24.177,54,54S110.823,135,81,135z"/>
<polygon fill="#39BB9F" points="54,54 72,54 72,72 90,72 90,54 108,54 108,108 90,108 90,90 72,90 72,108 54,108 "/>
</svg>
