<?xml version="1.0" encoding="utf-8"?>
<!-- Generator: Adobe Illustrator 16.0.0, SVG Export Plug-In . SVG Version: 6.00 Build 0)  -->
<!DOCTYPE svg PUBLIC "-//W3C//DTD SVG 1.1//EN" "http://www.w3.org/Graphics/SVG/1.1/DTD/svg11.dtd">
<svg version="1.1" id="Layer_1" xmlns="http://www.w3.org/2000/svg" xmlns:xlink="http://www.w3.org/1999/xlink" x="0px" y="0px"
	 width="226.002px" height="75.334px" viewBox="0 0 226.002 75.334" enable-background="new 0 0 226.002 75.334"
	 xml:space="preserve">
<path fill="#FFFFFF" d="M112.97,60.129c-12.401,0-22.431-10.03-22.431-22.432c0-12.462,10.03-22.492,22.431-22.492
	c12.341,0,22.493,10.03,22.493,22.492C135.463,50.099,125.311,60.129,112.97,60.129z M99.718,37.697
	c0,7.234,6.019,13.252,13.252,13.252s13.13-6.018,13.13-13.252c0-7.234-5.896-13.313-13.13-13.313S99.718,30.463,99.718,37.697z"/>
<path fill="#FFFFFF" d="M42.494,15.449V44.75c0,3.1,0,7.111-5.045,7.111c-3.634,0-4.902-1.468-5.243-3.768h-8.911
	c0.055,1.312,0.72,4.216,2.117,6.078c2.675,3.951,7.295,5.714,12.158,5.714c12.948,0,14.468-9.118,14.468-14.711V15.449H42.494z"/>
<path fill="#FFFFFF" d="M193.682,33.837c-10.881-2.614-12.948-3.343-12.948-6.565c0-3.647,3.526-4.924,6.565-4.924
	c2.979,0,7.416,0.183,8.57,5.228h9.17c-0.718-9.036-8.676-12.644-17.314-12.644c-7.842,0-16.231,4.194-16.231,13.13
	c0,16.231,25.836,10.273,25.836,19.513c0,4.438-5.106,5.41-8.45,5.41c-3.525,0-8.632-0.79-9.604-6.504h-9.173
	c0.795,9.626,9.162,13.92,18.413,13.92c11.854,0,18.054-5.957,18.054-13.92C206.568,36.633,196.903,34.627,193.682,33.837z"/>
<path display="none" fill="#FFFFFF" d="M30.039,42.165v9.24h24.498v8.023H20.799V15.904h31.672v8.024H30.039v9.788h19.816v8.449
	H30.039z"/>
<path display="none" fill="#FFFFFF" d="M95.707,15.965h19.575c10.881,0,15.015,6.869,15.015,13.92
	c0,7.052-4.134,13.921-15.015,13.921h-10.031v15.562h-9.544V15.965z M105.251,36.391h7.416c4.378,0,8.39-0.973,8.39-6.505
	c0-5.531-4.012-6.504-8.39-6.504h-7.416V36.391z"/>
<path display="none" fill="#FFFFFF" d="M198.366,40.735h-20.121v18.48h-9.301V15.69h9.301v15.745h20.121V15.812h9.361v43.404h-9.361
	V40.735z"/>
</svg>
