<?xml version="1.0" encoding="utf-8"?>
<!-- Generator: Adobe Illustrator 16.0.0, SVG Export Plug-In . SVG Version: 6.00 Build 0)  -->
<!DOCTYPE svg PUBLIC "-//W3C//DTD SVG 1.1//EN" "http://www.w3.org/Graphics/SVG/1.1/DTD/svg11.dtd">
<svg class="svg-jqtext" width="100%" viewBox="87 45 824 200" version="1.1" overflow="visible" xmlns="http://www.w3.org/2000/svg" xmlns:xlink="http://www.w3.org/1999/xlink">
					<path class="jqt-j jqt" stroke="#000000" stroke-width="3" d="M141.75,66.723h19.922V166.82c0,13.477-3.581,24.204-10.742,32.178c-7.163,7.976-16.374,11.963-27.637,11.963
					c-12.109,0-21.713-3.531-28.809-10.596c-7.097-7.063-10.515-17.366-10.254-30.908l0.293-0.586h19.043
					c0,9.18,1.741,15.983,5.225,20.41c3.482,4.428,8.316,6.641,14.502,6.641c5.403,0,9.83-2.62,13.281-7.861
					c3.45-5.24,5.176-12.32,5.176-21.24V66.723z"></path>
					<path class="jqt-e jqt" stroke="#000000" stroke-width="3" d="M256.593,142.895h-48.242v50.977h56.836v15.039h-76.66V66.723h76.172v15.234h-56.348v45.801h48.242V142.895z"></path>
					<path class="jqt-s jqt" stroke="#000000" stroke-width="3" d="M349.953,173.168c0-6.509-1.855-11.865-5.566-16.064s-10.254-8.023-19.629-11.475
					c-13.347-4.166-23.601-9.537-30.762-16.113c-7.163-6.575-10.742-15.332-10.742-26.27c0-11.197,3.955-20.425,11.865-27.686
					c7.91-7.259,18.05-10.889,30.42-10.889c13.15,0,23.697,4.038,31.641,12.109c7.942,8.073,11.783,18.198,11.523,30.371l-0.195,0.586
					h-19.043c0-8.333-2.214-15.071-6.641-20.215c-4.428-5.142-10.254-7.715-17.48-7.715c-7.031,0-12.485,2.214-16.357,6.641
					c-3.874,4.428-5.811,9.961-5.811,16.602c0,6.186,2.051,11.296,6.152,15.332c4.102,4.038,11.001,7.846,20.703,11.426
					c12.955,4.233,22.818,9.766,29.59,16.602c6.771,6.836,10.156,15.69,10.156,26.562c0,11.589-3.989,20.817-11.963,27.686
					c-7.976,6.87-18.442,10.303-31.396,10.303c-12.5,0-23.374-3.711-32.617-11.133c-9.245-7.422-13.706-18.066-13.379-31.934
					l0.195-0.586h19.141c0,9.636,2.554,16.831,7.666,21.582c5.11,4.753,11.441,7.129,18.994,7.129c7.356,0,13.118-2.066,17.285-6.201
					C347.868,185.685,349.953,180.135,349.953,173.168z"></path>
					<path class="jqt-s jqt" stroke="#000000" stroke-width="3" d="M456.789,173.168c0-6.509-1.855-11.865-5.566-16.064s-10.254-8.023-19.629-11.475
					c-13.347-4.166-23.601-9.537-30.762-16.113c-7.163-6.575-10.742-15.332-10.742-26.27c0-11.197,3.955-20.425,11.865-27.686
					c7.91-7.259,18.05-10.889,30.42-10.889c13.15,0,23.697,4.038,31.641,12.109c7.942,8.073,11.783,18.198,11.523,30.371l-0.195,0.586
					H456.3c0-8.333-2.214-15.071-6.641-20.215c-4.428-5.142-10.254-7.715-17.48-7.715c-7.031,0-12.485,2.214-16.357,6.641
					c-3.874,4.428-5.811,9.961-5.811,16.602c0,6.186,2.051,11.296,6.152,15.332c4.102,4.038,11.001,7.846,20.703,11.426
					c12.955,4.233,22.818,9.766,29.59,16.602c6.771,6.836,10.156,15.69,10.156,26.562c0,11.589-3.988,20.817-11.963,27.686
					c-7.976,6.87-18.442,10.303-31.396,10.303c-12.5,0-23.374-3.711-32.617-11.133c-9.245-7.422-13.706-18.066-13.379-31.934
					l0.195-0.586h19.141c0,9.636,2.554,16.831,7.666,21.582c5.11,4.753,11.441,7.129,18.994,7.129c7.356,0,13.118-2.066,17.285-6.201
					C454.704,185.685,456.789,180.135,456.789,173.168z"></path>
					<path class="jqt-e jqt" stroke="#000000" stroke-width="3" d="M566.848,142.895h-48.242v50.977h56.836v15.039h-76.661V66.723h76.172v15.234h-56.348v45.801h48.242V142.895z"></path>
					<path class="jqt-q jqt" stroke="#000000" stroke-width="3" d="M735.012,157.445c0,7.031-0.848,13.461-2.539,19.287c-1.693,5.827-4.102,10.954-7.227,15.381l17.773,19.629l-13.184,11.426
					l-17.578-19.141c-3.842,2.344-8.074,4.086-12.695,5.225c-4.623,1.138-9.57,1.709-14.844,1.709
					c-15.105,0-27.117-4.703-36.035-14.111c-8.92-9.407-13.379-22.542-13.379-39.404v-39.062c0-16.797,4.459-29.947,13.379-39.453
					c8.918-9.505,20.898-14.258,35.938-14.258c15.299,0,27.521,4.736,36.67,14.209c9.146,9.473,13.721,22.641,13.721,39.502V157.445z
					M715.285,118.09c0-12.369-2.654-21.761-7.959-28.174c-5.307-6.412-12.875-9.619-22.705-9.619c-9.506,0-16.814,3.208-21.924,9.619
					c-5.111,6.413-7.666,15.805-7.666,28.174v39.355c0,12.5,2.57,21.973,7.715,28.418c5.143,6.445,12.467,9.668,21.973,9.668
					c9.83,0,17.383-3.206,22.656-9.619c5.273-6.412,7.91-15.901,7.91-28.467V118.09z"></path>
					<path class="jqt-i jqt" stroke="#000000" stroke-width="3" d="M782.375,208.91h-19.824V66.723h19.824V208.91z"></path>
					<path class="jqt-n jqt" stroke="#000000" stroke-width="3" d="M906.789,208.91h-19.922l-55.078-104.883l-0.586,0.195V208.91h-19.824V66.723h19.824l55.078,104.59l0.586-0.098V66.723
					h19.922V208.91z"></path>
				</svg>
