<?xml version="1.0" encoding="utf-8"?>
<!-- Generator: Adobe Illustrator 16.0.0, SVG Export Plug-In . SVG Version: 6.00 Build 0)  -->
<!DOCTYPE svg PUBLIC "-//W3C//DTD SVG 1.1//EN" "http://www.w3.org/Graphics/SVG/1.1/DTD/svg11.dtd">
<svg version="1.1" id="Layer_1" xmlns="http://www.w3.org/2000/svg" xmlns:xlink="http://www.w3.org/1999/xlink" x="0px" y="0px"
	 width="707.437px" height="265.024px" viewBox="-21.059 31.54 707.437 265.024"
	 enable-background="new -21.059 31.54 707.437 265.024" xml:space="preserve">
<path fill="#FFFFFF" stroke="#FFFFFF" stroke-width="3" d="M128.663,33.952h16.924v85.034c0,11.448-3.042,20.561-9.125,27.335
	c-6.085,6.777-13.91,10.164-23.478,10.164c-10.287,0-18.446-3-24.474-9.003c-6.029-6-8.933-14.752-8.711-26.257l0.249-0.497h16.178
	c0,7.798,1.479,13.577,4.438,17.338c2.958,3.762,7.064,5.642,12.32,5.642c4.59,0,8.351-2.226,11.282-6.678
	c2.931-4.452,4.397-10.466,4.397-18.044V33.952L128.663,33.952z"/>
<path fill="#FFFFFF" stroke="#FFFFFF" stroke-width="3" d="M313.193,125.251c0-5.53-1.576-10.08-4.729-13.646
	c-3.152-3.568-8.711-6.816-16.675-9.749c-11.338-3.539-20.049-8.102-26.133-13.688c-6.085-5.585-9.125-13.024-9.125-22.316
	c0-9.512,3.36-17.351,10.08-23.52c6.719-6.166,15.333-9.25,25.842-9.25c11.171,0,20.131,3.43,26.879,10.286
	c6.747,6.858,10.01,15.46,9.789,25.801l-0.166,0.498h-16.177c0-7.079-1.881-12.804-5.642-17.173
	c-3.762-4.368-8.711-6.554-14.85-6.554c-5.973,0-10.606,1.881-13.896,5.642c-3.291,3.762-4.937,8.461-4.937,14.104
	c0,5.255,1.743,9.596,5.227,13.024c3.484,3.431,9.345,6.665,17.587,9.706c11.005,3.597,19.384,8.297,25.137,14.104
	c5.752,5.808,8.627,13.33,8.627,22.565c0,9.845-3.389,17.685-10.163,23.52c-6.776,5.837-15.667,8.753-26.671,8.753
	c-10.619,0-19.856-3.152-27.708-9.458c-7.854-6.306-11.644-15.347-11.366-27.128l0.166-0.498h16.261
	c0,8.186,2.169,14.298,6.512,18.334c4.341,4.037,9.719,6.057,16.136,6.057c6.249,0,11.144-1.756,14.684-5.268
	C311.422,135.884,313.193,131.169,313.193,125.251z"/>
<path fill="#FFFFFF" stroke="#FFFFFF" stroke-width="3" d="M420.644,293.322H403.72l-46.79-89.1l-0.498,0.164v88.936h-16.839
	V172.531h16.839l46.79,88.852l0.498-0.084v-88.768h16.924V293.322z"/>
<g>
	<path fill="#FFFFFF" stroke="#FFFFFF" stroke-width="3" d="M183.618,136.077c-4.371-5.476-6.554-13.522-6.554-24.142V78.503
		c0-10.619,2.183-18.666,6.554-24.142c4.369-5.476,10.591-8.213,18.667-8.213l-0.001-13.108c-12.832,0-23.037,3.996-30.612,11.988
		c-7.578,7.99-11.366,19.149-11.366,33.474v0.25v33.185c0,14.324,3.788,25.483,11.366,33.474
		c7.575,7.992,17.78,11.987,30.612,11.987l0.001-13.107C194.209,144.29,187.987,141.553,183.618,136.077z"/>
	<path fill="#FFFFFF" stroke="#FFFFFF" stroke-width="3" d="M232.898,45.028c-7.575-7.992-17.78-11.988-30.612-11.988l-0.001,13.108
		c8.076,0,14.298,2.737,18.667,8.213c4.371,5.476,6.554,13.522,6.554,24.142v33.433c0,10.619-2.183,18.666-6.554,24.142
		c-4.369,5.476-10.591,8.213-18.667,8.213l0.001,13.107c12.832,0,23.037-3.995,30.612-11.987
		c7.578-7.99,11.366-19.149,11.366-33.474v-0.25V78.502C244.265,64.178,240.477,53.019,232.898,45.028z"/>
</g>
<polygon fill="#FFFFFF" stroke="#FFFFFF" stroke-width="3" points="582.555,34.823 582.555,86.798 535.115,86.798 535.115,34.823 
	518.273,34.823 518.273,155.613 535.115,155.613 535.115,103.64 582.555,103.64 582.555,155.613 599.396,155.613 599.396,34.823 "/>
<polygon fill="#FFFFFF" stroke="#FFFFFF" stroke-width="3" points="44.723,172.531 44.723,224.506 -2.717,224.506 -2.717,172.531 
	-19.559,172.531 -19.559,293.321 -2.717,293.321 -2.717,241.348 44.723,241.348 44.723,293.321 61.565,293.321 61.565,172.531 "/>
<path fill="#FFFFFF" stroke="#FFFFFF" stroke-width="3" d="M578.249,262.959c0-5.53-1.575-10.08-4.729-13.646
	c-3.152-3.568-8.711-6.816-16.675-9.749c-11.338-3.539-20.049-8.102-26.133-13.688c-6.085-5.585-9.125-13.024-9.125-22.316
	c0-9.512,3.359-17.352,10.079-23.52c6.72-6.166,15.333-9.25,25.843-9.25c11.17,0,20.131,3.43,26.879,10.286
	c6.746,6.858,10.01,15.46,9.789,25.801l-0.166,0.498h-16.178c0-7.079-1.881-12.804-5.641-17.173
	c-3.762-4.369-8.711-6.555-14.85-6.555c-5.973,0-10.606,1.881-13.896,5.643c-3.291,3.762-4.936,8.461-4.936,14.104
	c0,5.255,1.742,9.596,5.227,13.024c3.484,3.431,9.345,6.665,17.587,9.706c11.005,3.597,19.384,8.297,25.138,14.104
	c5.752,5.808,8.627,13.33,8.627,22.565c0,9.845-3.389,17.685-10.162,23.52c-6.776,5.837-15.668,8.753-26.672,8.753
	c-10.619,0-19.856-3.152-27.709-9.458c-7.854-6.306-11.643-15.347-11.365-27.128l0.166-0.498h16.26
	c0,8.186,2.17,14.298,6.513,18.334c4.341,4.037,9.72,6.057,16.136,6.057c6.249,0,11.145-1.756,14.684-5.268
	S578.249,268.877,578.249,262.959z"/>
<path fill="#FFFFFF" stroke="#FFFFFF" stroke-width="3" d="M668.037,262.959c0-5.53-1.575-10.08-4.729-13.646
	c-3.152-3.568-8.711-6.816-16.675-9.749c-11.338-3.539-20.049-8.102-26.133-13.688c-6.085-5.585-9.125-13.024-9.125-22.316
	c0-9.512,3.359-17.352,10.079-23.52c6.72-6.166,15.333-9.25,25.843-9.25c11.17,0,20.131,3.43,26.879,10.286
	c6.746,6.858,10.01,15.46,9.789,25.801l-0.166,0.498h-16.178c0-7.079-1.881-12.804-5.641-17.173
	c-3.762-4.369-8.711-6.555-14.85-6.555c-5.973,0-10.606,1.881-13.896,5.643c-3.291,3.762-4.936,8.461-4.936,14.104
	c0,5.255,1.742,9.596,5.227,13.024c3.484,3.431,9.345,6.665,17.587,9.706c11.005,3.597,19.384,8.297,25.138,14.104
	c5.752,5.808,8.627,13.33,8.627,22.565c0,9.845-3.389,17.685-10.162,23.52c-6.776,5.837-15.668,8.753-26.672,8.753
	c-10.619,0-19.856-3.152-27.709-9.458c-7.854-6.306-11.643-15.347-11.365-27.128l0.166-0.498h16.26
	c0,8.186,2.17,14.298,6.513,18.334c4.341,4.037,9.72,6.057,16.136,6.057c6.249,0,11.145-1.756,14.684-5.268
	S668.037,268.877,668.037,262.959z"/>
<path fill="#FFFFFF" stroke="#FFFFFF" stroke-width="3" d="M477.994,34.823h-29.877h-16.84v68.816v51.975h16.84V103.64h29.877
	c19.002,0,34.408-15.405,34.408-34.408S496.996,34.823,477.994,34.823z M476.531,86.95h-28.395v-38h28.395c10.492,0,19,8.506,19,19
	C495.531,78.443,487.023,86.95,476.531,86.95z"/>
<path fill="#FFFFFF" stroke="#FFFFFF" stroke-width="3" d="M241.141,206.939c0-19.003-15.405-34.408-34.408-34.408h-29.875h-16.841
	v68.816v51.974h16.841v-51.974h18.769l27.294,51.974h16.271l-27.557-52.327C228.314,238.614,241.141,224.277,241.141,206.939z
	 M176.882,223.616v-38h28.394c10.493,0,19,8.507,19,19c0,10.494-8.507,19-19,19H176.882z"/>
<path fill="#FFFFFF" stroke="#FFFFFF" stroke-width="3" d="M330.928,206.94c0-19.004-15.404-34.408-34.409-34.408h-29.875h-16.841
	v68.816v51.973h16.841v-51.973h18.769l27.293,51.973h16.271l-27.557-52.326C318.102,238.614,330.928,224.278,330.928,206.94z
	 M266.669,223.616v-38h28.393c10.494,0,19,8.508,19,19c0,10.494-8.506,19-19,19H266.669z"/>
<polygon fill="#FFFFFF" stroke="#FFFFFF" stroke-width="3" points="151.733,189.373 151.733,172.531 150.938,172.531 
	70.229,172.531 70.229,189.373 70.229,224.505 70.229,241.347 70.229,276.479 70.229,293.32 70.229,293.321 150.938,293.321 
	150.938,293.32 151.733,293.32 151.733,276.479 87.07,276.479 87.07,241.347 151.733,241.347 151.733,224.505 87.07,224.505 
	87.07,189.373 "/>
<polygon fill="#FFFFFF" stroke="#FFFFFF" stroke-width="3" points="422.805,51.665 422.805,34.823 422.01,34.823 341.299,34.823 
	341.299,51.665 341.299,86.797 341.299,103.64 341.299,138.771 341.299,155.611 341.299,155.613 422.01,155.613 422.01,155.611 
	422.805,155.611 422.805,138.771 358.141,138.771 358.141,103.64 422.805,103.64 422.805,86.797 358.141,86.797 358.141,51.665 "/>
<polygon fill="#FFFFFF" stroke="#FFFFFF" stroke-width="3" points="510.886,189.373 510.886,172.531 510.091,172.531 
	429.38,172.531 429.38,189.373 429.38,224.505 429.38,241.347 429.38,276.478 429.38,293.319 429.38,293.321 510.091,293.321 
	510.091,293.319 510.886,293.319 510.886,276.478 446.222,276.478 446.222,241.347 510.886,241.347 510.886,224.505 
	446.222,224.505 446.222,189.373 "/>
</svg>
