<?xml version="1.0" encoding="utf-8"?>
<!-- Generator: Adobe Illustrator 16.0.0, SVG Export Plug-In . SVG Version: 6.00 Build 0)  -->
<!DOCTYPE svg PUBLIC "-//W3C//DTD SVG 1.1//EN" "http://www.w3.org/Graphics/SVG/1.1/DTD/svg11.dtd">
<svg version="1.1" id="Layer_1" xmlns="http://www.w3.org/2000/svg" xmlns:xlink="http://www.w3.org/1999/xlink" x="0px" y="0px"
	 width="198.896px" height="92.35px" viewBox="0 0 198.896 92.35" enable-background="new 0 0 198.896 92.35" xml:space="preserve">
<g>
	<path fill="#FFFFFF" d="M43.625,0.5c0.232,0,0.441,0.075,0.625,0.225c0.183,0.15,0.274,0.375,0.274,0.675v25.65
		c0,1.867-0.25,3.459-0.75,4.775s-1.192,2.383-2.075,3.199c-0.883,0.817-1.917,1.409-3.1,1.775c-1.184,0.366-2.459,0.55-3.825,0.55
		c-1.533,0-2.908-0.217-4.125-0.649c-1.217-0.434-2.242-1.017-3.075-1.75S26.1,33.35,25.649,32.35s-0.675-2.083-0.675-3.25
		c0-0.366,0.083-0.625,0.25-0.774c0.166-0.15,0.366-0.226,0.6-0.226s0.45,0.075,0.65,0.226c0.2,0.149,0.3,0.375,0.3,0.675
		c0,1.1,0.208,2.067,0.625,2.899c0.417,0.834,0.991,1.518,1.726,2.051c0.732,0.533,1.582,0.934,2.55,1.199
		c0.966,0.268,2,0.4,3.1,0.4c2.5,0,4.45-0.683,5.851-2.05c1.399-1.366,2.1-3.517,2.1-6.45V2.3h-7.95
		c-0.267,0-0.475-0.092-0.625-0.275C34,1.842,33.925,1.617,33.925,1.35c0-0.2,0.066-0.392,0.2-0.575
		c0.133-0.183,0.35-0.274,0.649-0.274H43.625z"/>
	<path fill="#FFFFFF" d="M62.023,37.35c-1.367,0-2.649-0.184-3.85-0.55s-2.233-0.958-3.1-1.775
		c-0.867-0.816-1.551-1.883-2.051-3.199s-0.75-2.908-0.75-4.775V10.8c0-1.866,0.25-3.458,0.75-4.775
		c0.5-1.316,1.184-2.383,2.051-3.199c0.866-0.816,1.899-1.408,3.1-1.775c1.2-0.366,2.482-0.55,3.85-0.55s2.65,0.184,3.851,0.55
		c1.2,0.367,2.241,0.959,3.125,1.775c0.883,0.816,1.575,1.883,2.075,3.199c0.5,1.317,0.75,2.909,0.75,4.775v16.25
		c0,1.867-0.25,3.459-0.75,4.775s-1.192,2.383-2.075,3.199c-0.884,0.817-1.925,1.409-3.125,1.775S63.391,37.35,62.023,37.35z
		 M70.023,10.8c0-2.933-0.708-5.083-2.125-6.45c-1.417-1.366-3.375-2.05-5.875-2.05s-4.449,0.684-5.85,2.05
		c-1.4,1.367-2.1,3.518-2.1,6.45v16.25c0,2.934,0.699,5.084,2.1,6.45c1.4,1.367,3.35,2.05,5.85,2.05s4.458-0.683,5.875-2.05
		c1.417-1.366,2.125-3.517,2.125-6.45V10.8z"/>
	<path fill="#FFFFFF" d="M87.124,35.55c2.732,0,4.808-0.683,6.225-2.05c1.417-1.366,2.125-3.383,2.125-6.05
		c0-2.133-0.417-3.775-1.25-4.926c-0.833-1.149-1.875-2.058-3.125-2.725c-1.25-0.666-2.6-1.208-4.05-1.625
		c-1.45-0.416-2.8-0.95-4.05-1.6c-1.25-0.65-2.292-1.533-3.125-2.65c-0.834-1.116-1.25-2.708-1.25-4.775
		c0-1.8,0.316-3.266,0.95-4.399c0.633-1.133,1.441-2.017,2.425-2.65c0.982-0.633,2.05-1.058,3.2-1.274
		C86.349,0.608,87.44,0.5,88.474,0.5s2.025,0.083,2.976,0.25s1.791,0.375,2.524,0.625s1.316,0.524,1.75,0.825
		c0.434,0.3,0.65,0.6,0.65,0.899c0,0.2-0.092,0.434-0.275,0.7c-0.184,0.268-0.392,0.4-0.625,0.4c-0.167,0-0.417-0.101-0.75-0.301
		C94.391,3.7,93.94,3.483,93.374,3.25c-0.567-0.233-1.25-0.45-2.05-0.65s-1.768-0.3-2.9-0.3c-0.934,0-1.875,0.1-2.825,0.3
		s-1.809,0.55-2.575,1.05S81.632,4.833,81.148,5.7S80.424,7.667,80.424,9s0.241,2.425,0.725,3.274
		c0.483,0.851,1.117,1.551,1.9,2.101s1.683,1.009,2.7,1.375c1.017,0.367,2.05,0.733,3.1,1.1c1.051,0.367,2.083,0.784,3.101,1.25
		c1.017,0.468,1.916,1.084,2.7,1.851c0.782,0.767,1.416,1.742,1.899,2.925c0.483,1.184,0.726,2.658,0.726,4.425
		c0,1.768-0.25,3.283-0.75,4.55c-0.5,1.268-1.184,2.309-2.051,3.125c-0.867,0.817-1.908,1.417-3.125,1.8s-2.542,0.575-3.975,0.575
		c-1.601,0-3-0.2-4.2-0.6c-1.2-0.4-2.209-0.875-3.025-1.425c-0.816-0.551-1.425-1.108-1.824-1.676
		c-0.4-0.566-0.601-1.016-0.601-1.35c0-0.267,0.101-0.508,0.3-0.725c0.2-0.217,0.383-0.325,0.551-0.325
		c0.232,0,0.491,0.225,0.774,0.675s0.726,0.942,1.325,1.475c0.6,0.534,1.4,1.025,2.4,1.476S85.424,35.55,87.124,35.55z"/>
	<path fill="#FFFFFF" d="M105.624,17.85h8c0.267,0,0.475,0.093,0.625,0.275c0.149,0.184,0.225,0.408,0.225,0.675
		c0,0.2-0.067,0.393-0.2,0.575c-0.133,0.184-0.35,0.274-0.649,0.274h-8V35.25h16.899c0.267,0,0.476,0.092,0.625,0.274
		c0.15,0.184,0.226,0.409,0.226,0.676c0,0.199-0.067,0.392-0.2,0.574c-0.134,0.184-0.35,0.275-0.65,0.275h-17.8
		c-0.233,0-0.442-0.075-0.625-0.225c-0.184-0.15-0.274-0.375-0.274-0.676V1.399c0-0.3,0.091-0.524,0.274-0.675
		c0.183-0.149,0.392-0.225,0.625-0.225h17.8c0.301,0,0.517,0.092,0.65,0.274c0.133,0.184,0.2,0.375,0.2,0.575
		c0,0.268-0.075,0.492-0.226,0.675c-0.149,0.184-0.358,0.275-0.625,0.275h-16.899V17.85z"/>
	<path fill="#FFFFFF" d="M128.724,1.35c0-0.5,0.3-0.782,0.899-0.85h8.851c1.366,0,2.649,0.184,3.85,0.55
		c1.2,0.367,2.241,0.959,3.125,1.775c0.883,0.816,1.575,1.883,2.075,3.199c0.5,1.317,0.75,2.909,0.75,4.775v0.6
		c0,1.867-0.25,3.459-0.75,4.775c-0.5,1.317-1.192,2.393-2.075,3.225c-0.884,0.834-1.925,1.434-3.125,1.801s-2.483,0.55-3.85,0.55
		h-7.95v14.399c0,0.301-0.093,0.525-0.275,0.676c-0.184,0.149-0.392,0.225-0.625,0.225s-0.442-0.075-0.625-0.225
		c-0.184-0.15-0.274-0.375-0.274-0.676V1.35z M130.523,2.3v17.65h7.95c2.5,0,4.457-0.691,5.875-2.075
		c1.416-1.383,2.125-3.542,2.125-6.476v-0.6c0-2.933-0.709-5.083-2.125-6.45c-1.418-1.366-3.375-2.05-5.875-2.05H130.523z"/>
	<path fill="#FFFFFF" d="M172.122,19h-15.95v17.149c0,0.301-0.093,0.525-0.275,0.676c-0.184,0.149-0.392,0.225-0.625,0.225
		s-0.442-0.075-0.625-0.225c-0.184-0.15-0.274-0.375-0.274-0.676V1.35c0-0.3,0.091-0.517,0.274-0.649
		c0.183-0.133,0.392-0.2,0.625-0.2s0.441,0.067,0.625,0.2c0.183,0.133,0.275,0.35,0.275,0.649V17.2h15.95V1.35
		c0-0.3,0.091-0.517,0.274-0.649c0.183-0.133,0.392-0.2,0.625-0.2s0.441,0.067,0.625,0.2c0.183,0.133,0.275,0.35,0.275,0.649v34.8
		c0,0.301-0.093,0.525-0.275,0.676c-0.184,0.149-0.392,0.225-0.625,0.225s-0.442-0.075-0.625-0.225
		c-0.184-0.15-0.274-0.375-0.274-0.676V19z"/>
</g>
<g>
	<path fill="#FFFFFF" d="M18.25,73.5H2.3v17.149c0,0.301-0.093,0.525-0.275,0.676c-0.184,0.149-0.392,0.225-0.625,0.225
		s-0.442-0.075-0.625-0.225C0.591,91.175,0.5,90.95,0.5,90.649v-34.8c0-0.3,0.091-0.517,0.274-0.649C0.957,55.067,1.166,55,1.399,55
		s0.441,0.067,0.625,0.2C2.207,55.333,2.3,55.55,2.3,55.85V71.7h15.95V55.85c0-0.3,0.091-0.517,0.274-0.649
		c0.183-0.133,0.392-0.2,0.625-0.2s0.441,0.067,0.625,0.2c0.183,0.133,0.275,0.35,0.275,0.649v34.8c0,0.301-0.093,0.525-0.275,0.676
		c-0.184,0.149-0.392,0.225-0.625,0.225s-0.442-0.075-0.625-0.225c-0.184-0.15-0.274-0.375-0.274-0.676V73.5z"/>
	<path fill="#FFFFFF" d="M30.149,72.35h8c0.267,0,0.475,0.093,0.625,0.275c0.149,0.184,0.225,0.408,0.225,0.675
		c0,0.2-0.067,0.393-0.2,0.575c-0.133,0.184-0.35,0.274-0.649,0.274h-8V89.75h16.899c0.267,0,0.476,0.092,0.625,0.274
		c0.15,0.184,0.226,0.409,0.226,0.676c0,0.199-0.067,0.392-0.2,0.574c-0.134,0.184-0.35,0.275-0.65,0.275h-17.8
		c-0.233,0-0.442-0.075-0.625-0.225c-0.184-0.15-0.274-0.375-0.274-0.676v-34.75c0-0.3,0.091-0.524,0.274-0.675
		C28.807,55.075,29.016,55,29.249,55h17.8c0.301,0,0.517,0.092,0.65,0.274c0.133,0.184,0.2,0.375,0.2,0.575
		c0,0.268-0.075,0.492-0.226,0.675c-0.149,0.184-0.358,0.275-0.625,0.275H30.149V72.35z"/>
	<path fill="#FFFFFF" d="M53.249,55.85c0-0.5,0.3-0.782,0.899-0.85h8.351c1.366,0,2.675,0.158,3.925,0.475
		c1.25,0.317,2.35,0.843,3.3,1.575c0.95,0.733,1.7,1.717,2.25,2.95s0.825,2.75,0.825,4.55c0,1.6-0.218,2.967-0.65,4.1
		c-0.434,1.134-1.033,2.075-1.8,2.825c-0.768,0.75-1.658,1.334-2.675,1.75c-1.018,0.417-2.108,0.692-3.275,0.825l8.25,16.05
		c0.101,0.2,0.15,0.384,0.15,0.55c0,0.268-0.084,0.484-0.25,0.65c-0.167,0.167-0.384,0.25-0.65,0.25
		c-0.367,0-0.658-0.208-0.875-0.625c-0.217-0.416-0.408-0.808-0.575-1.175l-8-15.601h-7.399v16.5c0,0.301-0.093,0.525-0.275,0.676
		c-0.184,0.149-0.392,0.225-0.625,0.225s-0.442-0.075-0.625-0.225c-0.184-0.15-0.274-0.375-0.274-0.676V55.85z M55.049,56.8v15.55
		h7.45c1.232,0,2.375-0.149,3.425-0.45c1.05-0.3,1.95-0.758,2.7-1.375c0.75-0.616,1.332-1.416,1.75-2.399
		c0.416-0.983,0.625-2.175,0.625-3.575S70.79,61.967,70.374,61c-0.418-0.967-1-1.767-1.75-2.4c-0.75-0.633-1.65-1.091-2.7-1.375
		c-1.05-0.282-2.192-0.425-3.425-0.425H55.049z"/>
	<path fill="#FFFFFF" d="M85.298,72.3l-4.8,6v12.35c0,0.301-0.093,0.525-0.275,0.676c-0.184,0.149-0.392,0.225-0.625,0.225
		s-0.442-0.075-0.625-0.225c-0.184-0.15-0.274-0.375-0.274-0.676v-34.8c0-0.3,0.091-0.517,0.274-0.649
		c0.183-0.133,0.392-0.2,0.625-0.2s0.441,0.067,0.625,0.2c0.183,0.133,0.275,0.35,0.275,0.649V75.45L96.647,55.3
		c0.133-0.2,0.367-0.3,0.7-0.3c0.233,0,0.441,0.092,0.625,0.274c0.183,0.184,0.275,0.409,0.275,0.676c0,0.199-0.067,0.367-0.2,0.5
		L86.498,70.8l12.899,19.4c0.101,0.167,0.15,0.316,0.15,0.449c0,0.268-0.092,0.484-0.275,0.65c-0.184,0.167-0.408,0.25-0.675,0.25
		c-0.3,0-0.55-0.15-0.75-0.45L85.298,72.3z"/>
	<path fill="#FFFFFF" d="M121.848,87.1V55.85c0-0.3,0.091-0.517,0.274-0.649c0.183-0.133,0.392-0.2,0.625-0.2s0.441,0.067,0.625,0.2
		c0.183,0.133,0.275,0.35,0.275,0.649v34.8c0,0.301-0.093,0.525-0.275,0.676c-0.184,0.149-0.392,0.225-0.625,0.225
		c-0.333,0-0.617-0.208-0.85-0.625c-0.233-0.416-0.434-0.808-0.601-1.175l-15.399-30.351v31.25c0,0.301-0.093,0.525-0.275,0.676
		c-0.184,0.149-0.392,0.225-0.625,0.225s-0.442-0.075-0.625-0.225c-0.184-0.15-0.274-0.375-0.274-0.676v-34.8
		c0-0.333,0.082-0.558,0.25-0.675c0.166-0.116,0.383-0.175,0.649-0.175c0.167,0,0.325,0.075,0.476,0.225
		c0.149,0.15,0.3,0.325,0.449,0.525c0.15,0.2,0.275,0.399,0.375,0.6c0.101,0.2,0.184,0.351,0.25,0.45L121.848,87.1z"/>
	<path fill="#FFFFFF" d="M133.747,72.35h8c0.267,0,0.475,0.093,0.625,0.275c0.149,0.184,0.225,0.408,0.225,0.675
		c0,0.2-0.067,0.393-0.2,0.575c-0.133,0.184-0.35,0.274-0.649,0.274h-8V89.75h16.899c0.267,0,0.476,0.092,0.625,0.274
		c0.15,0.184,0.226,0.409,0.226,0.676c0,0.199-0.067,0.392-0.2,0.574c-0.134,0.184-0.35,0.275-0.65,0.275h-17.8
		c-0.233,0-0.442-0.075-0.625-0.225c-0.184-0.15-0.274-0.375-0.274-0.676v-34.75c0-0.3,0.091-0.524,0.274-0.675
		c0.183-0.149,0.392-0.225,0.625-0.225h17.8c0.301,0,0.517,0.092,0.65,0.274c0.133,0.184,0.2,0.375,0.2,0.575
		c0,0.268-0.075,0.492-0.226,0.675c-0.149,0.184-0.358,0.275-0.625,0.275h-16.899V72.35z"/>
	<path fill="#FFFFFF" d="M164.196,90.05c2.732,0,4.808-0.683,6.225-2.05c1.417-1.366,2.125-3.383,2.125-6.05
		c0-2.133-0.417-3.775-1.25-4.926c-0.833-1.149-1.875-2.058-3.125-2.725c-1.25-0.666-2.6-1.208-4.05-1.625
		c-1.45-0.416-2.8-0.95-4.05-1.6c-1.25-0.65-2.292-1.533-3.125-2.65c-0.834-1.116-1.25-2.708-1.25-4.775
		c0-1.8,0.316-3.266,0.95-4.399c0.633-1.133,1.441-2.017,2.425-2.65c0.982-0.633,2.05-1.058,3.2-1.274
		c1.149-0.217,2.241-0.325,3.274-0.325s2.025,0.083,2.976,0.25s1.791,0.375,2.524,0.625s1.316,0.524,1.75,0.825
		c0.434,0.3,0.65,0.6,0.65,0.899c0,0.2-0.092,0.434-0.275,0.7c-0.184,0.268-0.392,0.4-0.625,0.4c-0.167,0-0.417-0.101-0.75-0.301
		c-0.333-0.199-0.783-0.416-1.35-0.649c-0.567-0.233-1.25-0.45-2.05-0.65s-1.768-0.3-2.9-0.3c-0.934,0-1.875,0.1-2.825,0.3
		c-0.949,0.2-1.809,0.55-2.574,1.05c-0.768,0.5-1.393,1.184-1.875,2.051c-0.484,0.867-0.726,1.967-0.726,3.3
		s0.241,2.425,0.726,3.274c0.482,0.851,1.116,1.551,1.899,2.101s1.683,1.009,2.7,1.375c1.017,0.367,2.05,0.733,3.1,1.1
		c1.051,0.367,2.083,0.784,3.101,1.25c1.017,0.468,1.916,1.084,2.7,1.851c0.782,0.767,1.416,1.742,1.899,2.925
		c0.483,1.184,0.726,2.658,0.726,4.425c0,1.768-0.25,3.283-0.75,4.55c-0.5,1.268-1.184,2.309-2.051,3.125
		c-0.867,0.817-1.908,1.417-3.125,1.8s-2.542,0.575-3.975,0.575c-1.6,0-3-0.2-4.2-0.6c-1.2-0.4-2.208-0.875-3.024-1.425
		c-0.817-0.551-1.426-1.108-1.825-1.676c-0.4-0.566-0.601-1.016-0.601-1.35c0-0.267,0.101-0.508,0.301-0.725
		c0.199-0.217,0.383-0.325,0.55-0.325c0.232,0,0.491,0.225,0.774,0.675s0.726,0.942,1.325,1.475c0.601,0.534,1.4,1.025,2.4,1.476
		S162.496,90.05,164.196,90.05z"/>
	<path fill="#FFFFFF" d="M188.246,90.05c2.732,0,4.808-0.683,6.225-2.05c1.417-1.366,2.125-3.383,2.125-6.05
		c0-2.133-0.417-3.775-1.25-4.926c-0.833-1.149-1.875-2.058-3.125-2.725c-1.25-0.666-2.6-1.208-4.05-1.625
		c-1.45-0.416-2.8-0.95-4.05-1.6c-1.25-0.65-2.292-1.533-3.125-2.65c-0.834-1.116-1.25-2.708-1.25-4.775
		c0-1.8,0.316-3.266,0.95-4.399c0.633-1.133,1.441-2.017,2.425-2.65c0.982-0.633,2.05-1.058,3.2-1.274
		c1.149-0.217,2.241-0.325,3.274-0.325s2.025,0.083,2.976,0.25s1.791,0.375,2.524,0.625s1.316,0.524,1.75,0.825
		c0.434,0.3,0.65,0.6,0.65,0.899c0,0.2-0.092,0.434-0.275,0.7c-0.184,0.268-0.392,0.4-0.625,0.4c-0.167,0-0.417-0.101-0.75-0.301
		c-0.333-0.199-0.783-0.416-1.35-0.649c-0.567-0.233-1.25-0.45-2.05-0.65s-1.768-0.3-2.9-0.3c-0.934,0-1.875,0.1-2.825,0.3
		c-0.949,0.2-1.809,0.55-2.574,1.05c-0.768,0.5-1.393,1.184-1.875,2.051c-0.484,0.867-0.726,1.967-0.726,3.3
		s0.241,2.425,0.726,3.274c0.482,0.851,1.116,1.551,1.899,2.101s1.683,1.009,2.7,1.375c1.017,0.367,2.05,0.733,3.1,1.1
		c1.051,0.367,2.083,0.784,3.101,1.25c1.017,0.468,1.916,1.084,2.7,1.851c0.782,0.767,1.416,1.742,1.899,2.925
		c0.483,1.184,0.726,2.658,0.726,4.425c0,1.768-0.25,3.283-0.75,4.55c-0.5,1.268-1.184,2.309-2.051,3.125
		c-0.867,0.817-1.908,1.417-3.125,1.8s-2.542,0.575-3.975,0.575c-1.6,0-3-0.2-4.2-0.6c-1.2-0.4-2.208-0.875-3.024-1.425
		c-0.817-0.551-1.426-1.108-1.825-1.676c-0.4-0.566-0.601-1.016-0.601-1.35c0-0.267,0.101-0.508,0.301-0.725
		c0.199-0.217,0.383-0.325,0.55-0.325c0.232,0,0.491,0.225,0.774,0.675s0.726,0.942,1.325,1.475c0.601,0.534,1.4,1.025,2.4,1.476
		S186.546,90.05,188.246,90.05z"/>
</g>
<g>
	<g>
		<polygon fill="#FFFFFF" points="103.219,46.175 99.448,44.289 95.677,46.175 99.448,48.061 		"/>
		<g>
			<path fill="#FFFFFF" d="M103.661,45.419c-0.673-0.336-1.347-0.673-2.02-1.01c-0.587-0.294-1.498-0.995-2.192-0.995
				c-0.615,0-1.406,0.602-1.926,0.861c-0.762,0.382-1.524,0.763-2.287,1.144c-0.571,0.286-0.571,1.226,0,1.512
				c0.673,0.336,1.347,0.673,2.02,1.01c0.587,0.294,1.498,0.995,2.192,0.995c0.615,0,1.406-0.602,1.926-0.861
				c0.762-0.382,1.524-0.763,2.287-1.144c1.01-0.505,0.123-2.015-0.883-1.512c-1.257,0.629-2.514,1.258-3.771,1.886
				c0.294,0,0.589,0,0.883,0c-1.257-0.628-2.514-1.257-3.771-1.886c0,0.504,0,1.008,0,1.512c1.257-0.629,2.514-1.258,3.771-1.886
				c-0.294,0-0.589,0-0.883,0c1.257,0.628,2.514,1.257,3.771,1.886C103.784,47.434,104.67,45.924,103.661,45.419z"/>
		</g>
	</g>
	<g>
		<line fill="#FFFFFF" x1="12.715" y1="46.175" x2="89.123" y2="46.175"/>
		<g>
			<path fill="#FFFFFF" d="M12.715,47.05c25.469,0,50.938,0,76.408,0c1.128,0,1.128-1.75,0-1.75c-25.469,0-50.938,0-76.408,0
				C11.587,45.3,11.587,47.05,12.715,47.05L12.715,47.05z"/>
		</g>
	</g>
	<g>
		<line fill="#FFFFFF" x1="109.773" y1="46.176" x2="186.181" y2="46.176"/>
		<g>
			<path fill="#FFFFFF" d="M109.773,47.051c25.469,0,50.938,0,76.408,0c1.129,0,1.129-1.75,0-1.75c-25.47,0-50.938,0-76.408,0
				C108.645,45.301,108.645,47.051,109.773,47.051L109.773,47.051z"/>
		</g>
	</g>
</g>
<g>
	
		<rect x="96.782" y="43.509" transform="matrix(0.7071 -0.7072 0.7072 0.7071 -3.5207 83.8516)" fill="#FFFFFF" width="5.333" height="5.333"/>
	<g>
		<path fill="#FFFFFF" d="M102.601,45.556c-1.257,1.258-2.514,2.515-3.771,3.771c0.413,0,0.825,0,1.237,0
			c-1.257-1.257-2.514-2.514-3.771-3.771c0,0.413,0,0.825,0,1.238c1.257-1.257,2.514-2.514,3.771-3.771c-0.413,0-0.825,0-1.237,0
			c1.257,1.256,2.514,2.513,3.771,3.77c0.799,0.798,2.036-0.439,1.237-1.238c-1.257-1.256-2.514-2.513-3.771-3.77
			c-0.337-0.337-0.9-0.337-1.237,0c-1.257,1.257-2.514,2.514-3.771,3.771c-0.337,0.338-0.337,0.9,0,1.238
			c1.257,1.257,2.514,2.514,3.771,3.771c0.337,0.337,0.9,0.337,1.237,0c1.257-1.258,2.514-2.515,3.771-3.771
			C104.637,45.995,103.399,44.758,102.601,45.556z"/>
	</g>
</g>
</svg>
