<?xml version="1.0" encoding="utf-8"?>
<!-- Generator: Adobe Illustrator 16.0.0, SVG Export Plug-In . SVG Version: 6.00 Build 0)  -->
<!DOCTYPE svg PUBLIC "-//W3C//DTD SVG 1.1//EN" "http://www.w3.org/Graphics/SVG/1.1/DTD/svg11.dtd">
<svg version="1.1" id="Layer_1" xmlns="http://www.w3.org/2000/svg" xmlns:xlink="http://www.w3.org/1999/xlink" x="0px" y="0px"
	 width="434.665px" height="51.612px" viewBox="0 0 434.665 51.612" enable-background="new 0 0 434.665 51.612"
	 xml:space="preserve">
<path fill="#FFFFFF" d="M97.708,48.055c-12.401,0-22.431-10.03-22.431-22.432c0-12.462,10.03-22.492,22.431-22.492
	c12.34,0,22.493,10.03,22.493,22.492C120.201,38.025,110.049,48.055,97.708,48.055z M84.457,25.624
	c0,7.234,6.018,13.252,13.252,13.252s13.13-6.018,13.13-13.252c0-7.234-5.896-13.313-13.13-13.313S84.457,18.39,84.457,25.624z"/>
<path fill="#FFFFFF" d="M246.943,30.183v9.239h24.499v8.024h-33.739V3.922h31.672v8.024h-22.432v9.788h19.817v8.45H246.943z"/>
<path fill="#FFFFFF" d="M315.026,4.104h19.575c10.881,0,15.015,6.869,15.015,13.92c0,7.052-4.134,13.921-15.015,13.921H324.57
	v15.562h-9.544V4.104z M324.57,24.529h7.416c4.378,0,8.39-0.973,8.39-6.505c0-5.531-4.012-6.504-8.39-6.504h-7.416V24.529z"/>
<path fill="#FFFFFF" d="M420.981,28.906H400.86v18.48h-9.301V3.861h9.301v15.745h20.121V3.982h9.361v43.404h-9.361V28.906z"/>
<path fill="#FFFFFF" d="M23.607,4.104v29.301c0,3.1,0,7.111-5.045,7.111c-3.634,0-4.902-1.468-5.243-3.768H4.408
	c0.055,1.312,0.72,4.216,2.117,6.078c2.675,3.951,7.295,5.714,12.158,5.714c12.948,0,14.468-9.118,14.468-14.711V4.104H23.607z"/>
<path fill="#FFFFFF" d="M183.421,21.976c-10.881-2.614-12.948-3.343-12.948-6.565c0-3.647,3.526-4.924,6.565-4.924
	c2.979,0,7.417,0.183,8.571,5.228h9.17c-0.718-9.036-8.676-12.644-17.315-12.644c-7.842,0-16.231,4.194-16.231,13.13
	c0,16.231,25.836,10.273,25.836,19.513c0,4.438-5.106,5.41-8.45,5.41c-3.526,0-8.632-0.79-9.604-6.504h-9.173
	c0.795,9.626,9.162,13.92,18.413,13.92c11.854,0,18.054-5.957,18.054-13.92C196.308,24.772,186.643,22.767,183.421,21.976z"/>
</svg>
