<?xml version="1.0" encoding="utf-8"?>
<!-- Generator: Adobe Illustrator 16.0.0, SVG Export Plug-In . SVG Version: 6.00 Build 0)  -->
<!DOCTYPE svg PUBLIC "-//W3C//DTD SVG 1.1//EN" "http://www.w3.org/Graphics/SVG/1.1/DTD/svg11.dtd">
<svg version="1.1" id="title_1_" xmlns="http://www.w3.org/2000/svg" xmlns:xlink="http://www.w3.org/1999/xlink" x="0px" y="0px"
	 width="839.998px" height="370.947px" viewBox="0 0 839.998 370.947" enable-background="new 0 0 839.998 370.947"
	 xml:space="preserve">
<g id="text">
	<g>
		<path fill="#3B97D3" d="M72.268,36.34c0-3.525,0.036-6.476,0.115-8.855c0.076-2.375,0.306-4.37,0.687-5.98s0.877-3.065,1.488-4.37
			c0.611-1.301,1.448-2.645,2.52-4.025c2.134-3.22,5.11-5.786,8.927-7.705c3.816-1.916,7.708-2.875,11.68-2.875
			c4.273,0,8.316,0.999,12.132,2.99c3.817,1.994,6.792,4.754,8.931,8.28c0.913,1.38,1.639,2.685,2.174,3.91
			c0.532,1.229,0.952,2.645,1.258,4.255c0.305,1.61,0.496,3.529,0.575,5.75c0.076,2.225,0.115,5.1,0.115,8.625v53.13
			c0,5.829-0.155,10.85-0.46,15.065c-0.309,4.219-0.884,8.014-1.725,11.385c-0.845,3.375-1.919,6.519-3.22,9.43
			c-1.304,2.915-2.954,5.829-4.945,8.74c-5.674,8.435-12.919,15.029-21.735,19.78c-8.819,4.751-18.285,7.13-28.405,7.13
			c-8.589,0-16.714-1.689-24.38-5.06c-7.669-3.371-14.415-8.201-20.24-14.49c-5.369-5.825-9.354-12.226-11.96-19.205
			c-2.609-6.975-3.91-15.065-3.91-24.265c0-6.9,0.575-12.42,1.725-16.56c1.15-4.14,3.105-7.741,5.865-10.81
			c4.445-5.366,10.35-8.05,17.71-8.05c7.82,0,14.145,2.53,18.975,7.59s7.09,11.73,6.785,20.01v8.51
			c-0.155,3.529,0.661,6.289,2.447,8.28c1.782,1.995,4.151,2.99,7.101,2.99c4.345,0,7.371-1.991,9.082-5.98
			c0.305-0.92,0.496-2.031,0.575-3.335c0.076-1.301,0.115-3.946,0.115-7.935V36.34z"/>
		<path fill="#3B97D3" d="M140.806,79.58c0-11.04,2.106-21.39,6.325-31.05c4.215-9.66,9.965-18.091,17.25-25.3
			c7.281-7.206,15.83-12.88,25.645-17.02C199.837,2.07,210.341,0,221.536,0c11.19,0,21.695,2.109,31.51,6.325
			c9.811,4.219,18.4,9.93,25.76,17.135c7.36,7.209,13.146,15.719,17.365,25.53c4.216,9.814,6.325,20.24,6.325,31.28
			s-2.109,21.469-6.325,31.28c-4.219,9.814-10.005,18.4-17.365,25.76c-7.359,7.36-15.949,13.149-25.76,17.365
			c-9.814,4.215-20.24,6.325-31.28,6.325c-11.349,0-21.929-2.11-31.74-6.325c-9.814-4.215-18.363-10.005-25.645-17.365
			c-7.285-7.36-13.035-15.985-17.25-25.875C142.912,101.545,140.806,90.929,140.806,79.58z M191.406,80.151
			c0,4.158,0.805,8.122,2.422,11.892c1.617,3.773,3.77,7.044,6.465,9.814c2.695,2.771,5.887,4.963,9.581,6.58
			s7.619,2.422,11.776,2.422c4.155,0,8.079-0.805,11.773-2.422s6.886-3.809,9.581-6.58c2.695-2.771,4.848-6.005,6.465-9.699
			c1.617-3.695,2.426-7.619,2.426-11.773s-0.809-8.043-2.426-11.662c-1.617-3.615-3.77-6.771-6.465-9.466
			c-2.695-2.692-5.887-4.809-9.581-6.347S225.806,50.6,221.65,50.6c-4.157,0-8.082,0.773-11.776,2.311s-6.886,3.655-9.581,6.347
			c-2.695,2.695-4.848,5.811-6.465,9.351C192.211,72.151,191.406,75.997,191.406,80.151z"/>
		<path fill="#3B97D3" d="M375.405,161c-8.129,0-15.72-0.999-22.771-2.99c-7.055-1.991-13.188-4.751-18.399-8.28
			c-5.215-3.525-9.279-7.626-12.19-12.305c-2.914-4.675-4.37-9.775-4.37-15.295c0-3.22,0.575-6.21,1.726-8.97
			c1.149-2.76,2.76-5.175,4.829-7.245c2.07-2.07,4.521-3.716,7.36-4.945c2.836-1.226,5.865-1.84,9.085-1.84
			c3.065,0,6.016,0.575,8.855,1.725c2.835,1.15,5.864,3.029,9.085,5.635c2.76,2.149,4.98,3.834,6.67,5.06
			c1.686,1.229,3.065,2.185,4.14,2.875c1.071,0.69,1.991,1.114,2.76,1.265c0.766,0.154,1.61,0.23,2.53,0.23
			c1.991,0,3.565-0.611,4.715-1.84c1.15-1.226,1.726-2.836,1.726-4.83c0-2.605-1.305-4.751-3.91-6.44
			c-0.31-0.151-0.654-0.345-1.035-0.575c-0.385-0.23-0.92-0.496-1.61-0.805c-0.689-0.305-1.609-0.69-2.76-1.15
			c-1.149-0.46-2.724-1.071-4.715-1.84c-2.149-0.766-4.219-1.495-6.21-2.185c-1.994-0.69-4.064-1.416-6.21-2.185
			c-22.234-7.82-33.351-22.385-33.351-43.7c0-7.511,1.381-14.335,4.141-20.47c2.76-6.131,6.591-11.421,11.5-15.87
			c4.905-4.445,10.846-7.896,17.825-10.35C361.796,1.229,369.425,0,377.705,0c6.899,0,13.34,0.884,19.32,2.645
			c5.979,1.764,11.19,4.14,15.64,7.13c4.445,2.99,7.935,6.519,10.465,10.58c2.53,4.064,3.795,8.474,3.795,13.225
			c0,6.134-1.84,11.155-5.52,15.065c-3.681,3.91-8.435,5.865-14.261,5.865c-3.528,0-6.824-0.65-9.89-1.955
			c-3.069-1.301-6.749-3.565-11.04-6.785c-2.609-2.146-4.679-3.601-6.21-4.37c-1.534-0.766-2.99-1.15-4.37-1.15
			c-1.688,0-3.104,0.575-4.255,1.725c-1.15,1.15-1.725,2.57-1.725,4.255c0,2.3,1.035,4.14,3.104,5.52
			c2.07,1.38,6.095,3.069,12.075,5.06c6.591,1.994,12.801,4.409,18.63,7.245c5.825,2.839,10.501,5.79,14.03,8.855
			c4.751,3.989,8.51,9.164,11.27,15.525c2.761,6.364,4.141,13.225,4.141,20.585c0,6.9-1.266,13.534-3.795,19.895
			c-2.53,6.364-6.096,11.924-10.695,16.675c-5.215,5.214-11.31,9.085-18.285,11.615C393.151,159.735,384.91,161,375.405,161z"/>
		<path fill="#3B97D3" d="M525.594,109.71c5.52,0,9.775,0.424,12.765,1.265c2.99,0.845,5.786,2.34,8.396,4.485
			c5.52,4.754,8.28,10.734,8.28,17.94c0,3.529-0.73,6.939-2.186,10.235c-1.459,3.299-3.489,6.02-6.095,8.165
			c-1.229,1.075-2.494,1.955-3.795,2.645c-1.305,0.69-2.725,1.229-4.255,1.61c-1.535,0.385-3.335,0.654-5.405,0.805
			c-2.07,0.154-4.564,0.23-7.476,0.23h-39.329c-5.829,0-9.97-0.151-12.421-0.46c-2.454-0.306-4.754-0.841-6.899-1.61
			c-8.129-3.371-12.959-9.506-14.49-18.4c-0.154-0.765-0.309-1.495-0.46-2.185c-0.154-0.69-0.27-1.571-0.345-2.645
			c-0.079-1.071-0.115-2.375-0.115-3.91c0-1.686,0-3.831,0-6.44V38.18c0-3.22,0.036-5.825,0.115-7.82
			c0.075-1.991,0.19-3.641,0.345-4.945c0.151-1.301,0.381-2.415,0.69-3.335c0.305-0.92,0.689-1.991,1.149-3.22
			c1.071-2.911,2.721-5.441,4.945-7.59c2.221-2.146,4.636-3.831,7.245-5.06c1.38-0.611,2.605-1.071,3.68-1.38
			c1.071-0.306,2.336-0.536,3.795-0.69c1.456-0.151,3.296-0.266,5.521-0.345c2.221-0.076,5.175-0.115,8.854-0.115h30.36
			c3.68,0,6.591,0,8.74,0c2.146,0,3.83,0.079,5.06,0.23c1.226,0.155,2.221,0.309,2.99,0.46c0.766,0.155,1.609,0.309,2.53,0.46
			c5.365,1.38,9.62,4.064,12.765,8.05c3.141,3.989,4.715,8.665,4.715,14.03c0,3.68-0.729,7.17-2.185,10.465
			c-1.459,3.299-3.49,6.02-6.096,8.165c-2.3,1.994-4.909,3.414-7.819,4.255c-2.915,0.844-6.749,1.265-11.5,1.265h-25.301v10.58
			h20.011c6.285,0,11.27,1.689,14.949,5.06c3.681,3.375,5.521,7.745,5.521,13.11c0,5.98-2.225,10.81-6.67,14.49
			c-1.995,1.535-4.104,2.569-6.325,3.105c-2.225,0.539-5.329,0.805-9.314,0.805h-18.171v11.5H525.594z"/>
		<path fill="#3B97D3" d="M623.34,129.03c0,8.74-2.292,15.794-6.871,21.16c-4.578,5.369-10.684,8.05-18.313,8.05
			c-4.276,0-8.283-1.035-12.021-3.105c-3.74-2.07-6.756-4.866-9.045-8.395c-0.917-1.531-1.679-2.95-2.289-4.255
			c-0.611-1.301-1.067-2.76-1.373-4.37s-0.496-3.64-0.571-6.095c-0.079-2.451-0.115-5.596-0.115-9.43v-89.7
			c0-5.52,0.496-9.811,1.495-12.88c0.995-3.065,2.796-5.98,5.405-8.74c2.605-2.605,5.52-4.521,8.739-5.75
			c3.221-1.226,7.206-1.84,11.96-1.84h21.16c6.131,0,11.5,0.194,16.101,0.575c4.6,0.384,8.66,1.035,12.189,1.955
			c3.525,0.92,6.785,2.109,9.775,3.565c2.99,1.459,5.94,3.335,8.854,5.635c6.9,5.215,12.227,11.655,15.985,19.32
			c3.756,7.669,5.635,15.794,5.635,24.38c0,8.589-1.962,16.714-5.887,24.38c-3.924,7.669-9.423,14.185-16.498,19.55
			c-5.233,3.989-10.62,6.824-16.158,8.51c-5.541,1.689-12.078,2.53-19.618,2.53h-8.539V129.03z M623.34,67.16
			c6.218,0.309,10.605-0.151,13.172-1.38c2.565-1.226,3.849-3.601,3.849-7.13c0-2.605-1.089-4.6-3.267-5.98s-5.208-2.07-9.089-2.07
			h-4.665V67.16z"/>
		<path fill="#3B97D3" d="M758.348,125.58c0,3.22-0.079,5.865-0.229,7.935c-0.151,2.07-0.381,3.874-0.687,5.405
			c-0.306,1.535-0.726,2.915-1.258,4.14c-0.535,1.229-1.262,2.53-2.174,3.91c-2.293,3.529-5.269,6.289-8.931,8.28
			c-3.666,1.991-7.633,2.99-11.906,2.99c-4.428,0-8.474-0.999-12.136-2.99c-3.666-1.991-6.642-4.751-8.931-8.28
			c-0.917-1.38-1.643-2.72-2.175-4.025c-0.535-1.301-0.955-2.76-1.261-4.37c-0.306-1.61-0.536-3.45-0.687-5.52
			c-0.151-2.07-0.227-4.561-0.227-7.475V33.12c0-5.365,0.342-9.505,1.028-12.42c0.686-2.911,2.099-5.671,4.236-8.28
			c2.444-3.065,5.38-5.48,8.815-7.245c3.436-1.761,7.138-2.645,11.104-2.645c3.968,0,7.784,0.884,11.45,2.645
			c3.662,1.765,6.638,4.18,8.927,7.245c1.067,1.38,1.908,2.685,2.52,3.91c0.61,1.229,1.106,2.609,1.487,4.14
			c0.381,1.535,0.65,3.414,0.802,5.635c0.15,2.225,0.229,4.945,0.229,8.165v21.62h31.051V34.96c0-6.131,0.345-10.695,1.034-13.685
			c0.69-2.99,2.106-5.94,4.256-8.855c2.3-3.065,5.135-5.48,8.51-7.245c3.371-1.761,7.051-2.645,11.04-2.645
			c3.985,0,7.78,0.845,11.385,2.53c3.601,1.689,6.555,4.064,8.855,7.13c1.99,2.609,3.41,5.52,4.255,8.74
			c0.841,3.22,1.265,7.285,1.265,12.19v92.92c0,2.609-0.079,4.869-0.229,6.785c-0.155,1.919-0.385,3.644-0.69,5.175
			c-0.31,1.534-0.729,2.915-1.265,4.14c-0.539,1.229-1.189,2.53-1.955,3.91c-2.301,3.834-5.33,6.825-9.085,8.97
			c-3.76,2.146-7.86,3.22-12.306,3.22c-3.988,0-7.784-0.884-11.385-2.645c-3.604-1.761-6.555-4.255-8.854-7.475
			c-0.921-1.38-1.726-2.72-2.415-4.025c-0.69-1.301-1.189-2.796-1.495-4.485c-0.31-1.686-0.539-3.601-0.69-5.75
			c-0.154-2.146-0.229-4.751-0.229-7.82v-22.08h-31.051V125.58z"/>
	</g>
	<g>
		<path fill="#3B97D3" d="M40.95,272.479c0,2.474-0.061,4.508-0.177,6.099c-0.116,1.592-0.294,2.977-0.53,4.155
			c-0.237,1.179-0.561,2.239-0.971,3.182c-0.414,0.945-0.974,1.945-1.679,3.006c-1.77,2.713-4.067,4.834-6.894,6.365
			c-2.83,1.529-5.892,2.298-9.191,2.298c-3.418,0-6.542-0.769-9.369-2.298c-2.83-1.531-5.126-3.652-6.894-6.365
			c-0.708-1.061-1.268-2.091-1.679-3.093c-0.414-1.001-0.739-2.122-0.974-3.36c-0.236-1.238-0.413-2.652-0.529-4.244
			c-0.117-1.591-0.175-3.506-0.175-5.744v-71.074c0-4.124,0.264-7.306,0.793-9.548c0.53-2.235,1.621-4.357,3.271-6.363
			c1.886-2.356,4.153-4.213,6.806-5.569c2.652-1.354,5.51-2.034,8.572-2.034c3.063,0,6.009,0.681,8.839,2.034
			c2.827,1.356,5.124,3.213,6.892,5.569c0.824,1.062,1.473,2.063,1.945,3.006c0.471,0.944,0.854,2.005,1.148,3.183
			c0.295,1.179,0.503,2.624,0.619,4.331c0.116,1.71,0.177,3.801,0.177,6.276v16.618h23.97v-16.088c0-4.712,0.267-8.222,0.799-10.519
			c0.533-2.299,1.626-4.567,3.285-6.808c1.776-2.356,3.965-4.213,6.57-5.569c2.603-1.354,5.443-2.034,8.523-2.034
			c3.077,0,6.005,0.65,8.789,1.947c2.78,1.298,5.061,3.123,6.836,5.479c1.537,2.007,2.633,4.243,3.285,6.719
			c0.649,2.476,0.977,5.6,0.977,9.369v71.427c0,2.006-0.061,3.743-0.177,5.216c-0.119,1.475-0.297,2.8-0.533,3.979
			c-0.239,1.179-0.564,2.239-0.977,3.182c-0.416,0.945-0.918,1.945-1.509,3.006c-1.776,2.947-4.114,5.247-7.014,6.895
			c-2.901,1.65-6.067,2.476-9.498,2.476c-3.08,0-6.009-0.68-8.79-2.033c-2.783-1.354-5.06-3.271-6.835-5.747
			c-0.71-1.06-1.332-2.09-1.865-3.093c-0.532-1-0.917-2.15-1.154-3.448c-0.238-1.296-0.416-2.768-0.533-4.42
			c-0.119-1.647-0.178-3.651-0.178-6.011v-16.972H40.95V272.479z"/>
		<path fill="#3B97D3" d="M179.44,260.279c4.262,0,7.546,0.325,9.854,0.971c2.309,0.65,4.468,1.8,6.482,3.448
			c4.261,3.655,6.391,8.251,6.391,13.79c0,2.713-0.564,5.335-1.688,7.867c-1.126,2.536-2.692,4.628-4.704,6.277
			c-0.95,0.827-1.926,1.502-2.93,2.033c-1.007,0.53-2.104,0.944-3.286,1.237c-1.186,0.295-2.574,0.503-4.172,0.618
			c-1.598,0.118-3.523,0.178-5.771,0.178h-30.36c-4.501,0-7.697-0.116-9.589-0.354c-1.894-0.234-3.67-0.646-5.326-1.237
			c-6.274-2.591-10.003-7.307-11.185-14.144c-0.12-0.589-0.239-1.149-0.356-1.679c-0.119-0.531-0.208-1.208-0.266-2.033
			c-0.062-0.825-0.089-1.828-0.089-3.007c0-1.296,0-2.945,0-4.95v-64.001c0-2.475,0.027-4.478,0.089-6.011
			c0.057-1.53,0.146-2.799,0.266-3.801c0.118-1,0.294-1.856,0.533-2.563c0.236-0.707,0.532-1.53,0.887-2.476
			c0.828-2.237,2.101-4.182,3.818-5.834c1.714-1.649,3.58-2.944,5.594-3.89c1.064-0.47,2.011-0.823,2.84-1.061
			c0.827-0.235,1.804-0.412,2.93-0.53c1.124-0.117,2.543-0.204,4.261-0.266c1.714-0.059,3.995-0.088,6.836-0.088h23.437
			c2.841,0,5.089,0,6.747,0c1.657,0,2.957,0.061,3.907,0.177c0.946,0.119,1.714,0.237,2.309,0.354
			c0.591,0.118,1.242,0.237,1.952,0.354c4.143,1.061,7.427,3.124,9.855,6.188c2.424,3.066,3.64,6.66,3.64,10.785
			c0,2.828-0.564,5.511-1.688,8.044c-1.127,2.535-2.695,4.627-4.706,6.275c-1.774,1.534-3.789,2.625-6.036,3.272
			c-2.25,0.648-5.21,0.973-8.878,0.973h-19.531v8.132h15.446c4.853,0,8.7,1.299,11.541,3.89c2.842,2.594,4.263,5.952,4.263,10.077
			c0,4.597-1.718,8.309-5.149,11.137c-1.541,1.181-3.169,1.977-4.884,2.388c-1.717,0.414-4.113,0.62-7.19,0.62h-14.026v8.84H179.44z
			"/>
		<path fill="#3B97D3" d="M303.017,265.937c1.301,2.005,2.247,4.097,2.841,6.275c0.591,2.183,0.887,4.274,0.887,6.276
			c0,2.713-0.505,5.217-1.51,7.515c-1.006,2.298-2.396,4.304-4.171,6.01c-1.777,1.711-3.849,3.067-6.215,4.068
			c-2.369,0.999-4.913,1.502-7.635,1.502c-7.102,0-12.489-3.006-16.157-9.017l-16.157-26.697v16.09c0,2.828-0.505,5.421-1.509,7.777
			c-1.008,2.359-2.37,4.422-4.084,6.189c-1.717,1.769-3.729,3.154-6.037,4.155c-2.308,0.999-4.825,1.502-7.547,1.502
			c-2.96,0-5.801-0.618-8.522-1.857c-2.724-1.236-4.971-2.974-6.746-5.215c-3.08-3.89-4.617-9.429-4.617-16.618v-72.664
			c0-4.244,0.472-7.69,1.42-10.343c0.946-2.652,2.603-4.979,4.973-6.983c2.247-2.003,4.586-3.358,7.013-4.065
			c2.425-0.708,6.006-1.062,10.742-1.062h16.336c4.852,0,8.58,0.149,11.185,0.441c2.602,0.295,5.208,0.738,7.812,1.327
			c4.617,1.298,8.816,3.242,12.606,5.834c3.787,2.594,7.042,5.687,9.766,9.281c2.722,3.597,4.852,7.575,6.392,11.934
			c1.537,4.362,2.309,8.9,2.309,13.612c0,5.659-0.976,10.817-2.93,15.472c-1.954,4.657-5.18,9.519-9.677,14.585L303.017,265.937z
			 M254.899,227.571h1.598h2.664c5.917,0.237,8.877-1.826,8.877-6.188c0-4.479-3.019-6.6-9.055-6.365c-0.475,0-1.065,0-1.776,0
			c-0.593,0-1.362-0.059-2.308-0.178V227.571z"/>
		<path fill="#3B97D3" d="M383.803,186.907c4.022-6.011,9.41-9.018,16.157-9.018c2.602,0,5.119,0.531,7.546,1.593
			c2.424,1.062,4.528,2.475,6.304,4.242c1.775,1.769,3.195,3.832,4.261,6.189c1.065,2.357,1.598,4.834,1.598,7.425
			c0,3.89-1.006,7.31-3.019,10.254l-19.886,28.818l24.148,30.763c2.484,3.065,3.728,6.603,3.728,10.607
			c0,2.713-0.533,5.276-1.598,7.69c-1.065,2.418-2.485,4.509-4.262,6.276c-1.776,1.768-3.848,3.183-6.214,4.244
			c-2.369,1.061-4.855,1.591-7.458,1.591c-2.724,0-5.326-0.53-7.812-1.591c-2.485-1.062-4.438-2.477-5.858-4.244l-29.297-36.949
			v20.33c0,6.837-1.775,12.288-5.327,16.354s-8.286,6.1-14.205,6.1c-6.156,0-11.009-2.002-14.559-6.011
			c-3.552-4.006-5.327-9.428-5.327-16.266v-75.669c0-6.48,1.775-11.728,5.327-15.735c3.55-4.006,8.283-6.013,14.204-6.013
			c2.841,0,5.563,0.593,8.168,1.77c2.602,1.18,4.793,2.771,6.569,4.773c1.893,2.005,3.224,4.185,3.996,6.542
			c0.768,2.358,1.154,5.303,1.154,8.839v18.919L383.803,186.907z"/>
		<path fill="#3B97D3" d="M502.939,201.759c0-3.89,0.237-6.922,0.711-9.105c0.472-2.18,1.42-4.271,2.841-6.275
			c1.656-2.592,3.934-4.656,6.835-6.188c2.899-1.531,5.949-2.3,9.144-2.3c2.958,0,5.71,0.62,8.257,1.857
			c2.545,1.237,4.765,2.978,6.659,5.218c1.655,2.12,2.841,4.33,3.552,6.628s1.064,5.277,1.064,8.929v72.133
			c0,4.717-0.296,8.282-0.891,10.695c-0.594,2.419-1.723,4.746-3.382,6.984c-1.78,2.359-4.009,4.155-6.678,5.392
			c-2.668,1.239-5.549,1.857-8.634,1.857c-6.291,0-11.455-2.652-15.488-7.956l-30.979-39.426v24.751c0,3.89-0.324,6.926-0.974,9.105
			c-0.649,2.183-1.798,4.331-3.446,6.453c-1.887,2.241-4.124,3.979-6.716,5.215c-2.591,1.239-5.36,1.857-8.306,1.857
			c-3.066,0-5.953-0.68-8.662-2.033c-2.711-1.354-5.008-3.21-6.895-5.569c-1.65-2.237-2.74-4.478-3.27-6.719
			c-0.531-2.237-0.795-5.537-0.795-9.9v-74.608c0-6.364,1.864-11.43,5.594-15.204c3.729-3.771,8.67-5.659,14.825-5.659
			c2.841,0,5.415,0.62,7.724,1.857c2.31,1.237,4.586,3.213,6.836,5.925l31.072,38.01V201.759z"/>
		<path fill="#3B97D3" d="M617.463,260.279c4.261,0,7.546,0.325,9.854,0.971c2.309,0.65,4.467,1.8,6.482,3.448
			c4.261,3.655,6.393,8.251,6.393,13.79c0,2.713-0.564,5.335-1.688,7.867c-1.126,2.536-2.693,4.628-4.705,6.277
			c-0.95,0.827-1.927,1.502-2.93,2.033c-1.008,0.53-2.104,0.944-3.285,1.237c-1.186,0.295-2.575,0.503-4.173,0.618
			c-1.598,0.118-3.523,0.178-5.771,0.178h-30.362c-4.499,0-7.695-0.116-9.588-0.354c-1.894-0.234-3.67-0.646-5.326-1.237
			c-6.276-2.591-10.005-7.307-11.187-14.144c-0.118-0.589-0.238-1.149-0.354-1.679c-0.12-0.531-0.21-1.208-0.269-2.033
			c-0.06-0.825-0.088-1.828-0.088-3.007c0-1.296,0-2.945,0-4.95v-64.001c0-2.475,0.028-4.478,0.088-6.011
			c0.059-1.53,0.148-2.799,0.269-3.801c0.115-1,0.294-1.856,0.531-2.563c0.234-0.707,0.533-1.53,0.887-2.476
			c0.828-2.237,2.102-4.182,3.819-5.834c1.713-1.649,3.578-2.944,5.593-3.89c1.065-0.47,2.011-0.823,2.84-1.061
			c0.827-0.235,1.804-0.412,2.93-0.53c1.125-0.117,2.545-0.204,4.262-0.266c1.714-0.059,3.996-0.088,6.836-0.088h23.438
			c2.84,0,5.088,0,6.747,0c1.655,0,2.956,0.061,3.905,0.177c0.946,0.119,1.714,0.237,2.31,0.354c0.59,0.118,1.241,0.237,1.952,0.354
			c4.143,1.061,7.426,3.124,9.854,6.188c2.425,3.066,3.639,6.66,3.639,10.785c0,2.828-0.562,5.511-1.686,8.044
			c-1.127,2.535-2.695,4.627-4.706,6.275c-1.776,1.534-3.789,2.625-6.036,3.272c-2.251,0.648-5.21,0.973-8.878,0.973H599.53v8.132
			h15.447c4.853,0,8.7,1.299,11.541,3.89c2.842,2.594,4.262,5.952,4.262,10.077c0,4.597-1.718,8.309-5.149,11.137
			c-1.54,1.181-3.168,1.977-4.883,2.388c-1.717,0.414-4.114,0.62-7.19,0.62H599.53v8.84H617.463z"/>
		<path fill="#3B97D3" d="M695.052,299.704c-6.275,0-12.134-0.769-17.577-2.298c-5.447-1.53-10.182-3.652-14.205-6.365
			c-4.025-2.709-7.163-5.861-9.41-9.458c-2.249-3.594-3.373-7.515-3.373-11.758c0-2.474,0.443-4.772,1.332-6.894
			c0.887-2.122,2.131-3.979,3.728-5.569c1.598-1.592,3.491-2.857,5.682-3.803c2.189-0.941,4.528-1.413,7.013-1.413
			c2.368,0,4.646,0.441,6.838,1.326c2.188,0.884,4.526,2.329,7.013,4.33c2.131,1.652,3.845,2.948,5.149,3.891
			c1.301,0.945,2.366,1.68,3.195,2.21c0.827,0.53,1.537,0.856,2.13,0.972c0.593,0.118,1.245,0.178,1.954,0.178
			c1.537,0,2.752-0.471,3.64-1.414c0.888-0.942,1.332-2.181,1.332-3.714c0-2.002-1.007-3.651-3.018-4.95
			c-0.24-0.116-0.506-0.266-0.8-0.441c-0.298-0.177-0.711-0.382-1.243-0.62c-0.532-0.233-1.243-0.529-2.131-0.884
			c-0.888-0.354-2.103-0.823-3.64-1.414c-1.66-0.589-3.257-1.149-4.794-1.68c-1.54-0.529-3.138-1.088-4.793-1.679
			c-17.165-6.011-25.747-17.208-25.747-33.593c0-5.772,1.065-11.019,3.196-15.733c2.131-4.714,5.088-8.78,8.878-12.201
			c3.787-3.416,8.372-6.067,13.762-7.954c5.385-1.885,11.273-2.829,17.666-2.829c5.325,0,10.299,0.68,14.915,2.033
			c4.615,1.356,8.639,3.182,12.073,5.481c3.432,2.297,6.125,5.01,8.079,8.132c1.953,3.125,2.929,6.515,2.929,10.166
			c0,4.716-1.421,8.574-4.261,11.579c-2.842,3.008-6.512,4.51-11.01,4.51c-2.724,0-5.267-0.5-7.634-1.502
			c-2.37-1-5.21-2.74-8.523-5.217c-2.014-1.648-3.611-2.768-4.793-3.358c-1.185-0.589-2.309-0.885-3.375-0.885
			c-1.303,0-2.396,0.441-3.283,1.326c-0.888,0.884-1.332,1.976-1.332,3.272c0,1.766,0.799,3.18,2.397,4.241
			c1.598,1.061,4.704,2.358,9.321,3.89c5.089,1.532,9.881,3.389,14.381,5.57c4.497,2.182,8.108,4.449,10.832,6.806
			c3.668,3.066,6.568,7.045,8.7,11.935c2.131,4.891,3.197,10.165,3.197,15.822c0,5.305-0.978,10.403-2.931,15.294
			c-1.953,4.892-4.706,9.165-8.256,12.817c-4.026,4.008-8.731,6.982-14.116,8.929C708.752,298.731,702.39,299.704,695.052,299.704z"
			/>
		<path fill="#3B97D3" d="M795.193,299.704c-6.274,0-12.135-0.769-17.578-2.298c-5.445-1.53-10.182-3.652-14.204-6.365
			c-4.025-2.709-7.164-5.861-9.411-9.458c-2.249-3.594-3.373-7.515-3.373-11.758c0-2.474,0.444-4.772,1.331-6.894
			c0.888-2.122,2.132-3.979,3.729-5.569c1.598-1.592,3.491-2.857,5.682-3.803c2.189-0.941,4.528-1.413,7.014-1.413
			c2.367,0,4.645,0.441,6.837,1.326c2.188,0.884,4.527,2.329,7.013,4.33c2.131,1.652,3.846,2.948,5.149,3.891
			c1.301,0.945,2.365,1.68,3.196,2.21c0.826,0.53,1.536,0.856,2.13,0.972c0.591,0.118,1.243,0.178,1.953,0.178
			c1.537,0,2.753-0.471,3.641-1.414c0.889-0.942,1.331-2.181,1.331-3.714c0-2.002-1.007-3.651-3.018-4.95
			c-0.238-0.116-0.507-0.266-0.8-0.441c-0.297-0.177-0.71-0.382-1.243-0.62c-0.532-0.233-1.241-0.529-2.131-0.884
			c-0.886-0.354-2.103-0.823-3.639-1.414c-1.659-0.589-3.257-1.149-4.795-1.68c-1.538-0.529-3.137-1.088-4.794-1.679
			c-17.165-6.011-25.746-17.208-25.746-33.593c0-5.772,1.066-11.019,3.197-15.733c2.131-4.714,5.088-8.78,8.877-12.201
			c3.788-3.416,8.373-6.067,13.762-7.954c5.385-1.885,11.274-2.829,17.666-2.829c5.326,0,10.299,0.68,14.915,2.033
			c4.617,1.356,8.639,3.182,12.073,5.481c3.433,2.297,6.125,5.01,8.079,8.132c1.953,3.125,2.929,6.515,2.929,10.166
			c0,4.716-1.42,8.574-4.261,11.579c-2.842,3.008-6.512,4.51-11.01,4.51c-2.723,0-5.267-0.5-7.634-1.502
			c-2.369-1-5.209-2.74-8.521-5.217c-2.015-1.648-3.612-2.768-4.795-3.358c-1.185-0.589-2.309-0.885-3.373-0.885
			c-1.305,0-2.397,0.441-3.285,1.326c-0.889,0.884-1.331,1.976-1.331,3.272c0,1.766,0.8,3.18,2.396,4.241
			c1.597,1.061,4.704,2.358,9.321,3.89c5.089,1.532,9.882,3.389,14.383,5.57c4.496,2.182,8.106,4.449,10.832,6.806
			c3.666,3.066,6.568,7.045,8.699,11.935c2.13,4.891,3.195,10.165,3.195,15.822c0,5.305-0.977,10.403-2.93,15.294
			c-1.953,4.892-4.706,9.165-8.257,12.817c-4.024,4.008-8.73,6.982-14.116,8.929C808.893,298.731,802.53,299.704,795.193,299.704z"
			/>
	</g>
	<g>
		<path fill="#3B97D3" d="M52.772,353.92c0,3.229-1.927,6.537-5.783,9.926c-2.624,2.261-5.542,4.009-8.755,5.246
			s-6.534,1.855-9.96,1.855c-3.909,0-7.586-0.737-11.031-2.21c-3.447-1.472-6.449-3.465-9.007-5.983
			c-2.559-2.517-4.571-5.489-6.037-8.916S0,346.771,0,342.914c0-3.909,0.745-7.576,2.239-11.005
			c1.492-3.426,3.518-6.412,6.077-8.955c2.558-2.543,5.56-4.552,9.006-6.025c3.446-1.472,7.123-2.209,11.032-2.209
			c3.266,0,6.426,0.547,9.479,1.64c3.052,1.094,5.863,2.706,8.434,4.839c4.338,3.465,6.506,6.982,6.506,10.554
			c0,1.229-0.229,2.38-0.682,3.451c-0.456,1.072-1.085,2.007-1.888,2.812c-0.804,0.803-1.741,1.433-2.812,1.887
			c-1.072,0.457-2.223,0.683-3.454,0.683c-1.072,0-2.116-0.2-3.132-0.603c-1.018-0.4-1.821-0.923-2.41-1.566l-2.57-2.811
			c-0.964-1.071-2.116-1.874-3.454-2.41c-1.339-0.533-2.731-0.803-4.176-0.803c-1.446,0-2.812,0.27-4.097,0.803
			c-1.285,0.536-2.41,1.272-3.374,2.21c-0.964,0.938-1.715,2.047-2.249,3.333c-0.536,1.285-0.804,2.65-0.804,4.097
			s0.268,2.798,0.804,4.056c0.534,1.259,1.285,2.37,2.249,3.334c0.963,0.963,2.074,1.714,3.333,2.248
			c1.257,0.536,2.61,0.804,4.056,0.804s2.852-0.308,4.217-0.924c1.365-0.614,2.583-1.485,3.654-2.61l1.848-1.928
			c0.749-0.75,1.673-1.365,2.771-1.848c1.097-0.481,2.209-0.723,3.333-0.723c1.177,0,2.302,0.241,3.374,0.723
			c1.071,0.482,2.008,1.125,2.812,1.929c0.803,0.803,1.446,1.727,1.928,2.771C52.532,351.71,52.772,352.795,52.772,353.92z"/>
		<path fill="#3B97D3" d="M57.511,342.512c0-3.855,0.735-7.47,2.209-10.843c1.472-3.374,3.48-6.318,6.023-8.836
			c2.543-2.516,5.529-4.499,8.957-5.944c3.426-1.445,7.095-2.169,11.004-2.169c3.908,0,7.577,0.737,11.004,2.209
			c3.426,1.474,6.426,3.468,8.996,5.985c2.571,2.517,4.591,5.488,6.065,8.915c1.472,3.428,2.209,7.068,2.209,10.924
			c0,3.856-0.737,7.499-2.209,10.924c-1.474,3.428-3.494,6.427-6.065,8.997c-2.57,2.57-5.57,4.592-8.996,6.063
			c-3.428,1.473-7.069,2.21-10.924,2.21c-3.963,0-7.658-0.737-11.084-2.21c-3.428-1.472-6.414-3.493-8.957-6.063
			c-2.543-2.57-4.552-5.583-6.023-9.037C58.246,350.184,57.511,346.477,57.511,342.512z M75.182,342.711
			c0,1.452,0.281,2.837,0.846,4.153c0.564,1.317,1.316,2.46,2.258,3.428c0.941,0.967,2.055,1.733,3.346,2.299
			c1.29,0.564,2.661,0.845,4.113,0.845c1.451,0,2.821-0.28,4.111-0.845c1.291-0.565,2.405-1.332,3.347-2.299
			c0.941-0.968,1.693-2.097,2.257-3.387c0.565-1.291,0.847-2.661,0.847-4.111c0-1.451-0.282-2.811-0.847-4.073
			c-0.564-1.263-1.316-2.365-2.257-3.307c-0.941-0.939-2.056-1.679-3.347-2.217c-1.29-0.536-2.66-0.806-4.111-0.806
			c-1.452,0-2.823,0.27-4.113,0.806c-1.291,0.538-2.405,1.277-3.346,2.217c-0.941,0.941-1.693,2.029-2.258,3.267
			C75.463,339.917,75.182,341.261,75.182,342.711z"/>
		<path fill="#3B97D3" d="M159.201,320.344c0.695-1.393,1.753-2.53,3.173-3.415c1.418-0.884,2.958-1.325,4.619-1.325
			c1.071,0,2.169,0.214,3.293,0.643c1.125,0.43,2.061,1.018,2.812,1.768c0.749,0.751,1.325,1.554,1.727,2.41
			c0.402,0.856,0.736,2.007,1.004,3.453l6.104,34.54c0.106,0.59,0.187,1.124,0.241,1.605c0.052,0.482,0.08,0.938,0.08,1.366
			c0,1.232-0.229,2.369-0.682,3.413c-0.457,1.045-1.072,1.942-1.849,2.69c-0.776,0.751-1.701,1.354-2.771,1.809
			c-1.072,0.454-2.196,0.682-3.374,0.682c-2.249,0-4.176-0.614-5.783-1.847c-1.606-1.231-2.598-2.863-2.972-4.9l-2.008-10.04
			l-3.454,9.479c-1.768,4.873-4.793,7.309-9.077,7.309c-2.196,0-4.016-0.574-5.462-1.727c-1.445-1.151-2.624-2.983-3.534-5.502
			l-3.534-9.559l-1.446,8.515c-0.429,2.57-1.433,4.592-3.012,6.064c-1.58,1.473-3.521,2.208-5.824,2.208
			c-2.624,0-4.766-0.895-6.426-2.69c-1.66-1.793-2.49-4.109-2.49-6.947c0-0.374,0.013-0.736,0.04-1.084
			c0.026-0.349,0.066-0.71,0.12-1.086l6.105-34.298c0.428-2.57,1.405-4.592,2.932-6.063c1.526-1.473,3.44-2.21,5.743-2.21
			c1.874,0,3.627,0.536,5.261,1.606c1.633,1.072,2.824,2.518,3.575,4.338l7.952,17.752L159.201,320.344z"/>
		<path fill="#3B97D3" d="M206.028,359.781c0,3.053-0.801,5.517-2.399,7.391c-1.599,1.876-3.731,2.811-6.396,2.811
			c-1.494,0-2.893-0.36-4.198-1.084c-1.308-0.723-2.36-1.699-3.16-2.932c-0.32-0.535-0.585-1.03-0.8-1.486
			c-0.213-0.453-0.372-0.964-0.479-1.525c-0.106-0.563-0.174-1.271-0.2-2.129c-0.027-0.855-0.04-1.954-0.04-3.294v-31.326
			c0-1.928,0.174-3.426,0.523-4.497c0.347-1.072,0.975-2.09,1.887-3.053c0.909-0.909,1.927-1.579,3.052-2.008
			c1.125-0.429,2.516-0.644,4.177-0.644h7.39c2.141,0,4.017,0.068,5.623,0.201c1.607,0.135,3.025,0.362,4.257,0.683
			c1.232,0.321,2.37,0.737,3.414,1.245c1.044,0.51,2.075,1.165,3.093,1.968c2.409,1.82,4.27,4.07,5.582,6.747
			c1.312,2.679,1.968,5.517,1.968,8.516c0,2.998-0.685,5.836-2.056,8.514s-3.291,4.954-5.762,6.827
			c-1.827,1.393-3.709,2.384-5.643,2.972c-1.935,0.591-4.217,0.884-6.851,0.884h-2.982V359.781z M206.028,338.175
			c2.171,0.107,3.704-0.054,4.6-0.481c0.896-0.429,1.345-1.258,1.345-2.49c0-0.91-0.38-1.607-1.142-2.089
			c-0.76-0.481-1.818-0.723-3.174-0.723h-1.629V338.175z"/>
		<path fill="#3B97D3" d="M252.615,347.091c0,1.928,0.421,3.441,1.265,4.539s2.056,1.646,3.635,1.646
			c1.579,0,2.791-0.521,3.633-1.565c0.844-1.045,1.266-2.503,1.266-4.379v-21.366c0-0.963,0.027-1.793,0.079-2.49
			c0.054-0.694,0.147-1.297,0.28-1.806c0.134-0.509,0.321-0.978,0.56-1.406c0.239-0.428,0.573-0.884,1.001-1.365
			c0.852-1.071,1.864-1.901,3.038-2.49c1.172-0.59,2.424-0.884,3.758-0.884c1.278,0,2.545,0.294,3.797,0.884
			c1.253,0.589,2.279,1.365,3.081,2.329c0.425,0.482,0.771,0.978,1.038,1.486c0.266,0.509,0.479,1.072,0.64,1.687
			c0.161,0.616,0.268,1.353,0.32,2.209c0.053,0.857,0.081,1.875,0.081,3.052v19.037c0,3.643-0.456,6.806-1.366,9.493
			c-0.911,2.688-2.329,5.133-4.257,7.338c-2.196,2.529-4.767,4.48-7.71,5.853c-2.947,1.369-6.025,2.057-9.238,2.057
			c-3.588,0-6.989-0.835-10.201-2.501c-3.213-1.668-5.892-3.954-8.033-6.859c-0.802-1.13-1.485-2.232-2.047-3.309
			c-0.563-1.075-1.019-2.219-1.366-3.429c-0.349-1.21-0.59-2.511-0.723-3.904c-0.135-1.392-0.201-2.971-0.201-4.738v-18.876
			c0-1.285,0.026-2.342,0.08-3.172c0.052-0.831,0.147-1.539,0.279-2.129c0.133-0.589,0.32-1.126,0.561-1.606
			c0.239-0.482,0.546-0.965,0.92-1.446c0.853-1.071,1.906-1.915,3.159-2.53c1.252-0.615,2.517-0.924,3.797-0.924
			c1.225,0,2.412,0.254,3.558,0.763c1.146,0.51,2.119,1.193,2.919,2.048c0.906,0.911,1.533,1.943,1.878,3.094
			c0.347,1.152,0.52,2.664,0.52,4.537V347.091z"/>
		<path fill="#3B97D3" d="M294.303,332.472c-1.554,0-2.851-0.188-3.896-0.562c-1.043-0.374-1.968-0.964-2.771-1.767
			c-1.66-1.768-2.49-3.721-2.49-5.864c0-1.552,0.441-3.023,1.325-4.418c0.883-1.392,1.967-2.381,3.252-2.972
			c0.483-0.213,0.91-0.374,1.285-0.481c0.374-0.106,0.884-0.188,1.527-0.241c0.643-0.053,1.486-0.093,2.53-0.121
			c1.044-0.026,2.45-0.04,4.217-0.04h17.833c1.231,0,2.195,0,2.891,0c0.696,0,1.231,0,1.607,0c0.373,0,0.654,0.014,0.843,0.04
			c0.187,0.028,0.414,0.068,0.683,0.121c2.141,0.269,3.882,1.152,5.221,2.65c1.337,1.501,2.008,3.293,2.008,5.383
			c0,1.178-0.255,2.329-0.763,3.453c-0.51,1.124-1.219,2.088-2.129,2.892c-1.393,1.285-3.668,1.928-6.828,1.928h-3.936v26.668
			c0,1.606-0.107,2.918-0.321,3.937c-0.215,1.018-0.616,1.98-1.205,2.891c-0.804,1.284-1.835,2.276-3.092,2.972
			c-1.259,0.696-2.665,1.044-4.218,1.044c-1.5,0-2.878-0.32-4.137-0.963c-1.259-0.643-2.317-1.553-3.173-2.731
			c-0.589-0.909-0.991-1.848-1.205-2.812c-0.214-0.963-0.321-2.354-0.321-4.175v-26.829H294.303z"/>
		<path fill="#3B97D3" d="M361.774,353.035c1.928,0,3.415,0.147,4.458,0.44c1.044,0.296,2.021,0.817,2.932,1.567
			c1.928,1.661,2.892,3.749,2.892,6.265c0,1.233-0.254,2.424-0.763,3.574c-0.51,1.152-1.219,2.103-2.129,2.853
			c-0.428,0.375-0.871,0.683-1.325,0.923c-0.455,0.241-0.951,0.431-1.486,0.563c-0.536,0.134-1.164,0.227-1.887,0.28
			c-0.723,0.055-1.594,0.08-2.611,0.08H348.12c-2.035,0-3.481-0.053-4.337-0.159c-0.857-0.108-1.66-0.295-2.41-0.563
			c-2.839-1.177-4.526-3.319-5.061-6.426c-0.054-0.268-0.107-0.522-0.161-0.763c-0.054-0.241-0.095-0.549-0.121-0.924
			c-0.027-0.374-0.041-0.83-0.041-1.365c0-0.589,0-1.339,0-2.249v-29.078c0-1.124,0.013-2.034,0.041-2.73
			c0.026-0.695,0.066-1.271,0.121-1.728c0.053-0.454,0.133-0.843,0.241-1.165c0.107-0.321,0.241-0.695,0.401-1.124
			c0.374-1.017,0.95-1.9,1.727-2.65s1.619-1.338,2.53-1.768c0.483-0.213,0.91-0.374,1.285-0.481
			c0.375-0.106,0.816-0.188,1.326-0.241c0.509-0.053,1.151-0.093,1.928-0.121c0.775-0.026,1.807-0.04,3.092-0.04h10.603
			c1.285,0,2.302,0,3.052,0c0.75,0,1.339,0.028,1.768,0.08c0.427,0.055,0.775,0.109,1.044,0.161
			c0.268,0.055,0.562,0.108,0.883,0.161c1.875,0.481,3.36,1.419,4.458,2.812c1.097,1.392,1.647,3.025,1.647,4.899
			c0,1.285-0.255,2.504-0.763,3.655c-0.51,1.152-1.219,2.102-2.129,2.851c-0.803,0.697-1.714,1.191-2.73,1.485
			c-1.018,0.296-2.357,0.442-4.017,0.442h-8.836v3.695h6.988c2.196,0,3.937,0.589,5.222,1.768c1.285,1.178,1.928,2.703,1.928,4.578
			c0,2.088-0.777,3.775-2.33,5.061c-0.696,0.536-1.433,0.896-2.208,1.084c-0.777,0.188-1.861,0.281-3.253,0.281h-6.346v4.017
			H361.774z"/>
		<path fill="#3B97D3" d="M417.679,355.605c0.589,0.911,1.017,1.86,1.285,2.851c0.268,0.991,0.402,1.942,0.402,2.852
			c0,1.233-0.229,2.369-0.683,3.413c-0.456,1.045-1.084,1.956-1.888,2.731c-0.803,0.777-1.741,1.395-2.812,1.849
			c-1.071,0.454-2.223,0.682-3.454,0.682c-3.213,0-5.651-1.365-7.309-4.096l-7.31-12.129v7.309c0,1.285-0.229,2.464-0.683,3.535
			c-0.456,1.071-1.072,2.008-1.847,2.811c-0.776,0.804-1.687,1.435-2.73,1.889c-1.045,0.454-2.183,0.682-3.414,0.682
			c-1.34,0-2.625-0.28-3.856-0.843c-1.232-0.562-2.249-1.352-3.052-2.369c-1.393-1.768-2.088-4.284-2.088-7.551v-33.014
			c0-1.928,0.214-3.493,0.643-4.698s1.178-2.263,2.25-3.174c1.017-0.909,2.075-1.525,3.173-1.847
			c1.096-0.321,2.717-0.482,4.859-0.482h7.39c2.195,0,3.882,0.068,5.061,0.201c1.178,0.135,2.356,0.336,3.534,0.603
			c2.089,0.59,3.99,1.474,5.703,2.65c1.714,1.178,3.186,2.584,4.418,4.217c1.232,1.635,2.195,3.441,2.892,5.423
			c0.695,1.981,1.044,4.043,1.044,6.185c0,2.57-0.441,4.914-1.325,7.027c-0.883,2.116-2.343,4.326-4.378,6.628L417.679,355.605z
			 M395.912,338.175h0.723h1.205c2.677,0.107,4.017-0.83,4.017-2.811c0-2.036-1.366-2.999-4.097-2.893c-0.214,0-0.481,0-0.802,0
			c-0.27,0-0.617-0.026-1.045-0.08V338.175z"/>
		<path fill="#3B97D3" d="M469.086,370.947c-2.84,0-5.49-0.35-7.953-1.045s-4.605-1.659-6.424-2.892
			c-1.822-1.23-3.242-2.663-4.258-4.297c-1.019-1.633-1.526-3.413-1.526-5.342c0-1.125,0.2-2.169,0.603-3.132
			c0.4-0.965,0.963-1.809,1.686-2.53c0.725-0.725,1.58-1.299,2.572-1.728c0.99-0.429,2.047-0.642,3.172-0.642
			c1.07,0,2.102,0.2,3.092,0.602s2.049,1.058,3.174,1.968c0.963,0.751,1.738,1.339,2.328,1.767c0.59,0.43,1.072,0.764,1.445,1.004
			c0.375,0.241,0.697,0.39,0.965,0.442c0.268,0.055,0.562,0.08,0.885,0.08c0.693,0,1.244-0.213,1.645-0.643
			c0.402-0.427,0.604-0.99,0.604-1.687c0-0.91-0.457-1.659-1.365-2.249c-0.109-0.053-0.229-0.12-0.361-0.2
			c-0.133-0.081-0.32-0.173-0.562-0.282c-0.24-0.106-0.562-0.241-0.963-0.401c-0.402-0.16-0.951-0.375-1.646-0.643
			c-0.752-0.267-1.475-0.522-2.17-0.763c-0.697-0.241-1.42-0.495-2.168-0.764c-7.766-2.731-11.647-7.817-11.647-15.262
			c0-2.623,0.481-5.006,1.444-7.148c0.965-2.142,2.303-3.988,4.018-5.543c1.713-1.552,3.787-2.757,6.225-3.614
			c2.436-0.855,5.1-1.285,7.992-1.285c2.41,0,4.658,0.31,6.748,0.924c2.088,0.617,3.908,1.445,5.461,2.49s2.771,2.277,3.654,3.695
			c0.885,1.419,1.326,2.959,1.326,4.618c0,2.143-0.643,3.896-1.928,5.262s-2.945,2.048-4.979,2.048
			c-1.234,0-2.385-0.228-3.457-0.683c-1.068-0.454-2.354-1.245-3.854-2.369c-0.91-0.75-1.635-1.259-2.17-1.526
			s-1.043-0.402-1.523-0.402c-0.592,0-1.086,0.201-1.486,0.603c-0.402,0.401-0.604,0.898-0.604,1.485
			c0,0.805,0.361,1.446,1.084,1.929s2.129,1.072,4.217,1.768c2.301,0.696,4.471,1.539,6.508,2.53
			c2.033,0.99,3.666,2.022,4.898,3.092c1.66,1.394,2.971,3.2,3.936,5.422c0.965,2.224,1.447,4.619,1.447,7.189
			c0,2.409-0.443,4.727-1.326,6.947c-0.885,2.224-2.129,4.165-3.734,5.824c-1.822,1.82-3.951,3.172-6.387,4.057
			C475.283,370.506,472.406,370.947,469.086,370.947z"/>
		<path fill="#3B97D3" d="M547,353.92c0,3.229-1.928,6.537-5.783,9.926c-2.625,2.261-5.543,4.009-8.756,5.246
			s-6.535,1.855-9.959,1.855c-3.91,0-7.588-0.737-11.033-2.21c-3.447-1.472-6.447-3.465-9.006-5.983
			c-2.561-2.517-4.572-5.489-6.039-8.916c-1.463-3.427-2.197-7.067-2.197-10.924c0-3.909,0.746-7.576,2.238-11.005
			c1.492-3.426,3.518-6.412,6.078-8.955c2.557-2.543,5.559-4.552,9.006-6.025c3.445-1.472,7.123-2.209,11.033-2.209
			c3.264,0,6.424,0.547,9.477,1.64c3.055,1.094,5.863,2.706,8.434,4.839c4.338,3.465,6.508,6.982,6.508,10.554
			c0,1.229-0.229,2.38-0.682,3.451c-0.457,1.072-1.088,2.007-1.889,2.812c-0.803,0.803-1.74,1.433-2.812,1.887
			c-1.072,0.457-2.223,0.683-3.453,0.683c-1.072,0-2.117-0.2-3.133-0.603c-1.018-0.4-1.822-0.923-2.408-1.566l-2.57-2.811
			c-0.967-1.071-2.117-1.874-3.457-2.41c-1.336-0.533-2.729-0.803-4.174-0.803c-1.447,0-2.812,0.27-4.098,0.803
			c-1.285,0.536-2.41,1.272-3.373,2.21c-0.965,0.938-1.717,2.047-2.252,3.333c-0.533,1.285-0.801,2.65-0.801,4.097
			s0.268,2.798,0.801,4.056c0.535,1.259,1.287,2.37,2.252,3.334c0.963,0.963,2.074,1.714,3.332,2.248
			c1.258,0.536,2.611,0.804,4.057,0.804c1.447,0,2.852-0.308,4.217-0.924c1.365-0.614,2.584-1.485,3.654-2.61l1.848-1.928
			c0.75-0.75,1.674-1.365,2.771-1.848c1.098-0.481,2.209-0.723,3.334-0.723c1.176,0,2.303,0.241,3.373,0.723
			c1.072,0.482,2.008,1.125,2.811,1.929c0.805,0.803,1.447,1.727,1.93,2.771C546.758,351.71,547,352.795,547,353.92z"/>
		<path fill="#3B97D3" d="M570.936,359.781c0,1.716-0.174,3.12-0.523,4.218c-0.348,1.098-0.922,2.102-1.725,3.012
			c-0.859,0.911-1.877,1.635-3.053,2.169c-1.18,0.535-2.357,0.803-3.535,0.803c-1.232,0-2.449-0.254-3.654-0.762
			c-1.205-0.509-2.182-1.192-2.932-2.049c-0.857-0.91-1.447-1.899-1.766-2.972c-0.322-1.071-0.484-2.543-0.484-4.419v-33.173
			c0-1.124,0.027-2.089,0.082-2.893c0.051-0.802,0.16-1.498,0.32-2.087c0.16-0.59,0.387-1.139,0.682-1.647s0.686-1.004,1.166-1.486
			c1.658-1.927,3.826-2.892,6.506-2.892c2.678,0,4.871,0.938,6.588,2.811c0.908,1.019,1.523,2.089,1.846,3.215
			c0.322,1.124,0.482,2.783,0.482,4.979V359.781z"/>
		<path fill="#3B97D3" d="M604.992,353.035c1.928,0,3.414,0.147,4.459,0.44c1.043,0.296,2.02,0.817,2.93,1.567
			c1.93,1.661,2.893,3.749,2.893,6.265c0,1.233-0.254,2.424-0.762,3.574c-0.512,1.152-1.219,2.103-2.131,2.853
			c-0.428,0.375-0.871,0.683-1.322,0.923c-0.457,0.241-0.953,0.431-1.486,0.563c-0.537,0.134-1.166,0.227-1.889,0.28
			c-0.723,0.055-1.594,0.08-2.611,0.08h-13.736c-2.035,0-3.48-0.053-4.336-0.159c-0.857-0.108-1.66-0.295-2.41-0.563
			c-2.84-1.177-4.527-3.319-5.059-6.426c-0.055-0.268-0.109-0.522-0.162-0.763c-0.055-0.241-0.094-0.549-0.121-0.924
			c-0.027-0.374-0.039-0.83-0.039-1.365c0-0.589,0-1.339,0-2.249v-29.078c0-1.124,0.012-2.034,0.039-2.73
			c0.027-0.695,0.066-1.271,0.121-1.728c0.053-0.454,0.133-0.843,0.242-1.165c0.105-0.321,0.238-0.695,0.4-1.124
			c0.373-1.017,0.951-1.9,1.727-2.65c0.777-0.75,1.619-1.338,2.531-1.768c0.482-0.213,0.908-0.374,1.285-0.481
			c0.373-0.106,0.814-0.188,1.324-0.241c0.51-0.053,1.15-0.093,1.928-0.121c0.775-0.026,1.809-0.04,3.094-0.04h10.602
			c1.285,0,2.303,0,3.053,0c0.748,0,1.338,0.028,1.768,0.08c0.428,0.055,0.775,0.109,1.045,0.161
			c0.268,0.055,0.561,0.108,0.883,0.161c1.875,0.481,3.357,1.419,4.457,2.812c1.098,1.392,1.646,3.025,1.646,4.899
			c0,1.285-0.256,2.504-0.762,3.655c-0.512,1.152-1.219,2.102-2.131,2.851c-0.803,0.697-1.713,1.191-2.729,1.485
			c-1.018,0.296-2.357,0.442-4.018,0.442h-8.834v3.695h6.986c2.197,0,3.936,0.589,5.221,1.768c1.285,1.178,1.93,2.703,1.93,4.578
			c0,2.088-0.779,3.775-2.332,5.061c-0.695,0.536-1.432,0.896-2.207,1.084c-0.777,0.188-1.861,0.281-3.252,0.281h-6.346v4.017
			H604.992z"/>
		<path fill="#3B97D3" d="M651.338,326.447c0-1.768,0.107-3.146,0.322-4.137c0.213-0.989,0.641-1.94,1.285-2.852
			c0.748-1.177,1.779-2.114,3.092-2.811c1.311-0.696,2.691-1.045,4.137-1.045c1.338,0,2.582,0.28,3.734,0.844
			c1.15,0.562,2.156,1.353,3.014,2.369c0.748,0.964,1.285,1.969,1.605,3.013c0.322,1.045,0.482,2.397,0.482,4.056v32.772
			c0,2.142-0.135,3.763-0.402,4.859c-0.27,1.098-0.781,2.156-1.531,3.174c-0.807,1.071-1.814,1.887-3.02,2.449
			c-1.207,0.562-2.512,0.843-3.906,0.843c-2.846,0-5.182-1.204-7.008-3.614l-14.014-17.913v11.246c0,1.768-0.146,3.147-0.439,4.137
			c-0.295,0.992-0.814,1.968-1.559,2.933c-0.855,1.018-1.867,1.807-3.039,2.369c-1.174,0.562-2.424,0.843-3.758,0.843
			c-1.387,0-2.693-0.308-3.918-0.923c-1.227-0.615-2.268-1.458-3.119-2.53c-0.746-1.017-1.24-2.034-1.48-3.054
			c-0.24-1.016-0.357-2.516-0.357-4.497v-33.896c0-2.893,0.842-5.193,2.529-6.908c1.688-1.712,3.922-2.57,6.707-2.57
			c1.285,0,2.451,0.28,3.494,0.844c1.045,0.562,2.074,1.459,3.092,2.691l14.057,17.269V326.447z"/>
		<path fill="#3B97D3" d="M683.789,332.472c-1.553,0-2.85-0.188-3.896-0.562c-1.043-0.374-1.967-0.964-2.77-1.767
			c-1.66-1.768-2.49-3.721-2.49-5.864c0-1.552,0.441-3.023,1.326-4.418c0.883-1.392,1.967-2.381,3.252-2.972
			c0.482-0.213,0.91-0.374,1.285-0.481c0.375-0.106,0.883-0.188,1.527-0.241c0.641-0.053,1.486-0.093,2.529-0.121
			c1.045-0.026,2.451-0.04,4.217-0.04h17.832c1.23,0,2.195,0,2.893,0c0.695,0,1.23,0,1.605,0c0.373,0,0.654,0.014,0.844,0.04
			c0.188,0.028,0.414,0.068,0.682,0.121c2.143,0.269,3.883,1.152,5.221,2.65c1.338,1.501,2.01,3.293,2.01,5.383
			c0,1.178-0.256,2.329-0.764,3.453c-0.51,1.124-1.219,2.088-2.129,2.892c-1.393,1.285-3.668,1.928-6.828,1.928h-3.936v26.668
			c0,1.606-0.107,2.918-0.32,3.937c-0.215,1.018-0.617,1.98-1.205,2.891c-0.805,1.284-1.836,2.276-3.094,2.972
			c-1.258,0.696-2.664,1.044-4.217,1.044c-1.498,0-2.879-0.32-4.135-0.963c-1.26-0.643-2.318-1.553-3.174-2.731
			c-0.59-0.909-0.992-1.848-1.205-2.812c-0.213-0.963-0.32-2.354-0.32-4.175v-26.829H683.789z"/>
		<path fill="#3B97D3" d="M743.148,359.781c0,1.716-0.174,3.12-0.523,4.218c-0.348,1.098-0.922,2.102-1.725,3.012
			c-0.859,0.911-1.877,1.635-3.053,2.169c-1.18,0.535-2.357,0.803-3.535,0.803c-1.232,0-2.449-0.254-3.654-0.762
			c-1.205-0.509-2.182-1.192-2.932-2.049c-0.857-0.91-1.447-1.899-1.766-2.972c-0.322-1.071-0.484-2.543-0.484-4.419v-33.173
			c0-1.124,0.027-2.089,0.082-2.893c0.051-0.802,0.16-1.498,0.32-2.087c0.16-0.59,0.387-1.139,0.684-1.647
			c0.293-0.509,0.684-1.004,1.164-1.486c1.658-1.927,3.826-2.892,6.506-2.892c2.678,0,4.871,0.938,6.588,2.811
			c0.908,1.019,1.523,2.089,1.846,3.215c0.322,1.124,0.482,2.783,0.482,4.979V359.781z"/>
		<path fill="#3B97D3" d="M770.057,370.947c-2.838,0-5.49-0.35-7.953-1.045c-2.465-0.695-4.605-1.659-6.424-2.892
			c-1.822-1.23-3.242-2.663-4.258-4.297c-1.018-1.633-1.527-3.413-1.527-5.342c0-1.125,0.201-2.169,0.604-3.132
			c0.4-0.965,0.963-1.809,1.686-2.53c0.725-0.725,1.578-1.299,2.57-1.728s2.049-0.642,3.174-0.642c1.07,0,2.1,0.2,3.092,0.602
			s2.049,1.058,3.174,1.968c0.963,0.751,1.74,1.339,2.328,1.767c0.59,0.43,1.07,0.764,1.447,1.004
			c0.373,0.241,0.693,0.39,0.963,0.442c0.268,0.055,0.562,0.08,0.883,0.08c0.697,0,1.246-0.213,1.648-0.643
			c0.402-0.427,0.602-0.99,0.602-1.687c0-0.91-0.455-1.659-1.365-2.249c-0.107-0.053-0.229-0.12-0.361-0.2
			c-0.135-0.081-0.322-0.173-0.562-0.282c-0.242-0.106-0.562-0.241-0.965-0.401s-0.951-0.375-1.646-0.643
			c-0.75-0.267-1.473-0.522-2.168-0.763c-0.695-0.241-1.42-0.495-2.168-0.764c-7.766-2.731-11.648-7.817-11.648-15.262
			c0-2.623,0.482-5.006,1.447-7.148c0.963-2.142,2.301-3.988,4.016-5.543c1.713-1.552,3.787-2.757,6.225-3.614
			c2.436-0.855,5.102-1.285,7.992-1.285c2.41,0,4.66,0.31,6.748,0.924c2.088,0.617,3.908,1.445,5.463,2.49
			c1.553,1.045,2.77,2.277,3.654,3.695c0.883,1.419,1.324,2.959,1.324,4.618c0,2.143-0.643,3.896-1.928,5.262
			s-2.945,2.048-4.98,2.048c-1.232,0-2.383-0.228-3.453-0.683c-1.072-0.454-2.357-1.245-3.855-2.369
			c-0.912-0.75-1.633-1.259-2.168-1.526c-0.537-0.268-1.045-0.402-1.527-0.402c-0.59,0-1.084,0.201-1.486,0.603
			c-0.4,0.401-0.602,0.898-0.602,1.485c0,0.805,0.359,1.446,1.084,1.929c0.723,0.482,2.129,1.072,4.217,1.768
			c2.303,0.696,4.471,1.539,6.506,2.53c2.035,0.99,3.668,2.022,4.9,3.092c1.658,1.394,2.973,3.2,3.936,5.422
			c0.963,2.224,1.445,4.619,1.445,7.189c0,2.409-0.441,4.727-1.324,6.947c-0.883,2.224-2.129,4.165-3.736,5.824
			c-1.82,1.82-3.949,3.172-6.385,4.057C776.254,370.506,773.377,370.947,770.057,370.947z"/>
		<path fill="#3B97D3" d="M802.107,332.472c-1.553,0-2.852-0.188-3.896-0.562c-1.045-0.374-1.967-0.964-2.77-1.767
			c-1.662-1.768-2.49-3.721-2.49-5.864c0-1.552,0.439-3.023,1.326-4.418c0.883-1.392,1.967-2.381,3.252-2.972
			c0.482-0.213,0.908-0.374,1.285-0.481c0.373-0.106,0.883-0.188,1.525-0.241c0.643-0.053,1.486-0.093,2.531-0.121
			c1.043-0.026,2.449-0.04,4.215-0.04h17.832c1.232,0,2.197,0,2.893,0c0.697,0,1.232,0,1.607,0c0.373,0,0.654,0.014,0.844,0.04
			c0.186,0.028,0.414,0.068,0.682,0.121c2.141,0.269,3.881,1.152,5.221,2.65c1.338,1.501,2.01,3.293,2.01,5.383
			c0,1.178-0.256,2.329-0.764,3.453c-0.51,1.124-1.221,2.088-2.129,2.892c-1.395,1.285-3.668,1.928-6.828,1.928h-3.936v26.668
			c0,1.606-0.107,2.918-0.32,3.937c-0.215,1.018-0.617,1.98-1.205,2.891c-0.805,1.284-1.836,2.276-3.094,2.972
			c-1.26,0.696-2.664,1.044-4.217,1.044c-1.5,0-2.879-0.32-4.137-0.963s-2.316-1.553-3.174-2.731
			c-0.588-0.909-0.99-1.848-1.203-2.812c-0.215-0.963-0.32-2.354-0.32-4.175v-26.829H802.107z"/>
	</g>
</g>
</svg>
