<?xml version="1.0" encoding="utf-8"?>
<!-- Generator: Adobe Illustrator 18.0.0, SVG Export Plug-In . SVG Version: 6.00 Build 0)  -->
<!DOCTYPE svg PUBLIC "-//W3C//DTD SVG 1.1//EN" "http://www.w3.org/Graphics/SVG/1.1/DTD/svg11.dtd">
<svg version="1.1" id="Layer_1" xmlns="http://www.w3.org/2000/svg" xmlns:xlink="http://www.w3.org/1999/xlink" x="0px" y="0px"
	 viewBox="0 0 394.5 212.25" enable-background="new 0 0 394.5 212.25" xml:space="preserve">
<path fill="none" d="M200.25,1"/>
<path fill="none" d="M200.25,212"/>
<path fill="none" d="M221.719,36.845"/>
<path fill="none" d="M212.781,68"/>
<g>
	<g id="XMLID_1_">
		<g>
			<polygon fill="#FFFFFF" points="200.25,2 200.25,48.98 190.25,33 179.52,37.85 			"/>
			<polygon fill="#FFFFFF" points="97.25,48 97.25,98.79 64.33,104 			"/>
			<polygon fill="#269A86" points="322.21,86.74 394.25,213 297.25,213 297.25,101.6 305.25,107.5 			"/>
			<polygon fill="#D1D3D4" points="322.21,86.74 305.25,107.5 297.25,101.6 297.25,43 			"/>
			<polygon fill="#45B29D" points="297.25,101.6 297.25,213 200.25,213 260.76,106.95 264.25,100.84 284.25,92 			"/>
			<polygon fill="#FFFFFF" points="297.25,43 297.25,101.6 284.25,92 264.25,100.84 			"/>
			<polygon fill="#269A86" points="221.45,38.78 260.76,106.95 200.25,213 200.25,48.98 212.78,69 			"/>
			<polygon fill="#D1D3D4" points="200.25,2 221.45,38.78 212.78,69 200.25,48.98 			"/>
			<polygon fill="#45B29D" points="200.25,48.98 200.25,213 78.25,213 97.45,179.79 135.44,114.09 179.52,37.85 190.25,33 			"/>
			<polygon fill="#269A86" points="135.44,114.09 97.45,179.79 97.25,179.67 97.25,98.79 102.25,98 116.12,80.66 			"/>
			<polygon fill="#D1D3D4" points="97.25,48 116.25,80.5 116.12,80.66 			"/>
			<polygon fill="#D1D3D4" points="97.25,48 116.12,80.66 102.25,98 97.25,98.79 			"/>
			<polygon fill="#45B29D" points="97.45,179.79 78.25,213 0.25,213 64.33,104 97.25,98.79 97.25,179.67 			"/>
		</g>
		<g>
		</g>
	</g>
</g>
</svg>
