<?xml version="1.0" encoding="UTF-8" standalone="no"?>
<svg
   xmlns:dc="http://purl.org/dc/elements/1.1/"
   xmlns:cc="http://creativecommons.org/ns#"
   xmlns:rdf="http://www.w3.org/1999/02/22-rdf-syntax-ns#"
   xmlns:svg="http://www.w3.org/2000/svg"
   xmlns="http://www.w3.org/2000/svg"
   id="svg10"
   preserveAspectRatio="xMidYMid meet"
   viewBox="0 0 452.000000 563.000000"
   height="563.000000pt"
   width="452.000000pt"
   version="1.0">
  <defs
     id="defs14" />
  <metadata
     id="metadata2">
Created by potrace 1.15, written by Peter Selinger 2001-2017
<rdf:RDF>
  <cc:Work
     rdf:about="">
    <dc:format>image/svg+xml</dc:format>
    <dc:type
       rdf:resource="http://purl.org/dc/dcmitype/StillImage" />
    <dc:title></dc:title>
  </cc:Work>
</rdf:RDF>
</metadata>
  <g
     style="fill:#ffffff"
     id="g8"
     stroke="none"
     fill="#000000"
     transform="translate(0.000000,563.000000) scale(0.100000,-0.100000)">
    <path
       style="fill:#ffffff"
       id="path4"
       d="M2055 5619 c-99 -16 -231 -61 -328 -111 -400 -206 -637 -594 -637 -1044 l0 -94 -423 0 c-469 0 -489 -2 -569 -63 -63 -49 -98 -122 -98 -209 0 -38 45 -659 100 -1381 134 -1761 139 -1821 155 -1896 71 -335 312 -620 631 -748 176 -71 100 -67 1326 -70 1088 -3 1109 -3 1209 17 329 67 596 273 736 567 86 181 79 121 223 1841 72 856 132 1586 132 1622 2 93 -23 160 -86 226 -88 94 -90 94 -584 94 l-419 0 -7 117 c-17 276 -86 483 -224 670 -178 240 -424 395 -726 457 -82 17 -322 20 -411 5z m335 -434 c142 -33 266 -100 360 -195 141 -143 209 -310 210 -517 l0 -93 -715 0 -715 0 0 73 c0 142 37 285 102 395 41 70 178 209 238 243 176 97 360 131 520 94z m41 -1525 c243 -19 462 -71 619 -149 180 -89 336 -251 397 -411 41 -107 46 -135 46 -255 0 -100 -4 -131 -23 -184 -74 -209 -248 -369 -462 -426 -73 -19 -88 -35 -35 -35 45 -1 179 -42 262 -81 153 -72 290 -188 360 -304 56 -95 77 -180 77 -315 -1 -279 -107 -476 -337 -626 -231 -150 -519 -211 -875 -185 -207 16 -390 69 -390 115 0 20 97 295 110 309 3 4 37 -4 75 -18 103 -39 195 -55 313 -55 127 1 198 16 283 61 130 70 210 187 232 340 24 165 -17 286 -135 403 -119 117 -275 179 -487 194 -88 6 -96 9 -94 27 11 119 26 231 33 251 8 20 16 24 48 24 112 0 261 49 353 116 108 80 153 179 152 336 -1 86 -4 105 -30 160 -79 169 -273 291 -536 338 -97 18 -347 15 -427 -4 -103 -24 -182 -52 -251 -86 -134 -68 -204 -131 -250 -225 -24 -50 -29 -73 -29 -136 0 -66 4 -81 29 -121 45 -71 117 -117 220 -139 59 -12 57 -3 36 -148 -24 -169 -15 -154 -93 -146 -257 25 -451 163 -523 374 -15 42 -20 83 -20 166 1 212 76 375 244 531 186 173 451 276 772 303 146 12 186 12 336 1z m-46 -538 c40 -8 40 -8 38 -52 -1 -25 -7 -76 -13 -115 -6 -38 -20 -135 -31 -215 -11 -80 -25 -172 -30 -205 -5 -33 -14 -91 -19 -130 -5 -38 -14 -99 -20 -135 -6 -36 -14 -96 -20 -135 -5 -38 -21 -146 -35 -240 -14 -93 -30 -201 -35 -240 -70 -483 -129 -648 -283 -797 -112 -109 -225 -157 -388 -165 -254 -13 -423 90 -495 303 -25 73 -20 222 9 311 71 216 267 407 574 562 45 22 85 46 88 52 4 6 11 43 16 83 16 132 28 231 33 266 3 19 12 89 21 155 8 66 20 152 25 190 5 39 14 108 20 155 6 47 16 125 23 174 l13 90 54 28 c89 45 191 67 310 67 58 0 123 -3 145 -7z" />
    <path
       style="fill:#ffffff"
       id="path6"
       d="M1580 1513 c-161 -106 -250 -222 -250 -328 0 -159 170 -185 256 -40 35 60 51 116 74 262 22 133 24 163 13 163 -5 -1 -46 -26 -93 -57z" />
  </g>
</svg>
