<?xml version="1.0" encoding="utf-8"?>
<!-- Generator: Adobe Illustrator 19.2.1, SVG Export Plug-In . SVG Version: 6.00 Build 0)  -->
<svg version="1.1" id="Layer_1" xmlns="http://www.w3.org/2000/svg" xmlns:xlink="http://www.w3.org/1999/xlink" x="0px" y="0px"
	 viewBox="0 0 188 52" style="enable-background:new 0 0 188 52;" xml:space="preserve">
<style type="text/css">
	.st0{fill:#23A3DC;}
</style>
<g>
	<g>
		<path d="M9.4,37.4V10.1h5.2v27.4L9.4,37.4L9.4,37.4z"/>
		<path d="M18.5,27.5c0-5.6,3.9-10.4,10.5-10.4s10.5,4.8,10.5,10.4c0,5.7-3.9,10.4-10.5,10.4S18.5,33.2,18.5,27.5z M34,27.5
			c0-3.1-1.8-5.7-5.1-5.7s-5,2.7-5,5.7c0,3.1,1.8,5.8,5,5.8S34,30.6,34,27.5z"/>
		<path d="M42.9,42.5l2.3-3.8c1.6,1.8,3.7,2.5,6.2,2.5s5.5-1.1,5.5-5v-2c-1.6,2-3.7,3.1-6.1,3.1c-5,0-8.7-3.5-8.7-10.1
			c0-6.5,3.7-10.1,8.7-10.1c2.4,0,4.5,1,6.1,3v-2.5h5.3v18.5c0,7.5-5.8,9.4-10.7,9.4C48,45.5,45.4,44.7,42.9,42.5z M56.9,30.4V24
			c-0.9-1.3-2.7-2.3-4.5-2.3c-3,0-5,2.1-5,5.5s2.1,5.5,5,5.5C54.1,32.7,56,31.7,56.9,30.4z"/>
		<path d="M66.7,15.2c0-1.7,1.4-3.1,3.1-3.1s3.1,1.4,3.1,3.1s-1.4,3.1-3.1,3.1C68.2,18.3,66.7,16.9,66.7,15.2z M67.3,37.4
			c0,0,0-15.9,0-16.8c1.7,0.7,3.5,0.7,5.2,0c0,1.5,0,16.8,0,16.8H67.3z"/>
		<path d="M76.4,27.5c0-6.1,4.4-10.4,10.5-10.4c4.1,0,6.5,1.8,7.8,3.6l-3.4,3.2c-0.9-1.4-2.4-2.1-4.2-2.1c-3.2,0-5.4,2.3-5.4,5.7
			s2.2,5.8,5.4,5.8c1.8,0,3.2-0.8,4.2-2.1l3.4,3.2c-1.3,1.8-3.8,3.6-7.8,3.6C80.8,37.9,76.4,33.6,76.4,27.5z"/>
		<path d="M111.9,37.4v-2.5c-1.6,2-3.7,3-6.1,3c-5,0-8.8-3.8-8.8-10.4c0-6.5,3.7-10.4,8.8-10.4c2.3,0,4.6,1,6.1,3v-10h5.3v27.4
			L111.9,37.4L111.9,37.4z M111.9,31v-7c-0.9-1.3-2.7-2.3-4.5-2.3c-3,0-5,2.3-5,5.8c0,3.4,2.1,5.7,5,5.7
			C109.1,33.3,111,32.3,111.9,31z"/>
		<path d="M122.3,37.4V17.6h5.2v2.7c1.4-1.8,3.9-3.2,6.3-3.2v5.1c-0.4-0.1-0.9-0.1-1.4-0.1c-1.7,0-4,1-4.9,2.3v13.1L122.3,37.4
			L122.3,37.4z"/>
		<path d="M135.8,27.5c0-5.6,3.9-10.4,10.5-10.4s10.5,4.8,10.5,10.4c0,5.7-3.9,10.4-10.5,10.4S135.8,33.2,135.8,27.5z M151.3,27.5
			c0-3.1-1.8-5.7-5.1-5.7s-5,2.7-5,5.7c0,3.1,1.8,5.8,5,5.8S151.3,30.6,151.3,27.5z"/>
		<path d="M165.8,34.9V45h-5.2V17.6h5.2v2.5c1.5-1.9,3.7-3,6.1-3c5.1,0,8.8,3.8,8.8,10.4s-3.7,10.4-8.8,10.4
			C169.6,37.9,167.4,36.9,165.8,34.9z M175.3,27.5c0-3.4-2-5.7-5-5.7c-1.7,0-3.6,1-4.5,2.3v7c0.9,1.2,2.8,2.3,4.5,2.3
			C173.3,33.3,175.3,31,175.3,27.5z"/>
	</g>
	<path class="st0" d="M76.7,12.4c-1.6-2.5-3.8-4.2-6.8-4.2s-5.1,1.8-6.8,4.2c-0.7-0.5-1.4-1.1-2.1-1.6c0.7-1.4,1.6-2.6,2.8-3.6
		c1.4-1.2,3.1-1.9,5-2.1c4.6-0.4,7.9,1.6,10,5.6C78.1,11.2,77.4,11.9,76.7,12.4z"/>
</g>
<path class="st0" d="M136.1,37.8c2.5,3.2,5.6,5.2,10.2,5.2c4.5,0,7.7-2,10.1-5.2c1.1,0.6,2.1,1.2,3.2,1.8c-1.1,1.8-2.4,3.3-4.2,4.6
	c-2.1,1.6-4.7,2.5-7.5,2.7c-7,0.5-11.8-2.1-15-7.3C134,39,135,38.4,136.1,37.8z"/>
</svg>
