<?xml version="1.0" encoding="UTF-8" standalone="no"?>
<svg
   xmlns:dc="http://purl.org/dc/elements/1.1/"
   xmlns:cc="http://creativecommons.org/ns#"
   xmlns:rdf="http://www.w3.org/1999/02/22-rdf-syntax-ns#"
   xmlns:svg="http://www.w3.org/2000/svg"
   xmlns="http://www.w3.org/2000/svg"
   xml:space="preserve"
   style="enable-background:new 0 0 188 52;"
   viewBox="0 0 188 52"
   y="0px"
   x="0px"
   id="Layer_1"
   version="1.1"><metadata
     id="metadata35"><rdf:RDF><cc:Work
         rdf:about=""><dc:format>image/svg+xml</dc:format><dc:type
           rdf:resource="http://purl.org/dc/dcmitype/StillImage" /><dc:title></dc:title></cc:Work></rdf:RDF></metadata><defs
     id="defs33" /><style
     id="style2"
     type="text/css">
	.st0{fill:#23A3DC;}
</style><g
     transform="translate(1.4056686,42.764389)"
     style="fill:#ffffff"
     id="g26"><g
       style="fill:#ffffff"
       id="g22"><path
         style="fill:#ffffff"
         id="path10"
         d="m 66.348583,-25.564389 c 0,-1.7 1.4,-3.1 3.1,-3.1 1.7,0 3.1,1.4 3.1,3.1 0,1.7 -1.4,3.1 -3.1,3.1 -1.6,0 -3.1,-1.4 -3.1,-3.1 z m 0.6,22.2000003 c 0,0 0,-15.9000003 0,-16.8000003 1.7,0.7 3.5,0.7 5.2,0 0,1.5 0,16.8000003 0,16.8000003 z" /><path
         style="fill:#ffffff"
         id="path18"
         d="m 79.44858,-13.264389 c 0,-5.6 3.9,-10.4 10.5,-10.4 6.6,0 10.5,4.8 10.5,10.4 0,5.7000003 -3.9,10.4000003 -10.5,10.4000003 -6.6,0 -10.5,-4.7 -10.5,-10.4000003 z m 15.5,0 c 0,-3.1 -1.8,-5.7 -5.1,-5.7 -3.3,0 -5,2.7 -5,5.7 0,3.1 1.8,5.8000003 5,5.8000003 3.2,0 5.1,-2.7000003 5.1,-5.8000003 z" /></g><path
       style="fill:#ffffff"
       id="path24"
       d="m 76.348583,-28.364389 c -1.6,-2.5 -3.8,-4.2 -6.8,-4.2 -3,0 -5.1,1.8 -6.8,4.2 -0.7,-0.5 -1.4,-1.1 -2.1,-1.6 0.7,-1.4 1.6,-2.6 2.8,-3.6 1.4,-1.2 3.1,-1.9 5,-2.1 4.6,-0.4 7.9,1.6 10,5.6 -0.7,0.5 -1.4,1.2 -2.1,1.7 z"
       class="st0" /></g><path
     style="fill:#ffffff"
     id="path28"
     d="m 81.154249,39.8 c 2.5,3.2 5.6,5.2 10.2,5.2 4.5,0 7.7,-2 10.100001,-5.2 1.1,0.6 2.1,1.2 3.2,1.8 -1.1,1.8 -2.4,3.3 -4.2,4.6 -2.100001,1.6 -4.700001,2.5 -7.500001,2.7 -7,0.5 -11.8,-2.1 -15,-7.3 1.1,-0.6 2.1,-1.2 3.2,-1.8 z"
     class="st0" /></svg>