<svg id="riisBlue" xmlns="http://www.w3.org/2000/svg" viewBox="0 0 201.557 91.797"><defs><style>.cls-1{fill:#0193d7;}</style></defs><title>riis_blue_logo</title><path class="cls-1" d="M109.7,90.012a2.478,2.478,0,0,1-2.25,1.781H89.677a1.323,1.323,0,0,1-1.3-1.781L104.9,27.826a2.474,2.474,0,0,1,2.248-1.781h17.771a1.321,1.321,0,0,1,1.3,1.781Z" transform="translate(0.021 0.002)"/><path class="cls-1" d="M128.27,20.076a2.474,2.474,0,0,1-2.248,1.777H108.253a1.322,1.322,0,0,1-1.3-1.777l4.861-18.3A2.476,2.476,0,0,1,114.059,0h17.768a1.32,1.32,0,0,1,1.307,1.775Z" transform="translate(0.021 0.002)"/><path class="cls-1" d="M81.708,90.012a2.477,2.477,0,0,1-2.246,1.781H61.692a1.322,1.322,0,0,1-1.307-1.781L76.9,27.826a2.48,2.48,0,0,1,2.25-1.781H96.925a1.324,1.324,0,0,1,1.3,1.781Z" transform="translate(0.021 0.002)"/><path class="cls-1" d="M100.286,20.076a2.473,2.473,0,0,1-2.246,1.777H80.266a1.319,1.319,0,0,1-1.3-1.777l4.863-18.3A2.471,2.471,0,0,1,86.071,0H103.84a1.32,1.32,0,0,1,1.307,1.775Z" transform="translate(0.021 0.002)"/><path class="cls-1" d="M30.979,53.7a9.932,9.932,0,0,1,9-7.1L65.52,46.726a2.472,2.472,0,0,0,2.291-1.717l4.572-17.174A1.317,1.317,0,0,0,71,26.125l-25.594.037c-15.678,0-31.82,12.756-35.986,28.435L0.063,90.012a1.32,1.32,0,0,0,1.3,1.781H19.139a2.475,2.475,0,0,0,2.244-1.781Z" transform="translate(0.021 0.002)"/><path class="cls-1" d="M144.489,71.125c1.6-5.74,6.809-25.709,6.773-25.592C154.13,34.758,165.227,25.984,176,25.984l24.146-.01a1.321,1.321,0,0,1,1.307,1.779l-4.529,17.129a2.484,2.484,0,0,1-2.25,1.775L172.462,46.6c-1.6,5.732-6.984,25.713-6.951,25.59-2.865,10.781-13.963,19.547-24.74,19.547l-26.047.043a1.32,1.32,0,0,1-1.3-1.777l4.533-17.057a2.475,2.475,0,0,1,2.246-1.781Z" transform="translate(0.021 0.002)"/></svg>